<svg width="101" height="28" viewBox="0 0 101 28" fill="none" xmlns="http://www.w3.org/2000/svg">
<path fill-rule="evenodd" clip-rule="evenodd" d="M21.3921 6.27414C21.1085 6.59118 20.7747 6.90822 20.4243 7.25864L19.0393 8.57688H23.0608V10.2122H16.5864V9.36115L18.8391 6.64124C19.2563 6.22408 19.6067 5.85697 19.857 5.53993C20.1073 5.23957 20.4076 4.87247 20.5411 4.63886C20.708 4.37187 21.559 3.55423 21.4756 2.53635C21.1085 1.40167 20.0572 1.30155 19.4398 1.38498C18.8057 1.40167 18.0715 2.25268 17.9547 2.98689C17.9547 2.98689 16.8033 2.82003 16.553 2.70322C16.5697 2.38618 17.1204 1.00119 18.1883 0.383791C18.7056 0.150179 19.0393 0.0333751 19.64 0.0333751C20.1073 0.0333751 20.5244 0.10012 20.9082 0.216925C21.292 0.333731 21.6091 0.517282 21.876 0.750894C22.143 0.984505 22.5936 1.26818 22.7271 1.6186C22.944 2.06913 23.1108 2.53635 23.1108 3.00358C23.1609 4.03814 22.2765 5.05602 22.1097 5.323C21.9094 5.65673 21.6758 5.97378 21.3921 6.27414ZM13.8832 28C6.20739 28 0 21.7759 0 14.1168C0 6.441 6.22408 0.233613 13.8832 0.233613V5.13945C8.92729 5.13945 4.90584 9.16091 4.90584 14.1168C4.90584 19.0727 8.92729 23.1108 13.8832 23.1108C17.8212 23.1108 21.1585 20.5745 22.3766 17.0536C19.9738 17.0536 16.5697 17.0369 16.5697 17.0369V11.8975C16.5697 11.8975 27.0656 11.8975 27.5995 11.8975C27.7163 12.615 27.7831 13.3659 27.7831 14.1168C27.7664 21.7926 21.559 28 13.8832 28ZM32.4386 0H33.3731V27.7664H32.4386V0ZM46.0048 20.5077C45.2038 20.9917 44.2026 21.242 43.0346 21.242C41.8164 21.242 40.7986 21.0417 40.0143 20.6246C39.2133 20.2074 38.6961 19.64 38.4291 18.9058C38.1788 18.1716 38.0453 17.0703 38.0453 15.6019V11.2134C38.0453 10.1287 38.0787 9.32777 38.1621 8.77712C38.2455 8.24315 38.4791 7.70918 38.8796 7.20858C39.2801 6.70799 39.8141 6.30751 40.5149 6.02384C41.2157 5.74017 42.0167 5.58999 42.9178 5.58999C44.1526 5.58999 45.1704 5.80691 45.9714 6.25745C46.7723 6.70799 47.2896 7.25864 47.5566 7.9261C47.8069 8.59356 47.857 8.39333 47.857 9.795V10.9631L44.4529 10.913V9.89512C44.4529 9.12753 44.3695 8.64362 44.1859 8.44339C44.0024 8.25983 43.6186 8.15971 43.0346 8.15971C42.3504 8.15971 41.9332 8.27652 41.7497 8.51013C41.5661 8.74374 41.4827 9.24434 41.4827 10.0119V16.8701C41.4827 17.6043 41.5661 18.0882 41.7497 18.3218C41.9332 18.5554 42.3337 18.6555 42.9845 18.6555C43.6019 18.6555 43.9857 18.5387 44.1859 18.3218C44.3695 18.0882 44.4696 17.7878 44.4696 16.9535L44.4529 15.8689H47.8737V16.1025C47.8737 17.6543 47.8236 18.1549 47.59 18.789C47.323 19.4398 46.8057 20.0238 46.0048 20.5077ZM55.733 9.56139C55.733 9.09416 55.4994 8.54351 55.0489 8.39333C54.5983 8.24315 54.0143 8.1764 52.8129 8.1764V12.4315C53.9809 12.4315 54.565 12.3647 55.0155 12.2479C55.4827 12.1311 55.7163 11.0465 55.7163 10.379V9.56139H55.733ZM55.733 16.2861C55.733 15.4851 55.5661 15.0012 55.2324 14.801C54.8987 14.6174 54.2479 14.5173 52.8296 14.5173V21.0083H49.4756L49.5256 5.92372H52.5459C54.565 5.92372 55.9333 5.99047 56.6508 6.14065C57.3683 6.29082 57.9523 6.64124 58.4029 7.22527C58.8534 7.8093 59.087 8.74374 59.087 10.0286C59.087 11.1967 58.8868 12.2479 58.5864 12.6484C58.2694 13.0489 57.652 13.2992 56.7342 13.3826C57.5685 13.5828 58.1359 13.8331 58.4195 14.1502C58.7032 14.4672 58.8868 14.7676 58.9535 15.0346C59.0203 15.3015 59.1037 15.7521 59.1037 16.9702V20.9249L55.7664 21.0083V16.2861H55.733ZM67.6806 9.795C67.6806 9.09416 67.5638 8.66031 67.3468 8.46007C67.1299 8.25983 66.6627 8.1764 65.9785 8.1764C65.3945 8.1764 64.944 8.25983 64.6269 8.41001C64.3099 8.56019 64.1597 9.02742 64.1597 9.795V16.77C64.1597 17.6377 64.2598 18.1716 64.4601 18.3719C64.6603 18.5721 65.1442 18.6722 65.8784 18.6722C66.646 18.6722 67.1299 18.5554 67.3468 18.3218C67.5638 18.0882 67.6639 17.5375 67.6639 16.6532V9.795H67.6806ZM70.3004 19.6234C69.8832 20.1406 69.2992 20.5411 68.5816 20.8248C67.8641 21.1085 67.0131 21.242 66.0453 21.242C65.1275 21.242 64.3099 21.1085 63.5757 20.8415C62.8415 20.5745 62.2574 20.1907 61.8236 19.6567C61.3731 19.1395 61.1228 18.5554 61.0393 17.938C60.9559 17.3206 60.9058 16.236 60.9058 14.6841V12.1144C60.9058 10.6126 60.9392 9.54469 61.0226 8.91061C61.1061 8.27652 61.3564 7.70918 61.7902 7.1919C62.2241 6.67461 62.7914 6.27413 63.5089 5.99046C64.2265 5.70679 65.0775 5.5733 66.0453 5.5733C66.963 5.5733 67.7807 5.7068 68.5149 5.97378C69.2491 6.24077 69.8331 6.62455 70.267 7.15852C70.7008 7.6758 70.9678 8.25983 71.0512 8.87724C71.1347 9.49464 71.1847 10.5793 71.1847 12.1144V14.7008C71.1847 16.2026 71.1514 17.2706 71.0679 17.9046C70.9845 18.5387 70.7342 19.1061 70.3004 19.6234ZM82.7485 20.9249C82.2646 18.6222 81.1299 12.9654 80.7461 10.0119C80.5793 11.2801 79.2443 16.9368 78.6269 20.9249H74.9559L72.1025 5.90703H75.323L76.2408 11.1466L76.9082 17.3707C77.0584 14.7509 78.3933 10.1454 79.0274 5.90703H82.7652C82.8152 6.34088 83.4493 7.99285 83.6996 10.8629L84.6341 17.2706C84.8844 13.6329 85.7354 9.37783 86.3027 5.90703H89.2896L86.2193 20.9249H82.7485ZM96.8486 10.2455C96.8486 9.57807 96.7986 9.14422 96.6984 8.94398C96.5983 8.76043 96.348 8.61025 95.9642 8.52682C95.5805 8.44339 94.8796 8.39333 93.8284 8.39333V18.4219C95.2133 18.4219 96.0477 18.3051 96.3814 18.0882C96.6984 17.8713 96.8653 17.2539 96.8653 16.2527V10.2455H96.8486ZM99.9023 19.1728C99.7688 19.6234 99.5185 19.9905 99.1681 20.2408C98.8176 20.4911 98.4005 20.6746 97.8832 20.7747C97.3826 20.8748 96.8486 20.9249 95.8141 20.9249H90.4243V5.90703H93.6281C95.6973 5.90703 96.8653 5.99046 97.5828 6.17402C98.317 6.34088 98.8677 6.62455 99.2515 7.02503C99.6353 7.42551 99.8689 7.85936 99.969 8.34327C100.069 8.82717 100.103 9.77831 100.103 11.1967V16.4529C100.119 17.8045 100.052 18.7056 99.9023 19.1728Z" fill="#F0492D"/>
</svg>
