<svg width="64" height="64" viewBox="0 0 64 64" fill="none" xmlns="http://www.w3.org/2000/svg">
<g id="partners-icon-technology">
<path id="Fill 1" fill-rule="evenodd" clip-rule="evenodd" d="M46 17.9999V23.9999H52V11.9999H40V17.9999H46Z" fill="#00E6C3"/>
<path id="Fill 2" fill-rule="evenodd" clip-rule="evenodd" d="M18 46V40H12V52H24V46H18Z" fill="#00E6C3"/>
<path id="Fill 3" fill-rule="evenodd" clip-rule="evenodd" d="M40 40H24V46H46V24H40V40Z" fill="#EAE8ED"/>
<path id="Fill 4" fill-rule="evenodd" clip-rule="evenodd" d="M52 24.0004V52.0004H24V64.0004H64V24.0004H52Z" fill="#EAE8ED"/>
<path id="Fill 5" fill-rule="evenodd" clip-rule="evenodd" d="M52 24H46V46H24V52H52V24Z" fill="#00D1B5"/>
<path id="Fill 6" fill-rule="evenodd" clip-rule="evenodd" d="M24 24H40V18H18V40H24V24Z" fill="#EAE8ED"/>
<path id="Fill 7" fill-rule="evenodd" clip-rule="evenodd" d="M0 0V40H12V12H40V0H0Z" fill="#EAE8ED"/>
<path id="Fill 8" fill-rule="evenodd" clip-rule="evenodd" d="M18 17.9999H40V11.9999H12V39.9999H18V17.9999Z" fill="#00D1B5"/>
<path id="Fill 9" fill-rule="evenodd" clip-rule="evenodd" d="M24 40H40V24H24V40Z" fill="#D6D3DC"/>
</g>
</svg>
