
<svg width="491px" height="680px" viewBox="0 0 491 680" version="1.1" xmlns="http://www.w3.org/2000/svg" xmlns:xlink="http://www.w3.org/1999/xlink">
    <!-- Generator: Sketch 51.1 (57501) - http://www.bohemiancoding.com/sketch -->
    <desc>Created with Sketch.</desc>
    <defs>
        <polygon id="path-1" points="0.0001 0.903 1087.2 0.903 1087.2 6.303 0.0001 6.303"></polygon>
        <polygon id="path-3" points="0.0001 0.6862 1087.2 0.6862 1087.2 6.0862 0.0001 6.0862"></polygon>
        <polygon id="path-5" points="0.0001 0.4689 1087.2 0.4689 1087.2 5.8689 0.0001 5.8689"></polygon>
        <polygon id="path-7" points="0.0001 0.2511 1087.2 0.2511 1087.2 5.6511 0.0001 5.6511"></polygon>
        <polygon id="path-9" points="0.0001 0.0343 1087.2 0.0343 1087.2 5.4343 0.0001 5.4343"></polygon>
        <polygon id="path-11" points="0.0001 0.8175 1087.2 0.8175 1087.2 6.2165 0.0001 6.2165"></polygon>
        <polygon id="path-13" points="0.0001 0.5998 1087.2 0.5998 1087.2 5.9998 0.0001 5.9998"></polygon>
    </defs>
    <g id="Website" stroke="none" stroke-width="1" fill="none" fill-rule="evenodd">
        <g id="About-Page" transform="translate(-949.000000, 0.000000)">
            <g id="::-header" transform="translate(-2.000000, 0.000000)">
                <g id="Group-5" transform="translate(30.000000, 0.000000)">
                    <rect id="Rectangle-6" fill="#13236E" fill-rule="nonzero" x="921" y="0" width="523" height="680"></rect>
                    <g id="Oval-2-+-Oval-2-Copy-Mask">
                        <g id="dots" transform="translate(1248.500000, 318.000000) rotate(90.000000) translate(-1248.500000, -318.000000) translate(704.500000, 43.500000)">
                            <g id="Group-9" transform="translate(0.000000, 135.662000)">
                                <mask id="mask-2" fill="white">
                                    <use xlink:href="#path-1"></use>
                                </mask>
                                <g id="Clip-8"></g>
                                <path d="M1012.3801,0.903 C1010.8891,0.903 1009.6801,2.112 1009.6801,3.603 C1009.6801,5.094 1010.8891,6.303 1012.3801,6.303 C1013.8711,6.303 1015.0801,5.094 1015.0801,3.603 C1015.0801,2.112 1013.8711,0.903 1012.3801,0.903 M1084.5001,0.903 C1083.0091,0.903 1081.8001,2.112 1081.8001,3.603 C1081.8001,5.094 1083.0091,6.303 1084.5001,6.303 C1085.9911,6.303 1087.2001,5.094 1087.2001,3.603 C1087.2001,2.112 1085.9911,0.903 1084.5001,0.903 M940.2601,0.903 C938.7691,0.903 937.5601,2.112 937.5601,3.603 C937.5601,5.094 938.7691,6.303 940.2601,6.303 C941.7511,6.303 942.9601,5.094 942.9601,3.603 C942.9601,2.112 941.7511,0.903 940.2601,0.903 M868.1401,0.903 C866.6491,0.903 865.4401,2.112 865.4401,3.603 C865.4401,5.094 866.6491,6.303 868.1401,6.303 C869.6311,6.303 870.8401,5.094 870.8401,3.603 C870.8401,2.112 869.6311,0.903 868.1401,0.903 M796.0201,0.903 C794.5281,0.903 793.3201,2.112 793.3201,3.603 C793.3201,5.094 794.5281,6.303 796.0201,6.303 C797.5111,6.303 798.7201,5.094 798.7201,3.603 C798.7201,2.112 797.5111,0.903 796.0201,0.903 M723.9001,0.903 C722.4081,0.903 721.2001,2.112 721.2001,3.603 C721.2001,5.094 722.4081,6.303 723.9001,6.303 C725.3911,6.303 726.6001,5.094 726.6001,3.603 C726.6001,2.112 725.3911,0.903 723.9001,0.903 M651.7801,0.903 C650.2891,0.903 649.0801,2.112 649.0801,3.603 C649.0801,5.094 650.2891,6.303 651.7801,6.303 C653.2721,6.303 654.4801,5.094 654.4801,3.603 C654.4801,2.112 653.2721,0.903 651.7801,0.903 M579.6601,0.903 C578.1691,0.903 576.9601,2.112 576.9601,3.603 C576.9601,5.094 578.1691,6.303 579.6601,6.303 C581.1511,6.303 582.3591,5.094 582.3591,3.603 C582.3591,2.112 581.1511,0.903 579.6601,0.903 M507.5401,0.903 C506.0491,0.903 504.8401,2.112 504.8401,3.603 C504.8401,5.094 506.0491,6.303 507.5401,6.303 C509.0311,6.303 510.2401,5.094 510.2401,3.603 C510.2401,2.112 509.0311,0.903 507.5401,0.903 M435.4201,0.903 C433.9291,0.903 432.7201,2.112 432.7201,3.603 C432.7201,5.094 433.9291,6.303 435.4201,6.303 C436.9111,6.303 438.1201,5.094 438.1201,3.603 C438.1201,2.112 436.9111,0.903 435.4201,0.903 M363.3001,0.903 C361.8091,0.903 360.6001,2.112 360.6001,3.603 C360.6001,5.094 361.8091,6.303 363.3001,6.303 C364.7911,6.303 366.0001,5.094 366.0001,3.603 C366.0001,2.112 364.7911,0.903 363.3001,0.903 M291.1801,0.903 C289.6891,0.903 288.4801,2.112 288.4801,3.603 C288.4801,5.094 289.6891,6.303 291.1801,6.303 C292.6711,6.303 293.8801,5.094 293.8801,3.603 C293.8801,2.112 292.6711,0.903 291.1801,0.903 M219.0601,0.903 C217.5691,0.903 216.3601,2.112 216.3601,3.603 C216.3601,5.094 217.5691,6.303 219.0601,6.303 C220.5511,6.303 221.7601,5.094 221.7601,3.603 C221.7601,2.112 220.5511,0.903 219.0601,0.903 M146.9401,0.903 C145.4491,0.903 144.2401,2.112 144.2401,3.603 C144.2401,5.094 145.4491,6.303 146.9401,6.303 C148.4311,6.303 149.6401,5.094 149.6401,3.603 C149.6401,2.112 148.4311,0.903 146.9401,0.903 M74.8201,0.903 C73.3291,0.903 72.1201,2.112 72.1201,3.603 C72.1201,5.094 73.3291,6.303 74.8201,6.303 C76.3111,6.303 77.5201,5.094 77.5201,3.603 C77.5201,2.112 76.3111,0.903 74.8201,0.903 M5.4001,3.603 C5.4001,5.094 4.1911,6.303 2.7001,6.303 C1.2091,6.303 0.0001,5.094 0.0001,3.603 C0.0001,2.112 1.2091,0.903 2.7001,0.903 C4.1911,0.903 5.4001,2.112 5.4001,3.603" id="Fill-7" fill="#FFFFFF" mask="url(#mask-2)"></path>
                            </g>
                            <g id="Group-12" transform="translate(0.000000, 203.662000)">
                                <mask id="mask-4" fill="white">
                                    <use xlink:href="#path-3"></use>
                                </mask>
                                <g id="Clip-11"></g>
                                <path d="M1012.3801,0.6862 C1010.8891,0.6862 1009.6801,1.8942 1009.6801,3.3862 C1009.6801,4.8772 1010.8891,6.0862 1012.3801,6.0862 C1013.8711,6.0862 1015.0801,4.8772 1015.0801,3.3862 C1015.0801,1.8942 1013.8711,0.6862 1012.3801,0.6862 M1084.5001,0.6862 C1083.0091,0.6862 1081.8001,1.8942 1081.8001,3.3862 C1081.8001,4.8772 1083.0091,6.0862 1084.5001,6.0862 C1085.9911,6.0862 1087.2001,4.8772 1087.2001,3.3862 C1087.2001,1.8942 1085.9911,0.6862 1084.5001,0.6862 M940.2601,0.6862 C938.7691,0.6862 937.5601,1.8942 937.5601,3.3862 C937.5601,4.8772 938.7691,6.0862 940.2601,6.0862 C941.7511,6.0862 942.9601,4.8772 942.9601,3.3862 C942.9601,1.8942 941.7511,0.6862 940.2601,0.6862 M868.1401,0.6862 C866.6491,0.6862 865.4401,1.8942 865.4401,3.3862 C865.4401,4.8772 866.6491,6.0862 868.1401,6.0862 C869.6311,6.0862 870.8401,4.8772 870.8401,3.3862 C870.8401,1.8942 869.6311,0.6862 868.1401,0.6862 M796.0201,0.6862 C794.5281,0.6862 793.3201,1.8942 793.3201,3.3862 C793.3201,4.8772 794.5281,6.0862 796.0201,6.0862 C797.5111,6.0862 798.7201,4.8772 798.7201,3.3862 C798.7201,1.8942 797.5111,0.6862 796.0201,0.6862 M723.9001,0.6862 C722.4081,0.6862 721.2001,1.8942 721.2001,3.3862 C721.2001,4.8772 722.4081,6.0862 723.9001,6.0862 C725.3911,6.0862 726.6001,4.8772 726.6001,3.3862 C726.6001,1.8942 725.3911,0.6862 723.9001,0.6862 M651.7801,0.6862 C650.2891,0.6862 649.0801,1.8942 649.0801,3.3862 C649.0801,4.8772 650.2891,6.0862 651.7801,6.0862 C653.2721,6.0862 654.4801,4.8772 654.4801,3.3862 C654.4801,1.8942 653.2721,0.6862 651.7801,0.6862 M579.6601,0.6862 C578.1691,0.6862 576.9601,1.8942 576.9601,3.3862 C576.9601,4.8772 578.1691,6.0862 579.6601,6.0862 C581.1511,6.0862 582.3591,4.8772 582.3591,3.3862 C582.3591,1.8942 581.1511,0.6862 579.6601,0.6862 M507.5401,0.6862 C506.0491,0.6862 504.8401,1.8942 504.8401,3.3862 C504.8401,4.8772 506.0491,6.0862 507.5401,6.0862 C509.0311,6.0862 510.2401,4.8772 510.2401,3.3862 C510.2401,1.8942 509.0311,0.6862 507.5401,0.6862 M435.4201,0.6862 C433.9291,0.6862 432.7201,1.8942 432.7201,3.3862 C432.7201,4.8772 433.9291,6.0862 435.4201,6.0862 C436.9111,6.0862 438.1201,4.8772 438.1201,3.3862 C438.1201,1.8942 436.9111,0.6862 435.4201,0.6862 M363.3001,0.6862 C361.8091,0.6862 360.6001,1.8942 360.6001,3.3862 C360.6001,4.8772 361.8091,6.0862 363.3001,6.0862 C364.7911,6.0862 366.0001,4.8772 366.0001,3.3862 C366.0001,1.8942 364.7911,0.6862 363.3001,0.6862 M291.1801,0.6862 C289.6891,0.6862 288.4801,1.8942 288.4801,3.3862 C288.4801,4.8772 289.6891,6.0862 291.1801,6.0862 C292.6711,6.0862 293.8801,4.8772 293.8801,3.3862 C293.8801,1.8942 292.6711,0.6862 291.1801,0.6862 M219.0601,0.6862 C217.5691,0.6862 216.3601,1.8942 216.3601,3.3862 C216.3601,4.8772 217.5691,6.0862 219.0601,6.0862 C220.5511,6.0862 221.7601,4.8772 221.7601,3.3862 C221.7601,1.8942 220.5511,0.6862 219.0601,0.6862 M146.9401,0.6862 C145.4491,0.6862 144.2401,1.8942 144.2401,3.3862 C144.2401,4.8772 145.4491,6.0862 146.9401,6.0862 C148.4311,6.0862 149.6401,4.8772 149.6401,3.3862 C149.6401,1.8942 148.4311,0.6862 146.9401,0.6862 M74.8201,0.6862 C73.3291,0.6862 72.1201,1.8942 72.1201,3.3862 C72.1201,4.8772 73.3291,6.0862 74.8201,6.0862 C76.3111,6.0862 77.5201,4.8772 77.5201,3.3862 C77.5201,1.8942 76.3111,0.6862 74.8201,0.6862 M5.4001,3.3862 C5.4001,4.8772 4.1911,6.0862 2.7001,6.0862 C1.2091,6.0862 0.0001,4.8772 0.0001,3.3862 C0.0001,1.8942 1.2091,0.6862 2.7001,0.6862 C4.1911,0.6862 5.4001,1.8942 5.4001,3.3862" id="Fill-10" fill="#FFFFFF" mask="url(#mask-4)"></path>
                            </g>
                            <g id="Group-15" transform="translate(0.000000, 271.662000)">
                                <mask id="mask-6" fill="white">
                                    <use xlink:href="#path-5"></use>
                                </mask>
                                <g id="Clip-14"></g>
                                <path d="M1012.3801,0.4689 C1010.8891,0.4689 1009.6801,1.6779 1009.6801,3.1689 C1009.6801,4.6599 1010.8891,5.8689 1012.3801,5.8689 C1013.8711,5.8689 1015.0801,4.6599 1015.0801,3.1689 C1015.0801,1.6779 1013.8711,0.4689 1012.3801,0.4689 M1084.5001,0.4689 C1083.0091,0.4689 1081.8001,1.6779 1081.8001,3.1689 C1081.8001,4.6599 1083.0091,5.8689 1084.5001,5.8689 C1085.9911,5.8689 1087.2001,4.6599 1087.2001,3.1689 C1087.2001,1.6779 1085.9911,0.4689 1084.5001,0.4689 M940.2601,0.4689 C938.7691,0.4689 937.5601,1.6769 937.5601,3.1689 C937.5601,4.6599 938.7691,5.8689 940.2601,5.8689 C941.7511,5.8689 942.9601,4.6599 942.9601,3.1689 C942.9601,1.6769 941.7511,0.4689 940.2601,0.4689 M868.1401,0.4689 C866.6491,0.4689 865.4401,1.6769 865.4401,3.1689 C865.4401,4.6599 866.6491,5.8689 868.1401,5.8689 C869.6311,5.8689 870.8401,4.6599 870.8401,3.1689 C870.8401,1.6769 869.6311,0.4689 868.1401,0.4689 M796.0201,0.4689 C794.5281,0.4689 793.3201,1.6769 793.3201,3.1689 C793.3201,4.6599 794.5281,5.8679 796.0201,5.8679 C797.5111,5.8679 798.7201,4.6599 798.7201,3.1689 C798.7201,1.6769 797.5111,0.4689 796.0201,0.4689 M723.9001,0.4689 C722.4081,0.4689 721.2001,1.6769 721.2001,3.1689 C721.2001,4.6599 722.4081,5.8679 723.9001,5.8679 C725.3911,5.8679 726.6001,4.6599 726.6001,3.1689 C726.6001,1.6769 725.3911,0.4689 723.9001,0.4689 M651.7801,0.4689 C650.2891,0.4689 649.0801,1.6769 649.0801,3.1689 C649.0801,4.6599 650.2891,5.8679 651.7801,5.8679 C653.2721,5.8679 654.4801,4.6599 654.4801,3.1689 C654.4801,1.6769 653.2721,0.4689 651.7801,0.4689 M579.6601,0.4689 C578.1691,0.4689 576.9601,1.6769 576.9601,3.1689 C576.9601,4.6599 578.1691,5.8679 579.6601,5.8679 C581.1511,5.8679 582.3591,4.6599 582.3591,3.1689 C582.3591,1.6769 581.1511,0.4689 579.6601,0.4689 M507.5401,0.4689 C506.0491,0.4689 504.8401,1.6769 504.8401,3.1689 C504.8401,4.6599 506.0491,5.8679 507.5401,5.8679 C509.0311,5.8679 510.2401,4.6599 510.2401,3.1689 C510.2401,1.6769 509.0311,0.4689 507.5401,0.4689 M435.4201,0.4689 C433.9291,0.4689 432.7201,1.6769 432.7201,3.1689 C432.7201,4.6599 433.9291,5.8679 435.4201,5.8679 C436.9111,5.8679 438.1201,4.6599 438.1201,3.1689 C438.1201,1.6769 436.9111,0.4689 435.4201,0.4689 M363.3001,0.4689 C361.8091,0.4689 360.6001,1.6769 360.6001,3.1689 C360.6001,4.6599 361.8091,5.8679 363.3001,5.8679 C364.7911,5.8679 366.0001,4.6599 366.0001,3.1689 C366.0001,1.6769 364.7911,0.4689 363.3001,0.4689 M291.1801,0.4689 C289.6891,0.4689 288.4801,1.6769 288.4801,3.1689 C288.4801,4.6599 289.6891,5.8679 291.1801,5.8679 C292.6711,5.8679 293.8801,4.6599 293.8801,3.1689 C293.8801,1.6769 292.6711,0.4689 291.1801,0.4689 M219.0601,0.4689 C217.5691,0.4689 216.3601,1.6769 216.3601,3.1689 C216.3601,4.6599 217.5691,5.8679 219.0601,5.8679 C220.5511,5.8679 221.7601,4.6599 221.7601,3.1689 C221.7601,1.6769 220.5511,0.4689 219.0601,0.4689 M146.9401,0.4689 C145.4491,0.4689 144.2401,1.6769 144.2401,3.1689 C144.2401,4.6599 145.4491,5.8679 146.9401,5.8679 C148.4311,5.8679 149.6401,4.6599 149.6401,3.1689 C149.6401,1.6769 148.4311,0.4689 146.9401,0.4689 M74.8201,0.4689 C73.3291,0.4689 72.1201,1.6769 72.1201,3.1689 C72.1201,4.6599 73.3291,5.8679 74.8201,5.8679 C76.3111,5.8679 77.5201,4.6599 77.5201,3.1689 C77.5201,1.6769 76.3111,0.4689 74.8201,0.4689 M5.4001,3.1689 C5.4001,4.6599 4.1911,5.8679 2.7001,5.8679 C1.2091,5.8679 0.0001,4.6599 0.0001,3.1689 C0.0001,1.6769 1.2091,0.4689 2.7001,0.4689 C4.1911,0.4689 5.4001,1.6769 5.4001,3.1689" id="Fill-13" fill="#FFFFFF" mask="url(#mask-6)"></path>
                            </g>
                            <g id="Group-18" transform="translate(0.000000, 339.662000)">
                                <mask id="mask-8" fill="white">
                                    <use xlink:href="#path-7"></use>
                                </mask>
                                <g id="Clip-17"></g>
                                <path d="M1012.3801,0.2511 C1010.8891,0.2511 1009.6801,1.4601 1009.6801,2.9511 C1009.6801,4.4421 1010.8891,5.6511 1012.3801,5.6511 C1013.8711,5.6511 1015.0801,4.4421 1015.0801,2.9511 C1015.0801,1.4601 1013.8711,0.2511 1012.3801,0.2511 M1084.5001,0.2521 C1083.0091,0.2521 1081.8001,1.4601 1081.8001,2.9511 C1081.8001,4.4421 1083.0091,5.6511 1084.5001,5.6511 C1085.9911,5.6511 1087.2001,4.4421 1087.2001,2.9511 C1087.2001,1.4601 1085.9911,0.2521 1084.5001,0.2521 M940.2601,0.2511 C938.7691,0.2511 937.5601,1.4601 937.5601,2.9511 C937.5601,4.4421 938.7691,5.6511 940.2601,5.6511 C941.7511,5.6511 942.9601,4.4421 942.9601,2.9511 C942.9601,1.4601 941.7511,0.2511 940.2601,0.2511 M868.1401,0.2511 C866.6491,0.2511 865.4401,1.4601 865.4401,2.9511 C865.4401,4.4421 866.6491,5.6511 868.1401,5.6511 C869.6311,5.6511 870.8401,4.4421 870.8401,2.9511 C870.8401,1.4601 869.6311,0.2511 868.1401,0.2511 M796.0201,0.2511 C794.5281,0.2511 793.3201,1.4601 793.3201,2.9511 C793.3201,4.4421 794.5281,5.6511 796.0201,5.6511 C797.5111,5.6511 798.7201,4.4421 798.7201,2.9511 C798.7201,1.4601 797.5111,0.2511 796.0201,0.2511 M723.9001,0.2511 C722.4081,0.2511 721.2001,1.4601 721.2001,2.9511 C721.2001,4.4421 722.4081,5.6511 723.9001,5.6511 C725.3911,5.6511 726.6001,4.4421 726.6001,2.9511 C726.6001,1.4601 725.3911,0.2511 723.9001,0.2511 M651.7801,0.2511 C650.2891,0.2511 649.0801,1.4601 649.0801,2.9511 C649.0801,4.4421 650.2891,5.6511 651.7801,5.6511 C653.2721,5.6511 654.4801,4.4421 654.4801,2.9511 C654.4801,1.4601 653.2721,0.2511 651.7801,0.2511 M579.6601,0.2511 C578.1691,0.2511 576.9601,1.4601 576.9601,2.9511 C576.9601,4.4421 578.1691,5.6511 579.6601,5.6511 C581.1511,5.6511 582.3591,4.4421 582.3591,2.9511 C582.3591,1.4601 581.1511,0.2511 579.6601,0.2511 M507.5401,0.2511 C506.0491,0.2511 504.8401,1.4601 504.8401,2.9511 C504.8401,4.4421 506.0491,5.6511 507.5401,5.6511 C509.0311,5.6511 510.2401,4.4421 510.2401,2.9511 C510.2401,1.4601 509.0311,0.2511 507.5401,0.2511 M435.4201,0.2511 C433.9291,0.2511 432.7201,1.4601 432.7201,2.9511 C432.7201,4.4421 433.9291,5.6511 435.4201,5.6511 C436.9111,5.6511 438.1201,4.4421 438.1201,2.9511 C438.1201,1.4601 436.9111,0.2511 435.4201,0.2511 M363.3001,0.2511 C361.8091,0.2511 360.6001,1.4601 360.6001,2.9511 C360.6001,4.4421 361.8091,5.6511 363.3001,5.6511 C364.7911,5.6511 366.0001,4.4421 366.0001,2.9511 C366.0001,1.4601 364.7911,0.2511 363.3001,0.2511 M291.1801,0.2511 C289.6891,0.2511 288.4801,1.4601 288.4801,2.9511 C288.4801,4.4421 289.6891,5.6511 291.1801,5.6511 C292.6711,5.6511 293.8801,4.4421 293.8801,2.9511 C293.8801,1.4601 292.6711,0.2511 291.1801,0.2511 M219.0601,0.2511 C217.5691,0.2511 216.3601,1.4601 216.3601,2.9511 C216.3601,4.4421 217.5691,5.6511 219.0601,5.6511 C220.5511,5.6511 221.7601,4.4421 221.7601,2.9511 C221.7601,1.4601 220.5511,0.2511 219.0601,0.2511 M146.9401,0.2511 C145.4491,0.2511 144.2401,1.4601 144.2401,2.9511 C144.2401,4.4421 145.4491,5.6511 146.9401,5.6511 C148.4311,5.6511 149.6401,4.4421 149.6401,2.9511 C149.6401,1.4601 148.4311,0.2511 146.9401,0.2511 M74.8201,0.2511 C73.3291,0.2511 72.1201,1.4601 72.1201,2.9511 C72.1201,4.4421 73.3291,5.6511 74.8201,5.6511 C76.3111,5.6511 77.5201,4.4421 77.5201,2.9511 C77.5201,1.4601 76.3111,0.2511 74.8201,0.2511 M5.4001,2.9511 C5.4001,4.4421 4.1911,5.6511 2.7001,5.6511 C1.2091,5.6511 0.0001,4.4421 0.0001,2.9511 C0.0001,1.4601 1.2091,0.2511 2.7001,0.2511 C4.1911,0.2511 5.4001,1.4601 5.4001,2.9511" id="Fill-16" fill="#FFFFFF" mask="url(#mask-8)"></path>
                            </g>
                            <g id="Group-21" transform="translate(0.000000, 407.662000)">
                                <mask id="mask-10" fill="white">
                                    <use xlink:href="#path-9"></use>
                                </mask>
                                <g id="Clip-20"></g>
                                <path d="M1012.3801,0.0343 C1010.8891,0.0343 1009.6801,1.2433 1009.6801,2.7343 C1009.6801,4.2253 1010.8891,5.4343 1012.3801,5.4343 C1013.8711,5.4343 1015.0801,4.2253 1015.0801,2.7343 C1015.0801,1.2433 1013.8711,0.0343 1012.3801,0.0343 M1084.5001,0.0343 C1083.0091,0.0343 1081.8001,1.2433 1081.8001,2.7343 C1081.8001,4.2253 1083.0091,5.4343 1084.5001,5.4343 C1085.9911,5.4343 1087.2001,4.2253 1087.2001,2.7343 C1087.2001,1.2433 1085.9911,0.0343 1084.5001,0.0343 M940.2601,0.0343 C938.7691,0.0343 937.5601,1.2433 937.5601,2.7343 C937.5601,4.2253 938.7691,5.4343 940.2601,5.4343 C941.7511,5.4343 942.9601,4.2253 942.9601,2.7343 C942.9601,1.2433 941.7511,0.0343 940.2601,0.0343 M795.7001,0.0343 C794.2081,0.0343 793.0001,1.2433 793.0001,2.7343 C793.0001,4.2253 794.2081,5.4343 795.7001,5.4343 C797.1911,5.4343 798.4001,4.2253 798.4001,2.7343 C798.4001,1.2433 797.1911,0.0343 795.7001,0.0343 M867.7001,0.0343 C866.2081,0.0343 865.0001,1.2433 865.0001,2.7343 C865.0001,4.2253 866.2081,5.4343 867.7001,5.4343 C869.1911,5.4343 870.4001,4.2253 870.4001,2.7343 C870.4001,1.2433 869.1911,0.0343 867.7001,0.0343 M723.9001,0.0343 C722.4081,0.0343 721.2001,1.2433 721.2001,2.7343 C721.2001,4.2253 722.4081,5.4343 723.9001,5.4343 C725.3911,5.4343 726.6001,4.2253 726.6001,2.7343 C726.6001,1.2433 725.3911,0.0343 723.9001,0.0343 M651.7801,0.0343 C650.2891,0.0343 649.0801,1.2433 649.0801,2.7343 C649.0801,4.2253 650.2891,5.4343 651.7801,5.4343 C653.2721,5.4343 654.4801,4.2253 654.4801,2.7343 C654.4801,1.2433 653.2721,0.0343 651.7801,0.0343 M579.6601,0.0343 C578.1691,0.0343 576.9601,1.2433 576.9601,2.7343 C576.9601,4.2253 578.1691,5.4343 579.6601,5.4343 C581.1511,5.4343 582.3591,4.2253 582.3591,2.7343 C582.3591,1.2433 581.1511,0.0343 579.6601,0.0343 M507.5401,0.0343 C506.0491,0.0343 504.8401,1.2433 504.8401,2.7343 C504.8401,4.2253 506.0491,5.4343 507.5401,5.4343 C509.0311,5.4343 510.2401,4.2253 510.2401,2.7343 C510.2401,1.2433 509.0311,0.0343 507.5401,0.0343 M435.4201,0.0343 C433.9291,0.0343 432.7201,1.2433 432.7201,2.7343 C432.7201,4.2253 433.9291,5.4343 435.4201,5.4343 C436.9111,5.4343 438.1201,4.2253 438.1201,2.7343 C438.1201,1.2433 436.9111,0.0343 435.4201,0.0343 M363.3001,0.0343 C361.8091,0.0343 360.6001,1.2433 360.6001,2.7343 C360.6001,4.2253 361.8091,5.4343 363.3001,5.4343 C364.7911,5.4343 366.0001,4.2253 366.0001,2.7343 C366.0001,1.2433 364.7911,0.0343 363.3001,0.0343 M291.1801,0.0343 C289.6891,0.0343 288.4801,1.2433 288.4801,2.7343 C288.4801,4.2253 289.6891,5.4343 291.1801,5.4343 C292.6711,5.4343 293.8801,4.2253 293.8801,2.7343 C293.8801,1.2433 292.6711,0.0343 291.1801,0.0343 M219.0601,0.0343 C217.5691,0.0343 216.3601,1.2433 216.3601,2.7343 C216.3601,4.2253 217.5691,5.4343 219.0601,5.4343 C220.5511,5.4343 221.7601,4.2253 221.7601,2.7343 C221.7601,1.2433 220.5511,0.0343 219.0601,0.0343 M146.9401,0.0343 C145.4491,0.0343 144.2401,1.2433 144.2401,2.7343 C144.2401,4.2253 145.4491,5.4343 146.9401,5.4343 C148.4311,5.4343 149.6401,4.2253 149.6401,2.7343 C149.6401,1.2433 148.4311,0.0343 146.9401,0.0343 M74.8201,0.0343 C73.3291,0.0343 72.1201,1.2433 72.1201,2.7343 C72.1201,4.2253 73.3291,5.4343 74.8201,5.4343 C76.3111,5.4343 77.5201,4.2253 77.5201,2.7343 C77.5201,1.2433 76.3111,0.0343 74.8201,0.0343 M5.4001,2.7343 C5.4001,4.2253 4.1911,5.4343 2.7001,5.4343 C1.2091,5.4343 0.0001,4.2253 0.0001,2.7343 C0.0001,1.2433 1.2091,0.0343 2.7001,0.0343 C4.1911,0.0343 5.4001,1.2433 5.4001,2.7343" id="Fill-19" fill="#FFFFFF" mask="url(#mask-10)"></path>
                            </g>
                            <g id="Group-24" transform="translate(0.000000, 474.662000)">
                                <mask id="mask-12" fill="white">
                                    <use xlink:href="#path-11"></use>
                                </mask>
                                <g id="Clip-23"></g>
                                <path d="M1012.3801,0.8175 C1010.8891,0.8175 1009.6801,2.0265 1009.6801,3.5165 C1009.6801,5.0075 1010.8891,6.2165 1012.3801,6.2165 C1013.8711,6.2165 1015.0801,5.0075 1015.0801,3.5165 C1015.0801,2.0265 1013.8711,0.8175 1012.3801,0.8175 M1084.5001,0.8175 C1083.0091,0.8175 1081.8001,2.0265 1081.8001,3.5165 C1081.8001,5.0075 1083.0091,6.2165 1084.5001,6.2165 C1085.9911,6.2165 1087.2001,5.0075 1087.2001,3.5165 C1087.2001,2.0265 1085.9911,0.8175 1084.5001,0.8175 M940.2601,0.8175 C938.7691,0.8175 937.5601,2.0265 937.5601,3.5165 C937.5601,5.0075 938.7691,6.2165 940.2601,6.2165 C941.7511,6.2165 942.9601,5.0075 942.9601,3.5165 C942.9601,2.0265 941.7511,0.8175 940.2601,0.8175 M868.1401,0.8175 C866.6491,0.8175 865.4401,2.0265 865.4401,3.5165 C865.4401,5.0075 866.6491,6.2165 868.1401,6.2165 C869.6311,6.2165 870.8401,5.0075 870.8401,3.5165 C870.8401,2.0265 869.6311,0.8175 868.1401,0.8175 M796.0201,0.8175 C794.5281,0.8175 793.3201,2.0265 793.3201,3.5165 C793.3201,5.0075 794.5281,6.2165 796.0201,6.2165 C797.5111,6.2165 798.7201,5.0075 798.7201,3.5165 C798.7201,2.0265 797.5111,0.8175 796.0201,0.8175 M723.9001,0.8175 C722.4081,0.8175 721.2001,2.0265 721.2001,3.5165 C721.2001,5.0075 722.4081,6.2165 723.9001,6.2165 C725.3911,6.2165 726.6001,5.0075 726.6001,3.5165 C726.6001,2.0265 725.3911,0.8175 723.9001,0.8175 M651.7801,0.8175 C650.2891,0.8175 649.0801,2.0265 649.0801,3.5165 C649.0801,5.0075 650.2891,6.2165 651.7801,6.2165 C653.2721,6.2165 654.4801,5.0075 654.4801,3.5165 C654.4801,2.0265 653.2721,0.8175 651.7801,0.8175 M579.6601,0.8175 C578.1691,0.8175 576.9601,2.0255 576.9601,3.5165 C576.9601,5.0075 578.1691,6.2165 579.6601,6.2165 C581.1511,6.2165 582.3591,5.0075 582.3591,3.5165 C582.3591,2.0255 581.1511,0.8175 579.6601,0.8175 M507.5401,0.8175 C506.0491,0.8175 504.8401,2.0255 504.8401,3.5165 C504.8401,5.0075 506.0491,6.2165 507.5401,6.2165 C509.0311,6.2165 510.2401,5.0075 510.2401,3.5165 C510.2401,2.0255 509.0311,0.8175 507.5401,0.8175 M435.4201,0.8175 C433.9291,0.8175 432.7201,2.0255 432.7201,3.5165 C432.7201,5.0075 433.9291,6.2165 435.4201,6.2165 C436.9111,6.2165 438.1201,5.0075 438.1201,3.5165 C438.1201,2.0255 436.9111,0.8175 435.4201,0.8175 M363.3001,0.8175 C361.8091,0.8175 360.6001,2.0255 360.6001,3.5165 C360.6001,5.0075 361.8091,6.2165 363.3001,6.2165 C364.7911,6.2165 366.0001,5.0075 366.0001,3.5165 C366.0001,2.0255 364.7911,0.8175 363.3001,0.8175 M291.1801,0.8175 C289.6891,0.8175 288.4801,2.0255 288.4801,3.5165 C288.4801,5.0075 289.6891,6.2165 291.1801,6.2165 C292.6711,6.2165 293.8801,5.0075 293.8801,3.5165 C293.8801,2.0255 292.6711,0.8175 291.1801,0.8175 M219.0601,0.8175 C217.5691,0.8175 216.3601,2.0255 216.3601,3.5165 C216.3601,5.0075 217.5691,6.2165 219.0601,6.2165 C220.5511,6.2165 221.7601,5.0075 221.7601,3.5165 C221.7601,2.0255 220.5511,0.8175 219.0601,0.8175 M146.9401,0.8175 C145.4491,0.8175 144.2401,2.0255 144.2401,3.5165 C144.2401,5.0075 145.4491,6.2165 146.9401,6.2165 C148.4311,6.2165 149.6401,5.0075 149.6401,3.5165 C149.6401,2.0255 148.4311,0.8175 146.9401,0.8175 M74.8201,0.8175 C73.3291,0.8175 72.1201,2.0255 72.1201,3.5165 C72.1201,5.0075 73.3291,6.2165 74.8201,6.2165 C76.3111,6.2165 77.5201,5.0075 77.5201,3.5165 C77.5201,2.0255 76.3111,0.8175 74.8201,0.8175 M5.4001,3.5165 C5.4001,5.0075 4.1911,6.2165 2.7001,6.2165 C1.2091,6.2165 0.0001,5.0075 0.0001,3.5165 C0.0001,2.0255 1.2091,0.8175 2.7001,0.8175 C4.1911,0.8175 5.4001,2.0255 5.4001,3.5165" id="Fill-22" fill="#FFFFFF" mask="url(#mask-12)"></path>
                            </g>
                            <g id="Group-27" transform="translate(0.000000, 542.662000)">
                                <mask id="mask-14" fill="white">
                                    <use xlink:href="#path-13"></use>
                                </mask>
                                <g id="Clip-26"></g>
                                <path d="M1012.3801,0.5998 C1010.8891,0.5998 1009.6801,1.8088 1009.6801,3.2998 C1009.6801,4.7908 1010.8891,5.9998 1012.3801,5.9998 C1013.8711,5.9998 1015.0801,4.7908 1015.0801,3.2998 C1015.0801,1.8088 1013.8711,0.5998 1012.3801,0.5998 M1084.5001,0.5998 C1083.0091,0.5998 1081.8001,1.8088 1081.8001,3.2998 C1081.8001,4.7908 1083.0091,5.9998 1084.5001,5.9998 C1085.9911,5.9998 1087.2001,4.7908 1087.2001,3.2998 C1087.2001,1.8088 1085.9911,0.5998 1084.5001,0.5998 M940.2601,0.5998 C938.7691,0.5998 937.5601,1.8088 937.5601,3.2998 C937.5601,4.7908 938.7691,5.9998 940.2601,5.9998 C941.7511,5.9998 942.9601,4.7908 942.9601,3.2998 C942.9601,1.8088 941.7511,0.5998 940.2601,0.5998 M868.1401,0.5998 C866.6491,0.5998 865.4401,1.8088 865.4401,3.2998 C865.4401,4.7908 866.6491,5.9998 868.1401,5.9998 C869.6311,5.9998 870.8401,4.7908 870.8401,3.2998 C870.8401,1.8088 869.6311,0.5998 868.1401,0.5998 M796.0201,0.5998 C794.5281,0.5998 793.3201,1.8088 793.3201,3.2998 C793.3201,4.7908 794.5281,5.9998 796.0201,5.9998 C797.5111,5.9998 798.7201,4.7908 798.7201,3.2998 C798.7201,1.8088 797.5111,0.5998 796.0201,0.5998 M723.9001,0.5998 C722.4081,0.5998 721.2001,1.8088 721.2001,3.2998 C721.2001,4.7908 722.4081,5.9998 723.9001,5.9998 C725.3911,5.9998 726.6001,4.7908 726.6001,3.2998 C726.6001,1.8088 725.3911,0.5998 723.9001,0.5998 M651.7801,0.5998 C650.2891,0.5998 649.0801,1.8088 649.0801,3.2998 C649.0801,4.7908 650.2891,5.9998 651.7801,5.9998 C653.2721,5.9998 654.4801,4.7908 654.4801,3.2998 C654.4801,1.8088 653.2721,0.5998 651.7801,0.5998 M579.6601,0.5998 C578.1691,0.5998 576.9601,1.8088 576.9601,3.2998 C576.9601,4.7908 578.1691,5.9998 579.6601,5.9998 C581.1511,5.9998 582.3591,4.7908 582.3591,3.2998 C582.3591,1.8088 581.1511,0.5998 579.6601,0.5998 M507.5401,0.5998 C506.0491,0.5998 504.8401,1.8088 504.8401,3.2998 C504.8401,4.7908 506.0491,5.9998 507.5401,5.9998 C509.0311,5.9998 510.2401,4.7908 510.2401,3.2998 C510.2401,1.8088 509.0311,0.5998 507.5401,0.5998 M435.4201,0.5998 C433.9291,0.5998 432.7201,1.8088 432.7201,3.2998 C432.7201,4.7908 433.9291,5.9998 435.4201,5.9998 C436.9111,5.9998 438.1201,4.7908 438.1201,3.2998 C438.1201,1.8088 436.9111,0.5998 435.4201,0.5998 M363.3001,0.5998 C361.8091,0.5998 360.6001,1.8088 360.6001,3.2998 C360.6001,4.7908 361.8091,5.9998 363.3001,5.9998 C364.7911,5.9998 366.0001,4.7908 366.0001,3.2998 C366.0001,1.8088 364.7911,0.5998 363.3001,0.5998 M291.1801,0.5998 C289.6891,0.5998 288.4801,1.8088 288.4801,3.2998 C288.4801,4.7908 289.6891,5.9998 291.1801,5.9998 C292.6711,5.9998 293.8801,4.7908 293.8801,3.2998 C293.8801,1.8088 292.6711,0.5998 291.1801,0.5998 M219.0601,0.5998 C217.5691,0.5998 216.3601,1.8088 216.3601,3.2998 C216.3601,4.7908 217.5691,5.9998 219.0601,5.9998 C220.5511,5.9998 221.7601,4.7908 221.7601,3.2998 C221.7601,1.8088 220.5511,0.5998 219.0601,0.5998 M146.9401,0.5998 C145.4491,0.5998 144.2401,1.8088 144.2401,3.2998 C144.2401,4.7908 145.4491,5.9998 146.9401,5.9998 C148.4311,5.9998 149.6401,4.7908 149.6401,3.2998 C149.6401,1.8088 148.4311,0.5998 146.9401,0.5998 M74.8201,0.5998 C73.3291,0.5998 72.1201,1.8088 72.1201,3.2998 C72.1201,4.7908 73.3291,5.9998 74.8201,5.9998 C76.3111,5.9998 77.5201,4.7908 77.5201,3.2998 C77.5201,1.8088 76.3111,0.5998 74.8201,0.5998 M5.4001,3.2998 C5.4001,4.7908 4.1911,5.9998 2.7001,5.9998 C1.2091,5.9998 0.0001,4.7908 0.0001,3.2998 C0.0001,1.8088 1.2091,0.5998 2.7001,0.5998 C4.1911,0.5998 5.4001,1.8088 5.4001,3.2998" id="Fill-25" fill="#FFFFFF" mask="url(#mask-14)"></path>
                            </g>
                        </g>
                    </g>
                </g>
            </g>
        </g>
    </g>
</svg>