<?xml version="1.0" encoding="UTF-8"?>
<svg width="80px" height="81px" viewBox="0 0 80 81" version="1.1" xmlns="http://www.w3.org/2000/svg" xmlns:xlink="http://www.w3.org/1999/xlink">
    <!-- Generator: Sketch 51.1 (57501) - http://www.bohemiancoding.com/sketch -->
    <title>Group 8</title>
    <desc>Created with Sketch.</desc>
    <defs>
        <polygon id="path-1" points="0 0.335543759 79.6656471 0.335543759 79.6656471 80.3414043 0 80.3414043"></polygon>
    </defs>
    <g id="design" stroke="none" stroke-width="1" fill="none" fill-rule="evenodd">
        <g id="Copper-GSuite-FINAL" transform="translate(-886.000000, -3207.000000)">
            <g id="Group-8" transform="translate(886.000000, 3207.000000)">
                <g id="Group-3">
                    <mask id="mask-2" fill="white">
                        <use xlink:href="#path-1"></use>
                    </mask>
                    <g id="Clip-2"></g>
                    <path d="M79.6656471,40.3384445 C79.6656471,62.4311655 61.8321176,80.3414043 39.8327059,80.3414043 C17.8332941,80.3414043 -0.000235294118,62.4311655 -0.000235294118,40.3384445 C-0.000235294118,18.2457236 17.8332941,0.335484684 39.8327059,0.335484684 C61.8321176,0.335484684 79.6656471,18.2457236 79.6656471,40.3384445" id="Fill-1" fill="#FF3465" mask="url(#mask-2)"></path>
                </g>
                <path d="M39.9053423,64.6513761 C36.4750389,64.6513761 33.3248808,64.0688245 30.453095,62.907266 C27.5819002,61.7445259 25.092507,60.1215345 22.9872794,58.0400643 C20.8796877,55.9585941 19.239005,53.4936797 18.0622761,50.6470934 C16.8855473,47.8005071 16.2962963,44.6638266 16.2962963,41.2346887 C16.2962963,37.7452867 16.9546971,34.4851242 18.2720896,31.4547919 C19.5883002,28.4238688 21.4092452,25.7923422 23.7378799,23.5566671 C26.0641505,21.3233554 28.7905444,19.5627022 31.9135154,18.2770708 C35.0364864,16.9914395 38.4041413,16.3486239 42.0182533,16.3486239 C44.7121408,16.3486239 47.2387685,16.7314773 49.5963634,17.4960025 C51.9533673,18.2623003 54.0059937,19.3186922 55.7512877,20.6645875 C57.4971727,22.0116644 58.8754407,23.6187036 59.8855008,25.4851141 C60.8961519,27.3544788 61.4014775,29.3278283 61.4014775,31.4087077 C61.4014775,33.7359604 60.6662436,35.6785871 59.1969578,37.2395421 C57.72649,38.8016787 55.9197296,39.5815653 53.7766764,39.5815653 C51.5715657,39.5815653 49.734663,38.8170401 48.2653773,37.2862171 C46.7949095,35.755985 46.0602666,33.827538 46.0602666,31.5002853 C46.0602666,30.8279285 46.1359177,30.184522 46.290175,29.5724291 C46.4420682,28.9609271 46.6719765,28.072329 46.978127,26.9084073 C47.2848684,25.8685584 47.4840435,25.0880809 47.5762433,24.5675657 C47.667261,24.048232 47.7139519,23.4816326 47.7139519,22.8677673 C47.7139519,21.2772711 47.1950328,19.9756876 46.1625138,18.9659707 C45.1276307,17.955663 43.8244227,17.4505092 42.2534808,17.4505092 C40.8628013,17.4505092 39.577915,17.8971715 38.4011862,18.7863605 C37.2226843,19.6761402 36.1954845,20.8885095 35.3189958,22.4222865 C34.4425072,23.9578361 33.7474629,25.7822982 33.233272,27.9009903 C32.7202632,30.0185007 32.4643498,32.2742637 32.4643498,34.6670978 C32.4643498,40.2533313 33.87276,44.6880504 36.6901716,47.9718458 C39.5064011,51.2556413 43.3043216,52.8963574 48.0809778,52.8963574 C50.7760474,52.8963574 53.225251,52.3923852 55.4303617,51.3826683 C57.6342903,50.3717698 59.7779344,48.7960442 61.8601121,46.6531284 L62.962963,47.2031848 C57.7566323,58.836494 50.0703647,64.6513761 39.9053423,64.6513761" id="Fill-4" fill="#FFFFFF"></path>
            </g>
        </g>
    </g>
</svg>