<?xml version="1.0" encoding="UTF-8"?>
<svg width="144px" height="143px" viewBox="0 0 144 143" version="1.1" xmlns="http://www.w3.org/2000/svg" xmlns:xlink="http://www.w3.org/1999/xlink">
    <!-- Generator: Sketch 51.1 (57501) - http://www.bohemiancoding.com/sketch -->
    <title>Group 8</title>
    <desc>Created with Sketch.</desc>
    <defs>
        <polygon id="path-1" points="0 0.597081149 143.398165 0.597081149 143.398165 142.962987 0 142.962987"></polygon>
    </defs>
    <g id="design" stroke="none" stroke-width="1" fill="none" fill-rule="evenodd">
        <g id="Copper-GSuite-FINAL" transform="translate(-699.000000, -459.000000)">
            <g id="gsuite-HERO" transform="translate(699.000000, 193.000000)">
                <g id="Group-8" transform="translate(0.000000, 266.000000)">
                    <g id="Group-3">
                        <mask id="mask-2" fill="white">
                            <use xlink:href="#path-1"></use>
                        </mask>
                        <g id="Clip-2"></g>
                        <path d="M143.398165,71.7799815 C143.398165,111.092729 111.297812,142.962987 71.6988706,142.962987 C32.0999294,142.962987 -0.000423529412,111.092729 -0.000423529412,71.7799815 C-0.000423529412,32.4672336 32.0999294,0.596976029 71.6988706,0.596976029 C111.297812,0.596976029 143.398165,32.4672336 143.398165,71.7799815" id="Fill-1" fill="#FF3465" mask="url(#mask-2)"></path>
                    </g>
                    <path d="M71.8296162,115.043469 C65.6550699,115.043469 59.9847854,114.006851 54.815571,111.939923 C49.6474204,109.870893 45.1665126,106.982872 41.3771029,103.279013 C37.5834378,99.5751546 34.6302089,95.1889787 32.512097,90.1236393 C30.3939851,85.0583 29.3333333,79.4767544 29.3333333,73.3747973 C29.3333333,67.1656038 30.5184547,61.3643289 32.8897614,55.9720239 C35.2589403,50.5786676 38.5366414,45.8960147 42.7281838,41.9177574 C46.9154709,37.9437053 51.8229799,34.8107225 57.4443276,32.5230143 C63.0656754,30.235306 69.1274543,29.0914519 75.6328559,29.0914519 C80.4818535,29.0914519 85.0297834,29.7727179 89.2734542,31.1331474 C93.5160611,32.4967308 97.2107887,34.3765205 100.352318,36.7714651 C103.494911,39.1685124 105.975793,42.0281477 107.793901,45.3493198 C109.613073,48.6757485 110.522659,52.1872125 110.522659,55.8900197 C110.522659,60.0312342 109.199238,63.4880287 106.554524,66.2656598 C103.907682,69.0453935 100.655513,70.4331577 96.7980175,70.4331577 C92.8288183,70.4331577 89.5223935,69.0727283 86.8776791,66.3487153 C84.2308371,63.6257538 82.9084799,60.1941914 82.9084799,56.0529768 C82.9084799,54.8565559 83.0446519,53.7116504 83.322315,52.6224658 C83.5957227,51.5343325 84.0095577,49.9531224 84.5606285,47.8819894 C85.1127632,46.0316372 85.4712783,44.6428216 85.6372379,43.7165941 C85.8010698,42.7924694 85.8851134,41.7842376 85.8851134,40.691899 C85.8851134,37.8617011 84.951059,35.5456067 83.0925248,33.7488726 C81.2297353,31.9510872 78.8839609,31.0521945 76.0562655,31.0521945 C73.5530423,31.0521945 71.240247,31.8470049 69.1221351,33.4292663 C67.0008317,35.0125791 65.1518721,37.1699217 63.5741925,39.8991913 C61.996513,42.6316149 60.7454333,45.878142 59.8198896,49.6482348 C58.8964737,53.4162248 58.4358296,57.4302277 58.4358296,61.6881406 C58.4358296,71.6285273 60.9709681,79.5198592 66.0423089,85.3631876 C71.111522,91.2065159 77.9477788,94.1260774 86.54576,94.1260774 C91.3968853,94.1260774 95.8054518,93.2292874 99.774651,91.4325533 C103.741722,89.6337165 107.600282,86.829802 111.348202,83.0166045 L113.333333,83.9953988 C103.961938,104.696215 90.1266565,115.043469 71.8296162,115.043469" id="Fill-4" fill="#FFFFFF"></path>
                </g>
            </g>
        </g>
    </g>
</svg>