<?xml version="1.0" encoding="UTF-8"?>
<svg width="146px" height="48px" viewBox="0 0 146 48" version="1.1" xmlns="http://www.w3.org/2000/svg" xmlns:xlink="http://www.w3.org/1999/xlink">
    <!-- Generator: Sketch 52.5 (67469) - http://www.bohemiancoding.com/sketch -->
    <title>Group 10</title>
    <desc>Created with Sketch.</desc>
    <defs>
        <polygon id="path-1" points="0.000252631579 0.368 46.7893053 0.368 46.7893053 47.1578105 0.000252631579 47.1578105"></polygon>
    </defs>
    <g id="Symbols" stroke="none" stroke-width="1" fill="none" fill-rule="evenodd">
        <g id="nav-desktop-blog-side" transform="translate(-39.000000, -40.000000)">
            <g id="Group-10" transform="translate(39.000000, 40.000000)">
                <path d="M116.575663,10.8644211 L118.061137,10.8644211 L118.061137,12.5469474 C118.651453,11.4909474 119.457347,10.7566316 121.139874,10.7035789 L121.139874,12.0997895 C119.260295,12.1882105 118.061137,12.7793684 118.061137,15.0892632 L118.061137,20.2252632 L116.575663,20.2252632 L116.575663,10.8644211 Z M113.079242,14.6404211 C112.935242,12.7077895 111.933137,11.9381053 110.393768,11.9381053 C108.872926,11.9381053 107.852295,12.9764211 107.601347,14.6404211 L113.079242,14.6404211 Z M106.008926,15.6433684 L106.008926,15.5002105 C106.008926,12.6715789 107.816926,10.7035789 110.393768,10.7035789 C112.559663,10.7035789 114.600084,12.0096842 114.600084,15.3570526 L114.600084,15.8404211 L107.548295,15.8404211 C107.619874,17.9701053 108.639663,19.1515789 110.555453,19.1515789 C112.004716,19.1515789 112.845979,18.6143158 113.043032,17.5229474 L114.528505,17.5229474 C114.206821,19.4025263 112.648926,20.3869474 110.536926,20.3869474 C107.888505,20.3869474 106.008926,18.5258947 106.008926,15.6433684 Z M103.086821,15.6248421 L103.086821,15.4816842 C103.086821,13.1195789 101.779874,11.9381053 100.205137,11.9381053 C98.4687158,11.9381053 97.1440842,13.0842105 97.1440842,15.4816842 L97.1440842,15.6248421 C97.1440842,18.024 98.3971368,19.1515789 100.222821,19.1515789 C102.084716,19.1515789 103.086821,17.8993684 103.086821,15.6248421 Z M95.7125053,10.8644211 L97.1979789,10.8644211 L97.1979789,12.4391579 C97.7344,11.5263158 99.0051368,10.7035789 100.365979,10.7035789 C102.818189,10.7035789 104.626189,12.4930526 104.626189,15.4101053 L104.626189,15.5532632 C104.626189,18.4181053 102.943663,20.3869474 100.365979,20.3869474 C98.8266105,20.3869474 97.7344,19.6172632 97.1979789,18.6858947 L97.1979789,23.4833684 L95.7125053,23.4833684 L95.7125053,10.8644211 Z M92.1975579,15.6248421 L92.1975579,15.4816842 C92.1975579,13.1195789 90.8914526,11.9381053 89.3158737,11.9381053 C87.5794526,11.9381053 86.2556632,13.0842105 86.2556632,15.4816842 L86.2556632,15.6248421 C86.2556632,18.024 87.5078737,19.1515789 89.3344,19.1515789 C91.1954526,19.1515789 92.1975579,17.8993684 92.1975579,15.6248421 Z M84.8232421,10.8644211 L86.3095579,10.8644211 L86.3095579,12.4391579 C86.8459789,11.5263158 88.1167158,10.7035789 89.4775579,10.7035789 C91.9297684,10.7035789 93.7369263,12.4930526 93.7369263,15.4101053 L93.7369263,15.5532632 C93.7369263,18.4181053 92.0544,20.3869474 89.4775579,20.3869474 C87.9381895,20.3869474 86.8459789,19.6172632 86.3095579,18.6858947 L86.3095579,23.4833684 L84.8232421,23.4833684 L84.8232421,10.8644211 Z M81.3175579,15.6248421 L81.3175579,15.5002105 C81.3175579,13.3343158 80.1192421,11.9381053 78.2573474,11.9381053 C76.3777684,11.9381053 75.1962947,13.3343158 75.1962947,15.4816842 L75.1962947,15.6248421 C75.1962947,17.7562105 76.3600842,19.1515789 78.2573474,19.1515789 C80.1369263,19.1515789 81.3175579,17.7376842 81.3175579,15.6248421 Z M73.6569263,15.6248421 L73.6569263,15.4816842 C73.6569263,12.6715789 75.6080842,10.7035789 78.2573474,10.7035789 C80.9066105,10.7035789 82.8569263,12.6538947 82.8569263,15.4648421 L82.8569263,15.608 C82.8569263,18.4357895 80.9066105,20.3869474 78.2396632,20.3869474 C75.5727158,20.3869474 73.6569263,18.3642105 73.6569263,15.6248421 Z M60.8922947,13.9069474 L60.8922947,13.7637895 C60.8922947,9.97010526 63.4346105,7.23073684 66.9074526,7.23073684 C69.5744,7.23073684 71.8295579,8.64463158 72.0981895,11.4193684 L70.5579789,11.4193684 C70.2362947,9.46821053 69.1087158,8.46526316 66.9251368,8.46526316 C64.2758737,8.46526316 62.5040842,10.5242105 62.5040842,13.7461053 L62.5040842,13.8892632 C62.5040842,17.1473684 64.1504,19.1162105 66.9074526,19.1162105 C69.0009263,19.1162105 70.4510316,18.0602105 70.7727158,15.9835789 L72.2236632,15.9835789 C71.7756632,18.9368421 69.7352421,20.3869474 66.8712421,20.3869474 C63.1659789,20.3869474 60.8922947,17.8446316 60.8922947,13.9069474 Z" id="Fill-1" fill="#3C3F40"></path>
                <path d="M138.576084,38.2402526 L140.026189,38.2402526 C140.133137,39.3493053 140.724295,40.0474105 142.227453,40.0474105 C143.641347,40.0474105 144.267874,39.5648842 144.267874,38.5627789 C144.267874,37.5783579 143.5344,37.2558316 142.084295,36.9872 C139.649768,36.5392 138.826189,35.8596211 138.826189,34.2301474 C138.826189,32.4945684 140.527242,31.5994105 141.995032,31.5994105 C143.677558,31.5994105 145.126821,32.2798316 145.377768,34.3025684 L143.945347,34.3025684 C143.731453,33.2819368 143.157979,32.8347789 141.977347,32.8347789 C140.902821,32.8347789 140.204716,33.3720421 140.204716,34.1770947 C140.204716,35.0183579 140.6704,35.3585684 142.388295,35.6625684 C144.321768,36.0204632 145.681768,36.4499368 145.681768,38.4364632 C145.681768,40.1375158 144.518821,41.2827789 142.245137,41.2827789 C140.007663,41.2827789 138.665347,40.1552 138.576084,38.2402526 Z M135.770189,35.5370947 C135.627032,33.6044632 134.624926,32.8347789 133.085558,32.8347789 C131.563874,32.8347789 130.544084,33.8722526 130.293137,35.5370947 L135.770189,35.5370947 Z M128.699874,36.5392 L128.699874,36.3968842 C128.699874,33.5682526 130.507874,31.5994105 133.085558,31.5994105 C135.251453,31.5994105 137.291874,32.9063579 137.291874,36.2537263 L137.291874,36.7370947 L130.240084,36.7370947 C130.311663,38.8667789 131.331453,40.0474105 133.2464,40.0474105 C134.696505,40.0474105 135.537768,39.5109895 135.734821,38.4196211 L137.220295,38.4196211 C136.897768,40.2983579 135.340716,41.2827789 133.228716,41.2827789 C130.579453,41.2827789 128.699874,39.4217263 128.699874,36.5392 Z M125.2144,41.1219368 L126.717558,41.1219368 L126.717558,27.2853053 L125.2144,27.2853053 L125.2144,41.1219368 Z M114.642611,36.5392 L114.642611,36.3968842 C114.642611,33.5328842 116.682189,31.5994105 119.189137,31.5994105 C121.139453,31.5994105 122.965137,32.4945684 123.251453,34.8752 L121.784505,34.8752 C121.551242,33.3888842 120.477558,32.8347789 119.189137,32.8347789 C117.488084,32.8347789 116.181979,34.1947789 116.181979,36.3968842 L116.181979,36.5392 C116.181979,38.8305684 117.435032,40.0474105 119.242189,40.0474105 C120.566821,40.0474105 121.765979,39.2777263 121.926821,37.7568842 L123.305347,37.7568842 C123.108295,39.7796211 121.479663,41.2827789 119.224505,41.2827789 C116.611453,41.2827789 114.642611,39.4394105 114.642611,36.5392 Z M111.248084,41.1219368 L112.733558,41.1219368 L112.733558,31.7610947 L111.248084,31.7610947 L111.248084,41.1219368 Z M110.979453,28.8246737 C110.979453,28.2882526 111.426611,27.8402526 111.963874,27.8402526 C112.501137,27.8402526 112.948295,28.2882526 112.948295,28.8246737 C112.948295,29.3619368 112.501137,29.8090947 111.963874,29.8090947 C111.426611,29.8090947 110.979453,29.3619368 110.979453,28.8246737 Z M100.989558,31.7610947 L102.475032,31.7610947 L102.475032,33.2457263 C102.904505,32.3690947 103.942821,31.5994105 105.482189,31.5994105 C107.414821,31.5994105 108.775663,32.6554105 108.775663,35.3762526 L108.775663,41.1219368 L107.290189,41.1219368 L107.290189,35.2693053 C107.290189,33.6221474 106.592084,32.8886737 105.088084,32.8886737 C103.709558,32.8886737 102.475032,33.7661474 102.475032,35.4486737 L102.475032,41.1219368 L100.989558,41.1219368 L100.989558,31.7610947 Z M97.4838737,36.5215158 L97.4838737,36.3968842 C97.4838737,34.2301474 96.2847158,32.8347789 94.4228211,32.8347789 C92.5432421,32.8347789 91.3626105,34.2301474 91.3626105,36.3783579 L91.3626105,36.5215158 C91.3626105,38.6520421 92.5255579,40.0474105 94.4228211,40.0474105 C96.3024,40.0474105 97.4838737,38.6343579 97.4838737,36.5215158 Z M89.8224,36.5215158 L89.8224,36.3783579 C89.8224,33.5682526 91.7735579,31.5994105 94.4228211,31.5994105 C97.0720842,31.5994105 99.0232421,33.5505684 99.0232421,36.3615158 L99.0232421,36.5038316 C99.0232421,39.3324632 97.0720842,41.2827789 94.4051368,41.2827789 C91.7381895,41.2827789 89.8224,39.2608842 89.8224,36.5215158 Z M84.4640842,31.7610947 L85.9495579,31.7610947 L85.9495579,33.4436211 C86.5398737,32.3876211 87.3457684,31.6533053 89.0282947,31.5994105 L89.0282947,32.9956211 C87.1487158,33.0848842 85.9495579,33.6760421 85.9495579,35.9850947 L85.9495579,41.1219368 L84.4640842,41.1219368 L84.4640842,31.7610947 Z M74.1954526,27.2853053 L75.6809263,27.2853053 L75.6809263,33.2457263 C76.1104,32.3690947 77.1487158,31.5994105 78.6880842,31.5994105 C80.6215579,31.5994105 81.9815579,32.6554105 81.9815579,35.3762526 L81.9815579,41.1219368 L80.4960842,41.1219368 L80.4960842,35.2693053 C80.4960842,33.6221474 79.7979789,32.8886737 78.2948211,32.8886737 C76.9162947,32.8886737 75.6809263,33.7661474 75.6809263,35.4486737 L75.6809263,41.1219368 L74.1954526,41.1219368 L74.1954526,27.2853053 Z M60.8927158,34.8036211 L60.8927158,34.6604632 C60.8927158,30.8659368 63.4350316,28.1265684 66.9070316,28.1265684 C69.5739789,28.1265684 71.8291368,29.5413053 72.0977684,32.3160421 L70.5584,32.3160421 C70.2367158,30.3640421 69.1082947,29.3619368 66.9247158,29.3619368 C64.2762947,29.3619368 62.5036632,31.4200421 62.5036632,34.6427789 L62.5036632,34.7850947 C62.5036632,38.0440421 64.1508211,40.0120421 66.9070316,40.0120421 C69.0013474,40.0120421 70.4514526,38.9568842 70.7731368,36.8802526 L72.2232421,36.8802526 C71.7752421,39.8335158 69.7348211,41.2827789 66.8716632,41.2827789 C63.1664,41.2827789 60.8927158,38.7413053 60.8927158,34.8036211 Z" id="Fill-3" fill="#8A8C8A"></path>
                <g id="Group-7" transform="translate(0.000000, 0.473853)">
                    <mask id="mask-2" fill="white">
                        <use xlink:href="#path-1"></use>
                    </mask>
                    <g id="Clip-6"></g>
                    <path d="M23.3947789,47.1578105 C36.3152,47.1578105 46.7893053,36.6837053 46.7893053,23.7632842 C46.7893053,10.8428632 36.3152,0.367915789 23.3947789,0.367915789 C10.4743579,0.367915789 0.000252631579,10.8428632 0.000252631579,23.7632842 C0.000252631579,36.6837053 10.4743579,47.1578105 23.3947789,47.1578105" id="Fill-5" fill="#FF3465" mask="url(#mask-2)"></path>
                </g>
                <path d="M17.7319579,36.8981053 C16.1125895,36.2412632 14.7088,35.3242105 13.5214316,34.1477895 C12.3323789,32.9722105 11.4069053,31.5793684 10.7441684,29.9701053 C10.0805895,28.3616842 9.74795789,26.5898947 9.74795789,24.6522105 C9.74795789,22.68 10.1184842,20.8383158 10.8620632,19.1263158 C11.6039579,17.4134737 12.6313263,15.9263158 13.9450105,14.6631579 C15.2570105,13.4008421 16.7946947,12.4063158 18.5555368,11.6804211 C20.3172211,10.9528421 22.2161684,10.5898947 24.2549053,10.5898947 C25.7740632,10.5898947 27.1989053,10.8063158 28.5294316,11.2383158 C29.8582737,11.6711579 31.0153263,12.2682105 31.9997474,13.0286316 C32.9850105,13.7898947 33.7614316,14.6985263 34.3315368,15.7528421 C34.9016421,16.8088421 35.1862737,17.9246316 35.1862737,19.0993684 C35.1862737,20.4147368 34.7719579,21.512 33.9433263,22.3945263 C33.1138526,23.2770526 32.0949053,23.7183158 30.8864842,23.7183158 C29.6426947,23.7183158 28.6069053,23.2854737 27.7782737,22.4214737 C26.9488,21.5557895 26.5344842,20.4669474 26.5344842,19.1524211 C26.5344842,18.7717895 26.5765895,18.408 26.6641684,18.0618947 C26.7492211,17.7166316 26.8789053,17.2147368 27.0515368,16.5570526 C27.2241684,15.9684211 27.3370105,15.528 27.3892211,15.2341053 C27.4405895,14.9410526 27.4666947,14.6202105 27.4666947,14.2741053 C27.4666947,13.3747368 27.1744842,12.6387368 26.5917474,12.0694737 C26.0090105,11.4976842 25.2730105,11.2122105 24.3871158,11.2122105 C23.6022737,11.2122105 22.8780632,11.4656842 22.2144842,11.9684211 C21.5500632,12.4703158 20.9706947,13.1557895 20.4763789,14.0223158 C19.9812211,14.8896842 19.5904842,15.9204211 19.2999579,17.1178947 C19.0111158,18.3145263 18.8662737,19.5886316 18.8662737,20.9410526 C18.8662737,24.0981053 19.6603789,26.6033684 21.2502737,28.4593684 C22.8376421,30.3153684 24.9799579,31.2416842 27.6746947,31.2416842 C29.1938526,31.2416842 30.5757474,30.9562105 31.8195368,30.3861053 C33.0624842,29.8151579 34.2709053,28.9250526 35.4456421,27.7141053 L36.0671158,28.0248421 C33.1306947,34.5991579 28.7963789,37.8842105 23.0633263,37.8842105 C21.1281684,37.8842105 19.3513263,37.5549474 17.7319579,36.8981053" id="Fill-8" fill="#FFFFFF"></path>
            </g>
        </g>
    </g>
</svg>