<?xml version="1.0" encoding="UTF-8"?>
<svg width="20px" height="15px" viewBox="0 0 20 15" version="1.1" xmlns="http://www.w3.org/2000/svg" xmlns:xlink="http://www.w3.org/1999/xlink">
    <!-- Generator: Sketch 52.5 (67469) - http://www.bohemiancoding.com/sketch -->
    <title>social_yt</title>
    <desc>Created with Sketch.</desc>
    <g id="Symbols" stroke="none" stroke-width="1" fill="none" fill-rule="evenodd">
        <g id="footer-blog-desktop" transform="translate(-361.000000, -412.000000)">
            <g id="social_yt" transform="translate(359.000000, 407.000000)">
                <rect id="Rectangle" x="0" y="0" width="24" height="24"></rect>
                <path d="M21.5821706,7.21516485 C22,8.79559048 22,12.093065 22,12.093065 C22,12.093065 22,15.3905394 21.5821706,16.9709651 C21.3520188,17.8427515 20.6744042,18.5295376 19.8138865,18.7625812 C18.2541878,19.1861299 11.9999177,19.1861299 11.9999177,19.1861299 C11.9999177,19.1861299 5.74581224,19.1861299 4.18611351,18.7625812 C3.32559575,18.5295376 2.64798123,17.8427515 2.41799399,16.9709651 C2,15.3905394 2,12.093065 2,12.093065 C2,12.093065 2,8.79559048 2.41799399,7.21516485 C2.64798123,6.34337846 3.32559575,5.65659228 4.18611351,5.42354873 C5.74581224,5 11.9999177,5 11.9999177,5 C11.9999177,5 18.2541878,5 19.8138865,5.42354873 C20.6744042,5.65659228 21.3520188,6.34337846 21.5821706,7.21516485 Z M9.90221015,15.2502462 L15.0982426,12.2103374 L9.90221015,9.1704286 L9.90221015,15.2502462 Z" id="Fill-1-Copy" fill="#FFFFFF"></path>
            </g>
        </g>
    </g>
</svg>