<svg width="137" height="27" viewBox="0 0 137 27" fill="none" xmlns="http://www.w3.org/2000/svg">
<path fill-rule="evenodd" clip-rule="evenodd" d="M22.5269 20.035C21.1427 20.035 19.8715 19.7987 18.7125 19.3268C17.5538 18.8547 16.5493 18.1959 15.7 17.3509C14.8496 16.506 14.1874 15.5052 13.7124 14.3493C13.2376 13.1934 13.0001 11.9201 13.0001 10.5279C13.0001 9.1113 13.2655 7.78753 13.797 6.55736C14.3283 5.32693 15.0633 4.2585 16.0027 3.35104C16.9415 2.4441 18.0417 1.7295 19.3018 1.20724C20.5623 0.685242 21.9209 0.4245 23.3795 0.4245C24.4666 0.4245 25.4863 0.579814 26.4379 0.890185C27.3887 1.20133 28.2171 1.63024 28.9212 2.17667C29.6256 2.72336 30.1819 3.37599 30.5894 4.13379C30.9972 4.89261 31.201 5.69387 31.201 6.53859C31.201 7.48359 30.9047 8.27224 30.3118 8.9061C29.7184 9.54021 28.9892 9.85676 28.1245 9.85676C27.2345 9.85676 26.4933 9.54638 25.9004 8.92487C25.307 8.30361 25.0107 7.52087 25.0107 6.57587C25.0107 6.30304 25.0411 6.04179 25.1033 5.79313C25.1646 5.54473 25.2574 5.18421 25.3809 4.71159C25.5047 4.28961 25.5852 3.97256 25.6223 3.76119C25.6591 3.55033 25.6777 3.32019 25.6777 3.07127C25.6777 2.42533 25.4686 1.8969 25.0519 1.48701C24.6344 1.07687 24.1082 0.871671 23.4744 0.871671C22.9132 0.871671 22.3947 1.05296 21.9199 1.41424C21.4444 1.77527 21.0297 2.2677 20.6763 2.89024C20.3225 3.51381 20.042 4.25439 19.8347 5.11453C19.6276 5.97441 19.524 6.8901 19.524 7.86159C19.524 10.1296 20.0924 11.9301 21.2293 13.2631C22.3658 14.5964 23.8985 15.2627 25.826 15.2627C26.9134 15.2627 27.9018 15.0577 28.7918 14.6478C29.681 14.2377 30.546 13.5979 31.3866 12.7278L31.8312 12.9512C29.7304 17.6742 26.6288 20.035 22.5269 20.035Z" fill="black"/>
<path fill-rule="evenodd" clip-rule="evenodd" d="M45.9857 6.03767C45.8734 4.81496 45.7172 3.82933 45.517 3.08027C45.3168 2.38161 45.0047 1.83904 44.5795 1.45204C44.154 1.0653 43.6409 0.871928 43.0411 0.871928C42.4152 0.871928 41.8842 1.0653 41.4465 1.45204C41.0088 1.83904 40.7022 2.38161 40.5271 3.08027C40.3267 3.87896 40.1771 4.8831 40.0774 6.09347C39.9772 7.3041 39.9273 8.68264 39.9273 10.2299C39.9273 11.7771 39.9772 13.1621 40.0774 14.3848C40.1771 15.6075 40.3267 16.6057 40.5271 17.3795C40.7022 18.0781 41.0088 18.6207 41.4465 19.0077C41.8842 19.3942 42.4152 19.5878 43.0411 19.5878C43.6409 19.5878 44.1599 19.3942 44.5981 19.0077C45.0351 18.6207 45.3416 18.0781 45.517 17.3795C45.9422 15.7574 46.1549 13.3745 46.1549 10.2299C46.1549 8.65821 46.0982 7.26039 45.9857 6.03767ZM52.4764 14.1071C51.9459 15.3002 51.2246 16.3383 50.3119 17.2203C49.3989 18.1026 48.3199 18.7927 47.0741 19.2895C45.8282 19.7863 44.49 20.035 43.0598 20.035C41.6037 20.035 40.253 19.7863 39.0077 19.2895C37.7618 18.7927 36.6823 18.1026 35.7699 17.2203C34.8569 16.3383 34.1359 15.3002 33.6054 14.1071C33.0746 12.9142 32.81 11.622 32.81 10.2299C32.81 8.83796 33.0746 7.5453 33.6054 6.35241C34.1359 5.15927 34.8569 4.1217 35.7699 3.23919C36.6823 2.35719 37.7618 1.66753 39.0077 1.16996C40.253 0.673157 41.6037 0.4245 43.0598 0.4245C44.49 0.4245 45.8282 0.673157 47.0741 1.16996C48.3199 1.66753 49.3989 2.35719 50.3119 3.23919C51.2246 4.1217 51.9459 5.15927 52.4764 6.35241C53.0069 7.5453 53.272 8.83796 53.272 10.2299C53.272 11.622 53.0069 12.9142 52.4764 14.1071Z" fill="black"/>
<path fill-rule="evenodd" clip-rule="evenodd" d="M130.344 3.28063C130.344 5.09246 131.804 6.56126 133.606 6.56126C135.407 6.56126 136.867 5.09246 136.867 3.28063C136.867 1.4688 135.407 0 133.606 0C131.804 0 130.344 1.4688 130.344 3.28063Z" fill="black"/>
<path fill-rule="evenodd" clip-rule="evenodd" d="M0.343811 5.28063C0.343811 7.09246 1.8042 8.56126 3.60565 8.56126C5.4071 8.56126 6.86749 7.09246 6.86749 5.28063C6.86749 3.4688 5.4071 2 3.60565 2C1.8042 2 0.343811 3.4688 0.343811 5.28063Z" fill="black"/>
<path fill-rule="evenodd" clip-rule="evenodd" d="M0.343811 15.2806C0.343811 17.0925 1.8042 18.5613 3.60565 18.5613C5.4071 18.5613 6.86749 17.0925 6.86749 15.2806C6.86749 13.4688 5.4071 12 3.60565 12C1.8042 12 0.343811 13.4688 0.343811 15.2806Z" fill="black"/>
<path fill-rule="evenodd" clip-rule="evenodd" d="M67.3655 16.7168C66.7184 18.1838 65.8103 18.9166 64.6409 18.9166C63.9692 18.9166 63.3597 18.6435 62.8123 18.0963V3.40678C63.3597 3.05912 63.7826 2.82332 64.0815 2.69861C64.3798 2.57441 64.6779 2.51218 64.9771 2.51218C66.0217 2.51218 66.8424 3.22704 67.4394 4.65572C68.0369 6.08544 68.3356 8.05515 68.3356 10.5654C68.3356 13.2003 68.0119 15.2505 67.3655 16.7168ZM74.7657 5.69998C74.4307 4.61895 73.96 3.68655 73.3531 2.90355C72.7453 2.12081 72.02 1.5119 71.1776 1.07681C70.3344 0.641981 69.4055 0.424438 68.3898 0.424438C67.4471 0.424438 66.5361 0.61061 65.6561 0.983467C64.7766 1.35658 63.8283 1.9781 62.8123 2.84775V1.27095V0.424438L53.6637 3.16455V3.33607V3.7187C54.0582 3.77707 54.3857 3.86141 54.6388 3.97507C54.9967 4.13552 55.3115 4.38984 55.5837 4.73672C55.7323 4.93524 55.8494 5.1461 55.9361 5.36904C56.0222 5.59224 56.0902 5.85272 56.1398 6.14972C56.1892 6.44724 56.2262 6.80004 56.251 7.20941C56.2753 7.61827 56.2881 8.09552 56.2881 8.64041V20.4253V21.9491C56.2881 22.3706 56.282 22.7177 56.2697 22.9903C56.2569 23.2628 56.2385 23.4981 56.2142 23.6969C56.1892 23.8944 56.1521 24.0932 56.1028 24.2919C56.0289 24.7625 55.8678 25.1343 55.6208 25.4069C55.3488 25.754 55.0279 25.9955 54.6572 26.132C54.4859 26.195 54.2619 26.2508 53.9904 26.3007V26.8952H65.1062V26.3619C64.7741 26.3195 64.4995 26.2691 64.2952 26.2082C63.9242 26.0968 63.6279 25.907 63.4057 25.6368C63.2817 25.4894 63.183 25.33 63.1091 25.158C63.0347 24.9854 62.9731 24.7646 62.9238 24.4946C62.8737 24.224 62.8432 23.8985 62.831 23.5182C62.8182 23.1363 62.8123 22.664 62.8123 22.099V18.6926C63.4563 19.1905 64.0457 19.5381 64.5782 19.7369C65.1113 19.9354 65.7367 20.0349 66.4561 20.0349C67.6951 20.0349 68.8477 19.7613 69.9135 19.2149C70.9792 18.6682 71.9088 17.9099 72.7024 16.9405C73.4955 15.9713 74.1211 14.834 74.5795 13.5292C75.0385 12.2242 75.2675 10.814 75.2675 9.29792C75.2675 7.98032 75.1003 6.78101 74.7657 5.69998Z" fill="black"/>
<path fill-rule="evenodd" clip-rule="evenodd" d="M90.3593 16.7168C89.7122 18.1838 88.8041 18.9166 87.6347 18.9166C86.963 18.9166 86.3535 18.6435 85.8061 18.0963V3.40678C86.3535 3.05912 86.7764 2.82332 87.0753 2.69861C87.3736 2.57441 87.6717 2.51218 87.9709 2.51218C89.0155 2.51218 89.8362 3.22704 90.4332 4.65572C91.0307 6.08544 91.3294 8.05515 91.3294 10.5654C91.3294 13.2003 91.0057 15.2505 90.3593 16.7168ZM97.7595 5.69998C97.4245 4.61895 96.9538 3.68655 96.3469 2.90355C95.7392 2.12081 95.0138 1.5119 94.1714 1.07681C93.3282 0.641981 92.3993 0.424438 91.3833 0.424438C90.4409 0.424438 89.5299 0.61061 88.6499 0.983467C87.7704 1.35658 86.8221 1.9781 85.8061 2.84775V1.27095V0.424438L76.6575 3.16455V3.33607V3.7187C77.052 3.77707 77.3795 3.86141 77.6326 3.97507C77.9905 4.13552 78.3053 4.38984 78.5776 4.73672C78.7261 4.93524 78.8432 5.1461 78.9299 5.36904C79.016 5.59224 79.084 5.85272 79.1336 6.14972C79.183 6.44724 79.2201 6.80004 79.2449 7.20941C79.2691 7.61827 79.2819 8.09552 79.2819 8.64041V20.4253V21.9491C79.2819 22.3706 79.2758 22.7177 79.2635 22.9903C79.2507 23.2628 79.2323 23.4981 79.208 23.6969C79.183 23.8944 79.1459 24.0932 79.0966 24.2919C79.0227 24.7625 78.8616 25.1343 78.6146 25.4069C78.3426 25.754 78.0217 25.9955 77.651 26.132C77.4797 26.195 77.2557 26.2508 76.9842 26.3007V26.8952H88.1V26.3619C87.7679 26.3195 87.4933 26.2691 87.289 26.2082C86.918 26.0968 86.6217 25.907 86.3995 25.6368C86.2755 25.4894 86.1768 25.33 86.1029 25.158C86.0285 24.9854 85.9669 24.7646 85.9176 24.4946C85.8675 24.224 85.837 23.8985 85.8248 23.5182C85.812 23.1363 85.8061 22.664 85.8061 22.099V18.6926C86.4501 19.1905 87.0395 19.5381 87.5723 19.7369C88.1051 19.9354 88.7305 20.0349 89.4499 20.0349C90.6889 20.0349 91.8415 19.7613 92.9074 19.2149C93.973 18.6682 94.9026 17.9099 95.6962 16.9405C96.489 15.9713 97.1149 14.834 97.5733 13.5292C98.0323 12.2242 98.2613 10.814 98.2613 9.29792C98.2613 7.98032 98.0941 6.78101 97.7595 5.69998Z" fill="black"/>
<path fill-rule="evenodd" clip-rule="evenodd" d="M130.352 18.8626C130.006 18.7513 129.734 18.5597 129.536 18.2876C129.412 18.1398 129.32 17.9796 129.258 17.8063C129.196 17.6332 129.141 17.4172 129.092 17.1575C129.042 16.898 129.011 16.5707 128.999 16.176C128.986 15.7807 128.98 15.2983 128.98 14.7301V12.3317V10.0981V0.367859L119.726 3.14037V3.69914C120.169 3.757 120.531 3.84726 120.807 3.97094C121.164 4.13166 121.48 4.38572 121.752 4.73183C121.9 4.92957 122.017 5.14043 122.104 5.36312C122.19 5.58632 122.258 5.84603 122.308 6.14303C122.357 6.44029 122.394 6.79309 122.419 7.20169C122.443 7.61003 122.456 8.08652 122.456 8.63114V14.7213C122.456 15.8851 122.419 16.7083 122.345 17.1907C122.271 17.6736 122.135 18.0387 121.937 18.2861C121.715 18.5589 121.43 18.7505 121.085 18.8618C120.835 18.9423 120.486 19.0061 120.045 19.0539V19.5505H131.266V19.0382C130.886 18.9922 130.576 18.9346 130.352 18.8626Z" fill="black"/>
<path fill-rule="evenodd" clip-rule="evenodd" d="M109.66 0.871793C110.402 0.871793 110.97 1.17985 111.365 1.79519C111.76 2.41002 112.008 3.39642 112.107 4.75285C112.131 5.00434 112.15 5.23036 112.162 5.43094C112.175 5.63176 112.186 5.85111 112.199 6.09025C112.211 6.32914 112.218 6.59888 112.218 6.89999V7.60996H106.515C106.543 5.48982 106.805 3.84848 107.306 2.69905C107.837 1.48122 108.622 0.871793 109.66 0.871793ZM118.594 12.1311C118.223 12.7035 117.914 13.1318 117.667 13.4173C117.42 13.7035 117.086 13.983 116.666 14.2561C115.578 15.027 114.257 15.4119 112.7 15.4119C108.598 15.4119 106.534 13.0886 106.509 8.44234H118.158V8.44028H118.779C118.631 7.22271 118.303 6.11648 117.797 5.12185C117.29 4.12825 116.641 3.28276 115.851 2.58668C115.059 1.89111 114.145 1.35651 113.107 0.98365C112.069 0.610536 110.933 0.424622 109.697 0.424622C108.289 0.424622 106.972 0.685364 105.749 1.20736C104.526 1.72936 103.457 2.44422 102.543 3.35091C101.628 4.25836 100.912 5.32114 100.393 6.53871C99.8737 7.75679 99.614 9.06179 99.614 10.4535C99.614 11.8207 99.8609 13.0881 100.356 14.2561C100.85 15.4248 101.536 16.4374 102.413 17.2947C103.29 18.1523 104.328 18.8235 105.527 19.3079C106.725 19.7926 108.017 20.0351 109.401 20.0351C110.858 20.0351 112.193 19.7556 113.404 19.1963C114.615 18.6368 115.653 17.8355 116.518 16.7915C116.79 16.4436 117.03 16.1204 117.241 15.8221C117.45 15.524 117.642 15.2132 117.815 14.8902C117.988 14.5672 118.161 14.2003 118.334 13.7904C118.507 13.38 118.705 12.8768 118.928 12.2802L118.594 12.1311Z" fill="black"/>
</svg>
