<svg xmlns="http://www.w3.org/2000/svg" viewBox="0 0 44 44"><defs><style>.cls-1{fill:#ff3465;}.cls-2{fill:#fff;fill-rule:evenodd;}</style></defs><title>Asset 2</title><g id="Layer_2" data-name="Layer 2"><g id="Layer_1-2" data-name="Layer 1"><g id="Copper-icon-pink"><g id="circle"><circle id="Oval" class="cls-1" cx="22" cy="22" r="22"/><path id="Fill-4" class="cls-2" d="M17.12,33.81a11.76,11.76,0,0,1-4-2.56,11.62,11.62,0,0,1-2.61-3.9,12.85,12.85,0,0,1-.94-5,12.75,12.75,0,0,1,4-9.31,13.7,13.7,0,0,1,4.32-2.78,14,14,0,0,1,5.36-1,12.8,12.8,0,0,1,4,.61,10.67,10.67,0,0,1,3.26,1.67,8.05,8.05,0,0,1,2.19,2.54,6.47,6.47,0,0,1,.8,3.12,4.29,4.29,0,0,1-1.17,3.07,3.8,3.8,0,0,1-2.87,1.23,3.88,3.88,0,0,1-2.92-1.21,4.52,4.52,0,0,1-1-4.06c.08-.32.2-.79.36-1.4s.27-1,.32-1.24a4.94,4.94,0,0,0,.07-.89,2.73,2.73,0,0,0-.82-2.06,2.87,2.87,0,0,0-2.07-.8,3.31,3.31,0,0,0-2,.71,6.08,6.08,0,0,0-1.63,1.91,11.1,11.1,0,0,0-1.11,2.89,15.05,15.05,0,0,0-.4,3.56,10.36,10.36,0,0,0,2.23,7,7.59,7.59,0,0,0,6,2.6,9.33,9.33,0,0,0,3.89-.8,11.33,11.33,0,0,0,3.4-2.49l.59.29q-4.14,9.2-12.21,9.19A13.14,13.14,0,0,1,17.12,33.81Z"/></g></g></g></g></svg>