<svg width="143" height="28" viewBox="0 0 143 28" fill="none" xmlns="http://www.w3.org/2000/svg">
<path fill-rule="evenodd" clip-rule="evenodd" d="M23.0944 20.8584C21.6533 20.8584 20.3299 20.6124 19.1233 20.1211C17.9171 19.6296 16.8713 18.9438 15.987 18.0641C15.1018 17.1844 14.4124 16.1425 13.9178 14.9392C13.4235 13.7358 13.1763 12.4101 13.1763 10.9608C13.1763 9.486 13.4526 8.10785 14.0059 6.82715C14.559 5.54618 15.3243 4.43387 16.3022 3.48913C17.2796 2.54494 18.4249 1.80099 19.7369 1.25728C21.0491 0.713836 22.4635 0.442383 23.982 0.442383C25.1138 0.442383 26.1753 0.604077 27.166 0.927197C28.1559 1.25112 29.0183 1.69765 29.7513 2.26653C30.4846 2.83567 31.0638 3.5151 31.4881 4.30403C31.9126 5.09403 32.1248 5.9282 32.1248 6.80761C32.1248 7.79142 31.8163 8.61248 31.199 9.27237C30.5812 9.93253 29.8221 10.2621 28.9219 10.2621C27.9954 10.2621 27.2238 9.93895 26.6065 9.29191C25.9887 8.64513 25.6802 7.83024 25.6802 6.84642C25.6802 6.56239 25.7119 6.2904 25.7766 6.03153C25.8405 5.77293 25.9371 5.3976 26.0656 4.90556C26.1945 4.46626 26.2783 4.13618 26.3169 3.91612C26.3552 3.69661 26.3747 3.45701 26.3747 3.19787C26.3747 2.5254 26.1569 1.97526 25.7231 1.54854C25.2884 1.12155 24.7406 0.907922 24.0808 0.907922C23.4966 0.907922 22.9568 1.09665 22.4625 1.47278C21.9674 1.84864 21.5357 2.36129 21.1678 3.00941C20.7994 3.65859 20.5074 4.42958 20.2916 5.32506C20.076 6.22026 19.9682 7.17356 19.9682 8.18495C19.9682 10.5461 20.5599 12.4206 21.7435 13.8084C22.9267 15.1964 24.5224 15.89 26.529 15.89C27.6611 15.89 28.6901 15.6767 29.6166 15.25C30.5424 14.823 31.4428 14.1569 32.318 13.251L32.7809 13.4836C30.5938 18.4006 27.3648 20.8584 23.0944 20.8584Z" fill="white"/>
<path fill-rule="evenodd" clip-rule="evenodd" d="M47.5166 6.2858C47.3998 5.01287 47.2371 3.98675 47.0287 3.20693C46.8203 2.47957 46.4953 1.91471 46.0527 1.51182C45.6097 1.10919 45.0755 0.907875 44.4511 0.907875C43.7995 0.907875 43.2467 1.10919 42.791 1.51182C42.3353 1.91471 42.0162 2.47957 41.8338 3.20693C41.6252 4.03842 41.4694 5.08381 41.3656 6.34389C41.2613 7.60425 41.2094 9.03942 41.2094 10.6502C41.2094 12.261 41.2613 13.7028 41.3656 14.9758C41.4694 16.2487 41.6252 17.2879 41.8338 18.0935C42.0162 18.8208 42.3353 19.3857 42.791 19.7886C43.2467 20.1909 43.7995 20.3925 44.4511 20.3925C45.0755 20.3925 45.6159 20.1909 46.0721 19.7886C46.527 19.3857 46.8461 18.8208 47.0287 18.0935C47.4714 16.4048 47.6928 13.924 47.6928 10.6502C47.6928 9.01398 47.6337 7.55874 47.5166 6.2858ZM54.274 14.687C53.7217 15.9291 52.9708 17.0098 52.0206 17.9281C51.0701 18.8466 49.9469 19.5651 48.6498 20.0823C47.3527 20.5995 45.9596 20.8584 44.4706 20.8584C42.9548 20.8584 41.5486 20.5995 40.2521 20.0823C38.955 19.5651 37.8312 18.8466 36.8813 17.9281C35.9308 17.0098 35.1802 15.9291 34.6279 14.687C34.0753 13.4451 33.7998 12.0999 33.7998 10.6505C33.7998 9.20143 34.0753 7.85567 34.6279 6.61379C35.1802 5.37164 35.9308 4.29145 36.8813 3.37268C37.8312 2.45445 38.955 1.73647 40.2521 1.21846C41.5486 0.701254 42.9548 0.442383 44.4706 0.442383C45.9596 0.442383 47.3527 0.701254 48.6498 1.21846C49.9469 1.73647 51.0701 2.45445 52.0206 3.37268C52.9708 4.29145 53.7217 5.37164 54.274 6.61379C54.8263 7.85567 55.1023 9.20143 55.1023 10.6505C55.1023 12.0999 54.8263 13.4451 54.274 14.687Z" fill="white"/>
<path fill-rule="evenodd" clip-rule="evenodd" d="M135.34 3.41587C135.34 5.30212 136.86 6.83125 138.736 6.83125C140.611 6.83125 142.131 5.30212 142.131 3.41587C142.131 1.52962 140.611 0.000488281 138.736 0.000488281C136.86 0.000488281 135.34 1.52962 135.34 3.41587Z" fill="white"/>
<path fill-rule="evenodd" clip-rule="evenodd" d="M0 5.4979C0 7.38415 1.52037 8.91328 3.39582 8.91328C5.27127 8.91328 6.79164 7.38415 6.79164 5.4979C6.79164 3.61165 5.27127 2.08252 3.39582 2.08252C1.52037 2.08252 0 3.61165 0 5.4979Z" fill="white"/>
<path fill-rule="evenodd" clip-rule="evenodd" d="M0 15.9085C0 17.7948 1.52037 19.3239 3.39582 19.3239C5.27127 19.3239 6.79164 17.7948 6.79164 15.9085C6.79164 14.0223 5.27127 12.4932 3.39582 12.4932C1.52037 12.4932 0 14.0223 0 15.9085Z" fill="white"/>
<path fill-rule="evenodd" clip-rule="evenodd" d="M69.7744 17.4039C69.1007 18.9312 68.1553 19.6941 66.9378 19.6941C66.2386 19.6941 65.604 19.4098 65.0342 18.8402V3.54724C65.604 3.1853 66.0443 2.93981 66.3554 2.80998C66.6661 2.68068 66.9764 2.61589 67.2878 2.61589C68.3754 2.61589 69.2298 3.36011 69.8513 4.84748C70.4734 6.33592 70.7843 8.38654 70.7843 10.9999C70.7843 13.7431 70.4473 15.8775 69.7744 17.4039ZM77.4785 5.93462C77.1298 4.80919 76.6398 3.83849 76.0079 3.02333C75.3752 2.20843 74.6201 1.57451 73.7431 1.12155C72.8652 0.668861 71.8982 0.442383 70.8407 0.442383C69.8594 0.442383 68.911 0.636201 67.9948 1.02437C67.0792 1.41281 66.092 2.05986 65.0342 2.96524V1.32367V0.442383L55.5098 3.29505V3.47361V3.87195C55.9205 3.93272 56.2614 4.02053 56.5249 4.13886C56.8976 4.3059 57.2252 4.57066 57.5087 4.9318C57.6634 5.13847 57.7853 5.35798 57.8755 5.59008C57.9652 5.82245 58.036 6.09364 58.0876 6.40284C58.139 6.71257 58.1776 7.07986 58.2034 7.50605C58.2287 7.9317 58.242 8.42856 58.242 8.99583V21.2648V22.8512C58.242 23.2899 58.2356 23.6513 58.2229 23.9351C58.2095 24.2189 58.1904 24.4638 58.1651 24.6708C58.139 24.8764 58.1004 25.0833 58.049 25.2902C57.9721 25.7801 57.8044 26.1672 57.5473 26.451C57.2641 26.8124 56.9301 27.0638 56.5441 27.2059C56.3658 27.2715 56.1326 27.3296 55.8499 27.3815V28.0005H67.4223V27.4453C67.0765 27.4011 66.7907 27.3486 66.578 27.2852C66.1918 27.1693 65.8833 26.9717 65.652 26.6903C65.5229 26.5369 65.4201 26.371 65.3432 26.1919C65.2658 26.0122 65.2016 25.7823 65.1502 25.5012C65.0981 25.2196 65.0664 24.8806 65.0536 24.4847C65.0403 24.0872 65.0342 23.5954 65.0342 23.0072V19.461C65.7047 19.9792 66.3182 20.3412 66.8726 20.5481C67.4276 20.7548 68.0787 20.8584 68.8277 20.8584C70.1175 20.8584 71.3174 20.5735 72.4271 20.0047C73.5365 19.4355 74.5043 18.6461 75.3305 17.6368C76.1562 16.6278 76.8075 15.4438 77.2848 14.0854C77.7625 12.7268 78.001 11.2587 78.001 9.68035C78.001 8.30863 77.8269 7.06005 77.4785 5.93462Z" fill="white"/>
<path fill-rule="evenodd" clip-rule="evenodd" d="M93.7125 17.4039C93.0389 18.9312 92.0934 19.6941 90.876 19.6941C90.1767 19.6941 89.5422 19.4098 88.9723 18.8402V3.54724C89.5422 3.1853 89.9824 2.93981 90.2936 2.80998C90.6042 2.68068 90.9145 2.61589 91.226 2.61589C92.3135 2.61589 93.168 3.36011 93.7895 4.84748C94.4115 6.33592 94.7224 8.38654 94.7224 10.9999C94.7224 13.7431 94.3854 15.8775 93.7125 17.4039ZM101.417 5.93462C101.068 4.80919 100.578 3.83849 99.9464 3.02333C99.3137 2.20843 98.5586 1.57451 97.6815 1.12155C96.8037 0.668861 95.8367 0.442383 94.7789 0.442383C93.7978 0.442383 92.8495 0.636201 91.9333 1.02437C91.0177 1.41281 90.0304 2.05986 88.9727 2.96524V1.32367V0.442383L79.4482 3.29505V3.47361V3.87195C79.8589 3.93272 80.1999 4.02053 80.4634 4.13886C80.8361 4.3059 81.1637 4.57066 81.4472 4.9318C81.6018 5.13847 81.7237 5.35798 81.814 5.59008C81.9037 5.82245 81.9745 6.09364 82.0261 6.40284C82.0775 6.71257 82.1161 7.07986 82.1419 7.50605C82.1672 7.9317 82.1805 8.42856 82.1805 8.99583V21.2648V22.8512C82.1805 23.2899 82.1741 23.6513 82.1613 23.9351C82.148 24.2189 82.1289 24.4638 82.1036 24.6708C82.0775 24.8764 82.0389 25.0833 81.9875 25.2902C81.9106 25.7801 81.7429 26.1672 81.4858 26.451C81.2026 26.8124 80.8685 27.0638 80.4826 27.2059C80.3043 27.2715 80.0711 27.3296 79.7884 27.3815V28.0005H91.3608V27.4453C91.015 27.4011 90.7291 27.3486 90.5165 27.2852C90.1303 27.1693 89.8218 26.9717 89.5905 26.6903C89.4614 26.5369 89.3586 26.371 89.2817 26.1919C89.2042 26.0122 89.1401 25.7823 89.0887 25.5012C89.0366 25.2196 89.0049 24.8806 88.9921 24.4847C88.9788 24.0872 88.9727 23.5954 88.9727 23.0072V19.461C89.6432 19.9792 90.2567 20.3412 90.8114 20.5481C91.3661 20.7548 92.0171 20.8584 92.7662 20.8584C94.056 20.8584 95.2559 20.5735 96.3656 20.0047C97.475 19.4355 98.4428 18.6461 99.269 17.6368C100.094 16.6278 100.746 15.4438 101.223 14.0854C101.701 12.7268 101.939 11.2587 101.939 9.68035C101.939 8.30863 101.765 7.06005 101.417 5.93462Z" fill="white"/>
<path fill-rule="evenodd" clip-rule="evenodd" d="M135.348 19.6377C134.988 19.5218 134.705 19.3224 134.499 19.0391C134.37 18.8852 134.274 18.7184 134.21 18.538C134.145 18.3578 134.088 18.133 134.036 17.8626C133.985 17.5925 133.952 17.2517 133.94 16.8407C133.926 16.4293 133.921 15.9271 133.921 15.3354V12.8385V10.5133V0.383301L124.286 3.2697V3.85142C124.747 3.91165 125.124 4.00562 125.411 4.13438C125.783 4.3017 126.112 4.56619 126.395 4.92652C126.549 5.13239 126.671 5.35191 126.762 5.58374C126.852 5.81611 126.922 6.08649 126.974 6.39569C127.025 6.70516 127.064 7.07245 127.09 7.49783C127.115 7.92295 127.128 8.41901 127.128 8.986V15.3263C127.128 16.538 127.09 17.3949 127.012 17.8971C126.935 18.3999 126.794 18.78 126.588 19.0375C126.356 19.3216 126.06 19.521 125.7 19.6369C125.441 19.7207 125.077 19.7871 124.618 19.8369V20.3538H136.3V19.8206C135.904 19.7726 135.581 19.7127 135.348 19.6377Z" fill="white"/>
<path fill-rule="evenodd" clip-rule="evenodd" d="M113.806 0.908379C114.579 0.908379 115.17 1.22909 115.582 1.86971C115.993 2.50979 116.25 3.53671 116.353 4.94885C116.379 5.21067 116.398 5.44598 116.411 5.65479C116.424 5.86387 116.436 6.09222 116.45 6.34119C116.462 6.58988 116.469 6.87071 116.469 7.18419V7.92332H110.532C110.561 5.71609 110.834 4.00733 111.356 2.81069C111.909 1.54284 112.726 0.908379 113.806 0.908379ZM123.107 12.6301C122.721 13.2261 122.399 13.6721 122.142 13.9692C121.885 14.2672 121.538 14.5582 121.1 14.8425C119.968 15.645 118.592 16.0458 116.971 16.0458C112.701 16.0458 110.552 13.6271 110.526 8.78992H122.654V8.78778H123.3C123.146 7.52019 122.804 6.36852 122.277 5.33304C121.75 4.29863 121.074 3.41841 120.251 2.69374C119.427 1.96959 118.476 1.41303 117.395 1.02486C116.315 0.636422 115.131 0.442871 113.845 0.442871C112.379 0.442871 111.008 0.714324 109.735 1.25777C108.461 1.80121 107.348 2.54543 106.397 3.48936C105.445 4.43409 104.699 5.54051 104.158 6.8081C103.618 8.07621 103.348 9.43482 103.348 10.8836C103.348 12.307 103.605 13.6265 104.12 14.8425C104.634 16.0592 105.348 17.1134 106.262 18.0059C107.175 18.8987 108.255 19.5974 109.503 20.1018C110.751 20.6064 112.095 20.8589 113.536 20.8589C115.054 20.8589 116.443 20.5679 117.704 19.9856C118.964 19.4031 120.045 18.5689 120.946 17.482C121.229 17.1198 121.48 16.7833 121.698 16.4728C121.917 16.1625 122.116 15.8389 122.296 15.5026C122.477 15.1664 122.657 14.7844 122.837 14.3576C123.016 13.9304 123.223 13.4065 123.455 12.7854L123.107 12.6301Z" fill="white"/>
</svg>
