<?xml version="1.0" encoding="UTF-8"?>
<svg width="161px" height="161px" viewBox="0 0 161 161" version="1.1" xmlns="http://www.w3.org/2000/svg" xmlns:xlink="http://www.w3.org/1999/xlink">
    <!-- Generator: Sketch 50.2 (55047) - http://www.bohemiancoding.com/sketch -->
    <title>Group</title>
    <desc>Created with Sketch.</desc>
    <defs></defs>
    <g id="Symbols" stroke="none" stroke-width="1" fill="none" fill-rule="evenodd">
        <g id="circle-3" transform="translate(-20.000000, -20.000000)" fill="#00E6C3">
            <g id="Group" transform="translate(20.000000, 20.000000)">
                <path d="M80.3508694,3.5 C79.3808694,3.5 78.6008694,2.71 78.6008694,1.75 C78.6008694,0.78 79.3908694,0 80.3608694,0 C81.3208694,0.01 82.1008694,0.79 82.1008694,1.76 C82.1008694,2.72 81.3108694,3.5 80.3508694,3.5 Z M68.5808694,2.59 C68.4608694,1.63 69.1408694,0.75 70.1008694,0.63 C71.0508694,0.51 71.9308694,1.19 72.0508694,2.15 C72.1708694,3.11 71.4908694,3.979 70.5308694,4.1 C70.4608694,4.11 70.3908694,4.12 70.3108694,4.12 C69.4408694,4.12 68.6908694,3.47 68.5808694,2.59 Z M90.1608694,4.16 C89.2008694,4.03 88.5308694,3.15 88.6508694,2.2 C88.7808694,1.24 89.6508694,0.56 90.6108694,0.69 C91.5708694,0.81 92.2508694,1.69 92.1208694,2.65 C92.0108694,3.53 91.2608694,4.17 90.3908694,4.17 C90.3108694,4.17 90.2408694,4.17 90.1608694,4.16 Z M58.7408694,4.71 C58.5008694,3.77 59.0608694,2.81 60.0008694,2.57 C60.9308694,2.33 61.8908694,2.89 62.1308694,3.82 C62.3708694,4.76 61.8108694,5.72 60.8808694,5.96 C60.7308694,6 60.5808694,6.02 60.4408694,6.02 C59.6608694,6.02 58.9508694,5.49 58.7408694,4.71 Z M99.8108694,6.05 C98.8808694,5.8 98.3208694,4.84 98.5608694,3.91 C98.8108694,2.97 99.7708694,2.42 100.700869,2.66 C101.640869,2.91 102.190869,3.86 101.950869,4.8 C101.740869,5.59 101.030869,6.1 100.260869,6.1 C100.110869,6.1 99.9608694,6.08 99.8108694,6.05 Z M49.2708694,8.07 C48.9108694,7.17 49.3508694,6.16 50.2408694,5.79 L50.2408694,5.8 C51.1408694,5.43 52.1608694,5.87 52.5208694,6.76 C52.8808694,7.66 52.4508694,8.68 51.5508694,9.04 C51.3408694,9.13 51.1208694,9.17 50.9008694,9.17 C50.2108694,9.17 49.5508694,8.75 49.2708694,8.07 Z M109.140869,9.15 C108.240869,8.79 107.810869,7.77 108.180869,6.87 C108.540869,5.979 109.560869,5.55 110.460869,5.91 C111.350869,6.27 111.780869,7.29 111.420869,8.19 C111.140869,8.87 110.490869,9.28 109.800869,9.28 C109.580869,9.28 109.350869,9.24 109.140869,9.15 Z M40.3108694,12.62 C39.8408694,11.78 40.1308694,10.71 40.9808694,10.24 C41.8208694,9.77 42.8908694,10.07 43.3608694,10.91 C43.8308694,11.75 43.5408694,12.82 42.6908694,13.29 C42.4208694,13.44 42.1308694,13.51 41.8408694,13.51 C41.2308694,13.51 40.6308694,13.19 40.3108694,12.62 Z M117.990869,13.44 C117.150869,12.96 116.860869,11.89 117.330869,11.05 C117.810869,10.21 118.870869,9.92 119.720869,10.39 C120.560869,10.87 120.850869,11.93 120.380869,12.78 C120.060869,13.35 119.460869,13.66 118.850869,13.66 C118.560869,13.66 118.260869,13.59 117.990869,13.44 Z M31.9908694,18.28 C31.4208694,17.5 31.5808694,16.41 32.3508694,15.83 C33.1308694,15.26 34.2308694,15.42 34.8008694,16.19 C35.3808694,16.97 35.2208694,18.06 34.4408694,18.64 C34.1308694,18.87 33.7608694,18.99 33.4008694,18.99 C32.8608694,18.99 32.3408694,18.74 31.9908694,18.28 Z M126.220869,18.82 C125.450869,18.24 125.290869,17.15 125.870869,16.37 C126.450869,15.6 127.550869,15.44 128.320869,16.02 C129.090869,16.61 129.250869,17.7 128.670869,18.47 C128.330869,18.93 127.800869,19.17 127.270869,19.17 C126.900869,19.17 126.540869,19.06 126.220869,18.82 Z M24.4608694,24.95 C23.7908694,24.26 23.8108694,23.15 24.5108694,22.479 C25.2108694,21.81 26.3208694,21.83 26.9908694,22.52 C27.6608694,23.22 27.6408694,24.33 26.9408694,25 C26.6008694,25.32 26.1608694,25.49 25.7208694,25.49 C25.2708694,25.49 24.8108694,25.31 24.4608694,24.95 Z M133.690869,25.22 C133.000869,24.55 132.980869,23.44 133.660869,22.75 C134.330869,22.05 135.440869,22.04 136.130869,22.71 C136.830869,23.39 136.840869,24.49 136.170869,25.19 C135.820869,25.54 135.370869,25.72 134.910869,25.72 C134.470869,25.72 134.030869,25.55 133.690869,25.22 Z M17.8408694,32.53 C17.0908694,31.92 16.9708694,30.82 17.5808694,30.07 C18.1808694,29.31 19.2808694,29.19 20.0408694,29.8 C20.7908694,30.4 20.9108694,31.5 20.3008694,32.26 C19.9608694,32.69 19.4508694,32.91 18.9408694,32.91 C18.5608694,32.91 18.1708694,32.79 17.8408694,32.53 Z M140.290869,32.51 C139.690869,31.76 139.810869,30.66 140.570869,30.06 C141.330869,29.45 142.430869,29.58 143.030869,30.34 C143.630869,31.09 143.500869,32.19 142.750869,32.8 C142.420869,33.05 142.040869,33.17 141.660869,33.17 C141.140869,33.17 140.630869,32.95 140.290869,32.51 Z M12.2508694,40.89 C11.4208694,40.38 11.1608694,39.31 11.6708694,38.479 C12.1708694,37.66 13.2408694,37.4 14.0708694,37.9 C14.9008694,38.4 15.1608694,39.479 14.6508694,40.31 C14.3208694,40.85 13.7508694,41.14 13.1608694,41.14 C12.8508694,41.14 12.5308694,41.06 12.2508694,40.89 Z M145.900869,40.59 L145.900869,40.58 C145.400869,39.76 145.670869,38.68 146.500869,38.18 C147.320869,37.68 148.400869,37.95 148.900869,38.77 C149.400869,39.6 149.130869,40.67 148.310869,41.18 C148.020869,41.35 147.710869,41.43 147.400869,41.43 C146.810869,41.43 146.230869,41.13 145.900869,40.59 Z M7.77086941,49.9 C6.89086941,49.51 6.49086941,48.47 6.88086941,47.59 C7.28086941,46.71 8.31086941,46.31 9.19086941,46.7 C10.0808694,47.1 10.4708694,48.13 10.0808694,49.01 C9.79086941,49.67 9.15086941,50.05 8.48086941,50.05 C8.24086941,50.05 8.00086941,50 7.77086941,49.9 Z M150.440869,49.3 C150.050869,48.42 150.450869,47.39 151.330869,47 C152.220869,46.6 153.250869,47 153.640869,47.89 C154.030869,48.77 153.630869,49.81 152.750869,50.2 C152.520869,50.3 152.280869,50.35 152.040869,50.35 C151.370869,50.35 150.730869,49.96 150.440869,49.3 Z M4.49086941,59.42 C3.56086941,59.14 3.03086941,58.17 3.31086941,57.24 C3.59086941,56.31 4.56086941,55.79 5.49086941,56.06 C6.41086941,56.34 6.94086941,57.32 6.67086941,58.24 C6.44086941,59 5.74086941,59.49 4.99086941,59.49 C4.82086941,59.49 4.66086941,59.47 4.49086941,59.42 Z M153.830869,58.53 C153.550869,57.6 154.080869,56.63 155.010869,56.35 C155.940869,56.08 156.910869,56.61 157.180869,57.53 C157.460869,58.46 156.930869,59.43 156.000869,59.71 C155.840869,59.76 155.670869,59.78 155.500869,59.78 C154.750869,59.78 154.050869,59.29 153.830869,58.53 Z M2.46086941,69.27 C1.50086941,69.12 0.860869409,68.21 1.01086941,67.26 C1.17086941,66.31 2.07086941,65.66 3.02086941,65.82 C3.98086941,65.97 4.62086941,66.87 4.47086941,67.82 C4.33086941,68.68 3.58086941,69.29 2.74086941,69.29 C2.65086941,69.29 2.55086941,69.28 2.46086941,69.27 Z M156.000869,68.11 C155.840869,67.16 156.500869,66.26 157.450869,66.11 C158.410869,65.96 159.300869,66.61 159.450869,67.56 C159.610869,68.52 158.950869,69.41 158.000869,69.57 C157.910869,69.58 157.810869,69.59 157.720869,69.59 C156.880869,69.59 156.130869,68.97 156.000869,68.11 Z M1.69086941,79.3 C0.720869409,79.27 -0.0291305909,78.46 0.000869409139,77.49 C0.0408694091,76.52 0.850869409,75.77 1.81086941,75.8 C2.78086941,75.84 3.53086941,76.65 3.50086941,77.61 C3.46086941,78.56 2.69086941,79.3 1.75086941,79.3 L1.69086941,79.3 Z M156.920869,77.9 C156.890869,76.94 157.650869,76.13 158.620869,76.1 C159.580869,76.07 160.390869,76.83 160.420869,77.8 L160.410869,77.8 C160.440869,78.76 159.680869,79.57 158.720869,79.6 L158.660869,79.6 C157.720869,79.6 156.950869,78.85 156.920869,77.9 Z M0.290869409,87.76 C0.200869409,86.8 0.910869409,85.95 1.87086941,85.86 C2.84086941,85.77 3.69086941,86.479 3.78086941,87.44 C3.87086941,88.4 3.16086941,89.26 2.20086941,89.35 L2.04086941,89.35 C1.14086941,89.35 0.380869409,88.67 0.290869409,87.76 Z M158.130869,89.79 C157.170869,89.69 156.470869,88.83 156.570869,87.87 L156.570869,87.82 C156.570869,87.79 156.580869,87.76 156.580869,87.729 C156.670869,86.77 157.530869,86.07 158.490869,86.16 C159.450869,86.26 160.160869,87.11 160.060869,88.07 L160.060869,88.13 C160.050869,88.16 160.050869,88.19 160.050869,88.22 C159.960869,89.12 159.200869,89.79 158.310869,89.79 L158.130869,89.79 Z M1.90086941,97.92 C1.69086941,96.979 2.28086941,96.04 3.23086941,95.83 C4.17086941,95.61 5.10086941,96.21 5.32086941,97.15 C5.53086941,98.09 4.94086941,99.03 3.99086941,99.24 C3.86086941,99.27 3.74086941,99.29 3.61086941,99.29 C2.81086941,99.29 2.09086941,98.729 1.90086941,97.92 Z M156.290869,99.67 C155.340869,99.46 154.760869,98.51 154.970869,97.57 C155.190869,96.63 156.130869,96.04 157.070869,96.26 C158.010869,96.479 158.600869,97.42 158.380869,98.36 C158.200869,99.17 157.480869,99.72 156.680869,99.72 C156.550869,99.72 156.420869,99.7 156.290869,99.67 Z M4.81086941,107.78 C4.47086941,106.88 4.94086941,105.87 5.85086941,105.54 C6.75086941,105.21 7.76086941,105.67 8.09086941,106.58 C8.42086941,107.49 7.96086941,108.49 7.05086941,108.83 C6.85086941,108.9 6.65086941,108.93 6.45086941,108.93 C5.74086941,108.93 5.07086941,108.49 4.81086941,107.78 Z M153.190869,109.24 C152.280869,108.9 151.820869,107.9 152.160869,106.99 C152.490869,106.08 153.500869,105.62 154.410869,105.96 C155.310869,106.29 155.780869,107.3 155.440869,108.21 C155.180869,108.91 154.510869,109.35 153.800869,109.35 C153.600869,109.35 153.390869,109.31 153.190869,109.24 Z M8.95086941,117.19 C8.50086941,116.33 8.84086941,115.27 9.70086941,114.83 C10.5508694,114.38 11.6108694,114.71 12.0608694,115.57 L12.0508694,115.57 C12.5008694,116.43 12.1708694,117.49 11.3108694,117.93 C11.0508694,118.07 10.7808694,118.13 10.5008694,118.13 C9.87086941,118.13 9.26086941,117.79 8.95086941,117.19 Z M148.880869,118.34 C148.030869,117.89 147.700869,116.83 148.150869,115.97 C148.600869,115.12 149.660869,114.79 150.510869,115.24 C151.370869,115.69 151.690869,116.75 151.240869,117.61 L151.240869,117.6 C150.930869,118.2 150.320869,118.54 149.690869,118.54 C149.420869,118.54 149.140869,118.47 148.880869,118.34 Z M14.2608694,125.99 L14.2608694,125.979 C13.7108694,125.19 13.9108694,124.1 14.7008694,123.55 C15.5008694,123 16.5908694,123.2 17.1408694,123.99 C17.6908694,124.78 17.4908694,125.87 16.7008694,126.42 C16.3908694,126.64 16.0408694,126.74 15.7008694,126.74 C15.1508694,126.74 14.6008694,126.47 14.2608694,125.99 Z M143.440869,126.8 C142.650869,126.25 142.460869,125.16 143.020869,124.36 L143.020869,124.37 C143.570869,123.57 144.660869,123.39 145.450869,123.94 C146.250869,124.5 146.430869,125.59 145.880869,126.38 C145.540869,126.86 145.000869,127.12 144.450869,127.12 C144.100869,127.12 143.750869,127.02 143.440869,126.8 Z M20.6508694,134.04 C20.0008694,133.32 20.0608694,132.21 20.7808694,131.57 C21.4908694,130.92 22.6008694,130.979 23.2508694,131.69 C23.8908694,132.41 23.8408694,133.52 23.1208694,134.16 C22.7908694,134.47 22.3708694,134.62 21.9508694,134.62 C21.4708694,134.62 20.9908694,134.42 20.6508694,134.04 Z M136.960869,134.5 C136.250869,133.85 136.200869,132.74 136.850869,132.03 C137.510869,131.32 138.610869,131.27 139.330869,131.92 C140.040869,132.57 140.090869,133.68 139.430869,134.39 L139.440869,134.39 C139.090869,134.77 138.620869,134.96 138.140869,134.96 C137.720869,134.96 137.300869,134.81 136.960869,134.5 Z M28.0108694,141.22 C27.2808694,140.59 27.1908694,139.479 27.8208694,138.75 C28.4508694,138.01 29.5508694,137.93 30.2908694,138.56 C31.0208694,139.19 31.1108694,140.29 30.4808694,141.03 C30.1308694,141.43 29.6408694,141.64 29.1508694,141.64 C28.7508694,141.64 28.3408694,141.5 28.0108694,141.22 Z M129.560869,141.31 C128.930869,140.57 129.030869,139.47 129.760869,138.85 C130.500869,138.22 131.610869,138.31 132.230869,139.05 C132.850869,139.79 132.760869,140.89 132.020869,141.52 C131.690869,141.8 131.290869,141.93 130.890869,141.93 C130.400869,141.93 129.900869,141.72 129.560869,141.31 Z M36.2308694,147.4 C35.4208694,146.87 35.2008694,145.78 35.7308694,144.97 C36.2508694,144.17 37.3408694,143.94 38.1508694,144.47 C38.9608694,145 39.1808694,146.09 38.6508694,146.89 C38.3208694,147.41 37.7608694,147.68 37.1908694,147.68 C36.8608694,147.68 36.5208694,147.59 36.2308694,147.4 Z M121.350869,147.12 C120.820869,146.31 121.050869,145.229 121.870869,144.7 C122.680869,144.18 123.760869,144.41 124.290869,145.22 C124.810869,146.03 124.580869,147.12 123.770869,147.64 C123.470869,147.83 123.150869,147.92 122.820869,147.92 C122.250869,147.92 121.680869,147.64 121.350869,147.12 Z M45.1808694,152.47 C44.3108694,152.05 43.9408694,151.01 44.3708694,150.14 C44.7908694,149.27 45.8308694,148.9 46.7008694,149.33 C47.5708694,149.75 47.9308694,150.79 47.5108694,151.66 C47.2108694,152.29 46.5908694,152.65 45.9408694,152.65 C45.6808694,152.65 45.4208694,152.59 45.1808694,152.47 Z M112.470869,151.84 C112.050869,150.97 112.420869,149.93 113.290869,149.51 C114.160869,149.09 115.210869,149.46 115.630869,150.33 C116.040869,151.2 115.670869,152.25 114.800869,152.67 C114.560869,152.78 114.300869,152.84 114.050869,152.84 C113.400869,152.84 112.770869,152.47 112.470869,151.84 Z M54.7008694,156.36 C53.7908694,156.05 53.2908694,155.06 53.6008694,154.14 C53.9108694,153.229 54.9008694,152.729 55.8108694,153.04 C56.7308694,153.34 57.2208694,154.34 56.9208694,155.25 C56.6708694,155.99 55.9908694,156.45 55.2608694,156.45 C55.0708694,156.45 54.8908694,156.42 54.7008694,156.36 Z M103.060869,155.39 C102.760869,154.47 103.260869,153.479 104.170869,153.18 C105.090869,152.87 106.080869,153.37 106.380869,154.29 C106.690869,155.21 106.190869,156.2 105.270869,156.5 C105.090869,156.56 104.900869,156.59 104.720869,156.59 C103.990869,156.59 103.300869,156.12 103.060869,155.39 Z M64.6408694,158.979 C63.6908694,158.8 63.0808694,157.88 63.2608694,156.93 C63.4508694,155.979 64.3708694,155.36 65.3208694,155.55 C66.2708694,155.729 66.8808694,156.65 66.7008694,157.6 C66.5308694,158.44 65.8008694,159.01 64.9808694,159.01 C64.8708694,159.01 64.7608694,159 64.6408694,158.979 Z M93.2708694,157.69 C93.0908694,156.74 93.7108694,155.82 94.6608694,155.64 C95.6108694,155.46 96.5308694,156.08 96.7108694,157.03 C96.8908694,157.979 96.2708694,158.9 95.3208694,159.08 C95.2108694,159.1 95.1008694,159.11 94.9908694,159.11 C94.1608694,159.11 93.4308694,158.53 93.2708694,157.69 Z M74.8308694,160.32 C73.8708694,160.25 73.1408694,159.42 73.2108694,158.45 C73.2708694,157.49 74.1108694,156.76 75.0708694,156.83 C76.0308694,156.89 76.7608694,157.729 76.7008694,158.69 C76.6408694,159.61 75.8708694,160.32 74.9508694,160.32 L74.8308694,160.32 Z M83.2608694,158.72 C83.2108694,157.75 83.9408694,156.92 84.9008694,156.86 C85.8708694,156.81 86.7008694,157.54 86.7608694,158.51 C86.8108694,159.47 86.0808694,160.3 85.1208694,160.36 L85.0108694,160.36 C84.0908694,160.36 83.3208694,159.64 83.2608694,158.72 Z" id="Fill-3"></path>
                <path d="M84.2907694,13.6299 C83.3207694,13.5699 82.5907694,12.7399 82.6507694,11.7799 C82.7107694,10.8099 83.5407694,10.0799 84.5107694,10.1399 C85.4707694,10.1999 86.2007694,11.0299 86.1407694,11.9899 C86.0907694,12.9199 85.3207694,13.6299 84.4007694,13.6299 L84.2907694,13.6299 Z M72.6607694,12.1399 C72.5707694,11.1699 73.2907694,10.3299 74.2507694,10.2499 C75.2207694,10.1699 76.0607694,10.8799 76.1407694,11.8499 C76.2207694,12.8099 75.5107694,13.6509 74.5407694,13.7399 L74.5507694,13.7399 L74.4007694,13.7399 C73.5007694,13.7399 72.7307694,13.0499 72.6607694,12.1399 Z M93.9507694,14.9299 C93.0007694,14.7299 92.3907694,13.8099 92.5907694,12.8599 C92.7907694,11.9199 93.7207694,11.3099 94.6607694,11.5099 C95.6107694,11.6999 96.2107694,12.6299 96.0207694,13.5799 C95.8407694,14.4009 95.1207694,14.9699 94.3107694,14.9699 C94.1907694,14.9699 94.0707694,14.9599 93.9507694,14.9299 Z M62.8207694,13.9599 C62.6007694,13.0099 63.1907694,12.0699 64.1307694,11.8499 C65.0707694,11.6299 66.0107694,12.2099 66.2307694,13.1599 C66.4507694,14.0999 65.8707694,15.0399 64.9307694,15.2599 C64.7907694,15.2899 64.6607694,15.3099 64.5207694,15.3099 C63.7307694,15.3099 63.0107694,14.7599 62.8207694,13.9599 Z M103.310769,17.6199 C102.400769,17.2899 101.940769,16.2799 102.270769,15.3699 C102.600769,14.4699 103.610769,13.9999 104.520769,14.3399 C105.420769,14.6699 105.890769,15.6799 105.550769,16.5799 C105.290769,17.2899 104.630769,17.7299 103.910769,17.7299 C103.710769,17.7299 103.510769,17.6909 103.310769,17.6199 Z M53.3707694,17.1909 C53.0107694,16.2999 53.4507694,15.2799 54.3507694,14.9199 C55.2507694,14.5599 56.2607694,14.9999 56.6207694,15.9009 C56.9807694,16.7999 56.5407694,17.8199 55.6407694,18.1799 C55.4307694,18.2599 55.2107694,18.2999 54.9907694,18.2999 C54.3007694,18.2999 53.6407694,17.8799 53.3707694,17.1909 Z M112.180769,21.6509 C111.330769,21.1909 111.020769,20.1199 111.490769,19.2799 C111.950769,18.4299 113.010769,18.1099 113.860769,18.5799 C114.710769,19.0399 115.020769,20.0999 114.560769,20.9499 C114.240769,21.5399 113.640769,21.8599 113.020769,21.8599 C112.740769,21.8599 112.450769,21.7999 112.180769,21.6509 Z M44.4807694,21.7799 C44.0007694,20.9409 44.2907694,19.8699 45.1207694,19.3899 C45.9607694,18.9009 47.0307694,19.1909 47.5107694,20.0299 C48.0007694,20.8599 47.7107694,21.9299 46.8707694,22.4199 C46.6007694,22.5799 46.3007694,22.6509 46.0007694,22.6509 C45.4007694,22.6509 44.8107694,22.3399 44.4807694,21.7799 Z M120.370769,26.9409 C119.600769,26.3499 119.440769,25.2599 120.030769,24.4799 C120.610769,23.7099 121.700769,23.5599 122.480769,24.1399 C123.250769,24.7199 123.400769,25.8199 122.820769,26.5899 C122.480769,27.0499 121.950769,27.2899 121.420769,27.2899 C121.050769,27.2899 120.680769,27.1699 120.370769,26.9409 Z M36.3507694,27.5999 C35.7507694,26.8399 35.8807694,25.7399 36.6407694,25.1399 C37.4007694,24.5399 38.5007694,24.6699 39.1007694,25.4299 C39.7007694,26.1909 39.5707694,27.2899 38.8107694,27.8899 C38.4907694,28.1399 38.1107694,28.2699 37.7307694,28.2699 C37.2107694,28.2699 36.7007694,28.0399 36.3507694,27.5999 Z M127.700769,33.3599 C127.020769,32.6699 127.030769,31.5599 127.720769,30.8799 C128.400769,30.2099 129.510769,30.2099 130.190769,30.9009 C130.870769,31.5899 130.860769,32.6999 130.170769,33.3699 C129.830769,33.7099 129.390769,33.8799 128.940769,33.8799 C128.490769,33.8799 128.040769,33.7099 127.700769,33.3599 Z M29.1507694,34.5399 C28.4507694,33.8799 28.4207694,32.7699 29.0807694,32.0699 C29.7507694,31.3699 30.8507694,31.3299 31.5607694,31.9999 C32.2607694,32.6599 32.2907694,33.7699 31.6307694,34.4699 C31.2807694,34.8399 30.8207694,35.0199 30.3507694,35.0199 C29.9207694,35.0199 29.4907694,34.8599 29.1507694,34.5399 Z M134.020769,40.7699 L134.020769,40.7799 C133.450769,39.9999 133.610769,38.9009 134.390769,38.3299 C135.170769,37.7599 136.270769,37.9199 136.840769,38.6999 C137.410769,39.4799 137.240769,40.5799 136.460769,41.1509 C136.150769,41.3799 135.790769,41.4899 135.430769,41.4899 C134.890769,41.4899 134.360769,41.2399 134.020769,40.7699 Z M23.0307694,42.4599 C22.2407694,41.9009 22.0507694,40.8099 22.6107694,40.0199 C23.1607694,39.2299 24.2507694,39.0299 25.0407694,39.5899 C25.8307694,40.1399 26.0307694,41.2299 25.4707694,42.0299 L25.4707694,42.0199 C25.1307694,42.5099 24.5907694,42.7699 24.0407694,42.7699 C23.6907694,42.7699 23.3407694,42.6699 23.0307694,42.4599 Z M139.200769,49.0299 C138.740769,48.1699 139.070769,47.1099 139.920769,46.6599 C140.780769,46.2099 141.840769,46.5299 142.290769,47.3799 C142.740769,48.2399 142.420769,49.2999 141.560769,49.7499 C141.300769,49.8899 141.020769,49.9499 140.750769,49.9499 C140.120769,49.9499 139.510769,49.6199 139.200769,49.0299 Z M18.1407694,51.1799 C17.2707694,50.7499 16.9207694,49.6999 17.3507694,48.8299 C17.7907694,47.9699 18.8407694,47.6199 19.7007694,48.0499 C20.5707694,48.4799 20.9207694,49.5299 20.4907694,50.4009 L20.4807694,50.4009 C20.1807694,51.0099 19.5607694,51.3699 18.9207694,51.3699 C18.6507694,51.3699 18.3907694,51.3099 18.1407694,51.1799 Z M143.120769,57.9409 C142.800769,57.0299 143.270769,56.0299 144.180769,55.6999 C145.090769,55.3799 146.090769,55.8499 146.420769,56.7699 C146.740769,57.6799 146.270769,58.6799 145.350769,58.9999 C145.160769,59.0699 144.960769,59.0999 144.770769,59.0999 C144.050769,59.0999 143.370769,58.6509 143.120769,57.9409 Z M14.5707694,60.5299 C13.6507694,60.2299 13.1507694,59.2399 13.4507694,58.3199 C13.7507694,57.4099 14.7407694,56.9009 15.6607694,57.1999 C16.5807694,57.4999 17.0807694,58.4899 16.7807694,59.4099 C16.5407694,60.1509 15.8507694,60.6199 15.1107694,60.6199 C14.9307694,60.6199 14.7507694,60.5899 14.5707694,60.5299 Z M145.700769,67.3299 C145.510769,66.3799 146.130769,65.4599 147.080769,65.2699 C148.030769,65.0899 148.950769,65.6999 149.130769,66.6509 C149.320769,67.5999 148.700769,68.5199 147.760769,68.7099 C147.640769,68.7299 147.530769,68.7399 147.420769,68.7399 C146.600769,68.7399 145.860769,68.1599 145.700769,67.3299 Z M12.4107694,70.2899 C11.4607694,70.1299 10.8207694,69.2199 10.9807694,68.2699 C11.1507694,67.3199 12.0507694,66.6799 13.0007694,66.8399 C13.9607694,67.0099 14.5907694,67.9099 14.4307694,68.8699 C14.2807694,69.7199 13.5407694,70.3199 12.7107694,70.3199 C12.6107694,70.3199 12.5107694,70.3099 12.4107694,70.2899 Z M146.870769,76.9999 C146.830769,76.0299 147.570769,75.2099 148.540769,75.1699 C149.500769,75.1199 150.320769,75.8699 150.370769,76.8299 C150.410769,77.7999 149.670769,78.6199 148.700769,78.6599 C148.680769,78.6599 148.650769,78.6699 148.620769,78.6699 C147.690769,78.6699 146.920769,77.9409 146.870769,76.9999 Z M11.6807694,80.2699 C10.7107694,80.2399 9.95076941,79.4409 9.97076941,78.4699 C10.0007694,77.5099 10.8007694,76.7399 11.7707694,76.7699 C12.7407694,76.7899 13.5007694,77.5999 13.4707694,78.5599 C13.4507694,79.5199 12.6707694,80.2699 11.7207694,80.2699 L11.6807694,80.2699 Z M148.180769,88.7899 C147.220769,88.6999 146.520769,87.8399 146.620769,86.8799 L146.620769,86.8199 C146.620769,86.7899 146.630769,86.7699 146.630769,86.7399 C146.720769,85.7799 147.580769,85.0799 148.540769,85.1699 C149.500769,85.2599 150.210769,86.1199 150.110769,87.0799 C150.110769,87.1099 150.110769,87.1299 150.100769,87.1599 L150.100769,87.2199 C150.010769,88.1299 149.250769,88.7999 148.360769,88.7999 C148.300769,88.7999 148.240769,88.7999 148.180769,88.7899 Z M10.4507694,88.7099 C10.3307694,87.7499 11.0207694,86.8799 11.9807694,86.7699 C12.9407694,86.6509 13.8107694,87.3299 13.9307694,88.2999 C14.0407694,89.2599 13.3607694,90.1299 12.4007694,90.2399 C12.3307694,90.2499 12.2607694,90.2499 12.1907694,90.2499 C11.3107694,90.2499 10.5607694,89.5999 10.4507694,88.7099 Z M146.230769,98.5999 C145.290769,98.3599 144.720769,97.4199 144.950769,96.4799 C145.190769,95.5399 146.140769,94.9699 147.070769,95.1999 C148.010769,95.4409 148.580769,96.3899 148.350769,97.3199 C148.150769,98.1199 147.440769,98.6509 146.650769,98.6509 C146.510769,98.6509 146.370769,98.6299 146.230769,98.5999 Z M12.4207694,98.7799 C12.1707694,97.8399 12.7107694,96.8799 13.6507694,96.6299 C14.5807694,96.3699 15.5407694,96.9199 15.8007694,97.8499 C16.0507694,98.7799 15.5007694,99.7499 14.5707694,99.9999 C14.4207694,100.0399 14.2607694,100.0599 14.1107694,100.0599 C13.3407694,100.0599 12.6307694,99.5499 12.4207694,98.7799 Z M142.860769,108.0099 C141.970769,107.6509 141.540769,106.6199 141.910769,105.7299 C142.280769,104.8399 143.300769,104.4099 144.200769,104.7799 C145.090769,105.1509 145.510769,106.1699 145.150769,107.0599 C144.870769,107.7399 144.210769,108.1509 143.530769,108.1509 C143.310769,108.1509 143.080769,108.0999 142.860769,108.0099 Z M15.8407694,108.4409 C15.4507694,107.5499 15.8607694,106.5199 16.7407694,106.1299 C17.6307694,105.7399 18.6607694,106.1399 19.0507694,107.0299 C19.4407694,107.9099 19.0307694,108.9499 18.1507694,109.3399 C17.9207694,109.4409 17.6807694,109.4799 17.4507694,109.4799 C16.7707694,109.4799 16.1307694,109.0899 15.8407694,108.4409 Z M138.150769,116.8399 C137.320769,116.3499 137.050769,115.2699 137.540769,114.4409 C138.040769,113.6099 139.110769,113.3399 139.940769,113.8399 C140.770769,114.3299 141.040769,115.4099 140.550769,116.2399 C140.220769,116.7799 139.640769,117.0899 139.040769,117.0899 C138.740769,117.0899 138.430769,117.0099 138.150769,116.8399 Z M20.6407694,117.4999 C20.1207694,116.6799 20.3707694,115.5999 21.1907694,115.0799 C22.0107694,114.5699 23.0907694,114.8199 23.6007694,115.6399 C24.1207694,116.4599 23.8707694,117.5399 23.0507694,118.0499 C22.7607694,118.2299 22.4407694,118.3199 22.1207694,118.3199 C21.5407694,118.3199 20.9707694,118.0299 20.6407694,117.4999 Z M132.200769,124.8799 C131.450769,124.2699 131.340769,123.1699 131.950769,122.4199 C132.560769,121.6699 133.660769,121.5599 134.410769,122.1699 C135.160769,122.7799 135.270769,123.8899 134.660769,124.6299 C134.310769,125.0599 133.810769,125.2799 133.300769,125.2799 C132.910769,125.2799 132.520769,125.1509 132.200769,124.8799 Z M26.6907694,125.7699 C26.0707694,125.0299 26.1607694,123.9299 26.8907694,123.2999 C27.6307694,122.6699 28.7307694,122.7599 29.3607694,123.4999 C29.9907694,124.2399 29.9007694,125.3399 29.1607694,125.9699 C28.8307694,126.2499 28.4307694,126.3799 28.0307694,126.3799 C27.5307694,126.3799 27.0407694,126.1699 26.6907694,125.7699 Z M125.140769,131.9699 C124.490769,131.2599 124.540769,130.1509 125.250769,129.4999 C125.970769,128.8499 127.070769,128.9009 127.720769,129.6099 C128.380769,130.3199 128.330769,131.4299 127.610769,132.0799 C127.280769,132.3899 126.860769,132.5399 126.430769,132.5399 C125.960769,132.5399 125.490769,132.3499 125.140769,131.9699 Z M33.8807694,133.0699 L33.8807694,133.0799 C33.1607694,132.4409 33.0907694,131.3299 33.7207694,130.5999 C34.3607694,129.8799 35.4707694,129.8099 36.2007694,130.4409 C36.9207694,131.0799 36.9907694,132.1909 36.3607694,132.9099 C36.0107694,133.3099 35.5307694,133.5099 35.0407694,133.5099 C34.6307694,133.5099 34.2207694,133.3699 33.8807694,133.0699 Z M117.130769,137.9699 C116.590769,137.1599 116.800769,136.0799 117.600769,135.5299 C118.400769,134.9899 119.490769,135.1999 120.030769,135.9999 C120.580769,136.7999 120.370769,137.8899 119.570769,138.4299 C119.270769,138.6399 118.920769,138.7299 118.590769,138.7299 C118.030769,138.7299 117.470769,138.4699 117.130769,137.9699 Z M42.0607694,139.2599 L42.0707694,139.2599 C41.2507694,138.7399 41.0207694,137.6509 41.5507694,136.8399 C42.0707694,136.0299 43.1607694,135.7999 43.9707694,136.3199 C44.7807694,136.8499 45.0107694,137.9299 44.4807694,138.7399 C44.1507694,139.2599 43.5907694,139.5399 43.0107694,139.5399 C42.6907694,139.5399 42.3607694,139.4499 42.0607694,139.2599 Z M108.350769,142.7299 C107.930769,141.8599 108.290769,140.8199 109.160769,140.4009 C110.030769,139.9799 111.080769,140.3399 111.500769,141.2099 C111.920769,142.0799 111.550769,143.1299 110.680769,143.5499 C110.440769,143.6699 110.180769,143.7199 109.920769,143.7199 C109.270769,143.7199 108.650769,143.3599 108.350769,142.7299 Z M51.0607694,144.1909 C50.1807694,143.7899 49.7907694,142.7499 50.2007694,141.8699 C50.6007694,140.9899 51.6307694,140.5999 52.5107694,141.0099 L52.5107694,140.9999 C53.3907694,141.4009 53.7807694,142.4409 53.3807694,143.3199 C53.0907694,143.9699 52.4507694,144.3499 51.7807694,144.3499 C51.5407694,144.3499 51.3007694,144.2999 51.0607694,144.1909 Z M98.9607694,146.1699 C98.6707694,145.2499 99.1907694,144.2699 100.110769,143.9799 C101.030769,143.6909 102.010769,144.1999 102.300769,145.1199 C102.590769,146.0499 102.080769,147.0299 101.150769,147.3199 C100.980769,147.3699 100.800769,147.4009 100.630769,147.4009 C99.8907694,147.4009 99.2007694,146.9199 98.9607694,146.1699 Z M60.6907694,147.7499 C59.7607694,147.4799 59.2207694,146.5099 59.4907694,145.5799 C59.7607694,144.6509 60.7307694,144.1099 61.6607694,144.3799 C62.5907694,144.6509 63.1207694,145.6199 62.8607694,146.5499 C62.6307694,147.3199 61.9307694,147.8199 61.1707694,147.8199 C61.0107694,147.8199 60.8507694,147.7899 60.6907694,147.7499 Z M89.1707694,148.1909 C89.0207694,147.2399 89.6707694,146.3399 90.6307694,146.1909 C91.5807694,146.0499 92.4807694,146.6999 92.6307694,147.6509 C92.7707694,148.6099 92.1207694,149.4999 91.1707694,149.6509 C91.0807694,149.6699 90.9907694,149.6699 90.9007694,149.6699 C90.0507694,149.6699 89.3007694,149.0599 89.1707694,148.1909 Z M70.7207694,149.8599 C69.7607694,149.7299 69.0907694,148.8499 69.2207694,147.8899 C69.3507694,146.9299 70.2307694,146.2599 71.1907694,146.3899 C72.1507694,146.5199 72.8207694,147.4009 72.6907694,148.3599 C72.5707694,149.2399 71.8207694,149.8699 70.9607694,149.8699 C70.8807694,149.8699 70.8007694,149.8699 70.7207694,149.8599 Z M79.1807694,148.7599 C79.1807694,147.7999 79.9507694,147.0099 80.9207694,146.9999 C81.8807694,146.9899 82.6707694,147.7699 82.6807694,148.7299 C82.6907694,149.6999 81.9207694,150.4899 80.9507694,150.4999 L80.9307694,150.4999 C79.9707694,150.4999 79.1907694,149.7199 79.1807694,148.7599 Z" id="Fill-8"></path>
                <path d="M78.4606694,23.5303 C77.4906694,23.5503 76.6906694,22.7903 76.6606694,21.8303 C76.6306694,20.8603 77.3906694,20.0593 78.3606694,20.0303 C79.3206694,20.0003 80.1306694,20.7593 80.1606694,21.7193 C80.1906694,22.6903 79.4306694,23.5003 78.4606694,23.5303 Z M88.0706694,24.0593 C87.1106694,23.9203 86.4506694,23.0403 86.5806694,22.0803 C86.7106694,21.1203 87.6006694,20.4603 88.5506694,20.5903 C89.5106694,20.7193 90.1806694,21.6103 90.0406694,22.5593 C89.9206694,23.4403 89.1706694,24.0703 88.3206694,24.0703 C88.2306694,24.0703 88.1506694,24.0703 88.0706694,24.0593 Z M66.8406694,23.2593 C66.6506694,22.3093 67.2606694,21.3893 68.2106694,21.2003 C69.1606694,21.0003 70.0806694,21.6203 70.2706694,22.5593 C70.4606694,23.5093 69.8506694,24.4293 68.9006694,24.6303 C68.7906694,24.6503 68.6706694,24.6603 68.5606694,24.6603 C67.7406694,24.6603 67.0106694,24.0903 66.8406694,23.2593 Z M97.4506694,26.1793 C96.5306694,25.8893 96.0206694,24.9103 96.3206694,23.9793 C96.6106694,23.0593 97.5906694,22.5503 98.5106694,22.8493 C99.4306694,23.1393 99.9406694,24.1203 99.6506694,25.0403 C99.4106694,25.7903 98.7206694,26.2593 97.9806694,26.2593 C97.8106694,26.2593 97.6306694,26.2403 97.4506694,26.1793 Z M57.4106694,26.3403 C57.0606694,25.4293 57.5106694,24.4203 58.4106694,24.0703 C59.3106694,23.7193 60.3306694,24.1703 60.6806694,25.0703 C61.0306694,25.9693 60.5806694,26.9793 59.6806694,27.3303 C59.4706694,27.4203 59.2606694,27.4503 59.0406694,27.4503 C58.3406694,27.4503 57.6806694,27.0303 57.4106694,26.3403 Z M106.340669,29.8703 C105.480669,29.4203 105.150669,28.3703 105.590669,27.5093 C106.040669,26.6503 107.090669,26.3203 107.950669,26.7593 C108.810669,27.2103 109.140669,28.2593 108.700669,29.1203 C108.390669,29.7193 107.780669,30.0703 107.140669,30.0703 C106.870669,30.0703 106.600669,30.0003 106.340669,29.8703 Z M48.6406694,30.9693 C48.1406694,30.1393 48.4106694,29.0593 49.2406694,28.5703 L49.2406694,28.5593 C50.0706694,28.0703 51.1406694,28.3403 51.6406694,29.1703 C52.1406694,29.9903 51.8706694,31.0703 51.0406694,31.5703 C50.7606694,31.7403 50.4506694,31.8203 50.1406694,31.8203 C49.5506694,31.8203 48.9706694,31.5093 48.6406694,30.9693 Z M114.470669,35.0093 C113.700669,34.4293 113.550669,33.3303 114.130669,32.5593 C114.720669,31.7903 115.820669,31.6393 116.590669,32.2293 C117.350669,32.8093 117.500669,33.9103 116.920669,34.6793 C116.580669,35.1303 116.050669,35.3703 115.530669,35.3703 C115.160669,35.3703 114.780669,35.2503 114.470669,35.0093 Z M40.7706694,37.0093 C40.1406694,36.2693 40.2206694,35.1703 40.9606694,34.5403 C41.6906694,33.9103 42.8006694,34.0003 43.4306694,34.7293 C44.0506694,35.4603 43.9706694,36.5703 43.2406694,37.2003 C42.9106694,37.4793 42.5006694,37.6203 42.1006694,37.6203 C41.6006694,37.6203 41.1106694,37.4103 40.7706694,37.0093 Z M121.610669,41.4603 C120.950669,40.7593 120.990669,39.6503 121.700669,38.9903 C122.400669,38.3203 123.510669,38.3603 124.170669,39.0703 C124.830669,39.7693 124.790669,40.8803 124.090669,41.5403 C123.750669,41.8603 123.320669,42.0093 122.890669,42.0093 C122.420669,42.0093 121.960669,41.8303 121.610669,41.4603 Z M34.0306694,44.2903 C33.2806694,43.6703 33.1806694,42.5703 33.7906694,41.8203 L33.8006694,41.8203 C34.4106694,41.0803 35.5206694,40.9793 36.2606694,41.5903 C37.0006694,42.2103 37.1106694,43.3093 36.4906694,44.0593 C36.1406694,44.4693 35.6406694,44.6903 35.1406694,44.6903 C34.7506694,44.6903 34.3506694,44.5593 34.0306694,44.2903 Z M127.570669,49.0093 L127.580669,49.0093 C127.040669,48.2103 127.270669,47.1203 128.070669,46.5903 C128.880669,46.0593 129.960669,46.2803 130.500669,47.0903 C131.030669,47.8893 130.800669,48.9793 130.000669,49.5093 C129.700669,49.7103 129.370669,49.8003 129.040669,49.8003 C128.470669,49.8003 127.910669,49.5193 127.570669,49.0093 Z M28.6106694,52.5993 C27.7706694,52.1203 27.4806694,51.0503 27.9606694,50.2103 C28.4406694,49.3703 29.5206694,49.0903 30.3506694,49.5703 C31.1906694,50.0503 31.4806694,51.1203 31.0006694,51.9603 C30.6706694,52.5193 30.0806694,52.8303 29.4806694,52.8303 C29.1806694,52.8303 28.8806694,52.7593 28.6106694,52.5993 Z M132.180669,57.4603 C131.790669,56.5803 132.190669,55.5503 133.080669,55.1503 C133.960669,54.7693 134.990669,55.1703 135.380669,56.0503 C135.770669,56.9403 135.370669,57.9693 134.490669,58.3603 C134.260669,58.4603 134.020669,58.5093 133.780669,58.5093 C133.110669,58.5093 132.470669,58.1203 132.180669,57.4603 Z M24.6806694,61.7103 C23.7706694,61.3803 23.3106694,60.3803 23.6406694,59.4693 C23.9706694,58.5593 24.9806694,58.0993 25.8806694,58.4293 C26.7906694,58.7593 27.2606694,59.7593 26.9306694,60.6703 C26.6606694,61.3803 25.9906694,61.8203 25.2806694,61.8203 C25.0806694,61.8203 24.8806694,61.7903 24.6806694,61.7103 Z M135.290669,66.5593 C135.050669,65.6203 135.620669,64.6703 136.560669,64.4403 C137.500669,64.2103 138.450669,64.7803 138.680669,65.7193 C138.920669,66.6503 138.340669,67.5993 137.410669,67.8403 C137.270669,67.8703 137.120669,67.8893 136.980669,67.8893 C136.200669,67.8893 135.480669,67.3603 135.290669,66.5593 Z M22.3606694,71.3603 C21.4106694,71.1793 20.7806694,70.2693 20.9506694,69.3203 C21.1306694,68.3703 22.0406694,67.7403 22.9906694,67.9203 C23.9406694,68.0903 24.5706694,69.0003 24.3906694,69.9503 C24.2406694,70.8003 23.5006694,71.3893 22.6706694,71.3893 C22.5706694,71.3893 22.4606694,71.3803 22.3606694,71.3603 Z M136.800669,76.0593 C136.730669,75.0993 137.450669,74.2593 138.420669,74.1903 C139.380669,74.1203 140.220669,74.8403 140.290669,75.8093 C140.360669,76.7693 139.640669,77.6103 138.670669,77.6793 L138.540669,77.6793 C137.630669,77.6793 136.870669,76.9793 136.800669,76.0593 Z M21.6806694,81.2593 C20.7106694,81.2403 19.9406694,80.4503 19.9606694,79.4793 L19.9606694,79.4903 C19.9706694,78.5193 20.7606694,77.7403 21.7306694,77.7593 C22.6906694,77.7693 23.4706694,78.5703 23.4606694,79.5303 C23.4406694,80.4903 22.6606694,81.2593 21.7006694,81.2593 L21.6806694,81.2593 Z M138.230669,87.8003 C137.270669,87.7103 136.570669,86.8493 136.670669,85.8893 C136.670669,85.8493 136.670669,85.8203 136.680669,85.7903 L136.680669,85.6793 C136.780669,84.7193 137.630669,84.0093 138.590669,84.1103 C139.560669,84.2003 140.260669,85.0503 140.170669,86.0193 C140.170669,86.0503 140.160669,86.0903 140.160669,86.1203 C140.150669,86.1603 140.150669,86.2003 140.150669,86.2293 C140.060669,87.1393 139.300669,87.8093 138.410669,87.8093 C138.350669,87.8093 138.290669,87.8093 138.230669,87.8003 Z M20.6806694,89.6703 C20.5306694,88.7193 21.1806694,87.8203 22.1406694,87.6703 C23.0906694,87.5193 23.9906694,88.1703 24.1406694,89.1303 C24.2906694,90.0803 23.6406694,90.9793 22.6806694,91.1303 C22.5906694,91.1393 22.5006694,91.1503 22.4106694,91.1503 C21.5606694,91.1503 20.8206694,90.5403 20.6806694,89.6703 Z M136.140669,97.5003 C135.210669,97.2403 134.660669,96.2803 134.910669,95.3493 C135.170669,94.4103 136.130669,93.8603 137.060669,94.1203 C138.000669,94.3803 138.540669,95.3403 138.290669,96.2693 C138.070669,97.0503 137.370669,97.5593 136.600669,97.5593 C136.450669,97.5593 136.290669,97.5403 136.140669,97.5003 Z M23.1306694,99.5903 C22.8106694,98.6793 23.3106694,97.6793 24.2206694,97.3703 C25.1406694,97.0593 26.1306694,97.5503 26.4406694,98.4603 C26.7506694,99.3803 26.2606694,100.3703 25.3506694,100.6793 C25.1606694,100.7503 24.9706694,100.7803 24.7806694,100.7803 C24.0606694,100.7803 23.3806694,100.3203 23.1306694,99.5903 Z M132.430669,106.7003 C131.550669,106.2903 131.170669,105.2403 131.580669,104.3703 C132.000669,103.4903 133.040669,103.1203 133.910669,103.5303 C134.790669,103.9403 135.160669,104.9793 134.750669,105.8603 L134.750669,105.8493 C134.460669,106.4903 133.820669,106.8603 133.170669,106.8603 C132.920669,106.8603 132.670669,106.8093 132.430669,106.7003 Z M27.2206694,108.9503 C26.7606694,108.0993 27.0706694,107.0403 27.9206694,106.5803 C28.7706694,106.1103 29.8406694,106.4293 30.3006694,107.2803 C30.7606694,108.1303 30.4406694,109.1903 29.5906694,109.6503 C29.3306694,109.8003 29.0406694,109.8603 28.7606694,109.8603 C28.1406694,109.8603 27.5406694,109.5303 27.2206694,108.9503 Z M127.200669,115.1393 C126.410669,114.5803 126.210669,113.4903 126.770669,112.7003 C127.320669,111.9103 128.410669,111.7103 129.200669,112.2693 C130.000669,112.8203 130.190669,113.9103 129.640669,114.7003 C129.300669,115.1903 128.750669,115.4503 128.200669,115.4503 C127.860669,115.4503 127.510669,115.3493 127.200669,115.1393 Z M32.8306694,117.4793 C32.2306694,116.7193 32.3706694,115.6203 33.1306694,115.0193 C33.8806694,114.4293 34.9906694,114.5593 35.5806694,115.3203 C36.1806694,116.0803 36.0506694,117.1793 35.2906694,117.7693 C34.9706694,118.0303 34.5906694,118.1503 34.2106694,118.1503 C33.6906694,118.1503 33.1806694,117.9203 32.8306694,117.4793 Z M120.630669,122.5703 C119.940669,121.8893 119.930669,120.7803 120.610669,120.0903 C121.290669,119.4003 122.400669,119.4003 123.090669,120.0803 C123.770669,120.7593 123.780669,121.8603 123.100669,122.5503 C122.760669,122.9003 122.310669,123.0703 121.860669,123.0703 C121.410669,123.0703 120.970669,122.9003 120.630669,122.5703 Z M39.8006694,124.9503 C39.0806694,124.3003 39.0306694,123.1903 39.6706694,122.4793 C40.3206694,121.7593 41.4306694,121.7103 42.1506694,122.3493 C42.8606694,123.0003 42.9206694,124.1103 42.2706694,124.8303 C41.9206694,125.2103 41.4506694,125.4003 40.9706694,125.4003 C40.5506694,125.4003 40.1306694,125.2503 39.8006694,124.9503 Z M112.900669,128.7903 C112.330669,128.0003 112.510669,126.9103 113.300669,126.3493 C114.080669,125.7803 115.180669,125.9603 115.740669,126.7503 C116.300669,127.5303 116.130669,128.6303 115.340669,129.1903 C115.030669,129.4103 114.670669,129.5193 114.320669,129.5193 C113.780669,129.5193 113.240669,129.2593 112.900669,128.7903 Z M47.9306694,131.1393 C47.1106694,130.6203 46.8706694,129.5403 47.3906694,128.7193 C47.9006694,127.9103 48.9906694,127.6703 49.8006694,128.1903 C50.6206694,128.7003 50.8606694,129.7803 50.3406694,130.5993 C50.0106694,131.1303 49.4406694,131.4103 48.8606694,131.4103 C48.5406694,131.4103 48.2206694,131.3203 47.9306694,131.1393 Z M104.230669,133.6203 C103.810669,132.7503 104.170669,131.7003 105.040669,131.2803 C105.910669,130.8603 106.950669,131.2193 107.380669,132.0903 C107.800669,132.9603 107.440669,134.0003 106.570669,134.4293 C106.330669,134.5503 106.070669,134.6103 105.810669,134.6103 C105.160669,134.6103 104.540669,134.2403 104.230669,133.6203 Z M56.9906694,135.8603 C56.0906694,135.4903 55.6706694,134.4693 56.0406694,133.5703 C56.4106694,132.6793 57.4406694,132.2593 58.3306694,132.6303 C59.2206694,133.0093 59.6506694,134.0303 59.2706694,134.9203 C58.9906694,135.5903 58.3406694,136.0003 57.6606694,136.0003 C57.4306694,136.0003 57.2106694,135.9603 56.9906694,135.8603 Z M94.8806694,136.9203 C94.6106694,135.9903 95.1406694,135.0193 96.0706694,134.7503 C97.0006694,134.4793 97.9706694,135.0093 98.2406694,135.9403 C98.5106694,136.8703 97.9806694,137.8403 97.0506694,138.1103 C96.8906694,138.1603 96.7206694,138.1793 96.5606694,138.1793 C95.8006694,138.1793 95.1006694,137.6793 94.8806694,136.9203 Z M66.7106694,138.9793 C65.7706694,138.7593 65.1806694,137.8203 65.4006694,136.8803 C65.6106694,135.9403 66.5506694,135.3493 67.4906694,135.5703 C68.4306694,135.7803 69.0206694,136.7193 68.8106694,137.6603 C68.6206694,138.4693 67.9006694,139.0193 67.1006694,139.0193 C66.9706694,139.0193 66.8406694,139.0093 66.7106694,138.9793 Z M85.1006694,138.5803 C84.9906694,137.6203 85.6806694,136.7503 86.6406694,136.6393 C87.6006694,136.5303 88.4706694,137.2193 88.5806694,138.1793 C88.6806694,139.1503 87.9906694,140.0093 87.0306694,140.1203 C86.9706694,140.1303 86.9006694,140.1303 86.8306694,140.1303 C85.9606694,140.1303 85.2006694,139.4693 85.1006694,138.5803 Z M76.8206694,140.4003 C75.8606694,140.3493 75.1206694,139.5193 75.1806694,138.5593 C75.2306694,137.5903 76.0606694,136.8603 77.0206694,136.9103 C77.9906694,136.9603 78.7206694,137.7903 78.6706694,138.7593 C78.6206694,139.6903 77.8406694,140.4103 76.9206694,140.4103 C76.8906694,140.4103 76.8606694,140.4103 76.8206694,140.4003 Z" id="Fill-12"></path>
                <path d="M78.0607694,31.7696 C78.0507694,30.7996 78.8307694,30.0096 79.8007694,29.9996 C80.7607694,29.9996 81.5507694,30.7806 81.5607694,31.7406 C81.5607694,32.7096 80.7907694,33.4996 79.8207694,33.4996 L79.8107694,33.4996 C78.8507694,33.4996 78.0607694,32.7296 78.0607694,31.7696 M89.5507694,34.4506 C88.6007694,34.2596 87.9907694,33.3306 88.1807694,32.3896 C88.3707694,31.4406 89.3007694,30.8206 90.2407694,31.0196 C91.1907694,31.2096 91.8007694,32.1296 91.6107694,33.0806 C91.4407694,33.9106 90.7107694,34.4796 89.9007694,34.4796 C89.7807694,34.4796 89.6707694,34.4696 89.5507694,34.4506 M68.0307694,33.2596 C67.8207694,32.3206 68.4207694,31.3796 69.3607694,31.1696 C70.3107694,30.9596 71.2407694,31.5596 71.4507694,32.5096 C71.6607694,33.4506 71.0607694,34.3796 70.1207694,34.5896 C69.9907694,34.6206 69.8607694,34.6296 69.7407694,34.6296 C68.9407694,34.6296 68.2107694,34.0806 68.0307694,33.2596 M98.8707694,37.3796 C97.9807694,36.9996 97.5707694,35.9596 97.9607694,35.0806 C98.3407694,34.1906 99.3807694,33.7906 100.260769,34.1696 C101.150769,34.5596 101.550769,35.5896 101.170769,36.4796 C100.880769,37.1296 100.240769,37.5306 99.5707694,37.5306 C99.3307694,37.5306 99.0907694,37.4796 98.8707694,37.3796 M58.5407694,36.8206 C58.1307694,35.9406 58.5207694,34.9006 59.4007694,34.4996 C60.2807694,34.0996 61.3207694,34.4906 61.7207694,35.3706 C62.1207694,36.2496 61.7307694,37.2906 60.8507694,37.6906 C60.6207694,37.7906 60.3707694,37.8496 60.1307694,37.8496 C59.4607694,37.8496 58.8307694,37.4596 58.5407694,36.8206 M107.360769,42.2006 C106.580769,41.6396 106.400769,40.5406 106.960769,39.7596 C107.520769,38.9696 108.620769,38.7906 109.400769,39.3496 C110.190769,39.9106 110.370769,41.0096 109.810769,41.7906 C109.460769,42.2696 108.930769,42.5306 108.380769,42.5306 C108.030769,42.5306 107.670769,42.4196 107.360769,42.2006 M49.9907694,42.2806 C49.4207694,41.4996 49.5807694,40.4006 50.3607694,39.8306 C51.1307694,39.2496 52.2307694,39.4196 52.8007694,40.2006 C53.3807694,40.9696 53.2107694,42.0706 52.4407694,42.6396 C52.1207694,42.8796 51.7607694,42.9906 51.4007694,42.9906 C50.8607694,42.9906 50.3307694,42.7406 49.9907694,42.2806 M114.670769,48.6796 C114.020769,47.9696 114.070769,46.8606 114.780769,46.2096 C115.500769,45.5596 116.600769,45.5996 117.260769,46.3206 C117.910769,47.0306 117.860769,48.1396 117.150769,48.7906 C116.810769,49.0996 116.390769,49.2496 115.960769,49.2496 C115.490769,49.2496 115.020769,49.0596 114.670769,48.6796 M42.7507694,49.3796 C42.0307694,48.7406 41.9607694,47.6296 42.6107694,46.9106 C43.2507694,46.1906 44.3507694,46.1206 45.0807694,46.7596 C45.8007694,47.4106 45.8607694,48.5096 45.2207694,49.2296 L45.2307694,49.2296 C44.8807694,49.6206 44.4007694,49.8206 43.9207694,49.8206 C43.5007694,49.8206 43.0907694,49.6796 42.7507694,49.3796 M120.490769,56.5306 C119.990769,55.7006 120.270769,54.6296 121.100769,54.1396 C121.940769,53.6506 123.010769,53.9196 123.500769,54.7596 C123.990769,55.5896 123.710769,56.6606 122.880769,57.1506 C122.600769,57.3206 122.300769,57.4006 122.000769,57.4006 C121.400769,57.4006 120.810769,57.0896 120.490769,56.5306 M37.1507694,57.8306 C36.3107694,57.3496 36.0107694,56.2906 36.4907694,55.4506 C36.9707694,54.5996 38.0407694,54.3096 38.8807694,54.7906 C39.7207694,55.2696 40.0107694,56.3396 39.5307694,57.1796 L39.5307694,57.1696 C39.2107694,57.7406 38.6207694,58.0596 38.0107694,58.0596 C37.7207694,58.0596 37.4207694,57.9906 37.1507694,57.8306 M124.540769,65.4196 C124.240769,64.4996 124.730769,63.5096 125.650769,63.2006 C126.560769,62.8896 127.550769,63.3896 127.860769,64.2996 C128.170769,65.2196 127.670769,66.2096 126.760769,66.5196 C126.570769,66.5806 126.380769,66.6106 126.200769,66.6106 C125.470769,66.6106 124.790769,66.1506 124.540769,65.4196 M33.4307694,67.2696 C32.5107694,66.9796 32.0007694,65.9996 32.2907694,65.0806 L32.2907694,65.0706 C32.5807694,64.1506 33.5707694,63.6396 34.4907694,63.9296 C35.4107694,64.2196 35.9207694,65.2096 35.6307694,66.1296 C35.3907694,66.8706 34.7007694,67.3496 33.9607694,67.3496 C33.7807694,67.3496 33.6107694,67.3306 33.4307694,67.2696 M126.650769,74.9506 C126.550769,73.9906 127.240769,73.1206 128.200769,73.0096 C129.160769,72.9106 130.020769,73.5996 130.130769,74.5596 C130.240769,75.5196 129.550769,76.3796 128.590769,76.4906 C128.520769,76.4996 128.460769,76.4996 128.390769,76.4996 C127.510769,76.4996 126.760769,75.8396 126.650769,74.9506 M31.7607694,77.2696 C30.8007694,77.1796 30.1007694,76.3206 30.1907694,75.3606 C30.2907694,74.4006 31.1407694,73.6906 32.1107694,73.7906 C33.0707694,73.8796 33.7707694,74.7406 33.6807694,75.7006 C33.5907694,76.6106 32.8307694,77.2806 31.9307694,77.2806 C31.8807694,77.2806 31.8207694,77.2806 31.7607694,77.2696 M128.280769,86.8096 C127.320769,86.7096 126.620769,85.8606 126.720769,84.8896 C126.720769,84.8706 126.720769,84.8496 126.730769,84.8306 L126.730769,84.7196 C126.820769,83.7596 127.680769,83.0496 128.640769,83.1396 C129.600769,83.2406 130.310769,84.0896 130.220769,85.0496 C130.210769,85.0896 130.210769,85.1206 130.210769,85.1506 C130.200769,85.1796 130.200769,85.2096 130.200769,85.2406 C130.110769,86.1396 129.350769,86.8206 128.460769,86.8206 C128.400769,86.8206 128.340769,86.8096 128.280769,86.8096 M30.2607694,85.8606 C30.1507694,84.9006 30.8407694,84.0306 31.8007694,83.9296 C32.7607694,83.8206 33.6307694,84.5096 33.7407694,85.4696 C33.8407694,86.4296 33.1507694,87.2996 32.1907694,87.4006 C32.1207694,87.4106 32.0607694,87.4106 32.0007694,87.4106 C31.1207694,87.4106 30.3607694,86.7496 30.2607694,85.8606 M125.880769,96.6606 C124.960769,96.3706 124.450769,95.3796 124.750769,94.4596 C125.040769,93.5406 126.020769,93.0306 126.940769,93.3206 C127.870769,93.6206 128.370769,94.5996 128.080769,95.5196 C127.850769,96.2696 127.160769,96.7406 126.410769,96.7406 C126.240769,96.7406 126.060769,96.7096 125.880769,96.6606 M32.5107694,96.1206 C32.2007694,95.2006 32.7007694,94.2096 33.6207694,93.9006 C34.5307694,93.5996 35.5207694,94.0896 35.8307694,95.0096 C36.1407694,95.9196 35.6407694,96.9196 34.7207694,97.2196 C34.5407694,97.2806 34.3507694,97.3096 34.1707694,97.3096 C33.4407694,97.3096 32.7507694,96.8496 32.5107694,96.1206 M121.480769,105.7906 C120.640769,105.3206 120.350769,104.2496 120.820769,103.4106 C121.300769,102.5706 122.370769,102.2696 123.210769,102.7596 C124.050769,103.2296 124.340769,104.2996 123.860769,105.1396 C123.540769,105.7096 122.950769,106.0196 122.340769,106.0196 C122.050769,106.0196 121.750769,105.9506 121.480769,105.7906 M36.8507694,105.6696 C36.3607694,104.8396 36.6407694,103.7596 37.4707694,103.2806 C38.3107694,102.7806 39.3807694,103.0596 39.8707694,103.9006 C40.3607694,104.7296 40.0807694,105.7996 39.2507694,106.2906 C38.9707694,106.4596 38.6607694,106.5306 38.3607694,106.5306 C37.7607694,106.5306 37.1807694,106.2196 36.8507694,105.6696 M115.260769,113.8096 C114.540769,113.1606 114.480769,112.0596 115.120769,111.3396 C115.760769,110.6206 116.870769,110.5496 117.590769,111.2006 C118.310769,111.8396 118.370769,112.9506 117.730769,113.6696 C117.390769,114.0496 116.910769,114.2496 116.430769,114.2496 C116.010769,114.2496 115.600769,114.0996 115.260769,113.8096 M43.0807694,114.1206 C42.4307694,113.4106 42.4807694,112.2996 43.1907694,111.6506 C43.9107694,110.9996 45.0207694,111.0496 45.6707694,111.7596 C46.3207694,112.4796 46.2707694,113.5806 45.5507694,114.2296 C45.2207694,114.5406 44.8007694,114.6906 44.3707694,114.6906 C43.9007694,114.6906 43.4307694,114.4996 43.0807694,114.1206 M107.520769,120.3606 C106.950769,119.5806 107.110769,118.4796 107.890769,117.9106 C108.670769,117.3396 109.770769,117.5096 110.340769,118.2906 C110.910769,119.0596 110.750769,120.1606 109.970769,120.7296 C109.660769,120.9596 109.290769,121.0706 108.930769,121.0706 C108.390769,121.0706 107.860769,120.8306 107.520769,120.3606 M50.9207694,121.0996 C50.1407694,120.5306 49.9607694,119.4406 50.5307694,118.6606 C51.0907694,117.8706 52.1807694,117.6906 52.9607694,118.2596 C53.7507694,118.8206 53.9307694,119.9106 53.3707694,120.7006 C53.0207694,121.1796 52.4907694,121.4296 51.9407694,121.4296 C51.5907694,121.4296 51.2307694,121.3206 50.9207694,121.0996 M98.5907694,125.1696 C98.2007694,124.2906 98.5907694,123.2496 99.4707694,122.8496 C100.350769,122.4506 101.380769,122.8396 101.780769,123.7196 C102.180769,124.5996 101.790769,125.6396 100.910769,126.0406 C100.680769,126.1506 100.430769,126.2006 100.190769,126.2006 C99.5307694,126.2006 98.8907694,125.8096 98.5907694,125.1696 M60.0507694,126.2996 C59.1607694,125.9106 58.7607694,124.8796 59.1507694,123.9906 C59.5407694,123.1106 60.5707694,122.7006 61.4507694,123.0896 C62.3407694,123.4796 62.7407694,124.5096 62.3607694,125.4006 C62.0707694,126.0496 61.4207694,126.4406 60.7507694,126.4406 C60.5207694,126.4406 60.2807694,126.4006 60.0507694,126.2996 M88.8607694,128.0096 C88.6607694,127.0706 89.2507694,126.1396 90.2007694,125.9296 C91.1407694,125.7196 92.0807694,126.3206 92.2807694,127.2696 C92.4907694,128.2096 91.8907694,129.1396 90.9507694,129.3496 L90.9407694,129.3496 C90.8207694,129.3796 90.6907694,129.3896 90.5707694,129.3896 C89.7707694,129.3896 89.0407694,128.8306 88.8607694,128.0096 M70.0607694,129.4696 C69.1207694,129.2806 68.5107694,128.3496 68.7007694,127.4006 C68.9007694,126.4596 69.8207694,125.8496 70.7707694,126.0406 C71.7107694,126.2406 72.3207694,127.1606 72.1307694,128.1106 C71.9607694,128.9406 71.2307694,129.5096 70.4207694,129.5096 C70.3007694,129.5096 70.1807694,129.4906 70.0607694,129.4696 M78.7507694,128.7596 C78.7507694,127.7906 79.5307694,127.0096 80.4907694,126.9996 C81.4607694,126.9996 82.2507694,127.7806 82.2507694,128.7406 C82.2507694,129.7096 81.4807694,130.4996 80.5107694,130.4996 L80.5007694,130.4996 C79.5407694,130.4996 78.7607694,129.7196 78.7507694,128.7596" id="Fill-16"></path>
                <path d="M83.7409694,43.6797 C82.7809694,43.5797 82.0809694,42.7197 82.1709694,41.7597 C82.2709694,40.7997 83.1209694,40.0997 84.0909694,40.1907 L84.0909694,40.2007 C85.0509694,40.2897 85.7509694,41.1397 85.6509694,42.1107 C85.5709694,43.0097 84.8109694,43.6907 83.9209694,43.6907 C83.8609694,43.6907 83.8009694,43.6797 83.7409694,43.6797 Z M72.1509694,42.5597 C71.9909694,41.5997 72.6309694,40.7007 73.5909694,40.5397 C74.5409694,40.3897 75.4409694,41.0307 75.6009694,41.9797 C75.7609694,42.9297 75.1109694,43.8397 74.1609694,43.9997 C74.0609694,44.0097 73.9709694,44.0197 73.8709694,44.0197 C73.0309694,44.0197 72.2909694,43.4097 72.1509694,42.5597 Z M93.0909694,45.8297 C92.1809694,45.4907 91.7209694,44.4797 92.0609694,43.5797 C92.4009694,42.6697 93.4109694,42.2097 94.3109694,42.5497 C95.2209694,42.8897 95.6809694,43.9007 95.3409694,44.7997 C95.0809694,45.5097 94.4109694,45.9407 93.7009694,45.9407 C93.5009694,45.9407 93.2909694,45.9097 93.0909694,45.8297 Z M62.6709694,45.9297 C62.2709694,45.0497 62.6609694,44.0097 63.5409694,43.6107 C64.4209694,43.2097 65.4609694,43.5997 65.8609694,44.4697 C66.2609694,45.3607 65.8709694,46.3897 64.9909694,46.7897 C64.7609694,46.9007 64.5109694,46.9507 64.2709694,46.9507 C63.6009694,46.9507 62.9709694,46.5707 62.6709694,45.9297 Z M101.550969,50.3397 C100.760969,49.7697 100.580969,48.6797 101.150969,47.8897 C101.710969,47.1107 102.800969,46.9297 103.590969,47.4907 C104.370969,48.0497 104.550969,49.1507 103.990969,49.9297 C103.650969,50.4097 103.110969,50.6597 102.570969,50.6597 C102.210969,50.6597 101.860969,50.5597 101.550969,50.3397 Z M54.4009694,51.6297 C53.7809694,50.8897 53.8909694,49.7807 54.6309694,49.1697 C55.3809694,48.5597 56.4809694,48.6597 57.1009694,49.4097 C57.7109694,50.1507 57.6009694,51.2597 56.8609694,51.8697 C56.5309694,52.1397 56.1409694,52.2697 55.7509694,52.2697 C55.2409694,52.2697 54.7409694,52.0497 54.4009694,51.6297 Z M108.560969,56.8897 L108.560969,56.8797 C107.950969,56.1397 108.050969,55.0307 108.800969,54.4197 C109.540969,53.8097 110.650969,53.9097 111.260969,54.6597 C111.870969,55.4007 111.770969,56.5097 111.020969,57.1197 C110.700969,57.3897 110.300969,57.5197 109.910969,57.5197 C109.410969,57.5197 108.900969,57.2997 108.560969,56.8897 Z M47.8609694,59.2807 C47.0809694,58.7097 46.9009694,57.6197 47.4609694,56.8397 C48.0209694,56.0497 49.1109694,55.8697 49.9009694,56.4297 C50.6909694,56.9997 50.8709694,58.0897 50.3009694,58.8797 C49.9609694,59.3497 49.4309694,59.6107 48.8809694,59.6107 C48.5309694,59.6107 48.1709694,59.4997 47.8609694,59.2807 Z M113.650969,65.0097 L113.650969,65.0197 C113.240969,64.1397 113.630969,63.0997 114.510969,62.7007 C115.390969,62.2897 116.430969,62.6797 116.830969,63.5597 C117.230969,64.4407 116.840969,65.4797 115.960969,65.8797 C115.730969,65.9907 115.480969,66.0397 115.240969,66.0397 C114.570969,66.0397 113.940969,65.6597 113.650969,65.0097 Z M43.5409694,68.3607 C42.6309694,68.0197 42.1709694,67.0097 42.5109694,66.0997 C42.8509694,65.2007 43.8609694,64.7407 44.7709694,65.0797 C45.6709694,65.4197 46.1309694,66.4297 45.7909694,67.3297 C45.5309694,68.0397 44.8609694,68.4697 44.1509694,68.4697 C43.9509694,68.4697 43.7409694,68.4297 43.5409694,68.3607 Z M116.450969,74.1797 C116.290969,73.2297 116.940969,72.3297 117.890969,72.1697 C118.840969,72.0097 119.750969,72.6507 119.900969,73.5997 C120.060969,74.5597 119.420969,75.4597 118.460969,75.6197 C118.370969,75.6297 118.270969,75.6397 118.170969,75.6397 C117.330969,75.6397 116.590969,75.0397 116.450969,74.1797 Z M41.7109694,78.2497 C40.7509694,78.1507 40.0509694,77.2897 40.1509694,76.3297 C40.2409694,75.3697 41.1009694,74.6697 42.0609694,74.7597 C43.0209694,74.8607 43.7209694,75.7097 43.6309694,76.6797 C43.5409694,77.5797 42.7809694,78.2497 41.8909694,78.2497 L41.7109694,78.2497 Z M118.330969,85.8207 C117.370969,85.7197 116.670969,84.8607 116.770969,83.9007 C116.770969,83.8697 116.770969,83.8397 116.780969,83.8207 L116.780969,83.7597 L116.780969,83.7697 C116.870969,82.7997 117.730969,82.0997 118.690969,82.1907 C119.650969,82.2807 120.360969,83.1397 120.260969,84.0997 C120.260969,84.1297 120.260969,84.1507 120.250969,84.1797 L120.250969,84.2497 C120.160969,85.1507 119.400969,85.8297 118.510969,85.8297 C118.450969,85.8297 118.390969,85.8207 118.330969,85.8207 Z M40.4809694,86.8297 C40.3309694,85.8797 40.9709694,84.9697 41.9309694,84.8207 C42.8809694,84.6597 43.7809694,85.3097 43.9409694,86.2597 C44.1009694,87.2097 43.4509694,88.1107 42.5009694,88.2697 C42.4009694,88.2897 42.3009694,88.2897 42.2109694,88.2897 C41.3709694,88.2897 40.6309694,87.6907 40.4809694,86.8297 Z M115.610969,95.4907 C114.700969,95.1507 114.250969,94.1397 114.590969,93.2407 C114.930969,92.3297 115.940969,91.8797 116.840969,92.2197 C117.750969,92.5597 118.200969,93.5707 117.860969,94.4697 C117.600969,95.1697 116.930969,95.6107 116.220969,95.6107 C116.020969,95.6107 115.810969,95.5707 115.610969,95.4907 Z M43.5409694,96.8797 C43.1409694,95.9997 43.5309694,94.9597 44.4109694,94.5597 C45.2909694,94.1597 46.3309694,94.5497 46.7309694,95.4297 C47.1309694,96.3097 46.7409694,97.3497 45.8609694,97.7497 C45.6209694,97.8497 45.3809694,97.9007 45.1309694,97.9007 C44.4709694,97.9007 43.8309694,97.5197 43.5409694,96.8797 Z M110.460969,104.1297 C109.670969,103.5707 109.490969,102.4697 110.060969,101.6907 C110.620969,100.9007 111.710969,100.7197 112.500969,101.2897 C113.280969,101.8497 113.460969,102.9507 112.900969,103.7297 C112.560969,104.2097 112.020969,104.4597 111.480969,104.4597 C111.120969,104.4597 110.770969,104.3497 110.460969,104.1297 Z M49.0909694,105.7897 C48.4809694,105.0397 48.5909694,103.9407 49.3309694,103.3297 C50.0809694,102.7097 51.1809694,102.8207 51.8009694,103.5707 C52.4109694,104.3097 52.3009694,105.4197 51.5609694,106.0307 C51.2309694,106.2997 50.8409694,106.4297 50.4509694,106.4297 C49.9409694,106.4297 49.4409694,106.2097 49.0909694,105.7897 Z M103.250969,111.1397 C102.630969,110.3897 102.740969,109.2897 103.490969,108.6797 C104.240969,108.0707 105.340969,108.1697 105.950969,108.9197 C106.570969,109.6697 106.460969,110.7697 105.710969,111.3897 C105.380969,111.6507 104.990969,111.7807 104.600969,111.7807 C104.090969,111.7807 103.590969,111.5597 103.250969,111.1397 Z M56.7509694,112.9697 C55.9709694,112.4097 55.7909694,111.3207 56.3509694,110.5307 C56.9209694,109.7497 58.0109694,109.5707 58.7909694,110.1297 C59.5809694,110.6907 59.7609694,111.7807 59.2009694,112.5707 C58.8509694,113.0497 58.3209694,113.2997 57.7709694,113.2997 C57.4209694,113.2997 57.0609694,113.1907 56.7509694,112.9697 Z M94.4709694,116.0597 C94.0709694,115.1797 94.4609694,114.1397 95.3509694,113.7407 C96.2209694,113.3397 97.2609694,113.7297 97.6609694,114.6107 C98.0609694,115.4907 97.6709694,116.5307 96.7909694,116.9297 C96.5609694,117.0397 96.3109694,117.0897 96.0709694,117.0897 C95.4009694,117.0897 94.7709694,116.7007 94.4709694,116.0597 Z M66.0109694,117.9297 C65.1109694,117.5897 64.6509694,116.5797 64.9909694,115.6697 C65.3309694,114.7697 66.3409694,114.3097 67.2509694,114.6507 C68.1509694,114.9907 68.6109694,115.9997 68.2709694,116.9097 C68.0009694,117.6107 67.3409694,118.0397 66.6309694,118.0397 C66.4209694,118.0397 66.2209694,118.0097 66.0109694,117.9297 Z M84.7309694,118.5307 C84.5709694,117.5797 85.2209694,116.6797 86.1709694,116.5197 C87.1309694,116.3607 88.0209694,117.0097 88.1809694,117.9697 C88.3409694,118.9197 87.6909694,119.8207 86.7409694,119.9697 C86.6409694,119.9907 86.5509694,119.9997 86.4509694,119.9997 C85.6109694,119.9997 84.8709694,119.3897 84.7309694,118.5307 Z M76.2509694,120.3097 C75.2809694,120.2097 74.5809694,119.3607 74.6709694,118.3897 C74.7709694,117.4297 75.6209694,116.7297 76.5809694,116.8207 C77.5409694,116.9197 78.2509694,117.7697 78.1609694,118.7297 C78.0709694,119.6397 77.3109694,120.3097 76.4209694,120.3097 L76.2509694,120.3097 Z" id="Fill-20"></path>
                <path d="M76.2409694,51.9698 C76.1709694,51.0098 76.8909694,50.1598 77.8509694,50.0898 C78.8209694,50.0198 79.6609694,50.7408 79.7309694,51.6998 C79.8009694,52.6698 79.0809694,53.5098 78.1209694,53.5798 C78.0709694,53.5798 78.0309694,53.5898 77.9809694,53.5898 C77.0809694,53.5898 76.3109694,52.8898 76.2409694,51.9698 M87.3709694,54.4798 C86.4309694,54.2198 85.8909694,53.2598 86.1509694,52.3208 C86.4009694,51.3898 87.3709694,50.8498 88.3009694,51.1108 C89.2309694,51.3608 89.7809694,52.3298 89.5209694,53.2598 C89.3109694,54.0308 88.6009694,54.5398 87.8309694,54.5398 C87.6809694,54.5398 87.5209694,54.5198 87.3709694,54.4798 M66.8109694,55.0308 C66.4109694,54.1508 66.8009694,53.1108 67.6809694,52.7098 C68.5609694,52.3098 69.6009694,52.6998 70.0009694,53.5798 C70.4009694,54.4598 70.0109694,55.4998 69.1309694,55.9008 C68.9009694,55.9998 68.6509694,56.0598 68.4109694,56.0598 C67.7409694,56.0598 67.1109694,55.6698 66.8109694,55.0308 M95.7409694,58.4798 C94.9609694,57.9098 94.7809694,56.8208 95.3409694,56.0398 C95.9009694,55.2498 96.9909694,55.0708 97.7809694,55.6298 C98.5609694,56.1908 98.7509694,57.2898 98.1809694,58.0708 C97.8409694,58.5498 97.3009694,58.8098 96.7609694,58.8098 C96.4109694,58.8098 96.0509694,58.6998 95.7409694,58.4798 M59.0009694,61.1298 C58.3209694,60.4298 58.3409694,59.3298 59.0309694,58.6508 C59.7209694,57.9798 60.8209694,57.9908 61.5009694,58.6798 C62.1809694,59.3698 62.1709694,60.4698 61.4709694,61.1508 C61.1309694,61.4908 60.6909694,61.6508 60.2509694,61.6508 C59.8009694,61.6508 59.3409694,61.4798 59.0009694,61.1298 M102.250969,65.1108 C101.700969,64.3098 101.900969,63.2198 102.700969,62.6698 C103.500969,62.1298 104.580969,62.3298 105.130969,63.1198 C105.680969,63.9198 105.480969,65.0098 104.680969,65.5598 C104.380969,65.7698 104.030969,65.8698 103.690969,65.8698 C103.130969,65.8698 102.590969,65.5998 102.250969,65.1108 M53.7309694,69.5198 C52.8609694,69.1108 52.4909694,68.0598 52.9109694,67.1908 C53.3309694,66.3208 54.3709694,65.9498 55.2509694,66.3698 C56.1209694,66.7808 56.4909694,67.8298 56.0709694,68.6998 C55.7709694,69.3298 55.1409694,69.6908 54.4909694,69.6908 C54.2409694,69.6908 53.9809694,69.6398 53.7309694,69.5198 M106.100969,73.5498 C105.860969,72.6108 106.420969,71.6598 107.360969,71.4198 C108.300969,71.1798 109.250969,71.7408 109.490969,72.6798 C109.730969,73.6108 109.170969,74.5708 108.240969,74.8098 C108.090969,74.8498 107.940969,74.8608 107.800969,74.8608 C107.020969,74.8608 106.310969,74.3398 106.100969,73.5498 M51.6609694,79.2198 C50.7009694,79.1198 50.0009694,78.2598 50.1009694,77.2998 L50.1009694,77.3098 C50.1909694,76.3398 51.0509694,75.6398 52.0109694,75.7408 C52.9709694,75.8298 53.6709694,76.6908 53.5809694,77.6508 C53.4909694,78.5498 52.7309694,79.2298 51.8409694,79.2298 C51.7809694,79.2298 51.7209694,79.2198 51.6609694,79.2198 M108.380969,84.8208 C107.420969,84.7298 106.720969,83.8698 106.820969,82.9098 L106.820969,82.8798 C106.820969,82.8608 106.820969,82.8398 106.830969,82.8098 C106.920969,81.8498 107.770969,81.1398 108.730969,81.2408 C109.700969,81.3298 110.400969,82.1798 110.310969,83.1398 C110.310969,83.1598 110.310969,83.1798 110.300969,83.1908 L110.300969,83.2598 C110.210969,84.1598 109.450969,84.8298 108.560969,84.8298 C108.500969,84.8298 108.440969,84.8298 108.380969,84.8208 M50.8909694,87.7808 C50.6509694,86.8398 51.2209694,85.8898 52.1509694,85.6508 C53.0909694,85.4098 54.0409694,85.9698 54.2909694,86.9098 C54.5209694,87.8398 53.9609694,88.7998 53.0309694,89.0398 C52.8809694,89.0708 52.7309694,89.0898 52.5909694,89.0898 C51.8109694,89.0898 51.1009694,88.5708 50.8909694,87.7808 M105.130969,94.1908 C104.260969,93.7698 103.890969,92.7198 104.310969,91.8498 C104.730969,90.9798 105.780969,90.6108 106.650969,91.0308 C107.520969,91.4498 107.880969,92.4998 107.470969,93.3698 C107.170969,93.9908 106.540969,94.3608 105.890969,94.3608 C105.630969,94.3608 105.370969,94.2998 105.130969,94.1908 M55.2409694,97.3398 C54.6909694,96.5398 54.8909694,95.4498 55.6909694,94.9008 C56.4909694,94.3608 57.5809694,94.5598 58.1209694,95.3608 C58.6709694,96.1598 58.4709694,97.2498 57.6709694,97.7898 C57.3709694,97.9998 57.0209694,98.0998 56.6809694,98.0998 C56.1209694,98.0998 55.5809694,97.8298 55.2409694,97.3398 M98.8609694,101.8608 C98.1809694,101.1698 98.2009694,100.0598 98.8909694,99.3898 C99.5809694,98.7198 100.690969,98.7298 101.360969,99.4198 C102.040969,100.1108 102.030969,101.2198 101.330969,101.8898 L101.340969,101.8898 C100.990969,102.2298 100.550969,102.3898 100.110969,102.3898 C99.6609694,102.3898 99.2009694,102.2198 98.8609694,101.8608 M62.5809694,104.8398 C61.7909694,104.2808 61.6109694,103.1908 62.1809694,102.4008 C62.7409694,101.6108 63.8309694,101.4408 64.6209694,101.9998 C65.4009694,102.5598 65.5809694,103.6598 65.0209694,104.4408 C64.6809694,104.9198 64.1409694,105.1698 63.6009694,105.1698 C63.2409694,105.1698 62.8809694,105.0598 62.5809694,104.8398 M90.3509694,106.9498 C89.9509694,106.0708 90.3409694,105.0308 91.2209694,104.6298 C92.1009694,104.2298 93.1409694,104.6198 93.5409694,105.4998 C93.9409694,106.3798 93.5509694,107.4198 92.6709694,107.8208 C92.4309694,107.9198 92.1909694,107.9698 91.9509694,107.9698 C91.2809694,107.9698 90.6409694,107.5898 90.3509694,106.9498 M72.0509694,109.3898 C71.1209694,109.1298 70.5709694,108.1598 70.8309694,107.2298 C71.0909694,106.2998 72.0609694,105.7598 72.9909694,106.0198 L72.9909694,106.0098 C73.9209694,106.2698 74.4609694,107.2408 74.2009694,108.1698 C73.9909694,108.9408 73.2809694,109.4498 72.5109694,109.4498 C72.3609694,109.4498 72.2009694,109.4298 72.0509694,109.3898 M80.6209694,108.7998 C80.5409694,107.8398 81.2709694,106.9998 82.2309694,106.9298 C83.1909694,106.8608 84.0309694,107.5798 84.1109694,108.5398 C84.1809694,109.5098 83.4609694,110.3398 82.4909694,110.4198 L82.3609694,110.4198 C81.4509694,110.4198 80.6809694,109.7198 80.6209694,108.7998" id="Fill-24"></path>
                <path d="M81.8107694,63.5801 C80.8407694,63.4901 80.1407694,62.6301 80.2407694,61.6601 C80.3407694,60.7001 81.2007694,60.0001 82.1607694,60.1001 C83.1207694,60.2001 83.8207694,61.0591 83.7307694,62.0191 C83.6307694,62.9201 82.8707694,63.5901 81.9907694,63.5901 C81.9307694,63.5901 81.8707694,63.5901 81.8107694,63.5801 M70.9507694,64.1401 C70.5507694,63.2601 70.9407694,62.2201 71.8207694,61.8201 C72.7007694,61.4201 73.7407694,61.8001 74.1407694,62.6801 C74.5407694,63.5591 74.1507694,64.6001 73.2707694,65.0001 C73.0407694,65.1101 72.7907694,65.1601 72.5507694,65.1601 C71.8807694,65.1601 71.2507694,64.7801 70.9507694,64.1401 M89.9307694,66.6201 C89.1407694,66.0591 88.9607694,64.9601 89.5307694,64.1801 C90.0907694,63.3901 91.1807694,63.2101 91.9707694,63.7691 C92.7507694,64.3301 92.9307694,65.4301 92.3707694,66.2101 C92.0307694,66.6901 91.4907694,66.9401 90.9507694,66.9401 C90.5907694,66.9401 90.2407694,66.8401 89.9307694,66.6201 M64.1307694,70.9101 C63.3507694,70.3501 63.1607694,69.2601 63.7307694,68.4701 C64.2907694,67.6801 65.3807694,67.5001 66.1707694,68.0701 C66.9607694,68.6301 67.1407694,69.7201 66.5707694,70.5101 C66.2307694,70.9901 65.7007694,71.2401 65.1507694,71.2401 C64.8007694,71.2401 64.4407694,71.1301 64.1307694,70.9101 M95.4507694,73.3091 C95.0407694,72.4301 95.4307694,71.3901 96.3107694,70.9901 C97.1907694,70.5901 98.2307694,70.9791 98.6307694,71.8601 L98.6307694,71.8501 C99.0307694,72.7291 98.6407694,73.7691 97.7607694,74.1701 C97.5307694,74.2801 97.2807694,74.3301 97.0407694,74.3301 C96.3707694,74.3301 95.7407694,73.9501 95.4507694,73.3091 M61.6207694,80.1901 C60.6507694,80.1001 59.9507694,79.2401 60.0507694,78.2801 C60.1407694,77.3091 61.0007694,76.6101 61.9607694,76.7101 C62.9307694,76.8091 63.6307694,77.6601 63.5307694,78.6301 C63.4407694,79.5301 62.6807694,80.2001 61.7907694,80.2001 C61.7307694,80.2001 61.6707694,80.2001 61.6207694,80.1901 M98.4307694,83.8301 C97.4707694,83.7401 96.7807694,82.8801 96.8707694,81.9301 L96.8707694,81.8601 C96.9607694,80.9001 97.8207694,80.1901 98.7807694,80.2801 C99.7407694,80.3701 100.450769,81.2201 100.360769,82.1901 C100.360769,82.1901 100.360769,82.2001 100.350769,82.2001 L100.350769,82.2601 C100.260769,83.1701 99.5007694,83.8401 98.6107694,83.8401 C98.5507694,83.8401 98.4907694,83.8401 98.4307694,83.8301 M61.7607694,88.6201 C61.3607694,87.7401 61.7507694,86.7001 62.6307694,86.3001 C63.5107694,85.9001 64.5407694,86.2901 64.9407694,87.1701 C65.3407694,88.0501 64.9507694,89.0901 64.0707694,89.4901 C63.8407694,89.5901 63.5907694,89.6401 63.3507694,89.6401 C62.6807694,89.6401 62.0507694,89.2601 61.7607694,88.6201 M94.2107694,92.4701 C93.4207694,91.9001 93.2407694,90.8091 93.8107694,90.0191 C94.3707694,89.2401 95.4707694,89.0591 96.2507694,89.6201 C97.0407694,90.1901 97.2107694,91.2801 96.6507694,92.0701 C96.3107694,92.5401 95.7707694,92.7901 95.2307694,92.7901 C94.8707694,92.7901 94.5207694,92.6901 94.2107694,92.4701 M68.4007694,96.7101 C67.6207694,96.1501 67.4407694,95.0591 68.0007694,94.2691 C68.5607694,93.4901 69.6607694,93.3091 70.4407694,93.8701 C71.2307694,94.4301 71.4107694,95.5301 70.8507694,96.3091 C70.5007694,96.7901 69.9707694,97.0401 69.4207694,97.0401 C69.0707694,97.0401 68.7107694,96.9301 68.4007694,96.7101 M86.2307694,97.8301 C85.8307694,96.9501 86.2207694,95.9201 87.1007694,95.5191 C87.9807694,95.1201 89.0207694,95.5101 89.4207694,96.3901 C89.8207694,97.2691 89.4307694,98.3091 88.5507694,98.7101 C88.3107694,98.8091 88.0707694,98.8601 87.8307694,98.8601 C87.1607694,98.8601 86.5207694,98.4791 86.2307694,97.8301 M78.2107694,100.4001 C77.2507694,100.3091 76.5507694,99.4601 76.6407694,98.5001 C76.7307694,97.5301 77.5807694,96.8301 78.5507694,96.9201 C79.5107694,97.0101 80.2107694,97.8601 80.1207694,98.8301 C80.0407694,99.7291 79.2707694,100.4101 78.3807694,100.4101 C78.3307694,100.4101 78.2707694,100.4101 78.2107694,100.4001" id="Fill-28"></path>
                <path d="M82.8908694,74.0596 C82.0008694,73.6696 81.5908694,72.6396 81.9808694,71.7596 C82.3608694,70.8706 83.3908694,70.4596 84.2808694,70.8496 C85.1708694,71.2296 85.5708694,72.2596 85.1908694,73.1506 C84.9008694,73.8096 84.2608694,74.2006 83.5808694,74.2006 C83.3508694,74.2006 83.1108694,74.1606 82.8908694,74.0596 M72.6708694,75.9296 C71.9508694,75.2896 71.8808694,74.1796 72.5208694,73.4596 C73.1708694,72.7406 74.2708694,72.6696 74.9908694,73.3096 C75.7208694,73.9506 75.7908694,75.0596 75.1408694,75.7806 C74.8008694,76.1696 74.3208694,76.3706 73.8308694,76.3706 C73.4208694,76.3706 73.0108694,76.2196 72.6708694,75.9296 M88.4808694,82.8396 C87.5308694,82.7406 86.8208694,81.8896 86.9208694,80.9296 L86.9208694,80.8896 C87.0108694,79.9296 87.8608694,79.2196 88.8208694,79.3096 C89.7708694,79.3896 90.4808694,80.2296 90.4108694,81.1796 C90.4108694,81.2096 90.4008694,81.2406 90.4008694,81.2696 C90.3108694,82.1796 89.5508694,82.8496 88.6608694,82.8496 C88.6008694,82.8496 88.5408694,82.8496 88.4808694,82.8396 M71.3608694,85.4406 C70.8708694,84.6106 71.1508694,83.5396 71.9908694,83.0496 C72.8208694,82.5596 73.8908694,82.8396 74.3808694,83.6696 C74.8708694,84.4996 74.5908694,85.5806 73.7608694,86.0596 C73.4808694,86.2296 73.1708694,86.3096 72.8708694,86.3096 C72.2708694,86.3096 71.6908694,85.9996 71.3608694,85.4406 M80.3108694,88.9296 C80.1008694,87.9906 80.7008694,87.0496 81.6508694,86.8496 C82.5908694,86.6396 83.5208694,87.2406 83.7308694,88.1796 C83.9408694,89.1296 83.3408694,90.0596 82.3908694,90.2696 C82.2708694,90.2896 82.1408694,90.3096 82.0208694,90.3096 C81.2108694,90.3096 80.4908694,89.7496 80.3108694,88.9296" id="Fill-32"></path>
            </g>
        </g>
    </g>
</svg>