<?xml version="1.0" encoding="UTF-8"?>
<svg width="200px" height="200px" viewBox="0 0 200 200" version="1.1" xmlns="http://www.w3.org/2000/svg" xmlns:xlink="http://www.w3.org/1999/xlink">
    <!-- Generator: Sketch 51.1 (57501) - http://www.bohemiancoding.com/sketch -->
    <title>circle 2</title>
    <desc>Created with Sketch.</desc>
    <defs></defs>
    <g id="circle-2" stroke="none" stroke-width="1" fill="none" fill-rule="evenodd">
        <path d="M100.350869,23.5 C99.3808694,23.5 98.6008694,22.71 98.6008694,21.75 C98.6008694,20.78 99.3908694,20 100.360869,20 C101.320869,20.01 102.100869,20.79 102.100869,21.76 C102.100869,22.72 101.310869,23.5 100.350869,23.5 Z M88.5808694,22.59 C88.4608694,21.63 89.1408694,20.75 90.1008694,20.63 C91.0508694,20.51 91.9308694,21.19 92.0508694,22.15 C92.1708694,23.11 91.4908694,23.979 90.5308694,24.1 C90.4608694,24.11 90.3908694,24.12 90.3108694,24.12 C89.4408694,24.12 88.6908694,23.47 88.5808694,22.59 Z M110.160869,24.16 C109.200869,24.03 108.530869,23.15 108.650869,22.2 C108.780869,21.24 109.650869,20.56 110.610869,20.69 C111.570869,20.81 112.250869,21.69 112.120869,22.65 C112.010869,23.53 111.260869,24.17 110.390869,24.17 C110.310869,24.17 110.240869,24.17 110.160869,24.16 Z M78.7408694,24.71 C78.5008694,23.77 79.0608694,22.81 80.0008694,22.57 C80.9308694,22.33 81.8908694,22.89 82.1308694,23.82 C82.3708694,24.76 81.8108694,25.72 80.8808694,25.96 C80.7308694,26 80.5808694,26.02 80.4408694,26.02 C79.6608694,26.02 78.9508694,25.49 78.7408694,24.71 Z M119.810869,26.05 C118.880869,25.8 118.320869,24.84 118.560869,23.91 C118.810869,22.97 119.770869,22.42 120.700869,22.66 C121.640869,22.91 122.190869,23.86 121.950869,24.8 C121.740869,25.59 121.030869,26.1 120.260869,26.1 C120.110869,26.1 119.960869,26.08 119.810869,26.05 Z M69.2708694,28.07 C68.9108694,27.17 69.3508694,26.16 70.2408694,25.79 L70.2408694,25.8 C71.1408694,25.43 72.1608694,25.87 72.5208694,26.76 C72.8808694,27.66 72.4508694,28.68 71.5508694,29.04 C71.3408694,29.13 71.1208694,29.17 70.9008694,29.17 C70.2108694,29.17 69.5508694,28.75 69.2708694,28.07 Z M129.140869,29.15 C128.240869,28.79 127.810869,27.77 128.180869,26.87 C128.540869,25.979 129.560869,25.55 130.460869,25.91 C131.350869,26.27 131.780869,27.29 131.420869,28.19 C131.140869,28.87 130.490869,29.28 129.800869,29.28 C129.580869,29.28 129.350869,29.24 129.140869,29.15 Z M60.3108694,32.62 C59.8408694,31.78 60.1308694,30.71 60.9808694,30.24 C61.8208694,29.77 62.8908694,30.07 63.3608694,30.91 C63.8308694,31.75 63.5408694,32.82 62.6908694,33.29 C62.4208694,33.44 62.1308694,33.51 61.8408694,33.51 C61.2308694,33.51 60.6308694,33.19 60.3108694,32.62 Z M137.990869,33.44 C137.150869,32.96 136.860869,31.89 137.330869,31.05 C137.810869,30.21 138.870869,29.92 139.720869,30.39 C140.560869,30.87 140.850869,31.93 140.380869,32.78 C140.060869,33.35 139.460869,33.66 138.850869,33.66 C138.560869,33.66 138.260869,33.59 137.990869,33.44 Z M51.9908694,38.28 C51.4208694,37.5 51.5808694,36.41 52.3508694,35.83 C53.1308694,35.26 54.2308694,35.42 54.8008694,36.19 C55.3808694,36.97 55.2208694,38.06 54.4408694,38.64 C54.1308694,38.87 53.7608694,38.99 53.4008694,38.99 C52.8608694,38.99 52.3408694,38.74 51.9908694,38.28 Z M146.220869,38.82 C145.450869,38.24 145.290869,37.15 145.870869,36.37 C146.450869,35.6 147.550869,35.44 148.320869,36.02 C149.090869,36.61 149.250869,37.7 148.670869,38.47 C148.330869,38.93 147.800869,39.17 147.270869,39.17 C146.900869,39.17 146.540869,39.06 146.220869,38.82 Z M44.4608694,44.95 C43.7908694,44.26 43.8108694,43.15 44.5108694,42.479 C45.2108694,41.81 46.3208694,41.83 46.9908694,42.52 C47.6608694,43.22 47.6408694,44.33 46.9408694,45 C46.6008694,45.32 46.1608694,45.49 45.7208694,45.49 C45.2708694,45.49 44.8108694,45.31 44.4608694,44.95 Z M153.690869,45.22 C153.000869,44.55 152.980869,43.44 153.660869,42.75 C154.330869,42.05 155.440869,42.04 156.130869,42.71 C156.830869,43.39 156.840869,44.49 156.170869,45.19 C155.820869,45.54 155.370869,45.72 154.910869,45.72 C154.470869,45.72 154.030869,45.55 153.690869,45.22 Z M37.8408694,52.53 C37.0908694,51.92 36.9708694,50.82 37.5808694,50.07 C38.1808694,49.31 39.2808694,49.19 40.0408694,49.8 C40.7908694,50.4 40.9108694,51.5 40.3008694,52.26 C39.9608694,52.69 39.4508694,52.91 38.9408694,52.91 C38.5608694,52.91 38.1708694,52.79 37.8408694,52.53 Z M160.290869,52.51 C159.690869,51.76 159.810869,50.66 160.570869,50.06 C161.330869,49.45 162.430869,49.58 163.030869,50.34 C163.630869,51.09 163.500869,52.19 162.750869,52.8 C162.420869,53.05 162.040869,53.17 161.660869,53.17 C161.140869,53.17 160.630869,52.95 160.290869,52.51 Z M32.2508694,60.89 C31.4208694,60.38 31.1608694,59.31 31.6708694,58.479 C32.1708694,57.66 33.2408694,57.4 34.0708694,57.9 C34.9008694,58.4 35.1608694,59.479 34.6508694,60.31 C34.3208694,60.85 33.7508694,61.14 33.1608694,61.14 C32.8508694,61.14 32.5308694,61.06 32.2508694,60.89 Z M165.900869,60.59 L165.900869,60.58 C165.400869,59.76 165.670869,58.68 166.500869,58.18 C167.320869,57.68 168.400869,57.95 168.900869,58.77 C169.400869,59.6 169.130869,60.67 168.310869,61.18 C168.020869,61.35 167.710869,61.43 167.400869,61.43 C166.810869,61.43 166.230869,61.13 165.900869,60.59 Z M27.7708694,69.9 C26.8908694,69.51 26.4908694,68.47 26.8808694,67.59 C27.2808694,66.71 28.3108694,66.31 29.1908694,66.7 C30.0808694,67.1 30.4708694,68.13 30.0808694,69.01 C29.7908694,69.67 29.1508694,70.05 28.4808694,70.05 C28.2408694,70.05 28.0008694,70 27.7708694,69.9 Z M170.440869,69.3 C170.050869,68.42 170.450869,67.39 171.330869,67 C172.220869,66.6 173.250869,67 173.640869,67.89 C174.030869,68.77 173.630869,69.81 172.750869,70.2 C172.520869,70.3 172.280869,70.35 172.040869,70.35 C171.370869,70.35 170.730869,69.96 170.440869,69.3 Z M24.4908694,79.42 C23.5608694,79.14 23.0308694,78.17 23.3108694,77.24 C23.5908694,76.31 24.5608694,75.79 25.4908694,76.06 C26.4108694,76.34 26.9408694,77.32 26.6708694,78.24 C26.4408694,79 25.7408694,79.49 24.9908694,79.49 C24.8208694,79.49 24.6608694,79.47 24.4908694,79.42 Z M173.830869,78.53 C173.550869,77.6 174.080869,76.63 175.010869,76.35 C175.940869,76.08 176.910869,76.61 177.180869,77.53 C177.460869,78.46 176.930869,79.43 176.000869,79.71 C175.840869,79.76 175.670869,79.78 175.500869,79.78 C174.750869,79.78 174.050869,79.29 173.830869,78.53 Z M22.4608694,89.27 C21.5008694,89.12 20.8608694,88.21 21.0108694,87.26 C21.1708694,86.31 22.0708694,85.66 23.0208694,85.82 C23.9808694,85.97 24.6208694,86.87 24.4708694,87.82 C24.3308694,88.68 23.5808694,89.29 22.7408694,89.29 C22.6508694,89.29 22.5508694,89.28 22.4608694,89.27 Z M176.000869,88.11 C175.840869,87.16 176.500869,86.26 177.450869,86.11 C178.410869,85.96 179.300869,86.61 179.450869,87.56 C179.610869,88.52 178.950869,89.41 178.000869,89.57 C177.910869,89.58 177.810869,89.59 177.720869,89.59 C176.880869,89.59 176.130869,88.97 176.000869,88.11 Z M21.6908694,99.3 C20.7208694,99.27 19.9708694,98.46 20.0008694,97.49 C20.0408694,96.52 20.8508694,95.77 21.8108694,95.8 C22.7808694,95.84 23.5308694,96.65 23.5008694,97.61 C23.4608694,98.56 22.6908694,99.3 21.7508694,99.3 L21.6908694,99.3 Z M176.920869,97.9 C176.890869,96.94 177.650869,96.13 178.620869,96.1 C179.580869,96.07 180.390869,96.83 180.420869,97.8 L180.410869,97.8 C180.440869,98.76 179.680869,99.57 178.720869,99.6 L178.660869,99.6 C177.720869,99.6 176.950869,98.85 176.920869,97.9 Z M20.2908694,107.76 C20.2008694,106.8 20.9108694,105.95 21.8708694,105.86 C22.8408694,105.77 23.6908694,106.479 23.7808694,107.44 C23.8708694,108.4 23.1608694,109.26 22.2008694,109.35 L22.0408694,109.35 C21.1408694,109.35 20.3808694,108.67 20.2908694,107.76 Z M178.130869,109.79 C177.170869,109.69 176.470869,108.83 176.570869,107.87 L176.570869,107.82 C176.570869,107.79 176.580869,107.76 176.580869,107.729 C176.670869,106.77 177.530869,106.07 178.490869,106.16 C179.450869,106.26 180.160869,107.11 180.060869,108.07 L180.060869,108.13 C180.050869,108.16 180.050869,108.19 180.050869,108.22 C179.960869,109.12 179.200869,109.79 178.310869,109.79 L178.130869,109.79 Z M21.9008694,117.92 C21.6908694,116.979 22.2808694,116.04 23.2308694,115.83 C24.1708694,115.61 25.1008694,116.21 25.3208694,117.15 C25.5308694,118.09 24.9408694,119.03 23.9908694,119.24 C23.8608694,119.27 23.7408694,119.29 23.6108694,119.29 C22.8108694,119.29 22.0908694,118.729 21.9008694,117.92 Z M176.290869,119.67 C175.340869,119.46 174.760869,118.51 174.970869,117.57 C175.190869,116.63 176.130869,116.04 177.070869,116.26 C178.010869,116.479 178.600869,117.42 178.380869,118.36 C178.200869,119.17 177.480869,119.72 176.680869,119.72 C176.550869,119.72 176.420869,119.7 176.290869,119.67 Z M24.8108694,127.78 C24.4708694,126.88 24.9408694,125.87 25.8508694,125.54 C26.7508694,125.21 27.7608694,125.67 28.0908694,126.58 C28.4208694,127.49 27.9608694,128.49 27.0508694,128.83 C26.8508694,128.9 26.6508694,128.93 26.4508694,128.93 C25.7408694,128.93 25.0708694,128.49 24.8108694,127.78 Z M173.190869,129.24 C172.280869,128.9 171.820869,127.9 172.160869,126.99 C172.490869,126.08 173.500869,125.62 174.410869,125.96 C175.310869,126.29 175.780869,127.3 175.440869,128.21 C175.180869,128.91 174.510869,129.35 173.800869,129.35 C173.600869,129.35 173.390869,129.31 173.190869,129.24 Z M28.9508694,137.19 C28.5008694,136.33 28.8408694,135.27 29.7008694,134.83 C30.5508694,134.38 31.6108694,134.71 32.0608694,135.57 L32.0508694,135.57 C32.5008694,136.43 32.1708694,137.49 31.3108694,137.93 C31.0508694,138.07 30.7808694,138.13 30.5008694,138.13 C29.8708694,138.13 29.2608694,137.79 28.9508694,137.19 Z M168.880869,138.34 C168.030869,137.89 167.700869,136.83 168.150869,135.97 C168.600869,135.12 169.660869,134.79 170.510869,135.24 C171.370869,135.69 171.690869,136.75 171.240869,137.61 L171.240869,137.6 C170.930869,138.2 170.320869,138.54 169.690869,138.54 C169.420869,138.54 169.140869,138.47 168.880869,138.34 Z M34.2608694,145.99 L34.2608694,145.979 C33.7108694,145.19 33.9108694,144.1 34.7008694,143.55 C35.5008694,143 36.5908694,143.2 37.1408694,143.99 C37.6908694,144.78 37.4908694,145.87 36.7008694,146.42 C36.3908694,146.64 36.0408694,146.74 35.7008694,146.74 C35.1508694,146.74 34.6008694,146.47 34.2608694,145.99 Z M163.440869,146.8 C162.650869,146.25 162.460869,145.16 163.020869,144.36 L163.020869,144.37 C163.570869,143.57 164.660869,143.39 165.450869,143.94 C166.250869,144.5 166.430869,145.59 165.880869,146.38 C165.540869,146.86 165.000869,147.12 164.450869,147.12 C164.100869,147.12 163.750869,147.02 163.440869,146.8 Z M40.6508694,154.04 C40.0008694,153.32 40.0608694,152.21 40.7808694,151.57 C41.4908694,150.92 42.6008694,150.979 43.2508694,151.69 C43.8908694,152.41 43.8408694,153.52 43.1208694,154.16 C42.7908694,154.47 42.3708694,154.62 41.9508694,154.62 C41.4708694,154.62 40.9908694,154.42 40.6508694,154.04 Z M156.960869,154.5 C156.250869,153.85 156.200869,152.74 156.850869,152.03 C157.510869,151.32 158.610869,151.27 159.330869,151.92 C160.040869,152.57 160.090869,153.68 159.430869,154.39 L159.440869,154.39 C159.090869,154.77 158.620869,154.96 158.140869,154.96 C157.720869,154.96 157.300869,154.81 156.960869,154.5 Z M48.0108694,161.22 C47.2808694,160.59 47.1908694,159.479 47.8208694,158.75 C48.4508694,158.01 49.5508694,157.93 50.2908694,158.56 C51.0208694,159.19 51.1108694,160.29 50.4808694,161.03 C50.1308694,161.43 49.6408694,161.64 49.1508694,161.64 C48.7508694,161.64 48.3408694,161.5 48.0108694,161.22 Z M149.560869,161.31 C148.930869,160.57 149.030869,159.47 149.760869,158.85 C150.500869,158.22 151.610869,158.31 152.230869,159.05 C152.850869,159.79 152.760869,160.89 152.020869,161.52 C151.690869,161.8 151.290869,161.93 150.890869,161.93 C150.400869,161.93 149.900869,161.72 149.560869,161.31 Z M56.2308694,167.4 C55.4208694,166.87 55.2008694,165.78 55.7308694,164.97 C56.2508694,164.17 57.3408694,163.94 58.1508694,164.47 C58.9608694,165 59.1808694,166.09 58.6508694,166.89 C58.3208694,167.41 57.7608694,167.68 57.1908694,167.68 C56.8608694,167.68 56.5208694,167.59 56.2308694,167.4 Z M141.350869,167.12 C140.820869,166.31 141.050869,165.229 141.870869,164.7 C142.680869,164.18 143.760869,164.41 144.290869,165.22 C144.810869,166.03 144.580869,167.12 143.770869,167.64 C143.470869,167.83 143.150869,167.92 142.820869,167.92 C142.250869,167.92 141.680869,167.64 141.350869,167.12 Z M65.1808694,172.47 C64.3108694,172.05 63.9408694,171.01 64.3708694,170.14 C64.7908694,169.27 65.8308694,168.9 66.7008694,169.33 C67.5708694,169.75 67.9308694,170.79 67.5108694,171.66 C67.2108694,172.29 66.5908694,172.65 65.9408694,172.65 C65.6808694,172.65 65.4208694,172.59 65.1808694,172.47 Z M132.470869,171.84 C132.050869,170.97 132.420869,169.93 133.290869,169.51 C134.160869,169.09 135.210869,169.46 135.630869,170.33 C136.040869,171.2 135.670869,172.25 134.800869,172.67 C134.560869,172.78 134.300869,172.84 134.050869,172.84 C133.400869,172.84 132.770869,172.47 132.470869,171.84 Z M74.7008694,176.36 C73.7908694,176.05 73.2908694,175.06 73.6008694,174.14 C73.9108694,173.229 74.9008694,172.729 75.8108694,173.04 C76.7308694,173.34 77.2208694,174.34 76.9208694,175.25 C76.6708694,175.99 75.9908694,176.45 75.2608694,176.45 C75.0708694,176.45 74.8908694,176.42 74.7008694,176.36 Z M123.060869,175.39 C122.760869,174.47 123.260869,173.479 124.170869,173.18 C125.090869,172.87 126.080869,173.37 126.380869,174.29 C126.690869,175.21 126.190869,176.2 125.270869,176.5 C125.090869,176.56 124.900869,176.59 124.720869,176.59 C123.990869,176.59 123.300869,176.12 123.060869,175.39 Z M84.6408694,178.979 C83.6908694,178.8 83.0808694,177.88 83.2608694,176.93 C83.4508694,175.979 84.3708694,175.36 85.3208694,175.55 C86.2708694,175.729 86.8808694,176.65 86.7008694,177.6 C86.5308694,178.44 85.8008694,179.01 84.9808694,179.01 C84.8708694,179.01 84.7608694,179 84.6408694,178.979 Z M113.270869,177.69 C113.090869,176.74 113.710869,175.82 114.660869,175.64 C115.610869,175.46 116.530869,176.08 116.710869,177.03 C116.890869,177.979 116.270869,178.9 115.320869,179.08 C115.210869,179.1 115.100869,179.11 114.990869,179.11 C114.160869,179.11 113.430869,178.53 113.270869,177.69 Z M94.8308694,180.32 C93.8708694,180.25 93.1408694,179.42 93.2108694,178.45 C93.2708694,177.49 94.1108694,176.76 95.0708694,176.83 C96.0308694,176.89 96.7608694,177.729 96.7008694,178.69 C96.6408694,179.61 95.8708694,180.32 94.9508694,180.32 L94.8308694,180.32 Z M103.260869,178.72 C103.210869,177.75 103.940869,176.92 104.900869,176.86 C105.870869,176.81 106.700869,177.54 106.760869,178.51 C106.810869,179.47 106.080869,180.3 105.120869,180.36 L105.010869,180.36 C104.090869,180.36 103.320869,179.64 103.260869,178.72 Z" id="Fill-3" fill="#FF3465"></path>
        <path d="M104.290769,33.6299 C103.320769,33.5699 102.590769,32.7399 102.650769,31.7799 C102.710769,30.8099 103.540769,30.0799 104.510769,30.1399 C105.470769,30.1999 106.200769,31.0299 106.140769,31.9899 C106.090769,32.9199 105.320769,33.6299 104.400769,33.6299 L104.290769,33.6299 Z M92.6607694,32.1399 C92.5707694,31.1699 93.2907694,30.3299 94.2507694,30.2499 C95.2207694,30.1699 96.0607694,30.8799 96.1407694,31.8499 C96.2207694,32.8099 95.5107694,33.6509 94.5407694,33.7399 L94.5507694,33.7399 L94.4007694,33.7399 C93.5007694,33.7399 92.7307694,33.0499 92.6607694,32.1399 Z M113.950769,34.9299 C113.000769,34.7299 112.390769,33.8099 112.590769,32.8599 C112.790769,31.9199 113.720769,31.3099 114.660769,31.5099 C115.610769,31.6999 116.210769,32.6299 116.020769,33.5799 C115.840769,34.4009 115.120769,34.9699 114.310769,34.9699 C114.190769,34.9699 114.070769,34.9599 113.950769,34.9299 Z M82.8207694,33.9599 C82.6007694,33.0099 83.1907694,32.0699 84.1307694,31.8499 C85.0707694,31.6299 86.0107694,32.2099 86.2307694,33.1599 C86.4507694,34.0999 85.8707694,35.0399 84.9307694,35.2599 C84.7907694,35.2899 84.6607694,35.3099 84.5207694,35.3099 C83.7307694,35.3099 83.0107694,34.7599 82.8207694,33.9599 Z M123.310769,37.6199 C122.400769,37.2899 121.940769,36.2799 122.270769,35.3699 C122.600769,34.4699 123.610769,33.9999 124.520769,34.3399 C125.420769,34.6699 125.890769,35.6799 125.550769,36.5799 C125.290769,37.2899 124.630769,37.7299 123.910769,37.7299 C123.710769,37.7299 123.510769,37.6909 123.310769,37.6199 Z M73.3707694,37.1909 C73.0107694,36.2999 73.4507694,35.2799 74.3507694,34.9199 C75.2507694,34.5599 76.2607694,34.9999 76.6207694,35.9009 C76.9807694,36.7999 76.5407694,37.8199 75.6407694,38.1799 C75.4307694,38.2599 75.2107694,38.2999 74.9907694,38.2999 C74.3007694,38.2999 73.6407694,37.8799 73.3707694,37.1909 Z M132.180769,41.6509 C131.330769,41.1909 131.020769,40.1199 131.490769,39.2799 C131.950769,38.4299 133.010769,38.1099 133.860769,38.5799 C134.710769,39.0399 135.020769,40.0999 134.560769,40.9499 C134.240769,41.5399 133.640769,41.8599 133.020769,41.8599 C132.740769,41.8599 132.450769,41.7999 132.180769,41.6509 Z M64.4807694,41.7799 C64.0007694,40.9409 64.2907694,39.8699 65.1207694,39.3899 C65.9607694,38.9009 67.0307694,39.1909 67.5107694,40.0299 C68.0007694,40.8599 67.7107694,41.9299 66.8707694,42.4199 C66.6007694,42.5799 66.3007694,42.6509 66.0007694,42.6509 C65.4007694,42.6509 64.8107694,42.3399 64.4807694,41.7799 Z M140.370769,46.9409 C139.600769,46.3499 139.440769,45.2599 140.030769,44.4799 C140.610769,43.7099 141.700769,43.5599 142.480769,44.1399 C143.250769,44.7199 143.400769,45.8199 142.820769,46.5899 C142.480769,47.0499 141.950769,47.2899 141.420769,47.2899 C141.050769,47.2899 140.680769,47.1699 140.370769,46.9409 Z M56.3507694,47.5999 C55.7507694,46.8399 55.8807694,45.7399 56.6407694,45.1399 C57.4007694,44.5399 58.5007694,44.6699 59.1007694,45.4299 C59.7007694,46.1909 59.5707694,47.2899 58.8107694,47.8899 C58.4907694,48.1399 58.1107694,48.2699 57.7307694,48.2699 C57.2107694,48.2699 56.7007694,48.0399 56.3507694,47.5999 Z M147.700769,53.3599 C147.020769,52.6699 147.030769,51.5599 147.720769,50.8799 C148.400769,50.2099 149.510769,50.2099 150.190769,50.9009 C150.870769,51.5899 150.860769,52.6999 150.170769,53.3699 C149.830769,53.7099 149.390769,53.8799 148.940769,53.8799 C148.490769,53.8799 148.040769,53.7099 147.700769,53.3599 Z M49.1507694,54.5399 C48.4507694,53.8799 48.4207694,52.7699 49.0807694,52.0699 C49.7507694,51.3699 50.8507694,51.3299 51.5607694,51.9999 C52.2607694,52.6599 52.2907694,53.7699 51.6307694,54.4699 C51.2807694,54.8399 50.8207694,55.0199 50.3507694,55.0199 C49.9207694,55.0199 49.4907694,54.8599 49.1507694,54.5399 Z M154.020769,60.7699 L154.020769,60.7799 C153.450769,59.9999 153.610769,58.9009 154.390769,58.3299 C155.170769,57.7599 156.270769,57.9199 156.840769,58.6999 C157.410769,59.4799 157.240769,60.5799 156.460769,61.1509 C156.150769,61.3799 155.790769,61.4899 155.430769,61.4899 C154.890769,61.4899 154.360769,61.2399 154.020769,60.7699 Z M43.0307694,62.4599 C42.2407694,61.9009 42.0507694,60.8099 42.6107694,60.0199 C43.1607694,59.2299 44.2507694,59.0299 45.0407694,59.5899 C45.8307694,60.1399 46.0307694,61.2299 45.4707694,62.0299 L45.4707694,62.0199 C45.1307694,62.5099 44.5907694,62.7699 44.0407694,62.7699 C43.6907694,62.7699 43.3407694,62.6699 43.0307694,62.4599 Z M159.200769,69.0299 C158.740769,68.1699 159.070769,67.1099 159.920769,66.6599 C160.780769,66.2099 161.840769,66.5299 162.290769,67.3799 C162.740769,68.2399 162.420769,69.2999 161.560769,69.7499 C161.300769,69.8899 161.020769,69.9499 160.750769,69.9499 C160.120769,69.9499 159.510769,69.6199 159.200769,69.0299 Z M38.1407694,71.1799 C37.2707694,70.7499 36.9207694,69.6999 37.3507694,68.8299 C37.7907694,67.9699 38.8407694,67.6199 39.7007694,68.0499 C40.5707694,68.4799 40.9207694,69.5299 40.4907694,70.4009 L40.4807694,70.4009 C40.1807694,71.0099 39.5607694,71.3699 38.9207694,71.3699 C38.6507694,71.3699 38.3907694,71.3099 38.1407694,71.1799 Z M163.120769,77.9409 C162.800769,77.0299 163.270769,76.0299 164.180769,75.6999 C165.090769,75.3799 166.090769,75.8499 166.420769,76.7699 C166.740769,77.6799 166.270769,78.6799 165.350769,78.9999 C165.160769,79.0699 164.960769,79.0999 164.770769,79.0999 C164.050769,79.0999 163.370769,78.6509 163.120769,77.9409 Z M34.5707694,80.5299 C33.6507694,80.2299 33.1507694,79.2399 33.4507694,78.3199 C33.7507694,77.4099 34.7407694,76.9009 35.6607694,77.1999 C36.5807694,77.4999 37.0807694,78.4899 36.7807694,79.4099 C36.5407694,80.1509 35.8507694,80.6199 35.1107694,80.6199 C34.9307694,80.6199 34.7507694,80.5899 34.5707694,80.5299 Z M165.700769,87.3299 C165.510769,86.3799 166.130769,85.4599 167.080769,85.2699 C168.030769,85.0899 168.950769,85.6999 169.130769,86.6509 C169.320769,87.5999 168.700769,88.5199 167.760769,88.7099 C167.640769,88.7299 167.530769,88.7399 167.420769,88.7399 C166.600769,88.7399 165.860769,88.1599 165.700769,87.3299 Z M32.4107694,90.2899 C31.4607694,90.1299 30.8207694,89.2199 30.9807694,88.2699 C31.1507694,87.3199 32.0507694,86.6799 33.0007694,86.8399 C33.9607694,87.0099 34.5907694,87.9099 34.4307694,88.8699 C34.2807694,89.7199 33.5407694,90.3199 32.7107694,90.3199 C32.6107694,90.3199 32.5107694,90.3099 32.4107694,90.2899 Z M166.870769,96.9999 C166.830769,96.0299 167.570769,95.2099 168.540769,95.1699 C169.500769,95.1199 170.320769,95.8699 170.370769,96.8299 C170.410769,97.7999 169.670769,98.6199 168.700769,98.6599 C168.680769,98.6599 168.650769,98.6699 168.620769,98.6699 C167.690769,98.6699 166.920769,97.9409 166.870769,96.9999 Z M31.6807694,100.2699 C30.7107694,100.2399 29.9507694,99.4409 29.9707694,98.4699 C30.0007694,97.5099 30.8007694,96.7399 31.7707694,96.7699 C32.7407694,96.7899 33.5007694,97.5999 33.4707694,98.5599 C33.4507694,99.5199 32.6707694,100.2699 31.7207694,100.2699 L31.6807694,100.2699 Z M168.180769,108.7899 C167.220769,108.6999 166.520769,107.8399 166.620769,106.8799 L166.620769,106.8199 C166.620769,106.7899 166.630769,106.7699 166.630769,106.7399 C166.720769,105.7799 167.580769,105.0799 168.540769,105.1699 C169.500769,105.2599 170.210769,106.1199 170.110769,107.0799 C170.110769,107.1099 170.110769,107.1299 170.100769,107.1599 L170.100769,107.2199 C170.010769,108.1299 169.250769,108.7999 168.360769,108.7999 C168.300769,108.7999 168.240769,108.7999 168.180769,108.7899 Z M30.4507694,108.7099 C30.3307694,107.7499 31.0207694,106.8799 31.9807694,106.7699 C32.9407694,106.6509 33.8107694,107.3299 33.9307694,108.2999 C34.0407694,109.2599 33.3607694,110.1299 32.4007694,110.2399 C32.3307694,110.2499 32.2607694,110.2499 32.1907694,110.2499 C31.3107694,110.2499 30.5607694,109.5999 30.4507694,108.7099 Z M166.230769,118.5999 C165.290769,118.3599 164.720769,117.4199 164.950769,116.4799 C165.190769,115.5399 166.140769,114.9699 167.070769,115.1999 C168.010769,115.4409 168.580769,116.3899 168.350769,117.3199 C168.150769,118.1199 167.440769,118.6509 166.650769,118.6509 C166.510769,118.6509 166.370769,118.6299 166.230769,118.5999 Z M32.4207694,118.7799 C32.1707694,117.8399 32.7107694,116.8799 33.6507694,116.6299 C34.5807694,116.3699 35.5407694,116.9199 35.8007694,117.8499 C36.0507694,118.7799 35.5007694,119.7499 34.5707694,119.9999 C34.4207694,120.0399 34.2607694,120.0599 34.1107694,120.0599 C33.3407694,120.0599 32.6307694,119.5499 32.4207694,118.7799 Z M162.860769,128.0099 C161.970769,127.6509 161.540769,126.6199 161.910769,125.7299 C162.280769,124.8399 163.300769,124.4099 164.200769,124.7799 C165.090769,125.1509 165.510769,126.1699 165.150769,127.0599 C164.870769,127.7399 164.210769,128.1509 163.530769,128.1509 C163.310769,128.1509 163.080769,128.0999 162.860769,128.0099 Z M35.8407694,128.4409 C35.4507694,127.5499 35.8607694,126.5199 36.7407694,126.1299 C37.6307694,125.7399 38.6607694,126.1399 39.0507694,127.0299 C39.4407694,127.9099 39.0307694,128.9499 38.1507694,129.3399 C37.9207694,129.4409 37.6807694,129.4799 37.4507694,129.4799 C36.7707694,129.4799 36.1307694,129.0899 35.8407694,128.4409 Z M158.150769,136.8399 C157.320769,136.3499 157.050769,135.2699 157.540769,134.4409 C158.040769,133.6099 159.110769,133.3399 159.940769,133.8399 C160.770769,134.3299 161.040769,135.4099 160.550769,136.2399 C160.220769,136.7799 159.640769,137.0899 159.040769,137.0899 C158.740769,137.0899 158.430769,137.0099 158.150769,136.8399 Z M40.6407694,137.4999 C40.1207694,136.6799 40.3707694,135.5999 41.1907694,135.0799 C42.0107694,134.5699 43.0907694,134.8199 43.6007694,135.6399 C44.1207694,136.4599 43.8707694,137.5399 43.0507694,138.0499 C42.7607694,138.2299 42.4407694,138.3199 42.1207694,138.3199 C41.5407694,138.3199 40.9707694,138.0299 40.6407694,137.4999 Z M152.200769,144.8799 C151.450769,144.2699 151.340769,143.1699 151.950769,142.4199 C152.560769,141.6699 153.660769,141.5599 154.410769,142.1699 C155.160769,142.7799 155.270769,143.8899 154.660769,144.6299 C154.310769,145.0599 153.810769,145.2799 153.300769,145.2799 C152.910769,145.2799 152.520769,145.1509 152.200769,144.8799 Z M46.6907694,145.7699 C46.0707694,145.0299 46.1607694,143.9299 46.8907694,143.2999 C47.6307694,142.6699 48.7307694,142.7599 49.3607694,143.4999 C49.9907694,144.2399 49.9007694,145.3399 49.1607694,145.9699 C48.8307694,146.2499 48.4307694,146.3799 48.0307694,146.3799 C47.5307694,146.3799 47.0407694,146.1699 46.6907694,145.7699 Z M145.140769,151.9699 C144.490769,151.2599 144.540769,150.1509 145.250769,149.4999 C145.970769,148.8499 147.070769,148.9009 147.720769,149.6099 C148.380769,150.3199 148.330769,151.4299 147.610769,152.0799 C147.280769,152.3899 146.860769,152.5399 146.430769,152.5399 C145.960769,152.5399 145.490769,152.3499 145.140769,151.9699 Z M53.8807694,153.0699 L53.8807694,153.0799 C53.1607694,152.4409 53.0907694,151.3299 53.7207694,150.5999 C54.3607694,149.8799 55.4707694,149.8099 56.2007694,150.4409 C56.9207694,151.0799 56.9907694,152.1909 56.3607694,152.9099 C56.0107694,153.3099 55.5307694,153.5099 55.0407694,153.5099 C54.6307694,153.5099 54.2207694,153.3699 53.8807694,153.0699 Z M137.130769,157.9699 C136.590769,157.1599 136.800769,156.0799 137.600769,155.5299 C138.400769,154.9899 139.490769,155.1999 140.030769,155.9999 C140.580769,156.7999 140.370769,157.8899 139.570769,158.4299 C139.270769,158.6399 138.920769,158.7299 138.590769,158.7299 C138.030769,158.7299 137.470769,158.4699 137.130769,157.9699 Z M62.0607694,159.2599 L62.0707694,159.2599 C61.2507694,158.7399 61.0207694,157.6509 61.5507694,156.8399 C62.0707694,156.0299 63.1607694,155.7999 63.9707694,156.3199 C64.7807694,156.8499 65.0107694,157.9299 64.4807694,158.7399 C64.1507694,159.2599 63.5907694,159.5399 63.0107694,159.5399 C62.6907694,159.5399 62.3607694,159.4499 62.0607694,159.2599 Z M128.350769,162.7299 C127.930769,161.8599 128.290769,160.8199 129.160769,160.4009 C130.030769,159.9799 131.080769,160.3399 131.500769,161.2099 C131.920769,162.0799 131.550769,163.1299 130.680769,163.5499 C130.440769,163.6699 130.180769,163.7199 129.920769,163.7199 C129.270769,163.7199 128.650769,163.3599 128.350769,162.7299 Z M71.0607694,164.1909 C70.1807694,163.7899 69.7907694,162.7499 70.2007694,161.8699 C70.6007694,160.9899 71.6307694,160.5999 72.5107694,161.0099 L72.5107694,160.9999 C73.3907694,161.4009 73.7807694,162.4409 73.3807694,163.3199 C73.0907694,163.9699 72.4507694,164.3499 71.7807694,164.3499 C71.5407694,164.3499 71.3007694,164.2999 71.0607694,164.1909 Z M118.960769,166.1699 C118.670769,165.2499 119.190769,164.2699 120.110769,163.9799 C121.030769,163.6909 122.010769,164.1999 122.300769,165.1199 C122.590769,166.0499 122.080769,167.0299 121.150769,167.3199 C120.980769,167.3699 120.800769,167.4009 120.630769,167.4009 C119.890769,167.4009 119.200769,166.9199 118.960769,166.1699 Z M80.6907694,167.7499 C79.7607694,167.4799 79.2207694,166.5099 79.4907694,165.5799 C79.7607694,164.6509 80.7307694,164.1099 81.6607694,164.3799 C82.5907694,164.6509 83.1207694,165.6199 82.8607694,166.5499 C82.6307694,167.3199 81.9307694,167.8199 81.1707694,167.8199 C81.0107694,167.8199 80.8507694,167.7899 80.6907694,167.7499 Z M109.170769,168.1909 C109.020769,167.2399 109.670769,166.3399 110.630769,166.1909 C111.580769,166.0499 112.480769,166.6999 112.630769,167.6509 C112.770769,168.6099 112.120769,169.4999 111.170769,169.6509 C111.080769,169.6699 110.990769,169.6699 110.900769,169.6699 C110.050769,169.6699 109.300769,169.0599 109.170769,168.1909 Z M90.7207694,169.8599 C89.7607694,169.7299 89.0907694,168.8499 89.2207694,167.8899 C89.3507694,166.9299 90.2307694,166.2599 91.1907694,166.3899 C92.1507694,166.5199 92.8207694,167.4009 92.6907694,168.3599 C92.5707694,169.2399 91.8207694,169.8699 90.9607694,169.8699 C90.8807694,169.8699 90.8007694,169.8699 90.7207694,169.8599 Z M99.1807694,168.7599 C99.1807694,167.7999 99.9507694,167.0099 100.920769,166.9999 C101.880769,166.9899 102.670769,167.7699 102.680769,168.7299 C102.690769,169.6999 101.920769,170.4899 100.950769,170.4999 L100.930769,170.4999 C99.9707694,170.4999 99.1907694,169.7199 99.1807694,168.7599 Z" id="Fill-8" fill="#FF3465"></path>
        <path d="M98.4606694,43.5303 C97.4906694,43.5503 96.6906694,42.7903 96.6606694,41.8303 C96.6306694,40.8603 97.3906694,40.0593 98.3606694,40.0303 C99.3206694,40.0003 100.130669,40.7593 100.160669,41.7193 C100.190669,42.6903 99.4306694,43.5003 98.4606694,43.5303 Z M108.070669,44.0593 C107.110669,43.9203 106.450669,43.0403 106.580669,42.0803 C106.710669,41.1203 107.600669,40.4603 108.550669,40.5903 C109.510669,40.7193 110.180669,41.6103 110.040669,42.5593 C109.920669,43.4403 109.170669,44.0703 108.320669,44.0703 C108.230669,44.0703 108.150669,44.0703 108.070669,44.0593 Z M86.8406694,43.2593 C86.6506694,42.3093 87.2606694,41.3893 88.2106694,41.2003 C89.1606694,41.0003 90.0806694,41.6203 90.2706694,42.5593 C90.4606694,43.5093 89.8506694,44.4293 88.9006694,44.6303 C88.7906694,44.6503 88.6706694,44.6603 88.5606694,44.6603 C87.7406694,44.6603 87.0106694,44.0903 86.8406694,43.2593 Z M117.450669,46.1793 C116.530669,45.8893 116.020669,44.9103 116.320669,43.9793 C116.610669,43.0593 117.590669,42.5503 118.510669,42.8493 C119.430669,43.1393 119.940669,44.1203 119.650669,45.0403 C119.410669,45.7903 118.720669,46.2593 117.980669,46.2593 C117.810669,46.2593 117.630669,46.2403 117.450669,46.1793 Z M77.4106694,46.3403 C77.0606694,45.4293 77.5106694,44.4203 78.4106694,44.0703 C79.3106694,43.7193 80.3306694,44.1703 80.6806694,45.0703 C81.0306694,45.9693 80.5806694,46.9793 79.6806694,47.3303 C79.4706694,47.4203 79.2606694,47.4503 79.0406694,47.4503 C78.3406694,47.4503 77.6806694,47.0303 77.4106694,46.3403 Z M126.340669,49.8703 C125.480669,49.4203 125.150669,48.3703 125.590669,47.5093 C126.040669,46.6503 127.090669,46.3203 127.950669,46.7593 C128.810669,47.2103 129.140669,48.2593 128.700669,49.1203 C128.390669,49.7193 127.780669,50.0703 127.140669,50.0703 C126.870669,50.0703 126.600669,50.0003 126.340669,49.8703 Z M68.6406694,50.9693 C68.1406694,50.1393 68.4106694,49.0593 69.2406694,48.5703 L69.2406694,48.5593 C70.0706694,48.0703 71.1406694,48.3403 71.6406694,49.1703 C72.1406694,49.9903 71.8706694,51.0703 71.0406694,51.5703 C70.7606694,51.7403 70.4506694,51.8203 70.1406694,51.8203 C69.5506694,51.8203 68.9706694,51.5093 68.6406694,50.9693 Z M134.470669,55.0093 C133.700669,54.4293 133.550669,53.3303 134.130669,52.5593 C134.720669,51.7903 135.820669,51.6393 136.590669,52.2293 C137.350669,52.8093 137.500669,53.9103 136.920669,54.6793 C136.580669,55.1303 136.050669,55.3703 135.530669,55.3703 C135.160669,55.3703 134.780669,55.2503 134.470669,55.0093 Z M60.7706694,57.0093 C60.1406694,56.2693 60.2206694,55.1703 60.9606694,54.5403 C61.6906694,53.9103 62.8006694,54.0003 63.4306694,54.7293 C64.0506694,55.4603 63.9706694,56.5703 63.2406694,57.2003 C62.9106694,57.4793 62.5006694,57.6203 62.1006694,57.6203 C61.6006694,57.6203 61.1106694,57.4103 60.7706694,57.0093 Z M141.610669,61.4603 C140.950669,60.7593 140.990669,59.6503 141.700669,58.9903 C142.400669,58.3203 143.510669,58.3603 144.170669,59.0703 C144.830669,59.7693 144.790669,60.8803 144.090669,61.5403 C143.750669,61.8603 143.320669,62.0093 142.890669,62.0093 C142.420669,62.0093 141.960669,61.8303 141.610669,61.4603 Z M54.0306694,64.2903 C53.2806694,63.6703 53.1806694,62.5703 53.7906694,61.8203 L53.8006694,61.8203 C54.4106694,61.0803 55.5206694,60.9793 56.2606694,61.5903 C57.0006694,62.2103 57.1106694,63.3093 56.4906694,64.0593 C56.1406694,64.4693 55.6406694,64.6903 55.1406694,64.6903 C54.7506694,64.6903 54.3506694,64.5593 54.0306694,64.2903 Z M147.570669,69.0093 L147.580669,69.0093 C147.040669,68.2103 147.270669,67.1203 148.070669,66.5903 C148.880669,66.0593 149.960669,66.2803 150.500669,67.0903 C151.030669,67.8893 150.800669,68.9793 150.000669,69.5093 C149.700669,69.7103 149.370669,69.8003 149.040669,69.8003 C148.470669,69.8003 147.910669,69.5193 147.570669,69.0093 Z M48.6106694,72.5993 C47.7706694,72.1203 47.4806694,71.0503 47.9606694,70.2103 C48.4406694,69.3703 49.5206694,69.0903 50.3506694,69.5703 C51.1906694,70.0503 51.4806694,71.1203 51.0006694,71.9603 C50.6706694,72.5193 50.0806694,72.8303 49.4806694,72.8303 C49.1806694,72.8303 48.8806694,72.7593 48.6106694,72.5993 Z M152.180669,77.4603 C151.790669,76.5803 152.190669,75.5503 153.080669,75.1503 C153.960669,74.7693 154.990669,75.1703 155.380669,76.0503 C155.770669,76.9403 155.370669,77.9693 154.490669,78.3603 C154.260669,78.4603 154.020669,78.5093 153.780669,78.5093 C153.110669,78.5093 152.470669,78.1203 152.180669,77.4603 Z M44.6806694,81.7103 C43.7706694,81.3803 43.3106694,80.3803 43.6406694,79.4693 C43.9706694,78.5593 44.9806694,78.0993 45.8806694,78.4293 C46.7906694,78.7593 47.2606694,79.7593 46.9306694,80.6703 C46.6606694,81.3803 45.9906694,81.8203 45.2806694,81.8203 C45.0806694,81.8203 44.8806694,81.7903 44.6806694,81.7103 Z M155.290669,86.5593 C155.050669,85.6203 155.620669,84.6703 156.560669,84.4403 C157.500669,84.2103 158.450669,84.7803 158.680669,85.7193 C158.920669,86.6503 158.340669,87.5993 157.410669,87.8403 C157.270669,87.8703 157.120669,87.8893 156.980669,87.8893 C156.200669,87.8893 155.480669,87.3603 155.290669,86.5593 Z M42.3606694,91.3603 C41.4106694,91.1793 40.7806694,90.2693 40.9506694,89.3203 C41.1306694,88.3703 42.0406694,87.7403 42.9906694,87.9203 C43.9406694,88.0903 44.5706694,89.0003 44.3906694,89.9503 C44.2406694,90.8003 43.5006694,91.3893 42.6706694,91.3893 C42.5706694,91.3893 42.4606694,91.3803 42.3606694,91.3603 Z M156.800669,96.0593 C156.730669,95.0993 157.450669,94.2593 158.420669,94.1903 C159.380669,94.1203 160.220669,94.8403 160.290669,95.8093 C160.360669,96.7693 159.640669,97.6103 158.670669,97.6793 L158.540669,97.6793 C157.630669,97.6793 156.870669,96.9793 156.800669,96.0593 Z M41.6806694,101.2593 C40.7106694,101.2403 39.9406694,100.4503 39.9606694,99.4793 L39.9606694,99.4903 C39.9706694,98.5193 40.7606694,97.7403 41.7306694,97.7593 C42.6906694,97.7693 43.4706694,98.5703 43.4606694,99.5303 C43.4406694,100.4903 42.6606694,101.2593 41.7006694,101.2593 L41.6806694,101.2593 Z M158.230669,107.8003 C157.270669,107.7103 156.570669,106.8493 156.670669,105.8893 C156.670669,105.8493 156.670669,105.8203 156.680669,105.7903 L156.680669,105.6793 C156.780669,104.7193 157.630669,104.0093 158.590669,104.1103 C159.560669,104.2003 160.260669,105.0503 160.170669,106.0193 C160.170669,106.0503 160.160669,106.0903 160.160669,106.1203 C160.150669,106.1603 160.150669,106.2003 160.150669,106.2293 C160.060669,107.1393 159.300669,107.8093 158.410669,107.8093 C158.350669,107.8093 158.290669,107.8093 158.230669,107.8003 Z M40.6806694,109.6703 C40.5306694,108.7193 41.1806694,107.8203 42.1406694,107.6703 C43.0906694,107.5193 43.9906694,108.1703 44.1406694,109.1303 C44.2906694,110.0803 43.6406694,110.9793 42.6806694,111.1303 C42.5906694,111.1393 42.5006694,111.1503 42.4106694,111.1503 C41.5606694,111.1503 40.8206694,110.5403 40.6806694,109.6703 Z M156.140669,117.5003 C155.210669,117.2403 154.660669,116.2803 154.910669,115.3493 C155.170669,114.4103 156.130669,113.8603 157.060669,114.1203 C158.000669,114.3803 158.540669,115.3403 158.290669,116.2693 C158.070669,117.0503 157.370669,117.5593 156.600669,117.5593 C156.450669,117.5593 156.290669,117.5403 156.140669,117.5003 Z M43.1306694,119.5903 C42.8106694,118.6793 43.3106694,117.6793 44.2206694,117.3703 C45.1406694,117.0593 46.1306694,117.5503 46.4406694,118.4603 C46.7506694,119.3803 46.2606694,120.3703 45.3506694,120.6793 C45.1606694,120.7503 44.9706694,120.7803 44.7806694,120.7803 C44.0606694,120.7803 43.3806694,120.3203 43.1306694,119.5903 Z M152.430669,126.7003 C151.550669,126.2903 151.170669,125.2403 151.580669,124.3703 C152.000669,123.4903 153.040669,123.1203 153.910669,123.5303 C154.790669,123.9403 155.160669,124.9793 154.750669,125.8603 L154.750669,125.8493 C154.460669,126.4903 153.820669,126.8603 153.170669,126.8603 C152.920669,126.8603 152.670669,126.8093 152.430669,126.7003 Z M47.2206694,128.9503 C46.7606694,128.0993 47.0706694,127.0403 47.9206694,126.5803 C48.7706694,126.1103 49.8406694,126.4293 50.3006694,127.2803 C50.7606694,128.1303 50.4406694,129.1903 49.5906694,129.6503 C49.3306694,129.8003 49.0406694,129.8603 48.7606694,129.8603 C48.1406694,129.8603 47.5406694,129.5303 47.2206694,128.9503 Z M147.200669,135.1393 C146.410669,134.5803 146.210669,133.4903 146.770669,132.7003 C147.320669,131.9103 148.410669,131.7103 149.200669,132.2693 C150.000669,132.8203 150.190669,133.9103 149.640669,134.7003 C149.300669,135.1903 148.750669,135.4503 148.200669,135.4503 C147.860669,135.4503 147.510669,135.3493 147.200669,135.1393 Z M52.8306694,137.4793 C52.2306694,136.7193 52.3706694,135.6203 53.1306694,135.0193 C53.8806694,134.4293 54.9906694,134.5593 55.5806694,135.3203 C56.1806694,136.0803 56.0506694,137.1793 55.2906694,137.7693 C54.9706694,138.0303 54.5906694,138.1503 54.2106694,138.1503 C53.6906694,138.1503 53.1806694,137.9203 52.8306694,137.4793 Z M140.630669,142.5703 C139.940669,141.8893 139.930669,140.7803 140.610669,140.0903 C141.290669,139.4003 142.400669,139.4003 143.090669,140.0803 C143.770669,140.7593 143.780669,141.8603 143.100669,142.5503 C142.760669,142.9003 142.310669,143.0703 141.860669,143.0703 C141.410669,143.0703 140.970669,142.9003 140.630669,142.5703 Z M59.8006694,144.9503 C59.0806694,144.3003 59.0306694,143.1903 59.6706694,142.4793 C60.3206694,141.7593 61.4306694,141.7103 62.1506694,142.3493 C62.8606694,143.0003 62.9206694,144.1103 62.2706694,144.8303 C61.9206694,145.2103 61.4506694,145.4003 60.9706694,145.4003 C60.5506694,145.4003 60.1306694,145.2503 59.8006694,144.9503 Z M132.900669,148.7903 C132.330669,148.0003 132.510669,146.9103 133.300669,146.3493 C134.080669,145.7803 135.180669,145.9603 135.740669,146.7503 C136.300669,147.5303 136.130669,148.6303 135.340669,149.1903 C135.030669,149.4103 134.670669,149.5193 134.320669,149.5193 C133.780669,149.5193 133.240669,149.2593 132.900669,148.7903 Z M67.9306694,151.1393 C67.1106694,150.6203 66.8706694,149.5403 67.3906694,148.7193 C67.9006694,147.9103 68.9906694,147.6703 69.8006694,148.1903 C70.6206694,148.7003 70.8606694,149.7803 70.3406694,150.5993 C70.0106694,151.1303 69.4406694,151.4103 68.8606694,151.4103 C68.5406694,151.4103 68.2206694,151.3203 67.9306694,151.1393 Z M124.230669,153.6203 C123.810669,152.7503 124.170669,151.7003 125.040669,151.2803 C125.910669,150.8603 126.950669,151.2193 127.380669,152.0903 C127.800669,152.9603 127.440669,154.0003 126.570669,154.4293 C126.330669,154.5503 126.070669,154.6103 125.810669,154.6103 C125.160669,154.6103 124.540669,154.2403 124.230669,153.6203 Z M76.9906694,155.8603 C76.0906694,155.4903 75.6706694,154.4693 76.0406694,153.5703 C76.4106694,152.6793 77.4406694,152.2593 78.3306694,152.6303 C79.2206694,153.0093 79.6506694,154.0303 79.2706694,154.9203 C78.9906694,155.5903 78.3406694,156.0003 77.6606694,156.0003 C77.4306694,156.0003 77.2106694,155.9603 76.9906694,155.8603 Z M114.880669,156.9203 C114.610669,155.9903 115.140669,155.0193 116.070669,154.7503 C117.000669,154.4793 117.970669,155.0093 118.240669,155.9403 C118.510669,156.8703 117.980669,157.8403 117.050669,158.1103 C116.890669,158.1603 116.720669,158.1793 116.560669,158.1793 C115.800669,158.1793 115.100669,157.6793 114.880669,156.9203 Z M86.7106694,158.9793 C85.7706694,158.7593 85.1806694,157.8203 85.4006694,156.8803 C85.6106694,155.9403 86.5506694,155.3493 87.4906694,155.5703 C88.4306694,155.7803 89.0206694,156.7193 88.8106694,157.6603 C88.6206694,158.4693 87.9006694,159.0193 87.1006694,159.0193 C86.9706694,159.0193 86.8406694,159.0093 86.7106694,158.9793 Z M105.100669,158.5803 C104.990669,157.6203 105.680669,156.7503 106.640669,156.6393 C107.600669,156.5303 108.470669,157.2193 108.580669,158.1793 C108.680669,159.1503 107.990669,160.0093 107.030669,160.1203 C106.970669,160.1303 106.900669,160.1303 106.830669,160.1303 C105.960669,160.1303 105.200669,159.4693 105.100669,158.5803 Z M96.8206694,160.4003 C95.8606694,160.3493 95.1206694,159.5193 95.1806694,158.5593 C95.2306694,157.5903 96.0606694,156.8603 97.0206694,156.9103 C97.9906694,156.9603 98.7206694,157.7903 98.6706694,158.7593 C98.6206694,159.6903 97.8406694,160.4103 96.9206694,160.4103 C96.8906694,160.4103 96.8606694,160.4103 96.8206694,160.4003 Z" id="Fill-12" fill="#FF3465"></path>
        <path d="M98.0607694,51.7696 C98.0507694,50.7996 98.8307694,50.0096 99.8007694,49.9996 C100.760769,49.9996 101.550769,50.7806 101.560769,51.7406 C101.560769,52.7096 100.790769,53.4996 99.8207694,53.4996 L99.8107694,53.4996 C98.8507694,53.4996 98.0607694,52.7296 98.0607694,51.7696 M109.550769,54.4506 C108.600769,54.2596 107.990769,53.3306 108.180769,52.3896 C108.370769,51.4406 109.300769,50.8206 110.240769,51.0196 C111.190769,51.2096 111.800769,52.1296 111.610769,53.0806 C111.440769,53.9106 110.710769,54.4796 109.900769,54.4796 C109.780769,54.4796 109.670769,54.4696 109.550769,54.4506 M88.0307694,53.2596 C87.8207694,52.3206 88.4207694,51.3796 89.3607694,51.1696 C90.3107694,50.9596 91.2407694,51.5596 91.4507694,52.5096 C91.6607694,53.4506 91.0607694,54.3796 90.1207694,54.5896 C89.9907694,54.6206 89.8607694,54.6296 89.7407694,54.6296 C88.9407694,54.6296 88.2107694,54.0806 88.0307694,53.2596 M118.870769,57.3796 C117.980769,56.9996 117.570769,55.9596 117.960769,55.0806 C118.340769,54.1906 119.380769,53.7906 120.260769,54.1696 C121.150769,54.5596 121.550769,55.5896 121.170769,56.4796 C120.880769,57.1296 120.240769,57.5306 119.570769,57.5306 C119.330769,57.5306 119.090769,57.4796 118.870769,57.3796 M78.5407694,56.8206 C78.1307694,55.9406 78.5207694,54.9006 79.4007694,54.4996 C80.2807694,54.0996 81.3207694,54.4906 81.7207694,55.3706 C82.1207694,56.2496 81.7307694,57.2906 80.8507694,57.6906 C80.6207694,57.7906 80.3707694,57.8496 80.1307694,57.8496 C79.4607694,57.8496 78.8307694,57.4596 78.5407694,56.8206 M127.360769,62.2006 C126.580769,61.6396 126.400769,60.5406 126.960769,59.7596 C127.520769,58.9696 128.620769,58.7906 129.400769,59.3496 C130.190769,59.9106 130.370769,61.0096 129.810769,61.7906 C129.460769,62.2696 128.930769,62.5306 128.380769,62.5306 C128.030769,62.5306 127.670769,62.4196 127.360769,62.2006 M69.9907694,62.2806 C69.4207694,61.4996 69.5807694,60.4006 70.3607694,59.8306 C71.1307694,59.2496 72.2307694,59.4196 72.8007694,60.2006 C73.3807694,60.9696 73.2107694,62.0706 72.4407694,62.6396 C72.1207694,62.8796 71.7607694,62.9906 71.4007694,62.9906 C70.8607694,62.9906 70.3307694,62.7406 69.9907694,62.2806 M134.670769,68.6796 C134.020769,67.9696 134.070769,66.8606 134.780769,66.2096 C135.500769,65.5596 136.600769,65.5996 137.260769,66.3206 C137.910769,67.0306 137.860769,68.1396 137.150769,68.7906 C136.810769,69.0996 136.390769,69.2496 135.960769,69.2496 C135.490769,69.2496 135.020769,69.0596 134.670769,68.6796 M62.7507694,69.3796 C62.0307694,68.7406 61.9607694,67.6296 62.6107694,66.9106 C63.2507694,66.1906 64.3507694,66.1206 65.0807694,66.7596 C65.8007694,67.4106 65.8607694,68.5096 65.2207694,69.2296 L65.2307694,69.2296 C64.8807694,69.6206 64.4007694,69.8206 63.9207694,69.8206 C63.5007694,69.8206 63.0907694,69.6796 62.7507694,69.3796 M140.490769,76.5306 C139.990769,75.7006 140.270769,74.6296 141.100769,74.1396 C141.940769,73.6506 143.010769,73.9196 143.500769,74.7596 C143.990769,75.5896 143.710769,76.6606 142.880769,77.1506 C142.600769,77.3206 142.300769,77.4006 142.000769,77.4006 C141.400769,77.4006 140.810769,77.0896 140.490769,76.5306 M57.1507694,77.8306 C56.3107694,77.3496 56.0107694,76.2906 56.4907694,75.4506 C56.9707694,74.5996 58.0407694,74.3096 58.8807694,74.7906 C59.7207694,75.2696 60.0107694,76.3396 59.5307694,77.1796 L59.5307694,77.1696 C59.2107694,77.7406 58.6207694,78.0596 58.0107694,78.0596 C57.7207694,78.0596 57.4207694,77.9906 57.1507694,77.8306 M144.540769,85.4196 C144.240769,84.4996 144.730769,83.5096 145.650769,83.2006 C146.560769,82.8896 147.550769,83.3896 147.860769,84.2996 C148.170769,85.2196 147.670769,86.2096 146.760769,86.5196 C146.570769,86.5806 146.380769,86.6106 146.200769,86.6106 C145.470769,86.6106 144.790769,86.1506 144.540769,85.4196 M53.4307694,87.2696 C52.5107694,86.9796 52.0007694,85.9996 52.2907694,85.0806 L52.2907694,85.0706 C52.5807694,84.1506 53.5707694,83.6396 54.4907694,83.9296 C55.4107694,84.2196 55.9207694,85.2096 55.6307694,86.1296 C55.3907694,86.8706 54.7007694,87.3496 53.9607694,87.3496 C53.7807694,87.3496 53.6107694,87.3306 53.4307694,87.2696 M146.650769,94.9506 C146.550769,93.9906 147.240769,93.1206 148.200769,93.0096 C149.160769,92.9106 150.020769,93.5996 150.130769,94.5596 C150.240769,95.5196 149.550769,96.3796 148.590769,96.4906 C148.520769,96.4996 148.460769,96.4996 148.390769,96.4996 C147.510769,96.4996 146.760769,95.8396 146.650769,94.9506 M51.7607694,97.2696 C50.8007694,97.1796 50.1007694,96.3206 50.1907694,95.3606 C50.2907694,94.4006 51.1407694,93.6906 52.1107694,93.7906 C53.0707694,93.8796 53.7707694,94.7406 53.6807694,95.7006 C53.5907694,96.6106 52.8307694,97.2806 51.9307694,97.2806 C51.8807694,97.2806 51.8207694,97.2806 51.7607694,97.2696 M148.280769,106.8096 C147.320769,106.7096 146.620769,105.8606 146.720769,104.8896 C146.720769,104.8706 146.720769,104.8496 146.730769,104.8306 L146.730769,104.7196 C146.820769,103.7596 147.680769,103.0496 148.640769,103.1396 C149.600769,103.2406 150.310769,104.0896 150.220769,105.0496 C150.210769,105.0896 150.210769,105.1206 150.210769,105.1506 C150.200769,105.1796 150.200769,105.2096 150.200769,105.2406 C150.110769,106.1396 149.350769,106.8206 148.460769,106.8206 C148.400769,106.8206 148.340769,106.8096 148.280769,106.8096 M50.2607694,105.8606 C50.1507694,104.9006 50.8407694,104.0306 51.8007694,103.9296 C52.7607694,103.8206 53.6307694,104.5096 53.7407694,105.4696 C53.8407694,106.4296 53.1507694,107.2996 52.1907694,107.4006 C52.1207694,107.4106 52.0607694,107.4106 52.0007694,107.4106 C51.1207694,107.4106 50.3607694,106.7496 50.2607694,105.8606 M145.880769,116.6606 C144.960769,116.3706 144.450769,115.3796 144.750769,114.4596 C145.040769,113.5406 146.020769,113.0306 146.940769,113.3206 C147.870769,113.6206 148.370769,114.5996 148.080769,115.5196 C147.850769,116.2696 147.160769,116.7406 146.410769,116.7406 C146.240769,116.7406 146.060769,116.7096 145.880769,116.6606 M52.5107694,116.1206 C52.2007694,115.2006 52.7007694,114.2096 53.6207694,113.9006 C54.5307694,113.5996 55.5207694,114.0896 55.8307694,115.0096 C56.1407694,115.9196 55.6407694,116.9196 54.7207694,117.2196 C54.5407694,117.2806 54.3507694,117.3096 54.1707694,117.3096 C53.4407694,117.3096 52.7507694,116.8496 52.5107694,116.1206 M141.480769,125.7906 C140.640769,125.3206 140.350769,124.2496 140.820769,123.4106 C141.300769,122.5706 142.370769,122.2696 143.210769,122.7596 C144.050769,123.2296 144.340769,124.2996 143.860769,125.1396 C143.540769,125.7096 142.950769,126.0196 142.340769,126.0196 C142.050769,126.0196 141.750769,125.9506 141.480769,125.7906 M56.8507694,125.6696 C56.3607694,124.8396 56.6407694,123.7596 57.4707694,123.2806 C58.3107694,122.7806 59.3807694,123.0596 59.8707694,123.9006 C60.3607694,124.7296 60.0807694,125.7996 59.2507694,126.2906 C58.9707694,126.4596 58.6607694,126.5306 58.3607694,126.5306 C57.7607694,126.5306 57.1807694,126.2196 56.8507694,125.6696 M135.260769,133.8096 C134.540769,133.1606 134.480769,132.0596 135.120769,131.3396 C135.760769,130.6206 136.870769,130.5496 137.590769,131.2006 C138.310769,131.8396 138.370769,132.9506 137.730769,133.6696 C137.390769,134.0496 136.910769,134.2496 136.430769,134.2496 C136.010769,134.2496 135.600769,134.0996 135.260769,133.8096 M63.0807694,134.1206 C62.4307694,133.4106 62.4807694,132.2996 63.1907694,131.6506 C63.9107694,130.9996 65.0207694,131.0496 65.6707694,131.7596 C66.3207694,132.4796 66.2707694,133.5806 65.5507694,134.2296 C65.2207694,134.5406 64.8007694,134.6906 64.3707694,134.6906 C63.9007694,134.6906 63.4307694,134.4996 63.0807694,134.1206 M127.520769,140.3606 C126.950769,139.5806 127.110769,138.4796 127.890769,137.9106 C128.670769,137.3396 129.770769,137.5096 130.340769,138.2906 C130.910769,139.0596 130.750769,140.1606 129.970769,140.7296 C129.660769,140.9596 129.290769,141.0706 128.930769,141.0706 C128.390769,141.0706 127.860769,140.8306 127.520769,140.3606 M70.9207694,141.0996 C70.1407694,140.5306 69.9607694,139.4406 70.5307694,138.6606 C71.0907694,137.8706 72.1807694,137.6906 72.9607694,138.2596 C73.7507694,138.8206 73.9307694,139.9106 73.3707694,140.7006 C73.0207694,141.1796 72.4907694,141.4296 71.9407694,141.4296 C71.5907694,141.4296 71.2307694,141.3206 70.9207694,141.0996 M118.590769,145.1696 C118.200769,144.2906 118.590769,143.2496 119.470769,142.8496 C120.350769,142.4506 121.380769,142.8396 121.780769,143.7196 C122.180769,144.5996 121.790769,145.6396 120.910769,146.0406 C120.680769,146.1506 120.430769,146.2006 120.190769,146.2006 C119.530769,146.2006 118.890769,145.8096 118.590769,145.1696 M80.0507694,146.2996 C79.1607694,145.9106 78.7607694,144.8796 79.1507694,143.9906 C79.5407694,143.1106 80.5707694,142.7006 81.4507694,143.0896 C82.3407694,143.4796 82.7407694,144.5096 82.3607694,145.4006 C82.0707694,146.0496 81.4207694,146.4406 80.7507694,146.4406 C80.5207694,146.4406 80.2807694,146.4006 80.0507694,146.2996 M108.860769,148.0096 C108.660769,147.0706 109.250769,146.1396 110.200769,145.9296 C111.140769,145.7196 112.080769,146.3206 112.280769,147.2696 C112.490769,148.2096 111.890769,149.1396 110.950769,149.3496 L110.940769,149.3496 C110.820769,149.3796 110.690769,149.3896 110.570769,149.3896 C109.770769,149.3896 109.040769,148.8306 108.860769,148.0096 M90.0607694,149.4696 C89.1207694,149.2806 88.5107694,148.3496 88.7007694,147.4006 C88.9007694,146.4596 89.8207694,145.8496 90.7707694,146.0406 C91.7107694,146.2406 92.3207694,147.1606 92.1307694,148.1106 C91.9607694,148.9406 91.2307694,149.5096 90.4207694,149.5096 C90.3007694,149.5096 90.1807694,149.4906 90.0607694,149.4696 M98.7507694,148.7596 C98.7507694,147.7906 99.5307694,147.0096 100.490769,146.9996 C101.460769,146.9996 102.250769,147.7806 102.250769,148.7406 C102.250769,149.7096 101.480769,150.4996 100.510769,150.4996 L100.500769,150.4996 C99.5407694,150.4996 98.7607694,149.7196 98.7507694,148.7596" id="Fill-16" fill="#FF3465"></path>
        <path d="M103.740969,63.6797 C102.780969,63.5797 102.080969,62.7197 102.170969,61.7597 C102.270969,60.7997 103.120969,60.0997 104.090969,60.1907 L104.090969,60.2007 C105.050969,60.2897 105.750969,61.1397 105.650969,62.1107 C105.570969,63.0097 104.810969,63.6907 103.920969,63.6907 C103.860969,63.6907 103.800969,63.6797 103.740969,63.6797 Z M92.1509694,62.5597 C91.9909694,61.5997 92.6309694,60.7007 93.5909694,60.5397 C94.5409694,60.3897 95.4409694,61.0307 95.6009694,61.9797 C95.7609694,62.9297 95.1109694,63.8397 94.1609694,63.9997 C94.0609694,64.0097 93.9709694,64.0197 93.8709694,64.0197 C93.0309694,64.0197 92.2909694,63.4097 92.1509694,62.5597 Z M113.090969,65.8297 C112.180969,65.4907 111.720969,64.4797 112.060969,63.5797 C112.400969,62.6697 113.410969,62.2097 114.310969,62.5497 C115.220969,62.8897 115.680969,63.9007 115.340969,64.7997 C115.080969,65.5097 114.410969,65.9407 113.700969,65.9407 C113.500969,65.9407 113.290969,65.9097 113.090969,65.8297 Z M82.6709694,65.9297 C82.2709694,65.0497 82.6609694,64.0097 83.5409694,63.6107 C84.4209694,63.2097 85.4609694,63.5997 85.8609694,64.4697 C86.2609694,65.3607 85.8709694,66.3897 84.9909694,66.7897 C84.7609694,66.9007 84.5109694,66.9507 84.2709694,66.9507 C83.6009694,66.9507 82.9709694,66.5707 82.6709694,65.9297 Z M121.550969,70.3397 C120.760969,69.7697 120.580969,68.6797 121.150969,67.8897 C121.710969,67.1107 122.800969,66.9297 123.590969,67.4907 C124.370969,68.0497 124.550969,69.1507 123.990969,69.9297 C123.650969,70.4097 123.110969,70.6597 122.570969,70.6597 C122.210969,70.6597 121.860969,70.5597 121.550969,70.3397 Z M74.4009694,71.6297 C73.7809694,70.8897 73.8909694,69.7807 74.6309694,69.1697 C75.3809694,68.5597 76.4809694,68.6597 77.1009694,69.4097 C77.7109694,70.1507 77.6009694,71.2597 76.8609694,71.8697 C76.5309694,72.1397 76.1409694,72.2697 75.7509694,72.2697 C75.2409694,72.2697 74.7409694,72.0497 74.4009694,71.6297 Z M128.560969,76.8897 L128.560969,76.8797 C127.950969,76.1397 128.050969,75.0307 128.800969,74.4197 C129.540969,73.8097 130.650969,73.9097 131.260969,74.6597 C131.870969,75.4007 131.770969,76.5097 131.020969,77.1197 C130.700969,77.3897 130.300969,77.5197 129.910969,77.5197 C129.410969,77.5197 128.900969,77.2997 128.560969,76.8897 Z M67.8609694,79.2807 C67.0809694,78.7097 66.9009694,77.6197 67.4609694,76.8397 C68.0209694,76.0497 69.1109694,75.8697 69.9009694,76.4297 C70.6909694,76.9997 70.8709694,78.0897 70.3009694,78.8797 C69.9609694,79.3497 69.4309694,79.6107 68.8809694,79.6107 C68.5309694,79.6107 68.1709694,79.4997 67.8609694,79.2807 Z M133.650969,85.0097 L133.650969,85.0197 C133.240969,84.1397 133.630969,83.0997 134.510969,82.7007 C135.390969,82.2897 136.430969,82.6797 136.830969,83.5597 C137.230969,84.4407 136.840969,85.4797 135.960969,85.8797 C135.730969,85.9907 135.480969,86.0397 135.240969,86.0397 C134.570969,86.0397 133.940969,85.6597 133.650969,85.0097 Z M63.5409694,88.3607 C62.6309694,88.0197 62.1709694,87.0097 62.5109694,86.0997 C62.8509694,85.2007 63.8609694,84.7407 64.7709694,85.0797 C65.6709694,85.4197 66.1309694,86.4297 65.7909694,87.3297 C65.5309694,88.0397 64.8609694,88.4697 64.1509694,88.4697 C63.9509694,88.4697 63.7409694,88.4297 63.5409694,88.3607 Z M136.450969,94.1797 C136.290969,93.2297 136.940969,92.3297 137.890969,92.1697 C138.840969,92.0097 139.750969,92.6507 139.900969,93.5997 C140.060969,94.5597 139.420969,95.4597 138.460969,95.6197 C138.370969,95.6297 138.270969,95.6397 138.170969,95.6397 C137.330969,95.6397 136.590969,95.0397 136.450969,94.1797 Z M61.7109694,98.2497 C60.7509694,98.1507 60.0509694,97.2897 60.1509694,96.3297 C60.2409694,95.3697 61.1009694,94.6697 62.0609694,94.7597 C63.0209694,94.8607 63.7209694,95.7097 63.6309694,96.6797 C63.5409694,97.5797 62.7809694,98.2497 61.8909694,98.2497 L61.7109694,98.2497 Z M138.330969,105.8207 C137.370969,105.7197 136.670969,104.8607 136.770969,103.9007 C136.770969,103.8697 136.770969,103.8397 136.780969,103.8207 L136.780969,103.7597 L136.780969,103.7697 C136.870969,102.7997 137.730969,102.0997 138.690969,102.1907 C139.650969,102.2807 140.360969,103.1397 140.260969,104.0997 C140.260969,104.1297 140.260969,104.1507 140.250969,104.1797 L140.250969,104.2497 C140.160969,105.1507 139.400969,105.8297 138.510969,105.8297 C138.450969,105.8297 138.390969,105.8207 138.330969,105.8207 Z M60.4809694,106.8297 C60.3309694,105.8797 60.9709694,104.9697 61.9309694,104.8207 C62.8809694,104.6597 63.7809694,105.3097 63.9409694,106.2597 C64.1009694,107.2097 63.4509694,108.1107 62.5009694,108.2697 C62.4009694,108.2897 62.3009694,108.2897 62.2109694,108.2897 C61.3709694,108.2897 60.6309694,107.6907 60.4809694,106.8297 Z M135.610969,115.4907 C134.700969,115.1507 134.250969,114.1397 134.590969,113.2407 C134.930969,112.3297 135.940969,111.8797 136.840969,112.2197 C137.750969,112.5597 138.200969,113.5707 137.860969,114.4697 C137.600969,115.1697 136.930969,115.6107 136.220969,115.6107 C136.020969,115.6107 135.810969,115.5707 135.610969,115.4907 Z M63.5409694,116.8797 C63.1409694,115.9997 63.5309694,114.9597 64.4109694,114.5597 C65.2909694,114.1597 66.3309694,114.5497 66.7309694,115.4297 C67.1309694,116.3097 66.7409694,117.3497 65.8609694,117.7497 C65.6209694,117.8497 65.3809694,117.9007 65.1309694,117.9007 C64.4709694,117.9007 63.8309694,117.5197 63.5409694,116.8797 Z M130.460969,124.1297 C129.670969,123.5707 129.490969,122.4697 130.060969,121.6907 C130.620969,120.9007 131.710969,120.7197 132.500969,121.2897 C133.280969,121.8497 133.460969,122.9507 132.900969,123.7297 C132.560969,124.2097 132.020969,124.4597 131.480969,124.4597 C131.120969,124.4597 130.770969,124.3497 130.460969,124.1297 Z M69.0909694,125.7897 C68.4809694,125.0397 68.5909694,123.9407 69.3309694,123.3297 C70.0809694,122.7097 71.1809694,122.8207 71.8009694,123.5707 C72.4109694,124.3097 72.3009694,125.4197 71.5609694,126.0307 C71.2309694,126.2997 70.8409694,126.4297 70.4509694,126.4297 C69.9409694,126.4297 69.4409694,126.2097 69.0909694,125.7897 Z M123.250969,131.1397 C122.630969,130.3897 122.740969,129.2897 123.490969,128.6797 C124.240969,128.0707 125.340969,128.1697 125.950969,128.9197 C126.570969,129.6697 126.460969,130.7697 125.710969,131.3897 C125.380969,131.6507 124.990969,131.7807 124.600969,131.7807 C124.090969,131.7807 123.590969,131.5597 123.250969,131.1397 Z M76.7509694,132.9697 C75.9709694,132.4097 75.7909694,131.3207 76.3509694,130.5307 C76.9209694,129.7497 78.0109694,129.5707 78.7909694,130.1297 C79.5809694,130.6907 79.7609694,131.7807 79.2009694,132.5707 C78.8509694,133.0497 78.3209694,133.2997 77.7709694,133.2997 C77.4209694,133.2997 77.0609694,133.1907 76.7509694,132.9697 Z M114.470969,136.0597 C114.070969,135.1797 114.460969,134.1397 115.350969,133.7407 C116.220969,133.3397 117.260969,133.7297 117.660969,134.6107 C118.060969,135.4907 117.670969,136.5307 116.790969,136.9297 C116.560969,137.0397 116.310969,137.0897 116.070969,137.0897 C115.400969,137.0897 114.770969,136.7007 114.470969,136.0597 Z M86.0109694,137.9297 C85.1109694,137.5897 84.6509694,136.5797 84.9909694,135.6697 C85.3309694,134.7697 86.3409694,134.3097 87.2509694,134.6507 C88.1509694,134.9907 88.6109694,135.9997 88.2709694,136.9097 C88.0009694,137.6107 87.3409694,138.0397 86.6309694,138.0397 C86.4209694,138.0397 86.2209694,138.0097 86.0109694,137.9297 Z M104.730969,138.5307 C104.570969,137.5797 105.220969,136.6797 106.170969,136.5197 C107.130969,136.3607 108.020969,137.0097 108.180969,137.9697 C108.340969,138.9197 107.690969,139.8207 106.740969,139.9697 C106.640969,139.9907 106.550969,139.9997 106.450969,139.9997 C105.610969,139.9997 104.870969,139.3897 104.730969,138.5307 Z M96.2509694,140.3097 C95.2809694,140.2097 94.5809694,139.3607 94.6709694,138.3897 C94.7709694,137.4297 95.6209694,136.7297 96.5809694,136.8207 C97.5409694,136.9197 98.2509694,137.7697 98.1609694,138.7297 C98.0709694,139.6397 97.3109694,140.3097 96.4209694,140.3097 L96.2509694,140.3097 Z" id="Fill-20" fill="#FF3465"></path>
        <path d="M96.2409694,71.9698 C96.1709694,71.0098 96.8909694,70.1598 97.8509694,70.0898 C98.8209694,70.0198 99.6609694,70.7408 99.7309694,71.6998 C99.8009694,72.6698 99.0809694,73.5098 98.1209694,73.5798 C98.0709694,73.5798 98.0309694,73.5898 97.9809694,73.5898 C97.0809694,73.5898 96.3109694,72.8898 96.2409694,71.9698 M107.370969,74.4798 C106.430969,74.2198 105.890969,73.2598 106.150969,72.3208 C106.400969,71.3898 107.370969,70.8498 108.300969,71.1108 C109.230969,71.3608 109.780969,72.3298 109.520969,73.2598 C109.310969,74.0308 108.600969,74.5398 107.830969,74.5398 C107.680969,74.5398 107.520969,74.5198 107.370969,74.4798 M86.8109694,75.0308 C86.4109694,74.1508 86.8009694,73.1108 87.6809694,72.7098 C88.5609694,72.3098 89.6009694,72.6998 90.0009694,73.5798 C90.4009694,74.4598 90.0109694,75.4998 89.1309694,75.9008 C88.9009694,75.9998 88.6509694,76.0598 88.4109694,76.0598 C87.7409694,76.0598 87.1109694,75.6698 86.8109694,75.0308 M115.740969,78.4798 C114.960969,77.9098 114.780969,76.8208 115.340969,76.0398 C115.900969,75.2498 116.990969,75.0708 117.780969,75.6298 C118.560969,76.1908 118.750969,77.2898 118.180969,78.0708 C117.840969,78.5498 117.300969,78.8098 116.760969,78.8098 C116.410969,78.8098 116.050969,78.6998 115.740969,78.4798 M79.0009694,81.1298 C78.3209694,80.4298 78.3409694,79.3298 79.0309694,78.6508 C79.7209694,77.9798 80.8209694,77.9908 81.5009694,78.6798 C82.1809694,79.3698 82.1709694,80.4698 81.4709694,81.1508 C81.1309694,81.4908 80.6909694,81.6508 80.2509694,81.6508 C79.8009694,81.6508 79.3409694,81.4798 79.0009694,81.1298 M122.250969,85.1108 C121.700969,84.3098 121.900969,83.2198 122.700969,82.6698 C123.500969,82.1298 124.580969,82.3298 125.130969,83.1198 C125.680969,83.9198 125.480969,85.0098 124.680969,85.5598 C124.380969,85.7698 124.030969,85.8698 123.690969,85.8698 C123.130969,85.8698 122.590969,85.5998 122.250969,85.1108 M73.7309694,89.5198 C72.8609694,89.1108 72.4909694,88.0598 72.9109694,87.1908 C73.3309694,86.3208 74.3709694,85.9498 75.2509694,86.3698 C76.1209694,86.7808 76.4909694,87.8298 76.0709694,88.6998 C75.7709694,89.3298 75.1409694,89.6908 74.4909694,89.6908 C74.2409694,89.6908 73.9809694,89.6398 73.7309694,89.5198 M126.100969,93.5498 C125.860969,92.6108 126.420969,91.6598 127.360969,91.4198 C128.300969,91.1798 129.250969,91.7408 129.490969,92.6798 C129.730969,93.6108 129.170969,94.5708 128.240969,94.8098 C128.090969,94.8498 127.940969,94.8608 127.800969,94.8608 C127.020969,94.8608 126.310969,94.3398 126.100969,93.5498 M71.6609694,99.2198 C70.7009694,99.1198 70.0009694,98.2598 70.1009694,97.2998 L70.1009694,97.3098 C70.1909694,96.3398 71.0509694,95.6398 72.0109694,95.7408 C72.9709694,95.8298 73.6709694,96.6908 73.5809694,97.6508 C73.4909694,98.5498 72.7309694,99.2298 71.8409694,99.2298 C71.7809694,99.2298 71.7209694,99.2198 71.6609694,99.2198 M128.380969,104.8208 C127.420969,104.7298 126.720969,103.8698 126.820969,102.9098 L126.820969,102.8798 C126.820969,102.8608 126.820969,102.8398 126.830969,102.8098 C126.920969,101.8498 127.770969,101.1398 128.730969,101.2408 C129.700969,101.3298 130.400969,102.1798 130.310969,103.1398 C130.310969,103.1598 130.310969,103.1798 130.300969,103.1908 L130.300969,103.2598 C130.210969,104.1598 129.450969,104.8298 128.560969,104.8298 C128.500969,104.8298 128.440969,104.8298 128.380969,104.8208 M70.8909694,107.7808 C70.6509694,106.8398 71.2209694,105.8898 72.1509694,105.6508 C73.0909694,105.4098 74.0409694,105.9698 74.2909694,106.9098 C74.5209694,107.8398 73.9609694,108.7998 73.0309694,109.0398 C72.8809694,109.0708 72.7309694,109.0898 72.5909694,109.0898 C71.8109694,109.0898 71.1009694,108.5708 70.8909694,107.7808 M125.130969,114.1908 C124.260969,113.7698 123.890969,112.7198 124.310969,111.8498 C124.730969,110.9798 125.780969,110.6108 126.650969,111.0308 C127.520969,111.4498 127.880969,112.4998 127.470969,113.3698 C127.170969,113.9908 126.540969,114.3608 125.890969,114.3608 C125.630969,114.3608 125.370969,114.2998 125.130969,114.1908 M75.2409694,117.3398 C74.6909694,116.5398 74.8909694,115.4498 75.6909694,114.9008 C76.4909694,114.3608 77.5809694,114.5598 78.1209694,115.3608 C78.6709694,116.1598 78.4709694,117.2498 77.6709694,117.7898 C77.3709694,117.9998 77.0209694,118.0998 76.6809694,118.0998 C76.1209694,118.0998 75.5809694,117.8298 75.2409694,117.3398 M118.860969,121.8608 C118.180969,121.1698 118.200969,120.0598 118.890969,119.3898 C119.580969,118.7198 120.690969,118.7298 121.360969,119.4198 C122.040969,120.1108 122.030969,121.2198 121.330969,121.8898 L121.340969,121.8898 C120.990969,122.2298 120.550969,122.3898 120.110969,122.3898 C119.660969,122.3898 119.200969,122.2198 118.860969,121.8608 M82.5809694,124.8398 C81.7909694,124.2808 81.6109694,123.1908 82.1809694,122.4008 C82.7409694,121.6108 83.8309694,121.4408 84.6209694,121.9998 C85.4009694,122.5598 85.5809694,123.6598 85.0209694,124.4408 C84.6809694,124.9198 84.1409694,125.1698 83.6009694,125.1698 C83.2409694,125.1698 82.8809694,125.0598 82.5809694,124.8398 M110.350969,126.9498 C109.950969,126.0708 110.340969,125.0308 111.220969,124.6298 C112.100969,124.2298 113.140969,124.6198 113.540969,125.4998 C113.940969,126.3798 113.550969,127.4198 112.670969,127.8208 C112.430969,127.9198 112.190969,127.9698 111.950969,127.9698 C111.280969,127.9698 110.640969,127.5898 110.350969,126.9498 M92.0509694,129.3898 C91.1209694,129.1298 90.5709694,128.1598 90.8309694,127.2298 C91.0909694,126.2998 92.0609694,125.7598 92.9909694,126.0198 L92.9909694,126.0098 C93.9209694,126.2698 94.4609694,127.2408 94.2009694,128.1698 C93.9909694,128.9408 93.2809694,129.4498 92.5109694,129.4498 C92.3609694,129.4498 92.2009694,129.4298 92.0509694,129.3898 M100.620969,128.7998 C100.540969,127.8398 101.270969,126.9998 102.230969,126.9298 C103.190969,126.8608 104.030969,127.5798 104.110969,128.5398 C104.180969,129.5098 103.460969,130.3398 102.490969,130.4198 L102.360969,130.4198 C101.450969,130.4198 100.680969,129.7198 100.620969,128.7998" id="Fill-24" fill="#FF3465"></path>
        <path d="M101.810769,83.5801 C100.840769,83.4901 100.140769,82.6301 100.240769,81.6601 C100.340769,80.7001 101.200769,80.0001 102.160769,80.1001 C103.120769,80.2001 103.820769,81.0591 103.730769,82.0191 C103.630769,82.9201 102.870769,83.5901 101.990769,83.5901 C101.930769,83.5901 101.870769,83.5901 101.810769,83.5801 M90.9507694,84.1401 C90.5507694,83.2601 90.9407694,82.2201 91.8207694,81.8201 C92.7007694,81.4201 93.7407694,81.8001 94.1407694,82.6801 C94.5407694,83.5591 94.1507694,84.6001 93.2707694,85.0001 C93.0407694,85.1101 92.7907694,85.1601 92.5507694,85.1601 C91.8807694,85.1601 91.2507694,84.7801 90.9507694,84.1401 M109.930769,86.6201 C109.140769,86.0591 108.960769,84.9601 109.530769,84.1801 C110.090769,83.3901 111.180769,83.2101 111.970769,83.7691 C112.750769,84.3301 112.930769,85.4301 112.370769,86.2101 C112.030769,86.6901 111.490769,86.9401 110.950769,86.9401 C110.590769,86.9401 110.240769,86.8401 109.930769,86.6201 M84.1307694,90.9101 C83.3507694,90.3501 83.1607694,89.2601 83.7307694,88.4701 C84.2907694,87.6801 85.3807694,87.5001 86.1707694,88.0701 C86.9607694,88.6301 87.1407694,89.7201 86.5707694,90.5101 C86.2307694,90.9901 85.7007694,91.2401 85.1507694,91.2401 C84.8007694,91.2401 84.4407694,91.1301 84.1307694,90.9101 M115.450769,93.3091 C115.040769,92.4301 115.430769,91.3901 116.310769,90.9901 C117.190769,90.5901 118.230769,90.9791 118.630769,91.8601 L118.630769,91.8501 C119.030769,92.7291 118.640769,93.7691 117.760769,94.1701 C117.530769,94.2801 117.280769,94.3301 117.040769,94.3301 C116.370769,94.3301 115.740769,93.9501 115.450769,93.3091 M81.6207694,100.1901 C80.6507694,100.1001 79.9507694,99.2401 80.0507694,98.2801 C80.1407694,97.3091 81.0007694,96.6101 81.9607694,96.7101 C82.9307694,96.8091 83.6307694,97.6601 83.5307694,98.6301 C83.4407694,99.5301 82.6807694,100.2001 81.7907694,100.2001 C81.7307694,100.2001 81.6707694,100.2001 81.6207694,100.1901 M118.430769,103.8301 C117.470769,103.7401 116.780769,102.8801 116.870769,101.9301 L116.870769,101.8601 C116.960769,100.9001 117.820769,100.1901 118.780769,100.2801 C119.740769,100.3701 120.450769,101.2201 120.360769,102.1901 C120.360769,102.1901 120.360769,102.2001 120.350769,102.2001 L120.350769,102.2601 C120.260769,103.1701 119.500769,103.8401 118.610769,103.8401 C118.550769,103.8401 118.490769,103.8401 118.430769,103.8301 M81.7607694,108.6201 C81.3607694,107.7401 81.7507694,106.7001 82.6307694,106.3001 C83.5107694,105.9001 84.5407694,106.2901 84.9407694,107.1701 C85.3407694,108.0501 84.9507694,109.0901 84.0707694,109.4901 C83.8407694,109.5901 83.5907694,109.6401 83.3507694,109.6401 C82.6807694,109.6401 82.0507694,109.2601 81.7607694,108.6201 M114.210769,112.4701 C113.420769,111.9001 113.240769,110.8091 113.810769,110.0191 C114.370769,109.2401 115.470769,109.0591 116.250769,109.6201 C117.040769,110.1901 117.210769,111.2801 116.650769,112.0701 C116.310769,112.5401 115.770769,112.7901 115.230769,112.7901 C114.870769,112.7901 114.520769,112.6901 114.210769,112.4701 M88.4007694,116.7101 C87.6207694,116.1501 87.4407694,115.0591 88.0007694,114.2691 C88.5607694,113.4901 89.6607694,113.3091 90.4407694,113.8701 C91.2307694,114.4301 91.4107694,115.5301 90.8507694,116.3091 C90.5007694,116.7901 89.9707694,117.0401 89.4207694,117.0401 C89.0707694,117.0401 88.7107694,116.9301 88.4007694,116.7101 M106.230769,117.8301 C105.830769,116.9501 106.220769,115.9201 107.100769,115.5191 C107.980769,115.1201 109.020769,115.5101 109.420769,116.3901 C109.820769,117.2691 109.430769,118.3091 108.550769,118.7101 C108.310769,118.8091 108.070769,118.8601 107.830769,118.8601 C107.160769,118.8601 106.520769,118.4791 106.230769,117.8301 M98.2107694,120.4001 C97.2507694,120.3091 96.5507694,119.4601 96.6407694,118.5001 C96.7307694,117.5301 97.5807694,116.8301 98.5507694,116.9201 C99.5107694,117.0101 100.210769,117.8601 100.120769,118.8301 C100.040769,119.7291 99.2707694,120.4101 98.3807694,120.4101 C98.3307694,120.4101 98.2707694,120.4101 98.2107694,120.4001" id="Fill-28" fill="#FF3465"></path>
        <path d="M102.890869,94.0596 C102.000869,93.6696 101.590869,92.6396 101.980869,91.7596 C102.360869,90.8706 103.390869,90.4596 104.280869,90.8496 C105.170869,91.2296 105.570869,92.2596 105.190869,93.1506 C104.900869,93.8096 104.260869,94.2006 103.580869,94.2006 C103.350869,94.2006 103.110869,94.1606 102.890869,94.0596 M92.6708694,95.9296 C91.9508694,95.2896 91.8808694,94.1796 92.5208694,93.4596 C93.1708694,92.7406 94.2708694,92.6696 94.9908694,93.3096 C95.7208694,93.9506 95.7908694,95.0596 95.1408694,95.7806 C94.8008694,96.1696 94.3208694,96.3706 93.8308694,96.3706 C93.4208694,96.3706 93.0108694,96.2196 92.6708694,95.9296 M108.480869,102.8396 C107.530869,102.7406 106.820869,101.8896 106.920869,100.9296 L106.920869,100.8896 C107.010869,99.9296 107.860869,99.2196 108.820869,99.3096 C109.770869,99.3896 110.480869,100.2296 110.410869,101.1796 C110.410869,101.2096 110.400869,101.2406 110.400869,101.2696 C110.310869,102.1796 109.550869,102.8496 108.660869,102.8496 C108.600869,102.8496 108.540869,102.8496 108.480869,102.8396 M91.3608694,105.4406 C90.8708694,104.6106 91.1508694,103.5396 91.9908694,103.0496 C92.8208694,102.5596 93.8908694,102.8396 94.3808694,103.6696 C94.8708694,104.4996 94.5908694,105.5806 93.7608694,106.0596 C93.4808694,106.2296 93.1708694,106.3096 92.8708694,106.3096 C92.2708694,106.3096 91.6908694,105.9996 91.3608694,105.4406 M100.310869,108.9296 C100.100869,107.9906 100.700869,107.0496 101.650869,106.8496 C102.590869,106.6396 103.520869,107.2406 103.730869,108.1796 C103.940869,109.1296 103.340869,110.0596 102.390869,110.2696 C102.270869,110.2896 102.140869,110.3096 102.020869,110.3096 C101.210869,110.3096 100.490869,109.7496 100.310869,108.9296" id="Fill-32" fill="#FF3465"></path>
    </g>
</svg>