
<svg width="562px" height="562px" viewBox="0 0 562 562" version="1.1" xmlns="http://www.w3.org/2000/svg" xmlns:xlink="http://www.w3.org/1999/xlink">
    <!-- Generator: Sketch 50.2 (55047) - http://www.bohemiancoding.com/sketch -->
    <desc>Created with Sketch.</desc>
    <defs></defs>
    <g id="Page-1" stroke="none" stroke-width="1" fill="none" fill-rule="evenodd" stroke-linecap="round">
        <g id="Artboard-Copy" transform="translate(-2265.000000, -1654.000000)" stroke="#B8FF01" stroke-width="7">
            <g id="Group-Copy" transform="translate(2269.000000, 1658.000000)">
                <path d="M433.234823,292.600223 C424.630823,378.874223 347.716823,441.838223 261.442823,433.234223 C175.168823,424.630223 112.204823,347.716223 120.808823,261.442223 C129.412823,175.168223 206.326823,112.204223 292.600823,120.808223 C378.874823,129.412223 441.838823,206.326223 433.234823,292.600223 Z" id="Stroke-1" stroke-dasharray="0,20.13199996948242"></path>
                <path d="M453.147823,294.586223 C443.445823,391.858223 356.727823,462.848223 259.455823,453.148223 C162.183823,443.446223 91.193823,356.728223 100.895823,259.456223 C110.595823,162.184223 197.315823,91.194223 294.585823,100.894223 C391.857823,110.596223 462.849823,197.314223 453.147823,294.586223 Z" id="Stroke-3" stroke-dasharray="0,19.86000061035156"></path>
                <path d="M473.049023,296.571023 C462.251023,404.835023 365.735023,483.845023 257.471023,473.049023 C149.209023,462.251023 70.197023,365.733023 80.993023,257.471023 C91.791023,149.207023 188.309023,70.197023 296.571023,80.993023 C404.835023,91.791023 483.847023,188.307023 473.049023,296.571023 Z" id="Stroke-5" stroke-dasharray="0,19.96599960327148"></path>
                <path d="M492.950223,298.555823 C481.056223,417.809823 374.740223,504.843823 255.486223,492.949823 C136.232223,481.055823 49.200223,374.739823 61.092223,255.485823 C72.986223,136.231823 179.302223,49.199823 298.556223,61.091823 C417.810223,72.985823 504.844223,179.301823 492.950223,298.555823 Z" id="Stroke-7" stroke-dasharray="0,20.05200004577637"></path>
                <path d="M512.851423,300.540623 C499.861423,430.786623 383.747423,525.840623 253.501423,512.850623 C123.257423,499.860623 28.201423,383.746623 41.191423,253.500623 C54.181423,123.256623 170.295423,28.200623 300.541423,41.190623 C430.785423,54.180623 525.841423,170.294623 512.851423,300.540623 Z" id="Stroke-9" stroke-dasharray="0,20.12400054931641"></path>
                <path d="M532.752823,302.525423 C518.666823,443.761423 392.752823,546.837423 251.516823,532.751423 C110.280823,518.667423 7.204823,392.753423 21.290823,251.517423 C35.374823,110.279423 161.288823,7.203423 302.524823,21.289423 C443.762823,35.375423 546.838823,161.289423 532.752823,302.525423 Z" id="Stroke-11" stroke-dasharray="0,19.93600082397461"></path>
                <path d="M552.654023,304.510023 C537.472023,456.738023 401.760023,567.836023 249.532023,552.654023 C97.304023,537.472023 -13.793977,401.760023 1.388023,249.532023 C16.570023,97.304023 152.282023,-13.793977 304.510023,1.388023 C456.738023,16.570023 567.836023,152.282023 552.654023,304.510023 Z" id="Stroke-13" stroke-dasharray="0,20.00600051879883"></path>
                <path d="M413.335023,290.615623 C405.827023,365.899623 338.711023,420.843623 263.427023,413.333623 C188.143023,405.825623 133.199023,338.709623 140.707023,263.425623 C148.217023,188.141623 215.333023,133.199623 290.617023,140.707623 C365.901023,148.215623 420.843023,215.331623 413.335023,290.615623 Z" id="Stroke-15" stroke-dasharray="0,20.01799964904785"></path>
                <path d="M393.435223,288.631023 C387.023223,352.925023 329.705223,399.847023 265.411223,393.435023 C201.117223,387.023023 154.195223,329.705023 160.607223,265.411023 C167.019223,201.117023 224.337223,154.195023 288.631223,160.607023 C352.925223,167.019023 399.847223,224.337023 393.435223,288.631023 Z" id="Stroke-17" stroke-dasharray="0,19.86199951171875"></path>
                <path d="M373.535423,286.646423 C368.219423,339.950423 320.699423,378.850423 267.395423,373.534423 C214.093423,368.218423 175.191423,320.698423 180.507423,267.396423 C185.823423,214.092423 233.343423,175.190423 286.647423,180.506423 C339.949423,185.822423 378.851423,233.342423 373.535423,286.646423 Z" id="Stroke-19" stroke-dasharray="0,20.3080005645752"></path>
                <path d="M353.635623,284.661823 C349.415623,326.973823 311.693623,357.855823 269.379623,353.635823 C227.067623,349.415823 196.187623,311.693823 200.407623,269.379823 C204.627623,227.067823 242.349623,196.187823 284.661623,200.405823 C326.975623,204.625823 357.855623,242.349823 353.635623,284.661823 Z" id="Stroke-21" stroke-dasharray="0,20.15200042724609"></path>
                <path d="M333.735823,282.677023 C330.611823,313.999023 302.687823,336.859023 271.365823,333.735023 C240.041823,330.611023 217.183823,302.687023 220.307823,271.365023 C223.431823,240.043023 251.355823,217.183023 282.677823,220.307023 C313.999823,223.431023 336.859823,251.355023 333.735823,282.677023 Z" id="Stroke-23" stroke-dasharray="0,19.88999938964844"></path>
                <path d="M313.836023,280.692423 C311.808023,301.024423 293.682023,315.862423 273.350023,313.836423 C253.018023,311.808423 238.180023,293.682423 240.206023,273.348423 C242.234023,253.016423 260.360023,238.178423 280.692023,240.206423 C301.026023,242.234423 315.864023,260.360423 313.836023,280.692423 Z" id="Stroke-25" stroke-dasharray="0,19.36599922180176"></path>
                <path d="M293.936223,278.707823 C293.004223,288.049823 284.676223,294.867823 275.334223,293.935823 C265.992223,293.003823 259.174223,284.675823 260.106223,275.333823 C261.038223,265.991823 269.366223,259.173823 278.708223,260.105823 C288.050223,261.037823 294.868223,269.365823 293.936223,278.707823 Z" id="Stroke-27" stroke-dasharray="0,21.35000038146973"></path>
            </g>
        </g>
    </g>
</svg>