<?xml version="1.0" encoding="UTF-8"?>
<svg width="176px" height="36px" viewBox="0 0 176 36" version="1.1" xmlns="http://www.w3.org/2000/svg" xmlns:xlink="http://www.w3.org/1999/xlink">
    <!-- Generator: Sketch 50.2 (55047) - http://www.bohemiancoding.com/sketch -->
    <title>Copper-logo-white</title>
    <desc>Created with Sketch.</desc>
    <defs>
        <polygon id="path-1" points="0.0659878787 0.129411765 7.96678787 0.129411765 7.96678787 7.79788236 0.0659878787 7.79788236"></polygon>
    </defs>
    <g id="Page-1" stroke="none" stroke-width="1" fill="none" fill-rule="evenodd">
        <g id="GN-Design---R2-053018" transform="translate(-525.000000, -6192.000000)">
            <g id="Copper-logo-white" transform="translate(525.000000, 6192.000000)">
                <path d="M0,6 C0,8.20913448 1.79091723,10 3.99988451,10 C6.20908277,10 8,8.20913448 8,6 C8,3.79086552 6.20908277,2 3.99988451,2 C1.79091723,2 0,3.79086552 0,6" id="Fill-1" fill="#FFFFFF" fill-rule="nonzero"></path>
                <path d="M0,20.0001155 C0,22.2090829 1.79091723,24 3.99988451,24 C6.20908277,24 8,22.2090829 8,20.0001155 C8,17.7909172 6.20908277,16 3.99988451,16 C1.79091723,16 0,17.7909172 0,20.0001155" id="Fill-3" fill="#FFFFFF" fill-rule="nonzero"></path>
                <path d="M26.6477707,27 C24.8100135,27 23.122277,26.6865775 21.5840618,26.0612395 C20.0458464,25.4353991 18.7121597,24.5616838 17.5845018,23.4413493 C16.4553437,22.3210146 15.5764707,20.9942431 14.9458824,19.4617881 C14.3155442,17.9293331 14,16.2411715 14,14.395294 C14,12.5172707 14.3525493,10.7620547 15.0581481,9.13115293 C15.7634969,7.49974886 16.7391335,6.08306932 17.9863081,4.87985859 C19.2327326,3.67765241 20.6934371,2.73010199 22.3664214,2.03796075 C24.0394054,1.34581949 25.8434081,1 27.7796791,1 C29.2228813,1 30.5765707,1.20593463 31.8399975,1.61755274 C33.1021743,2.03017541 34.2020784,2.59850476 35.1367092,3.32304305 C36.0718401,4.04808362 36.8104435,4.91326018 37.3515191,5.91781933 C37.893095,6.92388533 38.1636329,7.98645776 38.1636329,9.10629008 C38.1636329,10.3589754 37.7698277,11.4047214 36.9827176,12.2450352 C36.1951072,13.0856 35.2269718,13.5055058 34.079061,13.5055058 C32.8976457,13.5055058 31.9137579,13.0938876 31.1263977,12.269898 C30.3387874,11.4464106 29.9452324,10.4084499 29.9452324,9.15576462 C29.9452324,8.79362105 29.9857381,8.44729928 30.0682495,8.11780388 C30.149761,7.78855962 30.2727782,7.31038946 30.4368011,6.68404684 C30.6010741,6.12425623 30.7078392,5.70409938 30.7573459,5.42382738 C30.8061029,5.1443088 30.8308563,4.83917395 30.8308563,4.50917625 C30.8308563,3.65278959 30.5530673,2.95236071 29.9997399,2.40889421 C29.4454124,1.86492543 28.7470646,1.59294104 27.9056968,1.59294104 C27.1605926,1.59294104 26.4724962,1.83353296 25.8419079,2.31220539 C25.2105694,2.79087783 24.6602423,3.44384129 24.1909268,4.26933776 C23.721111,5.09583881 23.3490588,6.07779539 23.0735203,7.21822116 C22.7984818,8.35814465 22.6614626,9.5721544 22.6614626,10.8602504 C22.6614626,13.8671471 23.4158182,16.2542307 24.9252795,18.0217526 C26.4339908,19.7895255 28.4687757,20.6730353 31.027884,20.6730353 C32.471336,20.6730353 33.7835196,20.4013021 34.9649351,19.8578356 C36.1456005,19.3138668 37.293761,18.4655166 38.4096673,17.3117804 L39,17.6081253 C36.2111095,23.8700447 32.0932831,27 26.6477707,27" id="Fill-5" fill="#FFFFFF" fill-rule="nonzero"></path>
                <path d="M57.3854205,8.44202535 C57.237305,6.82091801 57.0310368,5.5142377 56.7671131,4.52097982 C56.5029407,3.59477628 56.0909015,2.87526081 55.5297529,2.36218221 C54.9686041,1.8496059 54.2916471,1.59319218 53.4998757,1.59319218 C52.6743063,1.59319218 51.9734916,1.8496059 51.3956923,2.36218221 C50.8181415,2.87526081 50.4138065,3.59477628 50.1829353,4.52097982 C49.9182659,5.58003631 49.7206958,6.91107719 49.589231,8.51611158 C49.457269,10.121146 49.3911639,11.9486902 49.3911639,14 C49.3911639,16.0513098 49.457269,17.8876439 49.589231,19.5090024 C49.7206958,21.1301097 49.9182659,22.4536164 50.1829353,23.4790201 C50.4138065,24.4057259 50.8181415,25.1247391 51.3956923,25.6378177 C51.9734916,26.1503942 52.6743063,26.4070589 53.4998757,26.4070589 C54.2916471,26.4070589 54.9765566,26.1503942 55.5546045,25.6378177 C56.1311612,25.1247391 56.5354964,24.4057259 56.7671131,23.4790201 C57.3282617,21.3287613 57.6085875,18.1691716 57.6085875,14 C57.6085875,11.9162932 57.534033,10.0631327 57.3854205,8.44202535 M65.9500207,19.1405803 C65.2499517,20.7225099 64.2981361,22.0987559 63.0940771,23.2683138 C61.8892724,24.438123 60.465774,25.3527741 58.8215933,26.0115137 C57.1776613,26.6705045 55.4119564,27 53.5247273,27 C51.6034517,27 49.8213448,26.6705045 48.1776611,26.0115137 C46.5337291,25.3527741 45.1097335,24.438123 43.9054259,23.2683138 C42.7006212,22.0987559 41.7493028,20.7225099 41.0494822,19.1405803 C40.3489161,17.5591531 40,15.8456263 40,14 C40,12.1546248 40.3489161,10.4408469 41.0494822,8.85941968 C41.7493028,7.27749015 42.7006212,5.90174638 43.9054259,4.73193724 C45.1097335,3.56237927 46.5337291,2.64823043 48.1776611,1.98848621 C49.8213448,1.32974654 51.6034517,1 53.5247273,1 C55.4119564,1 57.1776613,1.32974654 58.8215933,1.98848621 C60.465774,2.64823043 61.8892724,3.56237927 63.0940771,4.73193724 C64.2981361,5.90174638 65.2499517,7.27749015 65.9500207,8.85941968 C66.6498412,10.4408469 67,12.1546248 67,14 C67,15.8456263 66.6498412,17.5591531 65.9500207,19.1405803" id="Fill-7" fill="#FFFFFF" fill-rule="nonzero"></path>
                <path d="M85.7583779,22.1068964 C84.9196569,24.007278 83.7426161,24.9567324 82.2270111,24.9567324 C81.3565576,24.9567324 80.566412,24.6031103 79.8570631,23.8941483 L79.8570631,4.86358537 C80.566412,4.41303006 81.1149005,4.10775185 81.5020399,3.94627832 C81.8884471,3.7850502 82.2750985,3.70455883 82.6627263,3.70455883 C84.0167381,3.70455883 85.0805176,4.6307003 85.8543083,6.48175622 C86.6283433,8.33379375 87.0154827,10.8854681 87.0154827,14.1375154 C87.0154827,17.5510363 86.5961223,20.2074966 85.7583779,22.1068964 M95.3492345,7.83415836 C94.9154723,6.43365772 94.3052272,5.2257965 93.5184991,4.21180166 C92.7307948,3.19756142 91.7907731,2.40859883 90.6989225,1.8449139 C89.6063396,1.28171977 88.4024481,1 87.0855389,1 C85.8643163,1 84.6833699,1.24098329 83.5429437,1.72417686 C82.403006,2.20737043 81.1739722,3.01252945 79.8570631,4.13940852 L79.8570631,2.09669481 L79.8570631,1 L68,4.54971814 L68,4.77205099 L68,5.26775998 C68.5111413,5.34309794 68.9356279,5.45254655 69.2636956,5.59978686 C69.7274819,5.80788647 70.1356138,6.13696853 70.4883355,6.58654224 C70.6809289,6.84347655 70.832758,7.1168527 70.9450431,7.40568908 C71.0565959,7.69477086 71.1449593,8.03219654 71.2091572,8.41698452 C71.2731108,8.8025087 71.3211981,9.25968982 71.353175,9.78975487 C71.3846636,10.3193292 71.4015065,10.9377384 71.4015065,11.6437556 L71.4015065,26.9113473 L71.4015065,29.5923477 C71.4015065,30.1383638 71.3932071,30.5879375 71.3775849,30.9410687 C71.3609861,31.2942 71.3370645,31.599233 71.3055759,31.8564127 C71.2731108,32.1123653 71.2250236,32.3697905 71.1610698,32.6272155 C71.0653833,33.2367905 70.8564355,33.7185116 70.536667,34.0718883 C70.1837012,34.521462 69.7680022,34.8343477 69.2873731,35.0112815 C69.0654879,35.0927544 68.7754996,35.1651474 68.4232659,35.2296879 L68.4232659,36 L82.8301775,36 L82.8301775,35.3089523 C82.3998326,35.2539825 82.0439377,35.1887059 81.7788472,35.1099324 C81.2984622,34.9656369 80.9140077,34.7197456 80.6262161,34.3695591 C80.4653554,34.1786376 80.3376923,33.9722556 80.2417617,33.7491868 C80.1455871,33.5258722 80.0655229,33.2397353 80.0015691,32.8897941 C79.9366391,32.5396077 79.8970952,32.1177641 79.881473,31.625 C79.8646301,31.130518 79.8570631,30.5182439 79.8570631,29.7864595 L79.8570631,24.6669144 C80.6918785,25.3115816 81.4556614,25.7621368 82.1459706,26.0193166 C82.8367682,26.2767416 83.6474178,26.4058222 84.5798723,26.4058222 C86.1855494,26.4058222 87.6791853,26.0509731 89.0607803,25.3432381 C90.4418871,24.6352576 91.6467553,23.6526742 92.6751404,22.3969599 C93.7030373,21.1410001 94.5139311,19.667861 95.1080657,17.9770516 C95.7029327,16.286733 96,14.4594809 96,12.4952953 C96,10.7885349 95.7829967,9.23465897 95.3492345,7.83415836" id="Fill-9" fill="#FFFFFF" fill-rule="nonzero"></path>
                <path d="M115.758378,22.1068964 C114.919657,24.007278 113.742616,24.9567324 112.227011,24.9567324 C111.356558,24.9567324 110.566412,24.6031103 109.857063,23.8941483 L109.857063,4.86358537 C110.566412,4.41303006 111.114901,4.10775185 111.50204,3.94627832 C111.888447,3.7850502 112.275098,3.70455883 112.662726,3.70455883 C114.016738,3.70455883 115.080518,4.6307003 115.854308,6.48175622 C116.628343,8.33379375 117.015483,10.8854681 117.015483,14.1375154 C117.015483,17.5510363 116.596122,20.2074966 115.758378,22.1068964 M125.349235,7.83415836 C124.915472,6.43365772 124.305227,5.2257965 123.518499,4.21180166 C122.730795,3.19756142 121.790773,2.40859883 120.698923,1.8449139 C119.60634,1.28171977 118.402448,1 117.085539,1 C115.864316,1 114.68337,1.24098329 113.542944,1.72417686 C112.403006,2.20737043 111.173972,3.01252945 109.857063,4.13940852 L109.857063,2.09669481 L109.857063,1 L98,4.54971814 L98,4.77205099 L98,5.26775998 C98.5111413,5.34309794 98.9356279,5.45254655 99.2636956,5.59978686 C99.7274819,5.80788647 100.135614,6.13696853 100.488336,6.58654224 C100.680929,6.84347655 100.832758,7.1168527 100.945043,7.40568908 C101.056596,7.69477086 101.144959,8.03219654 101.209157,8.41698452 C101.273111,8.8025087 101.321198,9.25968982 101.353175,9.78975487 C101.384664,10.3193292 101.401506,10.9377384 101.401506,11.6437556 L101.401506,26.9113473 L101.401506,29.5923477 C101.401506,30.1383638 101.393207,30.5879375 101.377585,30.9410687 C101.360986,31.2942 101.337064,31.599233 101.305576,31.8564127 C101.273111,32.1123653 101.225024,32.3697905 101.16107,32.6272155 C101.065383,33.2367905 100.856436,33.7185116 100.536667,34.0718883 C100.183701,34.521462 99.7680022,34.8343477 99.2873731,35.0112815 C99.0654879,35.0927544 98.7754996,35.1651474 98.423022,35.2296879 L98.423022,36 L112.830177,36 L112.830177,35.3089523 C112.399833,35.2539825 112.043694,35.1887059 111.778847,35.1099324 C111.298462,34.9656369 110.914008,34.7197456 110.626216,34.3695591 C110.465355,34.1786376 110.337692,33.9722556 110.241762,33.7491868 C110.145587,33.5258722 110.065523,33.2397353 110.001569,32.8897941 C109.936639,32.5396077 109.897095,32.1177641 109.881473,31.625 C109.86463,31.130518 109.857063,30.5182439 109.857063,29.7864595 L109.857063,24.6669144 C110.691879,25.3115816 111.455661,25.7621368 112.145971,26.0193166 C112.836768,26.2767416 113.647418,26.4058222 114.579872,26.4058222 C116.185549,26.4058222 117.679185,26.0509731 119.06078,25.3432381 C120.441887,24.6352576 121.646755,23.6526742 122.67514,22.3969599 C123.703037,21.1410001 124.513931,19.667861 125.108066,17.9770516 C125.702933,16.286733 126,14.4594809 126,12.4952953 C126,10.7885349 125.782997,9.23465897 125.349235,7.83415836" id="Fill-11" fill="#FFFFFF" fill-rule="nonzero"></path>
                <path d="M141.003793,1.59294104 C141.963841,1.59294104 142.69887,2.00154548 143.211318,2.8172475 C143.722547,3.63244725 144.042644,4.94013213 144.170634,6.73829301 C144.202083,7.07180666 144.226462,7.37166757 144.242552,7.63737346 C144.258886,7.90383277 144.274001,8.19465265 144.290579,8.51159107 C144.306425,8.82852948 144.314958,9.18590141 144.314958,9.58521366 L144.314958,10.5267367 L136.932489,10.5267367 C136.969302,7.71547794 137.307927,5.53935167 137.956898,4.01543544 C138.644387,2.40085774 139.660019,1.59294104 141.003793,1.59294104 Z M152.567759,16.5204389 C152.088223,17.2793833 151.687675,17.8474616 151.368309,18.2259292 C151.048212,18.6051503 150.616459,18.9760838 150.072562,19.3382273 C148.664671,20.3603663 146.953748,20.8704312 144.938818,20.8704312 C139.628814,20.8704312 136.957356,17.7904528 136.925176,11.6299938 L152.004115,11.6299938 L152.004115,11.6272313 L152.807649,11.6272313 C152.615786,10.0129047 152.19159,8.54624837 151.536281,7.22776447 C150.88024,5.91028514 150.040138,4.78969941 149.016948,3.86650954 C147.992784,2.94432425 146.809912,2.23560776 145.466381,1.74111352 C144.122607,1.24661927 142.651331,1 141.05182,1 C139.228754,1 137.524901,1.34581949 135.941237,2.03770961 C134.35806,2.72985086 132.973817,3.67765241 131.791188,4.87985859 C130.607341,6.08306932 129.679961,7.4917124 129.008074,9.10603895 C128.336187,10.7213701 128,12.4512209 128,14.2965961 C128,16.1090719 128.31961,17.7894483 128.960048,19.3382273 C129.599511,20.8877598 130.487396,22.230102 131.622973,23.3667607 C132.758306,24.5036706 134.101593,25.3934589 135.653807,26.0361255 C137.205047,26.678541 138.876232,27 140.668094,27 C142.555033,27 144.282534,26.6295687 145.850108,25.8879531 C147.417194,25.1463372 148.760724,24.0837647 149.880699,22.6994823 C150.232489,22.2386408 150.544541,21.809694 150.816367,21.4144 C151.087706,21.0191059 151.336373,20.6069855 151.560172,20.1787922 C151.783972,19.7505989 152.007772,19.2641411 152.232059,18.7204235 C152.455372,18.1764547 152.711839,17.5094274 153,16.7183371 L152.567759,16.5204389 Z" id="Fill-13" fill="#FFFFFF" fill-rule="nonzero"></path>
                <path d="M167.812201,25.103625 C167.362248,24.958467 167.008993,24.7086375 166.752191,24.3543828 C166.591109,24.1615795 166.470909,23.9527299 166.390613,23.7270931 C166.310316,23.5014565 166.238098,23.219781 166.174204,22.8813259 C166.109575,22.5433647 166.069427,22.1165312 166.053515,21.6020599 C166.036868,21.0870948 166.029768,20.4585707 166.029768,19.717969 L166.029768,16.5918889 L166.029768,13.6810771 L166.029768,1 L154,4.61364288 L154,5.3416544 C154.576763,5.41719578 155.046791,5.5347046 155.404942,5.69590891 C155.870318,5.90525234 156.280123,6.23654821 156.633868,6.68732781 C156.826531,6.94530408 156.978555,7.22006734 157.091411,7.51038324 C157.203777,7.80119286 157.291662,8.13964788 157.35678,8.52673571 C157.42043,8.91382357 157.468657,9.37398415 157.501216,9.90622993 C157.532796,10.4384757 157.548953,11.0595937 157.548953,11.7693371 L157.548953,19.7063662 C157.548953,21.2231186 157.501216,22.2960037 157.404518,22.9247746 C157.308554,23.5540393 157.131559,24.0297525 156.874757,24.352408 C156.585641,24.70765 156.215984,24.9574797 155.76652,25.1026375 C155.442152,25.207556 154.988282,25.2905036 154.414457,25.3529609 L154.414457,26 L169,26 L169,25.332471 C168.506471,25.2724821 168.103031,25.1971877 167.812201,25.103625" id="Fill-15" fill="#FFFFFF" fill-rule="nonzero"></path>
                <g id="Group-19" transform="translate(168.000000, 0.000000)">
                    <g id="Fill-17-Clipped">
                        <mask id="mask-2" fill="white">
                            <use xlink:href="#path-1"></use>
                        </mask>
                        <g id="path-1"></g>
                        <path d="M0.0659878787,3.96376472 C0.0659878787,6.08141177 1.83471515,7.79788236 4.01653334,7.79788236 C6.19835152,7.79788236 7.96683637,6.08141177 7.96683637,3.96376472 C7.96683637,1.84611765 6.19835152,0.129411765 4.01653334,0.129411765 C1.83471515,0.129411765 0.0659878787,1.84611765 0.0659878787,3.96376472" id="Fill-17" fill="#FFFFFF" fill-rule="nonzero" mask="url(#mask-2)"></path>
                    </g>
                </g>
            </g>
        </g>
    </g>
</svg>