<?xml version="1.0" encoding="UTF-8"?>
<svg width="326px" height="249px" viewBox="0 0 326 249" version="1.1" xmlns="http://www.w3.org/2000/svg" xmlns:xlink="http://www.w3.org/1999/xlink">
    <!-- Generator: Sketch 50.2 (55047) - http://www.bohemiancoding.com/sketch -->
    <title>topo5</title>
    <desc>Created with Sketch.</desc>
    <defs></defs>
    <g id="Final-Designs/Responsive" stroke="none" stroke-width="1" fill="none" fill-rule="evenodd" opacity="0.5">
        <g id="GN-Design---R2-053018" transform="translate(-285.000000, -1049.000000)">
            <g id="Survey" transform="translate(800.000000, 1302.500000) scale(-1, 1) translate(-800.000000, -1302.500000) translate(0.000000, 947.000000)">
                <g id="topo5" transform="translate(1165.391908, 237.984825) scale(-1, 1) rotate(115.000000) translate(-1165.391908, -237.984825) translate(1015.391908, 107.752267)">
                    <g opacity="0.6" id="topo_5">
                        <g>
                            <path d="M293.936977,176.542326 L292.669535,176.542326 C297.983488,188.484186 300.797442,199.074884 296.206744,210.891163 C289.811395,227.344651 280.239302,231.679535 262.890465,239.553953 C255.634651,242.844651 247.413721,246.563256 237.53,252.016744 C214.416047,264.772558 208.53,259.365581 192.811395,244.902791 C185.878837,238.528372 177.264884,230.59814 164.520698,221.749302 C131.820698,199.042326 96.6951163,200.29814 71.6602326,202.388837 L71.6602326,202.393488 C69.7393023,202.556279 67.8811628,202.726047 66.0811628,202.884186 C61.2346512,203.314419 57.0486047,203.686512 53.4323256,203.802791 C37.7230233,204.349302 30.6090698,192.814419 24.13,176.535349 L24.1369767,176.535349 C22.6718605,172.872558 21.2416279,168.965581 19.7648837,164.895814 C18.5904651,161.686512 17.3811628,158.349302 16.0904651,154.953953 C11.3695349,142.58186 2.32302326,90.5702326 2.32302326,46.9423256 C2.32302326,34.2795349 3.07883721,22.3376744 4.92767442,12.2562791 C5.69511628,8.02604651 7.38116279,5.23534884 10.0788372,3.72139535 C16.9486047,-0.16 29.6369767,4.6655814 44.3346512,10.2446512 C52.9369767,13.5097674 62.3253488,17.0609302 71.6602326,19.2725581 L71.6602326,19.3051163 C75.8927907,20.3027907 80.1253488,21.012093 84.2648837,21.2911628 C92.2881395,21.8283721 100.006744,21.6888372 107.483488,21.5493023 C132.706744,21.0702326 154.495116,20.6655814 176.683488,45.512093 C188.425349,58.6632558 204.811395,70.1981395 220.657907,81.3376744 C244.669535,98.2330233 267.355581,114.188837 274.239302,134.849302 C278.204419,146.735349 283.099767,156.709767 287.413721,165.500465 C289.297442,169.337674 291.08814,172.988837 292.669535,176.535349 L293.936977,176.535349 C292.30907,172.837674 290.425349,169.014419 288.448605,164.988837 C284.157907,156.223721 279.274186,146.291163 275.343953,134.477209 C268.332326,113.453953 245.506744,97.3981395 221.332326,80.384186 C205.53,69.2818605 189.206744,57.7911628 177.555581,44.7446512 C155.00907,19.4911628 131.916047,19.9190698 107.460233,20.3865116 C100.020698,20.5260465 92.3230233,20.6655814 84.3462791,20.1283721 C80.2323256,19.8539535 76.0044186,19.1283721 71.7765116,18.1213953 L71.7765116,18.0934884 C62.5555814,15.9097674 53.2648837,12.3865116 44.7532558,9.15162791 C29.7765116,3.47953488 16.8462791,-1.43906977 9.50906977,2.70046512 C6.49744186,4.39813953 4.62534884,7.45627907 3.77651163,12.0493023 C-4.46534884,57.0586047 8.88116279,139.326047 14.9974419,155.372558 C16.2881395,158.758605 17.4974419,162.08186 18.6718605,165.302791 C20.102093,169.209767 21.474186,172.977209 22.8695349,176.535349 L22.874186,176.535349 C29.5602326,193.477209 36.874186,205.546977 53.4672093,204.965581 C57.1183721,204.849302 61.3160465,204.477209 66.1765116,204.035349 C67.9393023,203.877209 69.774186,203.716744 71.6602326,203.556279 L71.6602326,203.563256 C96.5183721,201.484186 131.45093,200.205116 163.855581,222.705116 C176.532326,231.507442 185.123023,239.412093 192.032326,245.763256 C207.741628,260.214419 214.25093,266.191163 238.099767,253.042326 C247.936977,247.612093 256.134651,243.888837 263.367209,240.612093 C280.425349,232.879535 290.716047,228.202791 297.285814,211.31907 C298.960233,207.007442 299.695116,202.865581 299.695116,198.784186 C299.695116,191.435349 297.343953,184.249302 293.936977,176.542326" id="Fill-1" fill="#B1834B" fill-rule="nonzero"></path>
                            <path d="M293.936977,176.542326 L292.669535,176.542326 C297.983488,188.484186 300.797442,199.074884 296.206744,210.891163 C289.811395,227.344651 280.239302,231.679535 262.890465,239.553953 C255.634651,242.844651 247.413721,246.563256 237.53,252.016744 C214.416047,264.772558 208.53,259.365581 192.811395,244.902791 C185.878837,238.528372 177.264884,230.59814 164.520698,221.749302 C131.820698,199.042326 96.6951163,200.29814 71.6602326,202.388837 L71.6602326,202.393488 C69.7393023,202.556279 67.8811628,202.726047 66.0811628,202.884186 C61.2346512,203.314419 57.0486047,203.686512 53.4323256,203.802791 C37.7230233,204.349302 30.6090698,192.814419 24.13,176.535349 L24.1369767,176.535349 C22.6718605,172.872558 21.2416279,168.965581 19.7648837,164.895814 C18.5904651,161.686512 17.3811628,158.349302 16.0904651,154.953953 C11.3695349,142.58186 2.32302326,90.5702326 2.32302326,46.9423256 C2.32302326,34.2795349 3.07883721,22.3376744 4.92767442,12.2562791 C5.69511628,8.02604651 7.38116279,5.23534884 10.0788372,3.72139535 C16.9486047,-0.16 29.6369767,4.6655814 44.3346512,10.2446512 C52.9369767,13.5097674 62.3253488,17.0609302 71.6602326,19.2725581 L71.6602326,19.3051163 C75.8927907,20.3027907 80.1253488,21.012093 84.2648837,21.2911628 C92.2881395,21.8283721 100.006744,21.6888372 107.483488,21.5493023 C132.706744,21.0702326 154.495116,20.6655814 176.683488,45.512093 C188.425349,58.6632558 204.811395,70.1981395 220.657907,81.3376744 C244.669535,98.2330233 267.355581,114.188837 274.239302,134.849302 C278.204419,146.735349 283.099767,156.709767 287.413721,165.500465 C289.297442,169.337674 291.08814,172.988837 292.669535,176.535349 L293.936977,176.535349 C292.30907,172.837674 290.425349,169.014419 288.448605,164.988837 C284.157907,156.223721 279.274186,146.291163 275.343953,134.477209 C268.332326,113.453953 245.506744,97.3981395 221.332326,80.384186 C205.53,69.2818605 189.206744,57.7911628 177.555581,44.7446512 C155.00907,19.4911628 131.916047,19.9190698 107.460233,20.3865116 C100.020698,20.5260465 92.3230233,20.6655814 84.3462791,20.1283721 C80.2323256,19.8539535 76.0044186,19.1283721 71.7765116,18.1213953 L71.7765116,18.0934884 C62.5555814,15.9097674 53.2648837,12.3865116 44.7532558,9.15162791 C29.7765116,3.47953488 16.8462791,-1.43906977 9.50906977,2.70046512 C6.49744186,4.39813953 4.62534884,7.45627907 3.77651163,12.0493023 C-4.46534884,57.0586047 8.88116279,139.326047 14.9974419,155.372558 C16.2881395,158.758605 17.4974419,162.08186 18.6718605,165.302791 C20.102093,169.209767 21.474186,172.977209 22.8695349,176.535349 L22.874186,176.535349 C29.5602326,193.477209 36.874186,205.546977 53.4672093,204.965581 C57.1183721,204.849302 61.3160465,204.477209 66.1765116,204.035349 C67.9393023,203.877209 69.774186,203.716744 71.6602326,203.556279 L71.6602326,203.563256 C96.5183721,201.484186 131.45093,200.205116 163.855581,222.705116 C176.532326,231.507442 185.123023,239.412093 192.032326,245.763256 C207.741628,260.214419 214.25093,266.191163 238.099767,253.042326 C247.936977,247.612093 256.134651,243.888837 263.367209,240.612093 C280.425349,232.879535 290.716047,228.202791 297.285814,211.31907 C298.960233,207.007442 299.695116,202.865581 299.695116,198.784186 C299.695116,191.435349 297.343953,184.249302 293.936977,176.542326 Z" id="Stroke-3" stroke="#FEFEFE" stroke-linecap="round" stroke-linejoin="round"></path>
                            <path d="M78.9865116,185.331395 C82.1144186,185.461628 85.9981395,185.284884 90.495814,185.066279 C108.251628,184.238372 135.077209,182.97093 158.951628,198.796512 C166.344651,203.703488 171.995814,208.261628 176.530698,211.936047 C189.251628,222.215116 195.053953,226.901163 212.402791,218.810465 C219.088837,215.680233 224.867907,213.459302 229.96093,211.505814 C242.96093,206.505814 250.809767,203.496512 255.307442,192.47093 C256.646977,189.203488 257.216744,185.866279 257.216744,182.424419 C257.216744,180.494186 257.042326,178.540698 256.705116,176.543023 L255.809767,176.543023 C256.728372,181.994186 256.495814,187.124419 254.449302,192.122093 C250.100465,202.773256 242.391163,205.72907 229.621395,210.633721 C224.51907,212.601163 218.728372,214.819767 212.007442,217.959302 C195.193488,225.819767 189.902791,221.540698 177.123721,211.203488 C172.565581,207.52907 166.905116,202.947674 159.472558,198.017442 C135.333023,182.02907 108.321395,183.296512 90.4516279,184.133721 C85.9748837,184.354651 82.1144186,184.52907 79.0213953,184.403488 C76.2469767,184.287209 73.8702326,183.675581 71.7795349,182.640698 L71.7795349,182.580233 C69.0934884,181.219767 66.8865116,179.152326 64.9795349,176.536047 L64.9632558,176.536047 C61.4027907,171.698837 58.8330233,165.012791 55.9516279,157.536047 C55.2539535,155.731395 54.5446512,153.884884 53.8004651,152.012791 C49.3469767,140.815116 41.2306977,88.4430233 48.5562791,57.5011628 C49.3469767,54.177907 50.812093,51.9313953 53.0330233,50.6174419 C57.2423256,48.1430233 63.8516279,49.2709302 71.6609302,51.3453488 L71.6609302,51.3639535 C73.612093,51.8848837 75.6469767,52.4662791 77.7423256,53.0593023 C85.8004651,55.35 94.9260465,57.9453488 103.812093,58.2802326 C108.623721,58.4895349 113.312093,58.4430233 117.844651,58.4081395 C136.705116,58.2476744 152.995814,58.105814 169.96093,74.2104651 C178.763256,82.5709302 189.96093,90.1523256 200.79814,97.4918605 C218.858605,109.710465 235.914419,121.256977 240.821395,135.233721 C242.949302,141.303488 245.274884,146.884884 247.530698,152.29186 C251.274884,161.29186 254.577209,169.20814 255.809767,176.536047 L256.705116,176.536047 C255.472558,168.90814 252.077209,160.766279 248.391163,151.931395 C246.135349,146.547674 243.821395,140.966279 241.693488,134.931395 C236.68186,120.663953 219.507442,109.036047 201.321395,96.722093 C190.51907,89.4081395 179.344651,81.85 170.602791,73.5360465 C153.356279,57.177907 136.112093,57.3151163 117.844651,57.477907 C113.323721,57.5127907 108.635349,57.5616279 103.844651,57.35 C95.0795349,57.0127907 85.9981395,54.4430233 77.995814,52.1639535 C75.8516279,51.5616279 73.7772093,50.9686047 71.7748837,50.4406977 L71.7748837,50.4081395 C63.812093,48.3034884 57.0423256,47.1895349 52.567907,49.8174419 C50.1027907,51.2593023 48.4981395,53.6988372 47.6469767,57.2918605 C40.2748837,88.3965116 48.4493023,141.094186 52.94,152.361628 C53.6725581,154.233721 54.3818605,156.07093 55.0795349,157.859302 C57.8818605,165.138372 60.3934884,171.675581 63.7888372,176.536047 L63.7934884,176.536047 C65.9609302,179.633721 68.4865116,182.054651 71.6609302,183.559302 L71.6609302,183.636047 C73.7772093,184.633721 76.195814,185.215116 78.9865116,185.331395" id="Fill-5" fill="#B1834B" fill-rule="nonzero"></path>
                            <path d="M78.9865116,185.331395 C82.1144186,185.461628 85.9981395,185.284884 90.495814,185.066279 C108.251628,184.238372 135.077209,182.97093 158.951628,198.796512 C166.344651,203.703488 171.995814,208.261628 176.530698,211.936047 C189.251628,222.215116 195.053953,226.901163 212.402791,218.810465 C219.088837,215.680233 224.867907,213.459302 229.96093,211.505814 C242.96093,206.505814 250.809767,203.496512 255.307442,192.47093 C256.646977,189.203488 257.216744,185.866279 257.216744,182.424419 C257.216744,180.494186 257.042326,178.540698 256.705116,176.543023 L255.809767,176.543023 C256.728372,181.994186 256.495814,187.124419 254.449302,192.122093 C250.100465,202.773256 242.391163,205.72907 229.621395,210.633721 C224.51907,212.601163 218.728372,214.819767 212.007442,217.959302 C195.193488,225.819767 189.902791,221.540698 177.123721,211.203488 C172.565581,207.52907 166.905116,202.947674 159.472558,198.017442 C135.333023,182.02907 108.321395,183.296512 90.4516279,184.133721 C85.9748837,184.354651 82.1144186,184.52907 79.0213953,184.403488 C76.2469767,184.287209 73.8702326,183.675581 71.7795349,182.640698 L71.7795349,182.580233 C69.0934884,181.219767 66.8865116,179.152326 64.9795349,176.536047 L64.9632558,176.536047 C61.4027907,171.698837 58.8330233,165.012791 55.9516279,157.536047 C55.2539535,155.731395 54.5446512,153.884884 53.8004651,152.012791 C49.3469767,140.815116 41.2306977,88.4430233 48.5562791,57.5011628 C49.3469767,54.177907 50.812093,51.9313953 53.0330233,50.6174419 C57.2423256,48.1430233 63.8516279,49.2709302 71.6609302,51.3453488 L71.6609302,51.3639535 C73.612093,51.8848837 75.6469767,52.4662791 77.7423256,53.0593023 C85.8004651,55.35 94.9260465,57.9453488 103.812093,58.2802326 C108.623721,58.4895349 113.312093,58.4430233 117.844651,58.4081395 C136.705116,58.2476744 152.995814,58.105814 169.96093,74.2104651 C178.763256,82.5709302 189.96093,90.1523256 200.79814,97.4918605 C218.858605,109.710465 235.914419,121.256977 240.821395,135.233721 C242.949302,141.303488 245.274884,146.884884 247.530698,152.29186 C251.274884,161.29186 254.577209,169.20814 255.809767,176.536047 L256.705116,176.536047 C255.472558,168.90814 252.077209,160.766279 248.391163,151.931395 C246.135349,146.547674 243.821395,140.966279 241.693488,134.931395 C236.68186,120.663953 219.507442,109.036047 201.321395,96.722093 C190.51907,89.4081395 179.344651,81.85 170.602791,73.5360465 C153.356279,57.177907 136.112093,57.3151163 117.844651,57.477907 C113.323721,57.5127907 108.635349,57.5616279 103.844651,57.35 C95.0795349,57.0127907 85.9981395,54.4430233 77.995814,52.1639535 C75.8516279,51.5616279 73.7772093,50.9686047 71.7748837,50.4406977 L71.7748837,50.4081395 C63.812093,48.3034884 57.0423256,47.1895349 52.567907,49.8174419 C50.1027907,51.2593023 48.4981395,53.6988372 47.6469767,57.2918605 C40.2748837,88.3965116 48.4493023,141.094186 52.94,152.361628 C53.6725581,154.233721 54.3818605,156.07093 55.0795349,157.859302 C57.8818605,165.138372 60.3934884,171.675581 63.7888372,176.536047 L63.7934884,176.536047 C65.9609302,179.633721 68.4865116,182.054651 71.6609302,183.559302 L71.6609302,183.636047 C73.7772093,184.633721 76.195814,185.215116 78.9865116,185.331395 Z" id="Stroke-7" stroke="#FEFEFE" stroke-linecap="round" stroke-linejoin="round"></path>
                            <path d="M125.716047,176.542326 C135.75093,177.74 146.555581,180.542326 156.506744,186.844651 C161.181163,189.807442 164.974186,192.542326 168.320698,194.949302 C179.657907,203.123721 185.346279,207.226047 199.553256,201.691163 C204.532326,199.749302 208.974186,198.307442 212.890465,197.030698 C223.692791,193.530698 230.832326,191.205116 234.332326,183.053953 C235.204419,181.01907 235.718372,178.842326 235.927674,176.542326 L235.099767,176.542326 C234.890465,178.726047 234.402093,180.795814 233.576512,182.726047 C230.227674,190.542326 223.613721,192.691163 212.634651,196.26093 C208.706744,197.54 204.253256,198.98186 199.25093,200.935349 C185.460233,206.309767 179.890465,202.295814 168.797442,194.29814 C165.436977,191.879535 161.634651,189.135349 156.95093,186.158605 C148.646279,180.902791 139.78814,178.063256 131.264884,176.542326 L125.716047,176.542326 Z" id="Fill-9" fill="#B1834B" fill-rule="nonzero"></path>
                            <path d="M125.716047,176.542326 C135.75093,177.74 146.555581,180.542326 156.506744,186.844651 C161.181163,189.807442 164.974186,192.542326 168.320698,194.949302 C179.657907,203.123721 185.346279,207.226047 199.553256,201.691163 C204.532326,199.749302 208.974186,198.307442 212.890465,197.030698 C223.692791,193.530698 230.832326,191.205116 234.332326,183.053953 C235.204419,181.01907 235.718372,178.842326 235.927674,176.542326 L235.099767,176.542326 C234.890465,178.726047 234.402093,180.795814 233.576512,182.726047 C230.227674,190.542326 223.613721,192.691163 212.634651,196.26093 C208.706744,197.54 204.253256,198.98186 199.25093,200.935349 C185.460233,206.309767 179.890465,202.295814 168.797442,194.29814 C165.436977,191.879535 161.634651,189.135349 156.95093,186.158605 C148.646279,180.902791 139.78814,178.063256 131.264884,176.542326 L125.716047,176.542326 Z" id="Stroke-11" stroke="#FEFEFE" stroke-linecap="round" stroke-linejoin="round"></path>
                            <path d="M156.856977,176.542326 C157.45,176.900465 158.043023,177.251628 158.612791,177.586512 C168.95,183.76093 175.194186,187.495814 186.680233,184.574884 C189.531395,183.856279 192.136047,183.263256 194.659302,182.702791 C202.354651,180.970233 207.982558,179.702791 211.252326,176.542326 L210.215116,176.542326 C206.996512,179.205116 201.659302,180.414419 194.505814,182.016744 C192.098837,182.565581 189.366279,183.170233 186.50814,183.902791 C175.298837,186.751628 169.147674,183.077209 158.973256,176.993488 C158.72907,176.844651 158.473256,176.691163 158.217442,176.542326 L156.856977,176.542326 Z" id="Fill-13" fill="#B1834B" fill-rule="nonzero"></path>
                            <path d="M156.856977,176.542326 C157.45,176.900465 158.043023,177.251628 158.612791,177.586512 C168.95,183.76093 175.194186,187.495814 186.680233,184.574884 C189.531395,183.856279 192.136047,183.263256 194.659302,182.702791 C202.354651,180.970233 207.982558,179.702791 211.252326,176.542326 L210.215116,176.542326 C206.996512,179.205116 201.659302,180.414419 194.505814,182.016744 C192.098837,182.565581 189.366279,183.170233 186.50814,183.902791 C175.298837,186.751628 169.147674,183.077209 158.973256,176.993488 C158.72907,176.844651 158.473256,176.691163 158.217442,176.542326 L156.856977,176.542326 Z" id="Stroke-15" stroke="#FEFEFE" stroke-linecap="round" stroke-linejoin="round"></path>
                            <path d="M236.042558,173.919302 C236.042558,164.558837 231.83093,153.512326 227.449535,141.991395 C226.58907,139.733256 225.716977,137.442558 224.865814,135.15186 C220.81,124.142558 206.077442,114.535581 190.484419,104.361163 C182.449535,99.1169767 174.135581,93.6983721 167.112326,87.9309302 C152.31,75.7937209 137.577442,75.8867442 121.984419,75.9797674 C119.263488,76.0030233 116.437907,76.0123256 113.58907,75.965814 C107.182093,75.8611628 100.740233,74.5937209 95.065814,73.4681395 C84.6588372,71.4216279 76.0797674,69.7216279 71.6588372,75.3867442 L71.6588372,75.5402326 C70.7960465,76.6890698 70.1006977,78.1216279 69.5890698,79.9076744 C62.9797674,102.970465 67.7402326,139.654186 71.6588372,150.203023 L71.6588372,150.523953 C71.7053488,150.640233 71.7425581,150.744884 71.7867442,150.849535 C72.2053488,151.875116 72.6146512,152.884419 73.0193023,153.872791 C77.4518605,164.849535 81.2751163,174.314651 91.7867442,175.512326 C94.6472093,175.837907 98.4867442,175.791395 102.914651,175.721628 C109.335581,175.628605 117.240233,175.523953 125.682093,176.535581 L131.263488,176.535581 C120.728605,174.65186 110.716977,174.803023 102.903023,174.907674 C98.4960465,174.965814 94.6937209,175.023953 91.882093,174.71 C81.8448837,173.558837 78.2867442,164.744884 73.7774419,153.570465 C73.3681395,152.582093 72.9611628,151.572791 72.5425581,150.547209 C72.2913953,149.93093 72.037907,149.177442 71.7751163,148.340233 L71.7751163,148.012326 C69.4727907,140.314651 67.1006977,124.454186 67.1006977,108.35186 C67.1006977,98.4193023 68.0076744,88.3983721 70.3704651,80.1425581 C70.7286047,78.8611628 71.2053488,77.7681395 71.7751163,76.8518605 L71.7751163,76.7006977 C75.7890698,70.51 84.3844186,72.1960465 94.9053488,74.2681395 C100.614651,75.3983721 107.08907,76.6774419 113.577442,76.7797674 C116.437907,76.8262791 119.263488,76.8146512 121.996047,76.7913953 C138.100698,76.6983721 152.019302,76.6053488 166.600698,88.5588372 C173.658837,94.3495349 181.984419,99.7797674 190.042558,105.035581 C205.519302,115.142558 220.135581,124.675116 224.098372,135.43093 C224.947209,137.733256 225.819302,140.012326 226.682093,142.282093 C231.461163,154.837907 236.03093,166.837907 235.100698,176.535581 L235.926279,176.535581 C236.007674,175.686744 236.042558,174.814651 236.042558,173.919302" id="Fill-17" fill="#B1834B" fill-rule="nonzero"></path>
                            <path d="M236.042558,173.919302 C236.042558,164.558837 231.83093,153.512326 227.449535,141.991395 C226.58907,139.733256 225.716977,137.442558 224.865814,135.15186 C220.81,124.142558 206.077442,114.535581 190.484419,104.361163 C182.449535,99.1169767 174.135581,93.6983721 167.112326,87.9309302 C152.31,75.7937209 137.577442,75.8867442 121.984419,75.9797674 C119.263488,76.0030233 116.437907,76.0123256 113.58907,75.965814 C107.182093,75.8611628 100.740233,74.5937209 95.065814,73.4681395 C84.6588372,71.4216279 76.0797674,69.7216279 71.6588372,75.3867442 L71.6588372,75.5402326 C70.7960465,76.6890698 70.1006977,78.1216279 69.5890698,79.9076744 C62.9797674,102.970465 67.7402326,139.654186 71.6588372,150.203023 L71.6588372,150.523953 C71.7053488,150.640233 71.7425581,150.744884 71.7867442,150.849535 C72.2053488,151.875116 72.6146512,152.884419 73.0193023,153.872791 C77.4518605,164.849535 81.2751163,174.314651 91.7867442,175.512326 C94.6472093,175.837907 98.4867442,175.791395 102.914651,175.721628 C109.335581,175.628605 117.240233,175.523953 125.682093,176.535581 L131.263488,176.535581 C120.728605,174.65186 110.716977,174.803023 102.903023,174.907674 C98.4960465,174.965814 94.6937209,175.023953 91.882093,174.71 C81.8448837,173.558837 78.2867442,164.744884 73.7774419,153.570465 C73.3681395,152.582093 72.9611628,151.572791 72.5425581,150.547209 C72.2913953,149.93093 72.037907,149.177442 71.7751163,148.340233 L71.7751163,148.012326 C69.4727907,140.314651 67.1006977,124.454186 67.1006977,108.35186 C67.1006977,98.4193023 68.0076744,88.3983721 70.3704651,80.1425581 C70.7286047,78.8611628 71.2053488,77.7681395 71.7751163,76.8518605 L71.7751163,76.7006977 C75.7890698,70.51 84.3844186,72.1960465 94.9053488,74.2681395 C100.614651,75.3983721 107.08907,76.6774419 113.577442,76.7797674 C116.437907,76.8262791 119.263488,76.8146512 121.996047,76.7913953 C138.100698,76.6983721 152.019302,76.6053488 166.600698,88.5588372 C173.658837,94.3495349 181.984419,99.7797674 190.042558,105.035581 C205.519302,115.142558 220.135581,124.675116 224.098372,135.43093 C224.947209,137.733256 225.819302,140.012326 226.682093,142.282093 C231.461163,154.837907 236.03093,166.837907 235.100698,176.535581 L235.926279,176.535581 C236.007674,175.686744 236.042558,174.814651 236.042558,173.919302 Z" id="Stroke-19" stroke="#FEFEFE" stroke-linecap="round" stroke-linejoin="round"></path>
                            <path d="M213.334186,173.64 C214.44814,171.258605 214.927209,168.221395 214.927209,164.802791 C214.927209,155.826047 211.645814,144.256279 208.043488,135.36093 C204.680698,127.08186 190.622558,118.651628 175.741163,109.735349 C171.715581,107.314419 167.543488,104.814419 163.624884,102.326047 C150.392326,93.9423256 137.252791,94.2446512 123.334186,94.584186 C119.717907,94.6632558 116.345814,94.4911628 113.09,94.3167442 C102.903953,93.7795349 94.845814,93.3609302 91.4155814,102.523721 C88.6365116,109.930698 87.5434884,119.014419 87.5434884,127.384186 C87.5434884,136.605116 88.8667442,144.977209 90.7527907,149.351628 C94.0993023,157.08186 96.9853488,163.756279 104.576047,165.686512 C107.14814,166.337674 111.078372,166.465581 115.636512,166.616744 C126.462093,166.979535 141.296977,167.479535 154.066744,174.895814 C155.020233,175.453953 155.936512,176.000465 156.834186,176.535349 L158.217907,176.535349 C157.006279,175.826047 155.752791,175.070233 154.415581,174.291163 C141.494651,166.793488 126.564419,166.291163 115.659767,165.921395 C111.14814,165.767907 107.252791,165.642326 104.752791,165.012093 C97.4946512,163.163256 94.6713953,156.630698 91.4039535,149.072558 C89.5434884,144.767907 88.2295349,136.512093 88.2295349,127.407442 C88.2295349,119.11907 89.3109302,110.11907 92.0644186,102.767907 C95.3225581,94.0818605 102.764419,94.4772093 113.055116,95.012093 C116.322558,95.1888372 119.706279,95.3632558 123.357442,95.2818605 C137.159767,94.9539535 150.194651,94.64 163.252791,102.921395 C167.16907,105.407442 171.343488,107.907442 175.380698,110.326047 C190.16907,119.186512 204.122558,127.56093 207.39,135.628372 C212.31093,147.756279 216.659767,164.91907 212.703953,173.337674 C212.113256,174.616744 211.273721,175.663256 210.203953,176.535349 L211.262093,176.535349 C212.122558,175.709767 212.808605,174.767907 213.334186,173.64" id="Fill-21" fill="#B1834B" fill-rule="nonzero"></path>
                            <path d="M213.334186,173.64 C214.44814,171.258605 214.927209,168.221395 214.927209,164.802791 C214.927209,155.826047 211.645814,144.256279 208.043488,135.36093 C204.680698,127.08186 190.622558,118.651628 175.741163,109.735349 C171.715581,107.314419 167.543488,104.814419 163.624884,102.326047 C150.392326,93.9423256 137.252791,94.2446512 123.334186,94.584186 C119.717907,94.6632558 116.345814,94.4911628 113.09,94.3167442 C102.903953,93.7795349 94.845814,93.3609302 91.4155814,102.523721 C88.6365116,109.930698 87.5434884,119.014419 87.5434884,127.384186 C87.5434884,136.605116 88.8667442,144.977209 90.7527907,149.351628 C94.0993023,157.08186 96.9853488,163.756279 104.576047,165.686512 C107.14814,166.337674 111.078372,166.465581 115.636512,166.616744 C126.462093,166.979535 141.296977,167.479535 154.066744,174.895814 C155.020233,175.453953 155.936512,176.000465 156.834186,176.535349 L158.217907,176.535349 C157.006279,175.826047 155.752791,175.070233 154.415581,174.291163 C141.494651,166.793488 126.564419,166.291163 115.659767,165.921395 C111.14814,165.767907 107.252791,165.642326 104.752791,165.012093 C97.4946512,163.163256 94.6713953,156.630698 91.4039535,149.072558 C89.5434884,144.767907 88.2295349,136.512093 88.2295349,127.407442 C88.2295349,119.11907 89.3109302,110.11907 92.0644186,102.767907 C95.3225581,94.0818605 102.764419,94.4772093 113.055116,95.012093 C116.322558,95.1888372 119.706279,95.3632558 123.357442,95.2818605 C137.159767,94.9539535 150.194651,94.64 163.252791,102.921395 C167.16907,105.407442 171.343488,107.907442 175.380698,110.326047 C190.16907,119.186512 204.122558,127.56093 207.39,135.628372 C212.31093,147.756279 216.659767,164.91907 212.703953,173.337674 C212.113256,174.616744 211.273721,175.663256 210.203953,176.535349 L211.262093,176.535349 C212.122558,175.709767 212.808605,174.767907 213.334186,173.64 Z" id="Stroke-23" stroke="#FEFEFE" stroke-linecap="round" stroke-linejoin="round"></path>
                            <path d="M151.867442,162.418605 C144.648837,159.209302 136.134884,158.325581 129.286047,157.627907 C124.146512,157.104651 119.706977,156.653488 117.65814,155.337209 C107.15814,148.665116 105.925581,138.872093 113.867442,125.42093 C118.506977,117.560465 123.009302,114.839535 133.134884,113.767442 C158.704651,111.083721 187.344186,129.397674 190.693023,135.837209 C194.230233,142.651163 194.460465,159.604651 191.844186,163.930233 C189.227907,168.246512 164.497674,168.060465 151.867442,162.418605 M192.344186,164.232558 C193.57907,162.197674 194.216279,157.662791 194.216279,152.627907 C194.216279,146.430233 193.239535,139.490698 191.204651,135.569767 C187.82093,129.046512 158.881395,110.47907 133.07907,113.2 C122.730233,114.281395 118.123256,117.072093 113.367442,125.130233 C109.867442,131.060465 108.113953,136.293023 108.113953,140.883721 C108.113953,146.965116 111.183721,151.906977 117.344186,155.825581 C119.52093,157.211628 123.8,157.651163 129.230233,158.209302 C136.030233,158.906977 144.495349,159.767442 151.634884,162.953488 C163.844186,168.395349 189.332558,169.197674 192.344186,164.232558" id="Fill-25" fill="#B1834B" fill-rule="nonzero"></path>
                            <path d="M151.867442,162.418605 C144.648837,159.209302 136.134884,158.325581 129.286047,157.627907 C124.146512,157.104651 119.706977,156.653488 117.65814,155.337209 C107.15814,148.665116 105.925581,138.872093 113.867442,125.42093 C118.506977,117.560465 123.009302,114.839535 133.134884,113.767442 C158.704651,111.083721 187.344186,129.397674 190.693023,135.837209 C194.230233,142.651163 194.460465,159.604651 191.844186,163.930233 C189.227907,168.246512 164.497674,168.060465 151.867442,162.418605 Z M192.344186,164.232558 C193.57907,162.197674 194.216279,157.662791 194.216279,152.627907 C194.216279,146.430233 193.239535,139.490698 191.204651,135.569767 C187.82093,129.046512 158.881395,110.47907 133.07907,113.2 C122.730233,114.281395 118.123256,117.072093 113.367442,125.130233 C109.867442,131.060465 108.113953,136.293023 108.113953,140.883721 C108.113953,146.965116 111.183721,151.906977 117.344186,155.825581 C119.52093,157.211628 123.8,157.651163 129.230233,158.209302 C136.030233,158.906977 144.495349,159.767442 151.634884,162.953488 C163.844186,168.395349 189.332558,169.197674 192.344186,164.232558 Z" id="Stroke-27" stroke="#FEFEFE" stroke-linecap="round" stroke-linejoin="round"></path>
                            <path d="M61.3809302,30.7006977 C48.5669767,26.3402326 37.4972093,22.5727907 31.0088372,26.282093 C28.287907,27.8495349 26.5553488,30.5937209 25.7181395,34.6634884 C17.8693023,72.8611628 28.6251163,140.13093 33.9623256,153.861163 C34.9972093,156.514651 35.9623256,159.116977 36.904186,161.640233 C38.915814,167.012326 40.7995349,172.070465 42.8576744,176.535581 L42.8623256,176.535581 C48.0018605,187.675116 54.2576744,195.198372 66.2809302,195.15186 C67.9553488,195.15186 69.7925581,195.070465 71.7809302,194.954186 L71.7809302,194.95186 C73.7716279,194.847209 75.9251163,194.68907 78.2297674,194.528605 C99.6483721,193.005349 131.994884,190.716977 161.404186,210.749535 C171.46,217.598372 178.622791,223.856512 184.38093,228.865814 C198.750698,241.403023 204.694884,246.598372 225.253023,235.923953 C233.483256,231.679767 240.46,228.726279 246.611163,226.121628 C261.68093,219.737907 270.785581,215.891395 276.297209,201.88907 C277.820465,198.077442 278.485581,194.33093 278.485581,190.575116 C278.485581,185.972791 277.506512,181.354186 275.90186,176.542558 L274.785581,176.542558 C277.715814,185.214651 278.646047,193.216977 275.332093,201.505349 C269.971628,215.086744 261.032093,218.877442 246.206512,225.156512 C240.041395,227.772791 233.041395,230.740233 224.776279,234.996047 C204.843721,245.342558 199.053023,240.284419 185.066977,228.086744 C179.285581,223.040233 172.099535,216.775116 161.997209,209.88907 C132.285581,189.647209 99.715814,191.947209 78.16,193.482093 C75.8344186,193.644884 73.6576744,193.798372 71.66,193.914651 C69.7204651,194.023953 67.9204651,194.105349 66.2809302,194.105349 C55.0134884,194.15186 48.9786047,187.082093 44.0367442,176.535581 L44.032093,176.535581 C41.8925581,171.98907 39.9506977,166.814651 37.8925581,161.279767 C36.9390698,158.744884 35.9739535,156.140233 34.9390698,153.48907 C30.9739535,143.256512 23.9855814,103.233256 23.9855814,67.8030233 C23.9855814,55.8611628 24.7762791,44.454186 26.7413953,34.8751163 C27.1251163,32.9890698 27.7181395,31.4216279 28.5088372,30.154186 C29.2995349,28.8751163 30.3111628,27.8983721 31.532093,27.1983721 C37.6134884,23.71 48.4739535,27.4076744 61.0413953,31.6890698 C64.4483721,32.8495349 68.015814,34.065814 71.66,35.1867442 L71.66,35.2216279 C78.9855814,37.4774419 86.6483721,39.3844186 94.0437209,39.7913953 C100.494884,40.1518605 106.753023,40.0704651 112.797209,39.9774419 C134.776279,39.6751163 153.764651,39.4076744 173.322791,59.8611628 C183.634419,70.6425581 197.473953,80.2216279 210.846047,89.4774419 C231.832093,104.012326 251.657674,117.733256 257.529767,135.035581 C260.622791,144.093721 264.311163,152.163488 267.564651,159.279767 C270.378605,165.454186 272.971628,171.128605 274.785581,176.535581 L275.90186,176.535581 C274.053023,170.977442 271.404186,165.175116 268.51814,158.849535 C265.273953,151.744884 261.599535,143.698372 258.520465,134.698372 C252.541395,117.072791 232.576279,103.244884 211.448372,88.6169767 C198.099535,79.3867442 184.308837,69.837907 174.076279,59.1402326 C154.204186,38.3634884 134.078605,38.6402326 112.776279,38.9309302 C106.753023,39.0239535 100.520465,39.1053488 94.0995349,38.7448837 C86.7437209,38.3402326 79.1018605,36.4286047 71.7762791,34.1634884 L71.7762791,34.1309302 C68.2065116,33.0262791 64.7181395,31.837907 61.3809302,30.7006977" id="Fill-29" fill="#B1834B" fill-rule="nonzero"></path>
                            <path d="M61.3809302,30.7006977 C48.5669767,26.3402326 37.4972093,22.5727907 31.0088372,26.282093 C28.287907,27.8495349 26.5553488,30.5937209 25.7181395,34.6634884 C17.8693023,72.8611628 28.6251163,140.13093 33.9623256,153.861163 C34.9972093,156.514651 35.9623256,159.116977 36.904186,161.640233 C38.915814,167.012326 40.7995349,172.070465 42.8576744,176.535581 L42.8623256,176.535581 C48.0018605,187.675116 54.2576744,195.198372 66.2809302,195.15186 C67.9553488,195.15186 69.7925581,195.070465 71.7809302,194.954186 L71.7809302,194.95186 C73.7716279,194.847209 75.9251163,194.68907 78.2297674,194.528605 C99.6483721,193.005349 131.994884,190.716977 161.404186,210.749535 C171.46,217.598372 178.622791,223.856512 184.38093,228.865814 C198.750698,241.403023 204.694884,246.598372 225.253023,235.923953 C233.483256,231.679767 240.46,228.726279 246.611163,226.121628 C261.68093,219.737907 270.785581,215.891395 276.297209,201.88907 C277.820465,198.077442 278.485581,194.33093 278.485581,190.575116 C278.485581,185.972791 277.506512,181.354186 275.90186,176.542558 L274.785581,176.542558 C277.715814,185.214651 278.646047,193.216977 275.332093,201.505349 C269.971628,215.086744 261.032093,218.877442 246.206512,225.156512 C240.041395,227.772791 233.041395,230.740233 224.776279,234.996047 C204.843721,245.342558 199.053023,240.284419 185.066977,228.086744 C179.285581,223.040233 172.099535,216.775116 161.997209,209.88907 C132.285581,189.647209 99.715814,191.947209 78.16,193.482093 C75.8344186,193.644884 73.6576744,193.798372 71.66,193.914651 C69.7204651,194.023953 67.9204651,194.105349 66.2809302,194.105349 C55.0134884,194.15186 48.9786047,187.082093 44.0367442,176.535581 L44.032093,176.535581 C41.8925581,171.98907 39.9506977,166.814651 37.8925581,161.279767 C36.9390698,158.744884 35.9739535,156.140233 34.9390698,153.48907 C30.9739535,143.256512 23.9855814,103.233256 23.9855814,67.8030233 C23.9855814,55.8611628 24.7762791,44.454186 26.7413953,34.8751163 C27.1251163,32.9890698 27.7181395,31.4216279 28.5088372,30.154186 C29.2995349,28.8751163 30.3111628,27.8983721 31.532093,27.1983721 C37.6134884,23.71 48.4739535,27.4076744 61.0413953,31.6890698 C64.4483721,32.8495349 68.015814,34.065814 71.66,35.1867442 L71.66,35.2216279 C78.9855814,37.4774419 86.6483721,39.3844186 94.0437209,39.7913953 C100.494884,40.1518605 106.753023,40.0704651 112.797209,39.9774419 C134.776279,39.6751163 153.764651,39.4076744 173.322791,59.8611628 C183.634419,70.6425581 197.473953,80.2216279 210.846047,89.4774419 C231.832093,104.012326 251.657674,117.733256 257.529767,135.035581 C260.622791,144.093721 264.311163,152.163488 267.564651,159.279767 C270.378605,165.454186 272.971628,171.128605 274.785581,176.535581 L275.90186,176.535581 C274.053023,170.977442 271.404186,165.175116 268.51814,158.849535 C265.273953,151.744884 261.599535,143.698372 258.520465,134.698372 C252.541395,117.072791 232.576279,103.244884 211.448372,88.6169767 C198.099535,79.3867442 184.308837,69.837907 174.076279,59.1402326 C154.204186,38.3634884 134.078605,38.6402326 112.776279,38.9309302 C106.753023,39.0239535 100.520465,39.1053488 94.0995349,38.7448837 C86.7437209,38.3402326 79.1018605,36.4286047 71.7762791,34.1634884 L71.7762791,34.1309302 C68.2065116,33.0262791 64.7181395,31.837907 61.3809302,30.7006977 Z" id="Stroke-31" stroke="#FEFEFE" stroke-linecap="round" stroke-linejoin="round"></path>
                        </g>
                    </g>
                </g>
            </g>
        </g>
    </g>
</svg>