<?xml version="1.0" encoding="UTF-8"?>
<svg width="403px" height="433px" viewBox="0 0 403 433" version="1.1" xmlns="http://www.w3.org/2000/svg" xmlns:xlink="http://www.w3.org/1999/xlink">
    <!-- Generator: Sketch 50.2 (55047) - http://www.bohemiancoding.com/sketch -->
    <title>topo1</title>
    <desc>Created with Sketch.</desc>
    <defs></defs>
    <g id="Final-Designs/Responsive" stroke="none" stroke-width="1" fill="none" fill-rule="evenodd" opacity="0.5">
        <g id="GN-Design---R2-053018" transform="translate(-1046.000000, -1141.000000)">
            <g id="Survey" transform="translate(800.000000, 1302.500000) scale(-1, 1) translate(-800.000000, -1302.500000) translate(0.000000, 947.000000)">
                <g id="topo1" transform="translate(297.031476, 416.211763) rotate(25.000000) translate(-297.031476, -416.211763) translate(93.031476, 186.711763)">
                    <g opacity="0.6" id="topo_1">
                        <g>
                            <path d="M179.401809,456.857818 C161.814451,453.751865 148.504712,444.765187 139.861628,430.148409 C125.54792,405.963147 125.386569,366.982089 139.413428,325.870723 C151.77657,289.673387 151.41801,263.483129 138.321613,245.823054 C126.767024,230.241372 107.126911,223.132587 88.1322055,216.251155 C83.6412441,214.622096 78.9889307,212.939332 74.6234651,211.193911 C44.647866,199.226592 1.79100619,165.651862 1.79100619,122.508648 C1.79100619,118.185376 2.22127795,113.774385 3.13560543,109.261354 C6.73196021,91.6209708 17.2449335,76.6533187 32.7436807,67.1403295 C48.4844559,57.471595 67.7642162,54.7236766 85.6491789,59.6126441 C120.187451,69.0540264 169.417712,74.2634353 207.835601,45.4971153 C251.366554,12.8980309 321.436309,-10.9220359 365.548128,9.15656544 C389.983979,20.2717612 403.63435,43.2307539 406.108413,77.3872904 C410.805546,142.325884 383.036883,178.281546 353.64215,216.347824 C333.223963,242.790497 312.113755,270.124678 302.593992,308.165894 C290.044399,358.29079 274.438084,396.253238 256.205318,420.991665 C234.817226,450.01935 208.982993,462.085129 179.401809,456.857818 M256.922438,421.519766 C275.226915,396.68109 290.87805,358.621972 303.454535,308.382505 C312.936649,270.529257 333.993073,243.264894 354.352099,216.895618 C381.638499,181.566517 407.524724,148.036542 407.524724,91.5654754 C407.524724,86.9736768 407.354408,82.2297134 406.995848,77.3246343 C404.50565,42.811853 390.68317,19.6004456 365.924616,8.34203587 C321.490093,-11.8779893 251.033093,12.0208452 207.299554,44.7810453 C169.164927,73.3343345 120.221515,68.1410372 85.8822428,58.75157 C67.757045,53.8035267 48.2245,56.5765076 32.2793458,66.3687641 C16.5636699,76.0285477 5.90727267,91.1984895 2.25713393,109.082336 C-3.58739078,137.77884 10.5040093,161.158523 23.349414,175.712645 C39.394965,193.890081 60.1824693,206.396242 74.2917973,212.024552 C78.6733981,213.780714 83.3275042,215.463478 87.8274297,217.090747 C106.694846,223.931005 126.211256,230.993245 137.604494,246.361896 C150.512646,263.771347 150.826386,289.682338 138.572605,325.584295 C124.454313,366.939125 124.651521,406.195869 139.083553,430.595953 C147.877232,445.454404 161.384179,454.582506 179.249421,457.743955 C209.189165,463.033921 235.31921,450.842831 256.922438,421.519766" id="Fill-1" fill="#B1834B" fill-rule="nonzero"></path>
                            <path d="M179.401809,456.857818 C161.814451,453.751865 148.504712,444.765187 139.861628,430.148409 C125.54792,405.963147 125.386569,366.982089 139.413428,325.870723 C151.77657,289.673387 151.41801,263.483129 138.321613,245.823054 C126.767024,230.241372 107.126911,223.132587 88.1322055,216.251155 C83.6412441,214.622096 78.9889307,212.939332 74.6234651,211.193911 C44.647866,199.226592 1.79100619,165.651862 1.79100619,122.508648 C1.79100619,118.185376 2.22127795,113.774385 3.13560543,109.261354 C6.73196021,91.6209708 17.2449335,76.6533187 32.7436807,67.1403295 C48.4844559,57.471595 67.7642162,54.7236766 85.6491789,59.6126441 C120.187451,69.0540264 169.417712,74.2634353 207.835601,45.4971153 C251.366554,12.8980309 321.436309,-10.9220359 365.548128,9.15656544 C389.983979,20.2717612 403.63435,43.2307539 406.108413,77.3872904 C410.805546,142.325884 383.036883,178.281546 353.64215,216.347824 C333.223963,242.790497 312.113755,270.124678 302.593992,308.165894 C290.044399,358.29079 274.438084,396.253238 256.205318,420.991665 C234.817226,450.01935 208.982993,462.085129 179.401809,456.857818 Z M256.922438,421.519766 C275.226915,396.68109 290.87805,358.621972 303.454535,308.382505 C312.936649,270.529257 333.993073,243.264894 354.352099,216.895618 C381.638499,181.566517 407.524724,148.036542 407.524724,91.5654754 C407.524724,86.9736768 407.354408,82.2297134 406.995848,77.3246343 C404.50565,42.811853 390.68317,19.6004456 365.924616,8.34203587 C321.490093,-11.8779893 251.033093,12.0208452 207.299554,44.7810453 C169.164927,73.3343345 120.221515,68.1410372 85.8822428,58.75157 C67.757045,53.8035267 48.2245,56.5765076 32.2793458,66.3687641 C16.5636699,76.0285477 5.90727267,91.1984895 2.25713393,109.082336 C-3.58739078,137.77884 10.5040093,161.158523 23.349414,175.712645 C39.394965,193.890081 60.1824693,206.396242 74.2917973,212.024552 C78.6733981,213.780714 83.3275042,215.463478 87.8274297,217.090747 C106.694846,223.931005 126.211256,230.993245 137.604494,246.361896 C150.512646,263.771347 150.826386,289.682338 138.572605,325.584295 C124.454313,366.939125 124.651521,406.195869 139.083553,430.595953 C147.877232,445.454404 161.384179,454.582506 179.249421,457.743955 C209.189165,463.033921 235.31921,450.842831 256.922438,421.519766 Z" id="Stroke-3" stroke="#FEFEFE"></path>
                            <path d="M184.727677,432.305928 C150.117693,427.00701 132.566191,395.911673 137.781443,349.152305 C138.973654,338.178533 141.467438,326.667709 145.19646,314.934903 C150.870668,297.19248 153.515047,282.002846 153.057883,269.820706 C151.675635,233.025452 124.615127,222.409715 98.4402619,212.143062 C94.3975002,210.558757 90.2202785,208.920747 86.2940487,207.229032 C65.1121287,198.045435 12.4396944,163.29635 23.0530644,113.513377 C26.5221304,97.4304463 36.2659929,83.7517201 50.4918529,75.0067159 C64.9687048,66.1023861 82.7192075,63.4511371 99.1842735,67.7207042 C131.078167,75.9197051 176.487973,80.2608791 211.689581,54.4376066 C251.823179,25.0715781 316.310159,3.84726481 356.744948,22.3773649 C379.181827,32.6511785 391.794168,53.6230771 394.230582,84.6915619 C394.607069,89.4462664 394.788142,94.0452256 394.788142,98.4848593 C394.788142,149.639106 370.970808,180.39431 345.880586,212.814377 C327.226512,236.90118 307.944959,261.811464 298.514836,296.17208 C285.803892,342.537609 271.472256,376.049683 254.682694,398.641689 C234.75394,425.449558 211.879618,436.457343 184.727677,432.305928 M255.371129,399.142938 C272.216268,376.470374 286.601687,342.868791 299.341317,296.404803 C308.724827,262.196351 327.952596,237.357675 346.552885,213.333528 C371.739918,180.7971 395.639722,149.916583 395.639722,98.5117119 C395.639722,94.0362747 395.460442,89.4176236 395.083954,84.6199549 C392.618855,53.2202877 379.836199,32.0156664 357.103507,21.5968486 C316.36215,2.9432265 251.518404,24.2391468 211.180426,53.7483893 C176.254909,79.3836934 131.114023,75.0532604 99.3994093,66.8972237 C82.7084508,62.5650005 64.7195057,65.2592137 50.0436532,74.2816951 C35.6205853,83.1520115 25.7422629,97.0258668 22.2194128,113.33436 C21.3158421,117.594976 20.8676424,121.873494 20.8676424,126.143061 C20.8676424,142.585817 27.5260978,158.982029 40.5077553,174.198515 C54.5794346,190.696767 73.2155801,202.485068 85.9623809,208.007758 C89.8975747,209.706634 94.0837603,211.344644 98.1354861,212.93969 C124.050395,223.107883 150.850948,233.616209 152.204511,269.847558 C152.652711,281.94198 150.028053,297.024203 144.3897,314.673537 C140.64275,326.461839 138.132832,338.026368 136.931656,349.053846 C131.669791,396.321623 149.490213,427.767835 184.602181,433.14731 C211.709302,437.300516 235.51588,425.859508 255.371129,399.142938" id="Fill-5" fill="#B1834B" fill-rule="nonzero"></path>
                            <path d="M184.727677,432.305928 C150.117693,427.00701 132.566191,395.911673 137.781443,349.152305 C138.973654,338.178533 141.467438,326.667709 145.19646,314.934903 C150.870668,297.19248 153.515047,282.002846 153.057883,269.820706 C151.675635,233.025452 124.615127,222.409715 98.4402619,212.143062 C94.3975002,210.558757 90.2202785,208.920747 86.2940487,207.229032 C65.1121287,198.045435 12.4396944,163.29635 23.0530644,113.513377 C26.5221304,97.4304463 36.2659929,83.7517201 50.4918529,75.0067159 C64.9687048,66.1023861 82.7192075,63.4511371 99.1842735,67.7207042 C131.078167,75.9197051 176.487973,80.2608791 211.689581,54.4376066 C251.823179,25.0715781 316.310159,3.84726481 356.744948,22.3773649 C379.181827,32.6511785 391.794168,53.6230771 394.230582,84.6915619 C394.607069,89.4462664 394.788142,94.0452256 394.788142,98.4848593 C394.788142,149.639106 370.970808,180.39431 345.880586,212.814377 C327.226512,236.90118 307.944959,261.811464 298.514836,296.17208 C285.803892,342.537609 271.472256,376.049683 254.682694,398.641689 C234.75394,425.449558 211.879618,436.457343 184.727677,432.305928 Z M255.371129,399.142938 C272.216268,376.470374 286.601687,342.868791 299.341317,296.404803 C308.724827,262.196351 327.952596,237.357675 346.552885,213.333528 C371.739918,180.7971 395.639722,149.916583 395.639722,98.5117119 C395.639722,94.0362747 395.460442,89.4176236 395.083954,84.6199549 C392.618855,53.2202877 379.836199,32.0156664 357.103507,21.5968486 C316.36215,2.9432265 251.518404,24.2391468 211.180426,53.7483893 C176.254909,79.3836934 131.114023,75.0532604 99.3994093,66.8972237 C82.7084508,62.5650005 64.7195057,65.2592137 50.0436532,74.2816951 C35.6205853,83.1520115 25.7422629,97.0258668 22.2194128,113.33436 C21.3158421,117.594976 20.8676424,121.873494 20.8676424,126.143061 C20.8676424,142.585817 27.5260978,158.982029 40.5077553,174.198515 C54.5794346,190.696767 73.2155801,202.485068 85.9623809,208.007758 C89.8975747,209.706634 94.0837603,211.344644 98.1354861,212.93969 C124.050395,223.107883 150.850948,233.616209 152.204511,269.847558 C152.652711,281.94198 150.028053,297.024203 144.3897,314.673537 C140.64275,326.461839 138.132832,338.026368 136.931656,349.053846 C131.669791,396.321623 149.490213,427.767835 184.602181,433.14731 C211.709302,437.300516 235.51588,425.859508 255.371129,399.142938 Z" id="Stroke-7" stroke="#FEFEFE"></path>
                            <path d="M190.051932,407.743476 C158.767589,403.849845 141.951135,376.784191 145.097497,335.350594 C145.841509,325.504632 147.878128,314.656173 150.977878,303.995681 C155.836363,287.472367 158.158038,273.061459 157.69191,262.311459 C156.230779,228.548761 131.113665,217.711043 108.965426,208.151509 C105.127044,206.493807 101.50559,204.936355 97.9755684,203.262541 C73.772782,191.78752 41.5992114,163.83573 41.5992114,129.840309 C41.5992114,125.892974 42.0312759,121.86508 42.9635314,117.76558 C46.2425607,103.33677 55.1348437,90.9935145 67.9892125,83.0272363 C81.2487538,74.8085435 97.5524678,72.1877275 112.719547,75.8307334 C154.554512,85.8915161 190.11468,81.5861456 215.545533,63.3800671 C252.279985,37.2435141 311.173431,18.6167445 347.932982,35.5965532 C368.379854,45.0307747 379.963129,64.0066284 382.365479,91.9870616 C382.758102,96.6236145 382.95531,101.099052 382.95531,105.402632 C382.95531,151.55513 361.101091,179.678778 338.072587,209.313332 C321.202349,231.037104 303.751244,253.503799 294.453788,284.187396 C281.744636,326.077488 268.243067,356.206131 253.16742,376.282942 C234.986646,400.484316 214.344358,410.777822 190.051932,407.743476 M253.811035,376.764499 C268.944051,356.616081 282.488648,326.40688 295.224692,284.420119 C304.484498,253.879736 321.883613,231.475697 338.709031,209.816371 C361.820003,180.061875 383.753106,151.812916 383.76207,105.440226 C383.76207,101.090101 383.564862,96.5949717 383.170446,91.9154546 C380.741203,63.6306916 368.99837,44.4310662 348.273614,34.8625815 C326.340511,24.7391426 299.751509,27.98831 281.312571,32.4995507 C258.293032,38.1386015 234.154787,49.1481769 215.070442,62.7248631 C189.836796,80.7895178 154.509692,85.0501339 112.918548,75.0520073 C97.5363326,71.3552962 81.006726,74.0137059 67.5696975,82.338019 C54.5252921,90.4296094 45.509306,102.941142 42.1746998,117.586562 C37.9616222,136.139935 43.2951992,155.198136 57.6106991,172.695305 C69.7551195,187.535855 86.250663,198.590185 97.6331438,203.989352 C101.175715,205.670326 104.80434,207.236729 108.64093,208.892641 C131.651505,218.819161 155.441947,229.085814 156.88515,262.347263 C157.351278,273.007754 155.038567,287.329153 150.206974,303.771909 C147.087504,314.486106 145.045506,325.388271 144.29253,335.286148 C142.804507,354.917205 145.778761,371.922076 152.896173,384.472992 C160.784488,398.364749 173.244441,406.463501 189.953328,408.549054 C214.559494,411.610253 235.443809,401.218288 253.811035,376.764499" id="Fill-9" fill="#B1834B" fill-rule="nonzero"></path>
                            <path d="M190.051932,407.743476 C158.767589,403.849845 141.951135,376.784191 145.097497,335.350594 C145.841509,325.504632 147.878128,314.656173 150.977878,303.995681 C155.836363,287.472367 158.158038,273.061459 157.69191,262.311459 C156.230779,228.548761 131.113665,217.711043 108.965426,208.151509 C105.127044,206.493807 101.50559,204.936355 97.9755684,203.262541 C73.772782,191.78752 41.5992114,163.83573 41.5992114,129.840309 C41.5992114,125.892974 42.0312759,121.86508 42.9635314,117.76558 C46.2425607,103.33677 55.1348437,90.9935145 67.9892125,83.0272363 C81.2487538,74.8085435 97.5524678,72.1877275 112.719547,75.8307334 C154.554512,85.8915161 190.11468,81.5861456 215.545533,63.3800671 C252.279985,37.2435141 311.173431,18.6167445 347.932982,35.5965532 C368.379854,45.0307747 379.963129,64.0066284 382.365479,91.9870616 C382.758102,96.6236145 382.95531,101.099052 382.95531,105.402632 C382.95531,151.55513 361.101091,179.678778 338.072587,209.313332 C321.202349,231.037104 303.751244,253.503799 294.453788,284.187396 C281.744636,326.077488 268.243067,356.206131 253.16742,376.282942 C234.986646,400.484316 214.344358,410.777822 190.051932,407.743476 Z M253.811035,376.764499 C268.944051,356.616081 282.488648,326.40688 295.224692,284.420119 C304.484498,253.879736 321.883613,231.475697 338.709031,209.816371 C361.820003,180.061875 383.753106,151.812916 383.76207,105.440226 C383.76207,101.090101 383.564862,96.5949717 383.170446,91.9154546 C380.741203,63.6306916 368.99837,44.4310662 348.273614,34.8625815 C326.340511,24.7391426 299.751509,27.98831 281.312571,32.4995507 C258.293032,38.1386015 234.154787,49.1481769 215.070442,62.7248631 C189.836796,80.7895178 154.509692,85.0501339 112.918548,75.0520073 C97.5363326,71.3552962 81.006726,74.0137059 67.5696975,82.338019 C54.5252921,90.4296094 45.509306,102.941142 42.1746998,117.586562 C37.9616222,136.139935 43.2951992,155.198136 57.6106991,172.695305 C69.7551195,187.535855 86.250663,198.590185 97.6331438,203.989352 C101.175715,205.670326 104.80434,207.236729 108.64093,208.892641 C131.651505,218.819161 155.441947,229.085814 156.88515,262.347263 C157.351278,273.007754 155.038567,287.329153 150.206974,303.771909 C147.087504,314.486106 145.045506,325.388271 144.29253,335.286148 C142.804507,354.917205 145.778761,371.922076 152.896173,384.472992 C160.784488,398.364749 173.244441,406.463501 189.953328,408.549054 C214.559494,411.610253 235.443809,401.218288 253.811035,376.764499 Z" id="Stroke-11" stroke="#FEFEFE"></path>
                            <path d="M195.376007,383.191406 C166.888431,380.649358 151.219368,358.191614 152.411579,321.555685 C152.689463,312.776668 154.195414,302.921755 156.769873,293.056102 C160.821599,277.68924 162.800849,264.101813 162.334721,254.801855 C160.78395,224.055601 138.813199,213.475668 119.434834,204.148857 C116.01776,202.501896 112.792514,200.944444 109.655116,199.288532 C88.0698161,187.885118 53.9169954,158.778665 62.8720263,122.015634 C69.5053826,94.8139267 97.9373818,77.7374486 126.263606,83.9404045 C164.711973,92.3631773 196.048306,88.449855 219.399513,72.3221696 C236.655204,60.399605 258.410819,50.8221695 279.079999,46.0513534 C295.575542,42.2472318 319.374949,39.6156748 339.024026,48.7545175 C357.532883,57.3455667 368.119361,74.3522279 370.496612,99.2893639 C370.916127,103.802395 371.122299,108.134618 371.122299,112.305725 C371.122299,153.479747 351.197131,179.005851 330.221383,205.894277 C315.126015,225.228166 299.528664,245.215468 290.385389,272.193404 C270.940691,329.539865 244.453879,387.568384 195.376007,383.191406 M291.102509,272.435077 C300.209928,245.582454 315.76963,225.639906 330.821971,206.361513 C351.887359,179.372837 371.884239,153.737533 371.884239,112.330788 C371.884239,108.125667 371.67986,103.764801 371.249588,99.2195471 C368.856201,73.994193 358.115542,56.7834518 339.34673,48.0653002 C319.498652,38.8369487 295.519966,41.4774566 278.902512,45.3084309 C258.150863,50.1060995 236.296644,59.7193386 218.960278,71.7045593 C195.797315,87.6997718 164.66536,91.5755004 126.424958,83.197482 C97.6971467,76.9139682 68.859975,94.2428609 62.1369787,121.838407 C61.1132905,126.018465 60.6489556,130.098273 60.6489556,134.065301 C60.6489556,165.427374 89.9594263,189.7469 109.294763,199.968799 C112.441126,201.62471 115.678921,203.182162 119.101374,204.829123 C138.293287,214.066426 160.039939,224.538949 161.574575,254.837658 C162.03891,264.06601 160.068624,277.572879 156.025862,292.860973 C153.442438,302.787492 151.93828,312.69611 151.64964,321.530623 C150.448464,358.614095 166.359555,381.365428 195.304295,383.954021 C244.911043,388.375753 271.569964,330.059016 291.102509,272.435077" id="Fill-13" fill="#B1834B" fill-rule="nonzero"></path>
                            <path d="M195.376007,383.191406 C166.888431,380.649358 151.219368,358.191614 152.411579,321.555685 C152.689463,312.776668 154.195414,302.921755 156.769873,293.056102 C160.821599,277.68924 162.800849,264.101813 162.334721,254.801855 C160.78395,224.055601 138.813199,213.475668 119.434834,204.148857 C116.01776,202.501896 112.792514,200.944444 109.655116,199.288532 C88.0698161,187.885118 53.9169954,158.778665 62.8720263,122.015634 C69.5053826,94.8139267 97.9373818,77.7374486 126.263606,83.9404045 C164.711973,92.3631773 196.048306,88.449855 219.399513,72.3221696 C236.655204,60.399605 258.410819,50.8221695 279.079999,46.0513534 C295.575542,42.2472318 319.374949,39.6156748 339.024026,48.7545175 C357.532883,57.3455667 368.119361,74.3522279 370.496612,99.2893639 C370.916127,103.802395 371.122299,108.134618 371.122299,112.305725 C371.122299,153.479747 351.197131,179.005851 330.221383,205.894277 C315.126015,225.228166 299.528664,245.215468 290.385389,272.193404 C270.940691,329.539865 244.453879,387.568384 195.376007,383.191406 Z M291.102509,272.435077 C300.209928,245.582454 315.76963,225.639906 330.821971,206.361513 C351.887359,179.372837 371.884239,153.737533 371.884239,112.330788 C371.884239,108.125667 371.67986,103.764801 371.249588,99.2195471 C368.856201,73.994193 358.115542,56.7834518 339.34673,48.0653002 C319.498652,38.8369487 295.519966,41.4774566 278.902512,45.3084309 C258.150863,50.1060995 236.296644,59.7193386 218.960278,71.7045593 C195.797315,87.6997718 164.66536,91.5755004 126.424958,83.197482 C97.6971467,76.9139682 68.859975,94.2428609 62.1369787,121.838407 C61.1132905,126.018465 60.6489556,130.098273 60.6489556,134.065301 C60.6489556,165.427374 89.9594263,189.7469 109.294763,199.968799 C112.441126,201.62471 115.678921,203.182162 119.101374,204.829123 C138.293287,214.066426 160.039939,224.538949 161.574575,254.837658 C162.03891,264.06601 160.068624,277.572879 156.025862,292.860973 C153.442438,302.787492 151.93828,312.69611 151.64964,321.530623 C150.448464,358.614095 166.359555,381.365428 195.304295,383.954021 C244.911043,388.375753 271.569964,330.059016 291.102509,272.435077 Z" id="Stroke-15" stroke="#FEFEFE"></path>
                            <path d="M200.691297,358.639516 C175.40566,357.520657 160.478816,338.976235 159.718669,307.753795 C159.539389,300.102588 160.541564,290.990598 162.551292,282.11133 C165.857213,267.449798 167.434876,255.0779 166.968748,247.292429 C165.328337,219.598424 146.541597,209.295968 129.958206,200.201879 C126.935547,198.545968 124.086789,196.979565 121.33305,195.332604 C101.712658,183.508499 81.3016414,162.160663 81.3016414,137.646009 C81.3016414,133.911704 81.7677691,130.118323 82.7878717,126.267657 C89.0537042,102.54784 114.629775,87.2078317 139.79888,92.0502547 C174.347909,98.7007544 202.423141,95.0738601 223.244709,81.273402 C253.749183,61.0533769 300.272317,47.9224442 330.176204,61.9484643 C346.714775,69.6999215 356.288322,84.7176985 358.61896,106.584685 C359.085088,110.954501 359.309188,115.150671 359.309188,119.169614 C359.309188,155.456458 341.264666,178.4065 322.268168,202.582812 C308.98532,219.482063 295.25248,236.96312 286.315377,260.19959 C273.281728,294.094761 262.121555,316.113912 250.145657,331.582813 C235.40885,350.612372 219.228839,359.454046 200.691297,358.639516 M250.710389,332.021406 C262.74007,316.50059 273.927136,294.427734 286.987677,260.459165 C295.87996,237.312204 309.585908,219.884852 322.834692,203.021405 C341.910074,178.757375 360.026308,155.699922 360.026308,119.196466 C360.026308,115.14172 359.802208,110.916908 359.334287,106.513078 C356.969585,84.3793554 347.261579,69.1718199 330.48098,61.2932603 C300.335065,47.1616199 253.51612,60.3462578 222.850293,80.6736934 C202.188284,94.3774821 174.292332,97.9667827 139.93334,91.3502964 C127.598882,88.9693638 114.834154,91.1981315 103.989513,97.6159084 C92.9996548,104.114243 85.2278712,114.230521 82.0904729,126.081479 C74.2720765,155.653378 98.1539519,182.19451 120.965526,195.941263 C123.726437,197.606126 126.587744,199.172529 129.615781,200.828441 C146.030649,209.83302 164.639902,220.037017 166.251629,247.337184 C166.710585,255.061788 165.15085,267.351339 161.841343,281.959166 C159.824444,290.892138 158.82227,300.056043 159.010514,307.773487 C159.772453,339.414828 174.957461,358.220615 200.664405,359.355586 C219.452939,360.188017 235.821194,351.246094 250.710389,332.021406" id="Fill-17" fill="#B1834B" fill-rule="nonzero"></path>
                            <path d="M200.691297,358.639516 C175.40566,357.520657 160.478816,338.976235 159.718669,307.753795 C159.539389,300.102588 160.541564,290.990598 162.551292,282.11133 C165.857213,267.449798 167.434876,255.0779 166.968748,247.292429 C165.328337,219.598424 146.541597,209.295968 129.958206,200.201879 C126.935547,198.545968 124.086789,196.979565 121.33305,195.332604 C101.712658,183.508499 81.3016414,162.160663 81.3016414,137.646009 C81.3016414,133.911704 81.7677691,130.118323 82.7878717,126.267657 C89.0537042,102.54784 114.629775,87.2078317 139.79888,92.0502547 C174.347909,98.7007544 202.423141,95.0738601 223.244709,81.273402 C253.749183,61.0533769 300.272317,47.9224442 330.176204,61.9484643 C346.714775,69.6999215 356.288322,84.7176985 358.61896,106.584685 C359.085088,110.954501 359.309188,115.150671 359.309188,119.169614 C359.309188,155.456458 341.264666,178.4065 322.268168,202.582812 C308.98532,219.482063 295.25248,236.96312 286.315377,260.19959 C273.281728,294.094761 262.121555,316.113912 250.145657,331.582813 C235.40885,350.612372 219.228839,359.454046 200.691297,358.639516 Z M250.710389,332.021406 C262.74007,316.50059 273.927136,294.427734 286.987677,260.459165 C295.87996,237.312204 309.585908,219.884852 322.834692,203.021405 C341.910074,178.757375 360.026308,155.699922 360.026308,119.196466 C360.026308,115.14172 359.802208,110.916908 359.334287,106.513078 C356.969585,84.3793554 347.261579,69.1718199 330.48098,61.2932603 C300.335065,47.1616199 253.51612,60.3462578 222.850293,80.6736934 C202.188284,94.3774821 174.292332,97.9667827 139.93334,91.3502964 C127.598882,88.9693638 114.834154,91.1981315 103.989513,97.6159084 C92.9996548,104.114243 85.2278712,114.230521 82.0904729,126.081479 C74.2720765,155.653378 98.1539519,182.19451 120.965526,195.941263 C123.726437,197.606126 126.587744,199.172529 129.615781,200.828441 C146.030649,209.83302 164.639902,220.037017 166.251629,247.337184 C166.710585,255.061788 165.15085,267.351339 161.841343,281.959166 C159.824444,290.892138 158.82227,300.056043 159.010514,307.773487 C159.772453,339.414828 174.957461,358.220615 200.664405,359.355586 C219.452939,360.188017 235.821194,351.246094 250.710389,332.021406 Z" id="Stroke-19" stroke="#FEFEFE"></path>
                            <path d="M206.00856,334.087447 C183.517897,334.420419 169.675696,320.161676 167.03311,293.942775 C166.378738,287.43549 166.834109,279.345689 168.331096,271.171751 C170.876871,257.174374 172.043983,246.030535 171.611918,239.781035 C169.88366,215.203724 154.304237,205.196646 140.542712,196.360343 C137.900126,194.661467 135.388415,193.05031 133.023713,191.367545 C122.643407,184.009927 101.040179,165.803848 101.040179,141.931866 C101.040179,138.253057 101.551127,134.441775 102.698518,130.519502 C108.704395,109.92354 130.944066,96.5867369 153.34509,100.158136 C184.432224,105.11871 208.563298,101.858802 227.10084,90.2137143 C254.044816,73.2876109 295.055093,62.6736641 321.319598,75.1332812 C335.88609,82.0505169 344.446705,95.08299 346.750452,113.888777 C347.288291,118.249643 347.539283,122.401058 347.539283,126.357345 C347.539283,157.452682 331.924004,177.099852 314.157366,199.459136 C302.710345,213.870043 290.877871,228.773249 282.245544,248.203807 C263.071559,291.375664 241.396619,333.559345 206.00856,334.087447 M206.017524,334.758762 C221.865867,334.526039 235.975195,326.318088 249.168403,309.669461 C262.219979,293.219545 273.523577,269.508678 282.86406,248.474124 C291.460531,229.122333 303.266112,214.254931 314.686242,199.879827 C331.861256,178.263465 348.184691,157.714048 348.184691,126.017212 C348.184691,122.125372 347.942663,118.059884 347.413787,113.808219 C345.083149,94.7625487 336.397038,81.5510581 321.606446,74.5335727 C295.126805,61.9647549 253.840437,72.6162954 226.740487,89.6498093 C208.348163,101.205388 184.369476,104.427703 153.452657,99.495771 C130.719966,95.8724571 108.148627,109.41334 102.05311,130.333323 C93.3580353,160.175538 120.536868,183.338611 132.627504,191.913549 C135.011927,193.605264 137.523638,195.216421 140.185945,196.926038 C153.802253,205.671043 169.23646,215.588611 170.939619,239.827579 C171.371683,246.021584 170.213535,257.111717 167.667761,271.046439 C166.161809,279.283033 165.706439,287.43549 166.369774,294.014382 C169.050009,320.625332 183.130652,335.091735 206.017524,334.758762" id="Fill-21" fill="#B1834B" fill-rule="nonzero"></path>
                            <path d="M206.00856,334.087447 C183.517897,334.420419 169.675696,320.161676 167.03311,293.942775 C166.378738,287.43549 166.834109,279.345689 168.331096,271.171751 C170.876871,257.174374 172.043983,246.030535 171.611918,239.781035 C169.88366,215.203724 154.304237,205.196646 140.542712,196.360343 C137.900126,194.661467 135.388415,193.05031 133.023713,191.367545 C122.643407,184.009927 101.040179,165.803848 101.040179,141.931866 C101.040179,138.253057 101.551127,134.441775 102.698518,130.519502 C108.704395,109.92354 130.944066,96.5867369 153.34509,100.158136 C184.432224,105.11871 208.563298,101.858802 227.10084,90.2137143 C254.044816,73.2876109 295.055093,62.6736641 321.319598,75.1332812 C335.88609,82.0505169 344.446705,95.08299 346.750452,113.888777 C347.288291,118.249643 347.539283,122.401058 347.539283,126.357345 C347.539283,157.452682 331.924004,177.099852 314.157366,199.459136 C302.710345,213.870043 290.877871,228.773249 282.245544,248.203807 C263.071559,291.375664 241.396619,333.559345 206.00856,334.087447 Z M206.017524,334.758762 C221.865867,334.526039 235.975195,326.318088 249.168403,309.669461 C262.219979,293.219545 273.523577,269.508678 282.86406,248.474124 C291.460531,229.122333 303.266112,214.254931 314.686242,199.879827 C331.861256,178.263465 348.184691,157.714048 348.184691,126.017212 C348.184691,122.125372 347.942663,118.059884 347.413787,113.808219 C345.083149,94.7625487 336.397038,81.5510581 321.606446,74.5335727 C295.126805,61.9647549 253.840437,72.6162954 226.740487,89.6498093 C208.348163,101.205388 184.369476,104.427703 153.452657,99.495771 C130.719966,95.8724571 108.148627,109.41334 102.05311,130.333323 C93.3580353,160.175538 120.536868,183.338611 132.627504,191.913549 C135.011927,193.605264 137.523638,195.216421 140.185945,196.926038 C153.802253,205.671043 169.23646,215.588611 170.939619,239.827579 C171.371683,246.021584 170.213535,257.111717 167.667761,271.046439 C166.161809,279.283033 165.706439,287.43549 166.369774,294.014382 C169.050009,320.625332 183.130652,335.091735 206.017524,334.758762 Z" id="Stroke-23" stroke="#FEFEFE"></path>
                            <path d="M174.338586,280.132292 C173.236015,274.896031 173.155339,267.638662 174.114487,260.225548 C175.968241,245.859394 176.64054,236.981917 176.246125,232.273757 C174.446154,210.916971 162.102733,201.232125 151.211479,192.700152 C148.898769,190.884914 146.720518,189.182458 144.703619,187.410185 C124.407342,169.617637 116.977983,151.903856 122.607372,134.771883 C128.3264,117.389285 147.356962,105.994822 166.889507,108.268344 C184.234837,110.291242 209.746366,111.544364 230.953386,99.1563539 C253.587473,85.9448633 288.744261,76.9134311 312.445064,88.316845 C325.057405,94.3855379 332.605088,105.448819 334.881943,121.193407 C339.731464,154.70548 323.972761,174.180792 305.731032,196.728045 C296.193341,208.527088 286.323982,220.718178 278.184675,236.201401 C257.182035,276.141992 238.922377,306.904357 211.32403,309.535914 C191.58352,311.415598 178.791899,301.247405 174.338586,280.132292 M211.386778,310.155315 C239.298865,307.495115 257.649955,276.605648 278.740443,236.49678 C286.852858,221.067262 296.695325,208.892283 306.224051,197.123674 C322.269602,177.288536 336.396858,159.816429 336.396858,133.115971 C336.396858,129.31185 336.11001,125.31976 335.500459,121.103898 C333.187748,105.135538 325.523532,93.9183022 312.722948,87.75294 C288.815973,76.2510664 253.408193,85.3183021 230.630682,98.6175112 C209.593979,110.908852 184.216909,109.655729 166.961219,107.650734 C147.141826,105.341408 127.824417,116.914889 122.013955,134.573173 C116.296719,151.966513 123.790619,169.904065 144.291275,187.886371 C146.326102,189.658644 148.504353,191.377212 150.826028,193.19424 C161.616885,201.651026 173.845567,211.239202 175.620438,232.327462 C176.014853,236.989078 175.33359,245.834332 173.485214,260.14499 C172.517103,267.629711 172.606743,274.958687 173.727242,280.266555 C178.191311,301.428212 191.565592,312.042159 211.386778,310.155315" id="Fill-25" fill="#B1834B" fill-rule="nonzero"></path>
                            <path d="M174.338586,280.132292 C173.236015,274.896031 173.155339,267.638662 174.114487,260.225548 C175.968241,245.859394 176.64054,236.981917 176.246125,232.273757 C174.446154,210.916971 162.102733,201.232125 151.211479,192.700152 C148.898769,190.884914 146.720518,189.182458 144.703619,187.410185 C124.407342,169.617637 116.977983,151.903856 122.607372,134.771883 C128.3264,117.389285 147.356962,105.994822 166.889507,108.268344 C184.234837,110.291242 209.746366,111.544364 230.953386,99.1563539 C253.587473,85.9448633 288.744261,76.9134311 312.445064,88.316845 C325.057405,94.3855379 332.605088,105.448819 334.881943,121.193407 C339.731464,154.70548 323.972761,174.180792 305.731032,196.728045 C296.193341,208.527088 286.323982,220.718178 278.184675,236.201401 C257.182035,276.141992 238.922377,306.904357 211.32403,309.535914 C191.58352,311.415598 178.791899,301.247405 174.338586,280.132292 Z M211.386778,310.155315 C239.298865,307.495115 257.649955,276.605648 278.740443,236.49678 C286.852858,221.067262 296.695325,208.892283 306.224051,197.123674 C322.269602,177.288536 336.396858,159.816429 336.396858,133.115971 C336.396858,129.31185 336.11001,125.31976 335.500459,121.103898 C333.187748,105.135538 325.523532,93.9183022 312.722948,87.75294 C288.815973,76.2510664 253.408193,85.3183021 230.630682,98.6175112 C209.593979,110.908852 184.216909,109.655729 166.961219,107.650734 C147.141826,105.341408 127.824417,116.914889 122.013955,134.573173 C116.296719,151.966513 123.790619,169.904065 144.291275,187.886371 C146.326102,189.658644 148.504353,191.377212 150.826028,193.19424 C161.616885,201.651026 173.845567,211.239202 175.620438,232.327462 C176.014853,236.989078 175.33359,245.834332 173.485214,260.14499 C172.517103,267.629711 172.606743,274.958687 173.727242,280.266555 C178.191311,301.428212 191.565592,312.042159 211.386778,310.155315 Z" id="Stroke-27" stroke="#FEFEFE"></path>
                            <path d="M181.642808,266.312679 C180.102794,262.293737 179.464557,256.08183 179.887658,249.279165 C179.993433,247.560597 180.111758,245.85098 180.217533,244.177167 C180.775093,235.646984 181.248392,228.289365 180.889832,224.76272 C179.036078,206.809057 169.962723,197.562804 161.959668,189.397816 C159.94994,187.358807 158.06033,185.423628 156.393027,183.465176 C149.481787,175.328832 135.092782,158.384826 142.516763,139.024085 C147.920259,124.933619 163.868999,115.400938 180.432669,116.378373 C196.605508,117.325376 217.400184,117.237657 234.799298,108.107765 C253.919499,98.0738351 283.581359,91.7187143 303.535211,101.484118 C314.200573,106.702478 320.755046,115.796566 323.01218,128.497857 C328.094765,157.174668 314.175473,173.805393 296.543295,194.857849 C289.076288,203.77292 281.358288,212.98337 274.124344,224.207766 L273.505828,225.1673 C253.569904,256.072879 237.820164,280.490864 216.631073,284.984203 C199.768006,288.555602 187.666613,282.102022 181.642808,266.312679 M216.754776,285.557059 C238.178724,281.010015 253.98404,256.504311 273.998848,225.47879 L274.6084,224.521047 C281.83338,213.323503 289.533451,204.132745 296.982531,195.233786 C312.19443,177.072462 324.654383,162.188948 324.654383,140.062387 C324.654383,136.383577 324.313752,132.5168 323.578704,128.390447 C321.292885,115.501187 314.632637,106.263885 303.795167,100.964968 C283.653071,91.1100549 253.776075,97.4902381 234.530378,107.588615 C217.25676,116.65406 196.558896,116.734618 180.470318,115.796566 C163.653863,114.81197 147.464888,124.495026 141.978923,138.816425 C134.431239,158.499398 148.961875,175.613469 155.953791,183.841113 C157.628266,185.817466 159.530425,187.759806 161.536567,189.811346 C169.48046,197.901147 178.469554,207.066842 180.308966,224.816426 C180.665733,228.300106 180.190641,235.638033 179.636666,244.132413 C179.527305,245.815177 179.42153,247.524794 179.312169,249.243362 C178.881898,256.128374 179.536269,262.428 181.096004,266.518549 C187.245305,282.612221 199.570798,289.191114 216.754776,285.557059" id="Fill-29" fill="#B1834B" fill-rule="nonzero"></path>
                            <path d="M181.642808,266.312679 C180.102794,262.293737 179.464557,256.08183 179.887658,249.279165 C179.993433,247.560597 180.111758,245.85098 180.217533,244.177167 C180.775093,235.646984 181.248392,228.289365 180.889832,224.76272 C179.036078,206.809057 169.962723,197.562804 161.959668,189.397816 C159.94994,187.358807 158.06033,185.423628 156.393027,183.465176 C149.481787,175.328832 135.092782,158.384826 142.516763,139.024085 C147.920259,124.933619 163.868999,115.400938 180.432669,116.378373 C196.605508,117.325376 217.400184,117.237657 234.799298,108.107765 C253.919499,98.0738351 283.581359,91.7187143 303.535211,101.484118 C314.200573,106.702478 320.755046,115.796566 323.01218,128.497857 C328.094765,157.174668 314.175473,173.805393 296.543295,194.857849 C289.076288,203.77292 281.358288,212.98337 274.124344,224.207766 L273.505828,225.1673 C253.569904,256.072879 237.820164,280.490864 216.631073,284.984203 C199.768006,288.555602 187.666613,282.102022 181.642808,266.312679 Z M216.754776,285.557059 C238.178724,281.010015 253.98404,256.504311 273.998848,225.47879 L274.6084,224.521047 C281.83338,213.323503 289.533451,204.132745 296.982531,195.233786 C312.19443,177.072462 324.654383,162.188948 324.654383,140.062387 C324.654383,136.383577 324.313752,132.5168 323.578704,128.390447 C321.292885,115.501187 314.632637,106.263885 303.795167,100.964968 C283.653071,91.1100549 253.776075,97.4902381 234.530378,107.588615 C217.25676,116.65406 196.558896,116.734618 180.470318,115.796566 C163.653863,114.81197 147.464888,124.495026 141.978923,138.816425 C134.431239,158.499398 148.961875,175.613469 155.953791,183.841113 C157.628266,185.817466 159.530425,187.759806 161.536567,189.811346 C169.48046,197.901147 178.469554,207.066842 180.308966,224.816426 C180.665733,228.300106 180.190641,235.638033 179.636666,244.132413 C179.527305,245.815177 179.42153,247.524794 179.312169,249.243362 C178.881898,256.128374 179.536269,262.428 181.096004,266.518549 C187.245305,282.612221 199.570798,289.191114 216.754776,285.557059 Z" id="Stroke-31" stroke="#FEFEFE"></path>
                            <path d="M188.931432,252.484294 C187.004173,249.682671 185.820926,244.526967 185.668538,238.332962 C185.569934,234.186917 185.614754,230.062354 185.65061,226.417558 C185.704394,222.194536 185.74025,218.86481 185.525114,217.242912 C183.669567,203.102321 177.618871,194.151446 172.760385,186.962104 C171.02137,184.377091 169.371995,181.942454 168.08118,179.534668 L167.552304,178.541121 C162.666927,169.438082 155.979787,156.971304 162.424899,143.283627 C167.570232,132.363561 180.254285,124.810813 193.976369,124.486791 C208.885285,124.128756 224.617096,123.269472 238.643956,117.050405 C254.673371,109.952361 278.166209,106.441829 294.534464,114.597865 C303.312008,118.973053 308.894784,126.106899 311.135783,135.800696 C316.818955,160.299239 303.392684,175.068182 284.80853,195.503028 C280.059405,200.730339 275.147136,206.125926 270.064551,212.20536 C266.907432,215.971888 263.924214,219.625635 261.037808,223.141538 C246.263351,241.170389 234.602987,255.41123 221.927898,260.439832 C207.558614,266.15228 196.452224,263.475968 188.931432,252.484294 M222.125106,260.942871 C234.923898,255.858774 246.632668,241.571388 261.448359,223.483462 C264.343729,219.965768 267.328739,216.322762 270.475102,212.543703 C275.557687,206.4768 280.462785,201.079423 285.202945,195.870014 C300.936549,178.559023 313.000294,165.293827 313.000294,146.756567 C313.000294,143.274676 312.571815,139.604818 311.666451,135.684335 C309.380632,125.820472 303.69746,118.570263 294.776492,114.121679 C278.246885,105.886874 254.564011,109.413519 238.42882,116.565267 C223.326281,123.253361 205.658247,123.672262 193.969197,123.949739 C180.039149,124.27197 167.166853,131.95182 161.940844,143.059856 C155.379199,156.978465 162.424899,170.109398 167.077213,178.791746 L167.606088,179.785293 C168.905868,182.219931 170.564207,184.663519 172.312186,187.259273 C177.143779,194.402071 183.149656,203.29745 184.987275,217.314519 C185.20241,218.889873 185.166554,222.212437 185.11277,226.410397 C185.076915,230.053403 185.032095,234.186917 185.130698,238.349074 C185.283086,244.632587 186.50219,249.906443 188.483233,252.788624 C196.17434,264.01123 207.486902,266.760939 222.125106,260.942871" id="Fill-33" fill="#B1834B" fill-rule="nonzero"></path>
                            <path d="M188.931432,252.484294 C187.004173,249.682671 185.820926,244.526967 185.668538,238.332962 C185.569934,234.186917 185.614754,230.062354 185.65061,226.417558 C185.704394,222.194536 185.74025,218.86481 185.525114,217.242912 C183.669567,203.102321 177.618871,194.151446 172.760385,186.962104 C171.02137,184.377091 169.371995,181.942454 168.08118,179.534668 L167.552304,178.541121 C162.666927,169.438082 155.979787,156.971304 162.424899,143.283627 C167.570232,132.363561 180.254285,124.810813 193.976369,124.486791 C208.885285,124.128756 224.617096,123.269472 238.643956,117.050405 C254.673371,109.952361 278.166209,106.441829 294.534464,114.597865 C303.312008,118.973053 308.894784,126.106899 311.135783,135.800696 C316.818955,160.299239 303.392684,175.068182 284.80853,195.503028 C280.059405,200.730339 275.147136,206.125926 270.064551,212.20536 C266.907432,215.971888 263.924214,219.625635 261.037808,223.141538 C246.263351,241.170389 234.602987,255.41123 221.927898,260.439832 C207.558614,266.15228 196.452224,263.475968 188.931432,252.484294 Z M222.125106,260.942871 C234.923898,255.858774 246.632668,241.571388 261.448359,223.483462 C264.343729,219.965768 267.328739,216.322762 270.475102,212.543703 C275.557687,206.4768 280.462785,201.079423 285.202945,195.870014 C300.936549,178.559023 313.000294,165.293827 313.000294,146.756567 C313.000294,143.274676 312.571815,139.604818 311.666451,135.684335 C309.380632,125.820472 303.69746,118.570263 294.776492,114.121679 C278.246885,105.886874 254.564011,109.413519 238.42882,116.565267 C223.326281,123.253361 205.658247,123.672262 193.969197,123.949739 C180.039149,124.27197 167.166853,131.95182 161.940844,143.059856 C155.379199,156.978465 162.424899,170.109398 167.077213,178.791746 L167.606088,179.785293 C168.905868,182.219931 170.564207,184.663519 172.312186,187.259273 C177.143779,194.402071 183.149656,203.29745 184.987275,217.314519 C185.20241,218.889873 185.166554,222.212437 185.11277,226.410397 C185.076915,230.053403 185.032095,234.186917 185.130698,238.349074 C185.283086,244.632587 186.50219,249.906443 188.483233,252.788624 C196.17434,264.01123 207.486902,266.760939 222.125106,260.942871 Z" id="Stroke-35" stroke="#FEFEFE"></path>
                            <path d="M196.183125,238.662891 C193.915234,236.998029 192.230003,232.998778 191.450136,227.38479 C190.768872,222.533416 190.553736,217.324007 190.419276,213.87792 C190.3386,211.847862 190.275852,210.378128 190.15932,209.735456 C188.518909,200.551858 185.874531,193.577337 183.552856,187.429877 C181.894517,183.052899 180.460278,179.264889 179.761086,175.612932 C178.111711,166.957437 176.229272,157.149069 182.326582,147.551941 C187.246022,139.811225 196.667181,134.216929 207.540507,132.58787 C209.548441,132.28354 211.637052,131.997112 213.788411,131.701733 C222.833082,130.43966 233.078928,129.025422 242.482159,126.000026 C253.534765,122.446529 265.824402,121.837869 276.195744,124.317262 C284.487439,126.304356 295.235269,131.173631 299.278031,143.123049 C306.476119,164.372424 290.780164,179.517304 266.02161,200.202774 C256.35663,208.267512 248.40736,216.081625 242.007067,222.356188 C236.350786,227.912891 231.456445,232.721301 227.216475,235.925714 C216.181798,244.248237 205.165048,245.223882 196.183125,238.662891 M227.512287,236.310602 C231.777356,233.097238 236.682454,228.279877 242.356663,222.714223 C248.737235,216.43966 256.690091,208.634498 266.335349,200.578711 C280.139902,189.049985 289.846115,180.134914 295.64582,171.309352 C299.600735,165.285414 301.553093,159.41185 301.553093,153.353898 C301.553093,149.970468 300.952505,146.524381 299.744159,142.961933 C295.629685,130.806646 284.729467,125.856812 276.301519,123.832124 C265.849501,121.336621 253.472017,121.954231 242.338735,125.534581 C232.97136,128.542074 222.741649,129.956313 213.725663,131.209435 C211.574304,131.504814 209.476729,131.800193 207.459831,132.104522 C196.452045,133.751483 186.896426,139.424547 181.912445,147.285205 C178.658515,152.403315 177.636619,157.559019 177.636619,162.562558 C177.636619,167.120343 178.479235,171.542075 179.27703,175.713182 C179.985186,179.400942 181.419425,183.205064 183.086728,187.607104 C185.408403,193.738453 188.043818,200.684331 189.675265,209.816013 C189.782833,210.431834 189.845581,211.964223 189.926256,213.897612 C190.060716,217.35265 190.275852,222.57996 190.957116,227.447446 C191.530812,231.512933 192.848519,236.829752 195.896277,239.05852 C205.05748,245.762725 216.289366,244.785289 227.512287,236.310602" id="Fill-37" fill="#B1834B" fill-rule="nonzero"></path>
                            <path d="M196.183125,238.662891 C193.915234,236.998029 192.230003,232.998778 191.450136,227.38479 C190.768872,222.533416 190.553736,217.324007 190.419276,213.87792 C190.3386,211.847862 190.275852,210.378128 190.15932,209.735456 C188.518909,200.551858 185.874531,193.577337 183.552856,187.429877 C181.894517,183.052899 180.460278,179.264889 179.761086,175.612932 C178.111711,166.957437 176.229272,157.149069 182.326582,147.551941 C187.246022,139.811225 196.667181,134.216929 207.540507,132.58787 C209.548441,132.28354 211.637052,131.997112 213.788411,131.701733 C222.833082,130.43966 233.078928,129.025422 242.482159,126.000026 C253.534765,122.446529 265.824402,121.837869 276.195744,124.317262 C284.487439,126.304356 295.235269,131.173631 299.278031,143.123049 C306.476119,164.372424 290.780164,179.517304 266.02161,200.202774 C256.35663,208.267512 248.40736,216.081625 242.007067,222.356188 C236.350786,227.912891 231.456445,232.721301 227.216475,235.925714 C216.181798,244.248237 205.165048,245.223882 196.183125,238.662891 Z M227.512287,236.310602 C231.777356,233.097238 236.682454,228.279877 242.356663,222.714223 C248.737235,216.43966 256.690091,208.634498 266.335349,200.578711 C280.139902,189.049985 289.846115,180.134914 295.64582,171.309352 C299.600735,165.285414 301.553093,159.41185 301.553093,153.353898 C301.553093,149.970468 300.952505,146.524381 299.744159,142.961933 C295.629685,130.806646 284.729467,125.856812 276.301519,123.832124 C265.849501,121.336621 253.472017,121.954231 242.338735,125.534581 C232.97136,128.542074 222.741649,129.956313 213.725663,131.209435 C211.574304,131.504814 209.476729,131.800193 207.459831,132.104522 C196.452045,133.751483 186.896426,139.424547 181.912445,147.285205 C178.658515,152.403315 177.636619,157.559019 177.636619,162.562558 C177.636619,167.120343 178.479235,171.542075 179.27703,175.713182 C179.985186,179.400942 181.419425,183.205064 183.086728,187.607104 C185.408403,193.738453 188.043818,200.684331 189.675265,209.816013 C189.782833,210.431834 189.845581,211.964223 189.926256,213.897612 C190.060716,217.35265 190.275852,222.57996 190.957116,227.447446 C191.530812,231.512933 192.848519,236.829752 195.896277,239.05852 C205.05748,245.762725 216.289366,244.785289 227.512287,236.310602 Z" id="Stroke-39" stroke="#FEFEFE"></path>
                            <path d="M203.426033,224.860643 C200.181067,224.10877 198.19106,220.037912 196.954029,215.544573 C195.708033,211.049444 195.223978,206.137204 194.98195,203.702566 C194.883346,202.744823 194.838526,202.342033 194.793706,202.198819 C192.077615,194.042783 190.715088,186.515097 190.715088,179.741076 C190.715088,176.930501 190.948152,174.252399 191.41428,171.712141 C192.839555,163.951733 196.469973,157.26543 202.20693,151.832249 C211.484664,143.051442 226.320076,137.367636 246.309785,134.94911 C262.462904,132.990659 280.525353,139.802274 287.425837,150.460975 C290.222603,154.777087 290.986336,159.5121 289.641736,164.139702 C287.156917,172.694947 277.594127,181.021051 261.987812,188.199652 C246.9283,195.13658 237.003365,202.950693 232.505233,211.436122 C225.934624,223.813391 213.169895,227.098362 203.426033,224.860643 M209.270558,225.961601 C217.954876,225.961601 227.494359,221.837038 232.897855,211.649153 C237.354754,203.246072 247.206184,195.494614 262.176056,188.602441 C277.907867,181.370135 287.553125,172.947362 290.070215,164.263224 C290.518415,162.743365 290.733551,161.202025 290.733551,159.673215 C290.733551,156.431209 289.747511,153.226796 287.802325,150.221092 C280.821165,139.424547 262.568679,132.525213 246.256001,134.501567 C226.167688,136.937994 211.2516,142.657603 201.902154,151.508228 C196.093485,157.005855 192.418247,163.772716 190.975044,171.631583 C189.361525,180.40344 190.499952,190.732749 194.363434,202.342033 C194.39929,202.440493 194.462038,203.047362 194.53375,203.74553 C195.02677,208.688203 196.523757,223.732833 203.327429,225.299236 C205.218832,225.728878 207.217803,225.961601 209.270558,225.961601" id="Fill-41" fill="#B1834B" fill-rule="nonzero"></path>
                            <path d="M203.426033,224.860643 C200.181067,224.10877 198.19106,220.037912 196.954029,215.544573 C195.708033,211.049444 195.223978,206.137204 194.98195,203.702566 C194.883346,202.744823 194.838526,202.342033 194.793706,202.198819 C192.077615,194.042783 190.715088,186.515097 190.715088,179.741076 C190.715088,176.930501 190.948152,174.252399 191.41428,171.712141 C192.839555,163.951733 196.469973,157.26543 202.20693,151.832249 C211.484664,143.051442 226.320076,137.367636 246.309785,134.94911 C262.462904,132.990659 280.525353,139.802274 287.425837,150.460975 C290.222603,154.777087 290.986336,159.5121 289.641736,164.139702 C287.156917,172.694947 277.594127,181.021051 261.987812,188.199652 C246.9283,195.13658 237.003365,202.950693 232.505233,211.436122 C225.934624,223.813391 213.169895,227.098362 203.426033,224.860643 Z M209.270558,225.961601 C217.954876,225.961601 227.494359,221.837038 232.897855,211.649153 C237.354754,203.246072 247.206184,195.494614 262.176056,188.602441 C277.907867,181.370135 287.553125,172.947362 290.070215,164.263224 C290.518415,162.743365 290.733551,161.202025 290.733551,159.673215 C290.733551,156.431209 289.747511,153.226796 287.802325,150.221092 C280.821165,139.424547 262.568679,132.525213 246.256001,134.501567 C226.167688,136.937994 211.2516,142.657603 201.902154,151.508228 C196.093485,157.005855 192.418247,163.772716 190.975044,171.631583 C189.361525,180.40344 190.499952,190.732749 194.363434,202.342033 C194.39929,202.440493 194.462038,203.047362 194.53375,203.74553 C195.02677,208.688203 196.523757,223.732833 203.327429,225.299236 C205.218832,225.728878 207.217803,225.961601 209.270558,225.961601 Z" id="Stroke-43" stroke="#FEFEFE"></path>
                        </g>
                    </g>
                </g>
            </g>
        </g>
    </g>
</svg>